<svg width="70" height="70" viewBox="0 0 70 70" fill="none" xmlns="http://www.w3.org/2000/svg">
<g id="Group">
<path id="Vector" d="M68.5417 70H59.7917C59.4049 70 59.034 69.8464 58.7605 69.5729C58.487 69.2994 58.3333 68.9284 58.3333 68.5417V59.7917C58.3333 59.4049 58.487 59.034 58.7605 58.7605C59.034 58.487 59.4049 58.3333 59.7917 58.3333H68.5417C68.9284 58.3333 69.2994 58.487 69.5729 58.7605C69.8464 59.034 70 59.4049 70 59.7917V68.5417C70 68.9284 69.8464 69.2994 69.5729 69.5729C69.2994 69.8464 68.9284 70 68.5417 70ZM61.25 67.0833H67.0833V61.25H61.25V67.0833ZM10.2083 70H1.45833C1.07156 70 0.700627 69.8464 0.427136 69.5729C0.153645 69.2994 0 68.9284 0 68.5417V59.7917C0 59.4049 0.153645 59.034 0.427136 58.7605C0.700627 58.487 1.07156 58.3333 1.45833 58.3333H10.2083C10.5951 58.3333 10.966 58.487 11.2395 58.7605C11.513 59.034 11.6667 59.4049 11.6667 59.7917V68.5417C11.6667 68.9284 11.513 69.2994 11.2395 69.5729C10.966 69.8464 10.5951 70 10.2083 70ZM2.91667 67.0833H8.75V61.25H2.91667V67.0833ZM68.5417 11.6667H59.7917C59.4049 11.6667 59.034 11.513 58.7605 11.2395C58.487 10.966 58.3333 10.5951 58.3333 10.2083V1.45833C58.3333 1.07156 58.487 0.700627 58.7605 0.427136C59.034 0.153645 59.4049 0 59.7917 0L68.5417 0C68.9284 0 69.2994 0.153645 69.5729 0.427136C69.8464 0.700627 70 1.07156 70 1.45833V10.2083C70 10.5951 69.8464 10.966 69.5729 11.2395C69.2994 11.513 68.9284 11.6667 68.5417 11.6667ZM61.25 8.75H67.0833V2.91667H61.25V8.75ZM10.2083 11.6667H1.45833C1.07156 11.6667 0.700627 11.513 0.427136 11.2395C0.153645 10.966 0 10.5951 0 10.2083V1.45833C0 1.07156 0.153645 0.700627 0.427136 0.427136C0.700627 0.153645 1.07156 0 1.45833 0L10.2083 0C10.5951 0 10.966 0.153645 11.2395 0.427136C11.513 0.700627 11.6667 1.07156 11.6667 1.45833V10.2083C11.6667 10.5951 11.513 10.966 11.2395 11.2395C10.966 11.513 10.5951 11.6667 10.2083 11.6667ZM2.91667 8.75H8.75V2.91667H2.91667V8.75Z" fill="#373737"/>
<path id="Vector_2" d="M5.83333 61.25C5.44656 61.25 5.07563 61.0964 4.80214 60.8229C4.52865 60.5494 4.375 60.1784 4.375 59.7917V53.9583C4.375 53.5716 4.52865 53.2006 4.80214 52.9271C5.07563 52.6536 5.44656 52.5 5.83333 52.5C6.22011 52.5 6.59104 52.6536 6.86453 52.9271C7.13802 53.2006 7.29167 53.5716 7.29167 53.9583V59.7917C7.29167 60.1784 7.13802 60.5494 6.86453 60.8229C6.59104 61.0964 6.22011 61.25 5.83333 61.25ZM5.83333 46.6667C5.44656 46.6667 5.07563 46.513 4.80214 46.2395C4.52865 45.966 4.375 45.5951 4.375 45.2083V39.375C4.375 38.9882 4.52865 38.6173 4.80214 38.3438C5.07563 38.0703 5.44656 37.9167 5.83333 37.9167C6.22011 37.9167 6.59104 38.0703 6.86453 38.3438C7.13802 38.6173 7.29167 38.9882 7.29167 39.375V45.2083C7.29167 45.5951 7.13802 45.966 6.86453 46.2395C6.59104 46.513 6.22011 46.6667 5.83333 46.6667ZM5.83333 32.0833C5.44656 32.0833 5.07563 31.9297 4.80214 31.6562C4.52865 31.3827 4.375 31.0118 4.375 30.625V24.7917C4.375 24.4049 4.52865 24.034 4.80214 23.7605C5.07563 23.487 5.44656 23.3333 5.83333 23.3333C6.22011 23.3333 6.59104 23.487 6.86453 23.7605C7.13802 24.034 7.29167 24.4049 7.29167 24.7917V30.625C7.29167 31.0118 7.13802 31.3827 6.86453 31.6562C6.59104 31.9297 6.22011 32.0833 5.83333 32.0833ZM5.83333 17.5C5.44656 17.5 5.07563 17.3464 4.80214 17.0729C4.52865 16.7994 4.375 16.4284 4.375 16.0417V10.2083C4.375 9.82156 4.52865 9.45063 4.80214 9.17714C5.07563 8.90365 5.44656 8.75 5.83333 8.75C6.22011 8.75 6.59104 8.90365 6.86453 9.17714C7.13802 9.45063 7.29167 9.82156 7.29167 10.2083V16.0417C7.29167 16.4284 7.13802 16.7994 6.86453 17.0729C6.59104 17.3464 6.22011 17.5 5.83333 17.5ZM64.1667 61.25C63.7799 61.25 63.409 61.0964 63.1355 60.8229C62.862 60.5494 62.7083 60.1784 62.7083 59.7917V53.9583C62.7083 53.5716 62.862 53.2006 63.1355 52.9271C63.409 52.6536 63.7799 52.5 64.1667 52.5C64.5534 52.5 64.9244 52.6536 65.1979 52.9271C65.4714 53.2006 65.625 53.5716 65.625 53.9583V59.7917C65.625 60.1784 65.4714 60.5494 65.1979 60.8229C64.9244 61.0964 64.5534 61.25 64.1667 61.25ZM64.1667 46.6667C63.7799 46.6667 63.409 46.513 63.1355 46.2395C62.862 45.966 62.7083 45.5951 62.7083 45.2083V39.375C62.7083 38.9882 62.862 38.6173 63.1355 38.3438C63.409 38.0703 63.7799 37.9167 64.1667 37.9167C64.5534 37.9167 64.9244 38.0703 65.1979 38.3438C65.4714 38.6173 65.625 38.9882 65.625 39.375V45.2083C65.625 45.5951 65.4714 45.966 65.1979 46.2395C64.9244 46.513 64.5534 46.6667 64.1667 46.6667ZM64.1667 32.0833C63.7799 32.0833 63.409 31.9297 63.1355 31.6562C62.862 31.3827 62.7083 31.0118 62.7083 30.625V24.7917C62.7083 24.4049 62.862 24.034 63.1355 23.7605C63.409 23.487 63.7799 23.3333 64.1667 23.3333C64.5534 23.3333 64.9244 23.487 65.1979 23.7605C65.4714 24.034 65.625 24.4049 65.625 24.7917V30.625C65.625 31.0118 65.4714 31.3827 65.1979 31.6562C64.9244 31.9297 64.5534 32.0833 64.1667 32.0833ZM64.1667 17.5C63.7799 17.5 63.409 17.3464 63.1355 17.0729C62.862 16.7994 62.7083 16.4284 62.7083 16.0417V10.2083C62.7083 9.82156 62.862 9.45063 63.1355 9.17714C63.409 8.90365 63.7799 8.75 64.1667 8.75C64.5534 8.75 64.9244 8.90365 65.1979 9.17714C65.4714 9.45063 65.625 9.82156 65.625 10.2083V16.0417C65.625 16.4284 65.4714 16.7994 65.1979 17.0729C64.9244 17.3464 64.5534 17.5 64.1667 17.5ZM59.7917 65.625H53.9583C53.5716 65.625 53.2006 65.4714 52.9271 65.1979C52.6536 64.9244 52.5 64.5534 52.5 64.1667C52.5 63.7799 52.6536 63.409 52.9271 63.1355C53.2006 62.862 53.5716 62.7083 53.9583 62.7083H59.7917C60.1784 62.7083 60.5494 62.862 60.8229 63.1355C61.0964 63.409 61.25 63.7799 61.25 64.1667C61.25 64.5534 61.0964 64.9244 60.8229 65.1979C60.5494 65.4714 60.1784 65.625 59.7917 65.625ZM45.2083 65.625H39.375C38.9882 65.625 38.6173 65.4714 38.3438 65.1979C38.0703 64.9244 37.9167 64.5534 37.9167 64.1667C37.9167 63.7799 38.0703 63.409 38.3438 63.1355C38.6173 62.862 38.9882 62.7083 39.375 62.7083H45.2083C45.5951 62.7083 45.966 62.862 46.2395 63.1355C46.513 63.409 46.6667 63.7799 46.6667 64.1667C46.6667 64.5534 46.513 64.9244 46.2395 65.1979C45.966 65.4714 45.5951 65.625 45.2083 65.625ZM30.625 65.625H24.7917C24.4049 65.625 24.034 65.4714 23.7605 65.1979C23.487 64.9244 23.3333 64.5534 23.3333 64.1667C23.3333 63.7799 23.487 63.409 23.7605 63.1355C24.034 62.862 24.4049 62.7083 24.7917 62.7083H30.625C31.0118 62.7083 31.3827 62.862 31.6562 63.1355C31.9297 63.409 32.0833 63.7799 32.0833 64.1667C32.0833 64.5534 31.9297 64.9244 31.6562 65.1979C31.3827 65.4714 31.0118 65.625 30.625 65.625ZM16.0417 65.625H10.2083C9.82156 65.625 9.45063 65.4714 9.17714 65.1979C8.90365 64.9244 8.75 64.5534 8.75 64.1667C8.75 63.7799 8.90365 63.409 9.17714 63.1355C9.45063 62.862 9.82156 62.7083 10.2083 62.7083H16.0417C16.4284 62.7083 16.7994 62.862 17.0729 63.1355C17.3464 63.409 17.5 63.7799 17.5 64.1667C17.5 64.5534 17.3464 64.9244 17.0729 65.1979C16.7994 65.4714 16.4284 65.625 16.0417 65.625ZM59.7917 7.29167H53.9583C53.5716 7.29167 53.2006 7.13802 52.9271 6.86453C52.6536 6.59104 52.5 6.22011 52.5 5.83333C52.5 5.44656 52.6536 5.07563 52.9271 4.80214C53.2006 4.52865 53.5716 4.375 53.9583 4.375H59.7917C60.1784 4.375 60.5494 4.52865 60.8229 4.80214C61.0964 5.07563 61.25 5.44656 61.25 5.83333C61.25 6.22011 61.0964 6.59104 60.8229 6.86453C60.5494 7.13802 60.1784 7.29167 59.7917 7.29167ZM45.2083 7.29167H39.375C38.9882 7.29167 38.6173 7.13802 38.3438 6.86453C38.0703 6.59104 37.9167 6.22011 37.9167 5.83333C37.9167 5.44656 38.0703 5.07563 38.3438 4.80214C38.6173 4.52865 38.9882 4.375 39.375 4.375H45.2083C45.5951 4.375 45.966 4.52865 46.2395 4.80214C46.513 5.07563 46.6667 5.44656 46.6667 5.83333C46.6667 6.22011 46.513 6.59104 46.2395 6.86453C45.966 7.13802 45.5951 7.29167 45.2083 7.29167ZM30.625 7.29167H24.7917C24.4049 7.29167 24.034 7.13802 23.7605 6.86453C23.487 6.59104 23.3333 6.22011 23.3333 5.83333C23.3333 5.44656 23.487 5.07563 23.7605 4.80214C24.034 4.52865 24.4049 4.375 24.7917 4.375H30.625C31.0118 4.375 31.3827 4.52865 31.6562 4.80214C31.9297 5.07563 32.0833 5.44656 32.0833 5.83333C32.0833 6.22011 31.9297 6.59104 31.6562 6.86453C31.3827 7.13802 31.0118 7.29167 30.625 7.29167ZM16.0417 7.29167H10.2083C9.82156 7.29167 9.45063 7.13802 9.17714 6.86453C8.90365 6.59104 8.75 6.22011 8.75 5.83333C8.75 5.44656 8.90365 5.07563 9.17714 4.80214C9.45063 4.52865 9.82156 4.375 10.2083 4.375H16.0417C16.4284 4.375 16.7994 4.52865 17.0729 4.80214C17.3464 5.07563 17.5 5.44656 17.5 5.83333C17.5 6.22011 17.3464 6.59104 17.0729 6.86453C16.7994 7.13802 16.4284 7.29167 16.0417 7.29167ZM35 32.0833C34.8206 32.0834 34.6427 32.0507 34.475 31.9871L15.5167 24.6954C15.2409 24.5899 15.0037 24.4033 14.8363 24.16C14.669 23.9168 14.5794 23.6286 14.5794 23.3333C14.5794 23.0381 14.669 22.7498 14.8363 22.5066C15.0037 22.2634 15.2409 22.0767 15.5167 21.9713L34.475 14.6796C34.8122 14.5513 35.1848 14.5513 35.5221 14.6796L54.4804 21.9713C54.7563 22.0764 54.9937 22.2629 55.1613 22.5059C55.329 22.7489 55.4189 23.0371 55.4192 23.3323C55.4195 23.6276 55.3302 23.9159 55.1631 24.1593C54.996 24.4027 54.759 24.5896 54.4833 24.6954L35.525 31.9871C35.3573 32.0507 35.1794 32.0834 35 32.0833ZM20.1046 23.3333L35 29.0617L49.8954 23.3333L35 17.605L20.1046 23.3333Z" fill="#373737"/>
<path id="Vector_3" d="M34.9997 55.4167C34.8203 55.4167 34.6424 55.3841 34.4747 55.3204L15.5163 48.0287C15.2413 47.9226 15.005 47.7357 14.8383 47.4925C14.6717 47.2494 14.5827 46.9614 14.583 46.6667V23.3333C14.583 22.9466 14.7367 22.5756 15.0101 22.3021C15.2836 22.0286 15.6546 21.875 16.0413 21.875C16.4281 21.875 16.799 22.0286 17.0725 22.3021C17.346 22.5756 17.4997 22.9466 17.4997 23.3333V45.6663L34.9997 52.3979L52.4997 45.6663V23.3333C52.4997 22.9466 52.6533 22.5756 52.9268 22.3021C53.2003 22.0286 53.5712 21.875 53.958 21.875C54.3448 21.875 54.7157 22.0286 54.9892 22.3021C55.2627 22.5756 55.4163 22.9466 55.4163 23.3333V46.6667C55.4167 46.9614 55.3276 47.2494 55.161 47.4925C54.9944 47.7357 54.758 47.9226 54.483 48.0287L35.5247 55.3204C35.357 55.3841 35.1791 55.4167 34.9997 55.4167Z" fill="#373737"/>
<path id="Vector_4" d="M35.0003 55.417C34.6136 55.417 34.2426 55.2633 33.9691 54.9899C33.6956 54.7164 33.542 54.3454 33.542 53.9587V30.6253C33.542 30.2386 33.6956 29.8676 33.9691 29.5941C34.2426 29.3206 34.6136 29.167 35.0003 29.167C35.3871 29.167 35.758 29.3206 36.0315 29.5941C36.305 29.8676 36.4587 30.2386 36.4587 30.6253V53.9587C36.4587 54.3454 36.305 54.7164 36.0315 54.9899C35.758 55.2633 35.3871 55.417 35.0003 55.417Z" fill="#373737"/>
</g>
</svg>
