<svg width="72" height="59" viewBox="0 0 72 59" fill="none" xmlns="http://www.w3.org/2000/svg">
<g id="Group">
<path id="Vector" d="M15.2982 18.2393C17.2065 14.5001 20.0731 11.3265 23.5905 9.02874C26.4251 7.16508 29.3275 11.4618 26.4251 13.3652C21.263 16.7341 17.8575 22.5399 17.8575 29.1421C17.8575 33.1998 19.1471 36.9629 21.3348 40.041C23.3669 42.8363 19.0751 45.7353 17.1268 43.0196C14.2523 38.9897 12.6953 34.1794 12.6953 29.1301C12.6953 26.8245 13.0186 24.5945 13.6255 22.488M52.9185 48.0012H61.6379V46.1814C61.6379 44.1545 64.0932 43.1191 65.5504 44.5328L70.3054 49.148C71.2315 50.0439 71.2315 51.5412 70.3054 52.4332L65.5504 57.0524C64.0932 58.466 61.6379 57.4307 61.6379 55.3998V53.15H56.5117M51.5531 53.15H38.0788M16.6836 52.4212L11.9286 57.0364C10.4834 58.4381 8.01611 57.4307 8.01611 55.3879V53.1341H3.37301C0.214985 53.1341 0.203013 48.3914 3.37301 48.3914H8.01611V46.1535C8.01611 44.1266 10.4674 43.0912 11.9286 44.5049L16.6836 49.1201C17.6099 50.028 17.6099 51.5134 16.6836 52.4212ZM42.1071 21.7832C41.2686 21.2875 40.3639 20.9134 39.4202 20.6723V19.5772C39.4202 19.0555 38.993 18.6294 38.47 18.6294H35.2881C34.7651 18.6294 34.3379 19.0555 34.3379 19.5772V20.6723C33.3942 20.9135 32.4895 21.2875 31.651 21.7832L30.8765 21.0107C30.6978 20.8328 30.4559 20.733 30.2038 20.733C29.9516 20.733 29.7097 20.8328 29.531 21.0107L27.2833 23.2527C26.912 23.619 26.912 24.2244 27.2833 24.5907L28.0578 25.3672C27.5667 26.1914 27.1914 27.0914 26.9438 28.0472H25.8499C25.3269 28.0472 24.8998 28.4732 24.8998 28.9949V32.1646C24.8998 32.6863 25.3269 33.1124 25.8499 33.1124H26.9438C27.1913 34.068 27.5667 34.968 28.0578 35.7924L27.2833 36.5689C26.912 36.9352 26.912 37.5405 27.2833 37.9069L29.531 40.1487C29.7097 40.3266 29.9516 40.4264 30.2038 40.4264C30.4559 40.4264 30.6978 40.3266 30.8765 40.1487L31.651 39.3762C32.4895 39.8719 33.3942 40.2459 34.3379 40.4872V41.5822C34.3379 42.1039 34.7651 42.53 35.2881 42.53H38.47C38.993 42.53 39.4202 42.1039 39.4202 41.5822V40.4872C40.3639 40.2459 41.2686 39.8719 42.1071 39.3762L42.8816 40.1487C43.0603 40.3266 43.3022 40.4264 43.5543 40.4264C43.8065 40.4264 44.0483 40.3266 44.2271 40.1487L46.4748 37.9069C46.8461 37.5405 46.8461 36.9352 46.4748 36.5689L45.6964 35.7924C46.1914 34.9682 46.5666 34.0682 46.8103 33.1124H47.9082C48.4311 33.1124 48.8583 32.6863 48.8583 32.1646V28.9949C48.8583 28.4732 48.4311 28.0472 47.9082 28.0472H46.8103C46.5668 27.0915 46.1914 26.1915 45.6964 25.3672L46.4748 24.5907C46.8461 24.2244 46.8461 23.6192 46.4748 23.2527L44.2271 21.0107C44.0483 20.8328 43.8065 20.733 43.5543 20.733C43.3022 20.733 43.0603 20.8328 42.8816 21.0107L42.1071 21.7832Z" stroke="#373737" stroke-width="2" stroke-miterlimit="10" stroke-linecap="round" stroke-linejoin="round"/>
<path id="Vector_2" d="M36.8774 36.2873C33.7193 36.2873 31.1562 33.7308 31.1562 30.581C31.1562 27.4311 33.7193 24.8747 36.8774 24.8747C40.0393 24.8747 42.5985 27.4311 42.5985 30.581C42.5985 33.7308 40.0393 36.2873 36.8774 36.2873ZM65.0237 16.5682C65.0237 12.4348 61.6621 9.08594 57.5181 9.08594C53.374 9.08594 50.0164 12.4348 50.0164 16.5682C50.0164 20.7016 53.374 24.0504 57.5181 24.0504C61.6621 24.0504 65.0237 20.7016 65.0237 16.5682Z" stroke="#373737" stroke-width="2" stroke-miterlimit="10" stroke-linecap="round" stroke-linejoin="round"/>
<path id="Vector_3" d="M55.0561 17.4402L56.5172 18.6308L60.5336 14.8519M50.2651 14.6647C47.5582 12.4268 44.2206 10.9175 40.5596 10.4398V12.4706C40.5596 14.5971 38.0923 15.5608 36.663 14.175L31.9081 9.55979C30.9659 8.6519 30.9819 7.16655 31.9081 6.27064L36.663 1.65543C38.0923 0.241768 40.5477 1.26515 40.5477 3.29205V5.65726C44.9472 6.10331 49.0834 7.75585 52.5808 10.4237C52.6846 10.5033 52.7923 10.5909 52.8961 10.6706M56.4134 23.9708C56.9448 25.7728 57.2084 27.6431 57.196 29.5217C57.0961 40.0146 48.4008 48.4086 37.8808 48.4086H25.5244C22.3825 48.4086 22.3825 53.1513 25.5244 53.1513H38.0766C43.5342 53.1513 48.7082 51.3314 52.9163 47.9865C53.6189 47.4291 54.3055 46.8278 54.9523 46.1707C59.356 41.7785 61.8231 35.9846 61.935 29.7885C61.9789 27.5347 61.7034 25.2927 61.1165 23.1385" stroke="#373737" stroke-width="2" stroke-miterlimit="10" stroke-linecap="round" stroke-linejoin="round"/>
</g>
</svg>
