<svg width="72" height="59" viewBox="0 0 72 59" fill="none" xmlns="http://www.w3.org/2000/svg">
<g id="Group">
<path id="Vector" d="M15.2982 18.2403C17.2065 14.5011 20.0731 11.3275 23.5905 9.02971C26.4251 7.16605 29.3275 11.4628 26.4251 13.3662C21.263 16.7351 17.8575 22.5408 17.8575 29.1431C17.8575 33.2008 19.1471 36.9639 21.3348 40.0419C23.3669 42.8373 19.0751 45.7363 17.1268 43.0205C14.2523 38.9907 12.6953 34.1804 12.6953 29.1311C12.6953 26.8255 13.0186 24.5955 13.6255 22.489M52.9185 48.0022H61.6379V46.1824C61.6379 44.1555 64.0932 43.1201 65.5504 44.5338L70.3054 49.149C71.2315 50.0449 71.2315 51.5422 70.3054 52.4342L65.5504 57.0533C64.0932 58.467 61.6379 57.4316 61.6379 55.4008V53.1509H56.5117M51.5531 53.1509H38.0788M16.6836 52.4222L11.9286 57.0374C10.4834 58.4391 8.01611 57.4316 8.01611 55.3888V53.135H3.37301C0.214985 53.135 0.203013 48.3924 3.37301 48.3924H8.01611V46.1545C8.01611 44.1276 10.4674 43.0922 11.9286 44.5059L16.6836 49.1211C17.6099 50.029 17.6099 51.5143 16.6836 52.4222ZM42.1071 21.7842C41.2686 21.2885 40.3639 20.9144 39.4202 20.6732V19.5782C39.4202 19.0565 38.993 18.6304 38.47 18.6304H35.2881C34.7651 18.6304 34.3379 19.0565 34.3379 19.5782V20.6732C33.3942 20.9145 32.4895 21.2885 31.651 21.7842L30.8765 21.0117C30.6978 20.8338 30.4559 20.7339 30.2038 20.7339C29.9516 20.7339 29.7097 20.8338 29.531 21.0117L27.2833 23.2536C26.912 23.62 26.912 24.2253 27.2833 24.5917L28.0578 25.3682C27.5667 26.1924 27.1914 27.0924 26.9438 28.0482H25.8499C25.3269 28.0482 24.8998 28.4742 24.8998 28.9959V32.1656C24.8998 32.6873 25.3269 33.1134 25.8499 33.1134H26.9438C27.1913 34.069 27.5667 34.969 28.0578 35.7934L27.2833 36.5698C26.912 36.9362 26.912 37.5415 27.2833 37.9079L29.531 40.1497C29.7097 40.3276 29.9516 40.4274 30.2038 40.4274C30.4559 40.4274 30.6978 40.3276 30.8765 40.1497L31.651 39.3772C32.4895 39.8728 33.3942 40.2469 34.3379 40.4881V41.5832C34.3379 42.1049 34.7651 42.531 35.2881 42.531H38.47C38.993 42.531 39.4202 42.1049 39.4202 41.5832V40.4881C40.3639 40.2469 41.2686 39.8728 42.1071 39.3772L42.8816 40.1497C43.0603 40.3276 43.3022 40.4274 43.5543 40.4274C43.8065 40.4274 44.0483 40.3276 44.2271 40.1497L46.4748 37.9079C46.8461 37.5415 46.8461 36.9362 46.4748 36.5698L45.6964 35.7934C46.1914 34.9691 46.5666 34.0691 46.8103 33.1134H47.9082C48.4311 33.1134 48.8583 32.6873 48.8583 32.1656V28.9959C48.8583 28.4742 48.4311 28.0482 47.9082 28.0482H46.8103C46.5668 27.0925 46.1914 26.1925 45.6964 25.3682L46.4748 24.5917C46.8461 24.2253 46.8461 23.6201 46.4748 23.2536L44.2271 21.0117C44.0483 20.8338 43.8065 20.7339 43.5543 20.7339C43.3022 20.7339 43.0603 20.8338 42.8816 21.0117L42.1071 21.7842Z" stroke="#373737" stroke-width="2" stroke-miterlimit="10" stroke-linecap="round" stroke-linejoin="round"/>
<path id="Vector_2" d="M36.8774 36.2873C33.7193 36.2873 31.1562 33.7308 31.1562 30.581C31.1562 27.4311 33.7193 24.8747 36.8774 24.8747C40.0393 24.8747 42.5985 27.4311 42.5985 30.581C42.5985 33.7308 40.0393 36.2873 36.8774 36.2873ZM65.0237 16.5682C65.0237 12.4348 61.6621 9.08594 57.5181 9.08594C53.374 9.08594 50.0164 12.4348 50.0164 16.5682C50.0164 20.7016 53.374 24.0504 57.5181 24.0504C61.6621 24.0504 65.0237 20.7016 65.0237 16.5682Z" stroke="#373737" stroke-width="2" stroke-miterlimit="10" stroke-linecap="round" stroke-linejoin="round"/>
<path id="Vector_3" d="M55.059 17.4402L56.5202 18.6308L60.5365 14.8519M50.2681 14.6647C47.5612 12.4268 44.2236 10.9175 40.5626 10.4398V12.4706C40.5626 14.5971 38.0953 15.5608 36.666 14.175L31.911 9.55979C30.9688 8.6519 30.9848 7.16655 31.911 6.27064L36.666 1.65543C38.0953 0.241768 40.5506 1.26515 40.5506 3.29205V5.65726C44.9502 6.10331 49.0864 7.75585 52.5837 10.4237C52.6875 10.5033 52.7952 10.5909 52.899 10.6706M56.4164 23.9708C56.9477 25.7728 57.2114 27.6431 57.1989 29.5217C57.099 40.0146 48.4037 48.4086 37.8837 48.4086H25.5274C22.3854 48.4086 22.3854 53.1513 25.5274 53.1513H38.0795C43.5371 53.1513 48.7112 51.3314 52.9192 47.9865C53.6219 47.4291 54.3085 46.8278 54.9552 46.1707C59.3589 41.7785 61.8261 35.9846 61.9379 29.7885C61.9819 27.5347 61.7064 25.2927 61.1195 23.1385" stroke="#373737" stroke-width="2" stroke-miterlimit="10" stroke-linecap="round" stroke-linejoin="round"/>
</g>
</svg>
