<svg width="68" height="71" viewBox="0 0 68 71" fill="none" xmlns="http://www.w3.org/2000/svg">
<g id="Group">
<path id="Vector" d="M66.5 7.50586C66.8094 7.50586 67.1062 7.38294 67.325 7.16415C67.5437 6.94536 67.6667 6.64861 67.6667 6.33919V1.67253C67.6667 1.36311 67.5437 1.06636 67.325 0.847568C67.1062 0.628776 66.8094 0.505859 66.5 0.505859H61.8333C61.5239 0.505859 61.2272 0.628776 61.0084 0.847568C60.7896 1.06636 60.6667 1.36311 60.6667 1.67253V2.83919H46.6667V1.67253C46.6667 1.36311 46.5438 1.06636 46.325 0.847568C46.1062 0.628776 45.8094 0.505859 45.5 0.505859H40.8333C40.5239 0.505859 40.2272 0.628776 40.0084 0.847568C39.7896 1.06636 39.6667 1.36311 39.6667 1.67253V2.83919H25.6667V1.67253C25.6667 1.36311 25.5438 1.06636 25.325 0.847568C25.1062 0.628776 24.8094 0.505859 24.5 0.505859H19.8333C19.5239 0.505859 19.2272 0.628776 19.0084 0.847568C18.7896 1.06636 18.6667 1.36311 18.6667 1.67253V6.33919C18.6667 6.64861 18.7896 6.94536 19.0084 7.16415C19.2272 7.38294 19.5239 7.50586 19.8333 7.50586H21V26.1725H19.8333C19.5239 26.1725 19.2272 26.2954 19.0084 26.5142C18.7896 26.733 18.6667 27.0298 18.6667 27.3392V32.0059C18.6667 32.3153 18.7896 32.612 19.0084 32.8308C19.2272 33.0496 19.5239 33.1725 19.8333 33.1725H21V35.5059H1.16667C0.857247 35.5059 0.560501 35.6288 0.341709 35.8476C0.122916 36.0664 0 36.3631 0 36.6725V69.3392C0 69.6486 0.122916 69.9454 0.341709 70.1641C0.560501 70.3829 0.857247 70.5059 1.16667 70.5059H31.5C31.8094 70.5059 32.1062 70.3829 32.325 70.1641C32.5438 69.9454 32.6667 69.6486 32.6667 69.3392V56.5059H39.6667V57.6725C39.6667 57.9819 39.7896 58.2787 40.0084 58.4975C40.2272 58.7163 40.5239 58.8392 40.8333 58.8392H45.5C45.8094 58.8392 46.1062 58.7163 46.325 58.4975C46.5438 58.2787 46.6667 57.9819 46.6667 57.6725V56.5059H60.6667V57.6725C60.6667 57.9819 60.7896 58.2787 61.0084 58.4975C61.2272 58.7163 61.5239 58.8392 61.8333 58.8392H66.5C66.8094 58.8392 67.1062 58.7163 67.325 58.4975C67.5437 58.2787 67.6667 57.9819 67.6667 57.6725V53.0059C67.6667 52.6964 67.5437 52.3997 67.325 52.1809C67.1062 51.9621 66.8094 51.8392 66.5 51.8392H65.3333V33.1725H66.5C66.8094 33.1725 67.1062 33.0496 67.325 32.8308C67.5437 32.612 67.6667 32.3153 67.6667 32.0059V27.3392C67.6667 27.0298 67.5437 26.733 67.325 26.5142C67.1062 26.2954 66.8094 26.1725 66.5 26.1725H65.3333V7.50586H66.5ZM63 2.83919H65.3333V5.17253H63V2.83919ZM42 2.83919H44.3333V5.17253H42V2.83919ZM21 2.83919H23.3333V5.17253H21V2.83919ZM21 28.5059H23.3333V30.8392H21V28.5059ZM30.3333 68.1725H2.33333V37.8392H30.3333V68.1725ZM49.825 14.8475L47.1498 12.1725H56V21.0226L53.325 18.3475C53.2166 18.2392 53.088 18.1533 52.9465 18.0946C52.8049 18.036 52.6532 18.0058 52.5 18.0058C52.3468 18.0058 52.1951 18.036 52.0535 18.0946C51.912 18.1533 51.7834 18.2392 51.675 18.3475L32.6667 37.3559V36.6725C32.6667 36.3631 32.5438 36.0664 32.325 35.8476C32.1062 35.6288 31.8094 35.5059 31.5 35.5059H30.8166L49.825 16.4975C49.9333 16.3892 50.0193 16.2606 50.0779 16.119C50.1365 15.9775 50.1667 15.8257 50.1667 15.6725C50.1667 15.5193 50.1365 15.3676 50.0779 15.226C50.0193 15.0845 49.9333 14.9559 49.825 14.8475ZM44.3333 56.5059H42V54.1725H44.3333V56.5059ZM65.3333 56.5059H63V54.1725H65.3333V56.5059ZM65.3333 30.8392H63V28.5059H65.3333V30.8392ZM63 26.1725H61.8333C61.5239 26.1725 61.2272 26.2954 61.0084 26.5142C60.7896 26.733 60.6667 27.0298 60.6667 27.3392V32.0059C60.6667 32.3153 60.7896 32.612 61.0084 32.8308C61.2272 33.0496 61.5239 33.1725 61.8333 33.1725H63V51.8392H61.8333C61.5239 51.8392 61.2272 51.9621 61.0084 52.1809C60.7896 52.3997 60.6667 52.6964 60.6667 53.0059V54.1725H46.6667V53.0059C46.6667 52.6964 46.5438 52.3997 46.325 52.1809C46.1062 51.9621 45.8094 51.8392 45.5 51.8392H40.8333C40.5239 51.8392 40.2272 51.9621 40.0084 52.1809C39.7896 52.3997 39.6667 52.6964 39.6667 53.0059V54.1725H32.6667V40.6558L52.5 20.8225L56.3417 24.6642C56.5048 24.8273 56.7127 24.9385 56.939 24.9835C57.1654 25.0285 57.3999 25.0054 57.6131 24.9171C57.8263 24.8288 58.0085 24.6792 58.1367 24.4874C58.2649 24.2955 58.3333 24.0699 58.3333 23.8392V11.0059C58.3333 10.6964 58.2104 10.3997 57.9916 10.1809C57.7728 9.96211 57.4761 9.83919 57.1667 9.83919H44.3333C44.1026 9.83918 43.877 9.9076 43.6851 10.0358C43.4933 10.164 43.3437 10.3462 43.2554 10.5594C43.1671 10.7726 43.144 11.0072 43.189 11.2335C43.2341 11.4598 43.3452 11.6677 43.5084 11.8308L47.35 15.6725L27.5167 35.5059H23.3333V33.1725H24.5C24.8094 33.1725 25.1062 33.0496 25.325 32.8308C25.5438 32.612 25.6667 32.3153 25.6667 32.0059V27.3392C25.6667 27.0298 25.5438 26.733 25.325 26.5142C25.1062 26.2954 24.8094 26.1725 24.5 26.1725H23.3333V7.50586H24.5C24.8094 7.50586 25.1062 7.38294 25.325 7.16415C25.5438 6.94536 25.6667 6.64861 25.6667 6.33919V5.17253H39.6667V6.33919C39.6667 6.64861 39.7896 6.94536 40.0084 7.16415C40.2272 7.38294 40.5239 7.50586 40.8333 7.50586H45.5C45.8094 7.50586 46.1062 7.38294 46.325 7.16415C46.5438 6.94536 46.6667 6.64861 46.6667 6.33919V5.17253H60.6667V6.33919C60.6667 6.64861 60.7896 6.94536 61.0084 7.16415C61.2272 7.38294 61.5239 7.50586 61.8333 7.50586H63V26.1725Z" fill="#373737"/>
<path id="Vector_2" d="M22.9082 42.9245C22.0489 42.0547 21.0256 41.3637 19.8977 40.8916C18.7697 40.4195 17.5594 40.1755 16.3366 40.1738H16.3306C14.4416 40.1738 12.597 40.747 11.0408 41.8179C9.48466 42.8887 8.29017 44.4067 7.61529 46.171C6.94042 47.9354 6.81697 49.863 7.26126 51.6991C7.70554 53.5351 8.69664 55.193 10.1035 56.4536C10.2272 56.5635 10.3265 56.6982 10.3947 56.849C10.4629 56.9997 10.4986 57.1632 10.4994 57.3286V57.6724C10.4988 58.1944 10.6158 58.7098 10.8416 59.1804C10.733 59.2887 10.6469 59.4173 10.5883 59.5589C10.5297 59.7006 10.4996 59.8524 10.4999 60.0057V62.339C10.501 63.267 10.8701 64.1566 11.5262 64.8127C12.1823 65.4689 13.0719 65.838 13.9999 65.839H18.6665C19.5945 65.838 20.4841 65.4689 21.1402 64.8127C21.7964 64.1566 22.1655 63.267 22.1665 62.339V60.0057C22.1668 59.8524 22.1366 59.7005 22.0779 59.5589C22.0192 59.4173 21.933 59.2886 21.8244 59.1804C22.0502 58.7098 22.1671 58.1944 22.1665 57.6724V57.3281C22.1674 57.1626 22.2031 56.9992 22.2713 56.8484C22.3395 56.6977 22.4386 56.5629 22.5623 56.4531C23.5089 55.6091 24.2724 54.58 24.8058 53.4294C25.3392 52.2788 25.6311 51.0312 25.6635 49.7634C25.696 48.4956 25.4682 47.2346 24.9943 46.0583C24.5204 44.8819 23.8105 43.8152 22.9082 42.924V42.9245ZM19.8332 62.339C19.8329 62.6483 19.7098 62.9449 19.4911 63.1636C19.2724 63.3823 18.9759 63.5054 18.6665 63.5057H13.9999C13.6906 63.5054 13.394 63.3823 13.1753 63.1636C12.9566 62.9449 12.8336 62.6483 12.8332 62.339V61.1724H19.8332V62.339ZM15.1665 49.5057H17.4999L16.3332 51.0613L15.1665 49.5057ZM21.0045 54.7163C20.6371 55.0452 20.3429 55.4476 20.1411 55.8976C19.9393 56.3476 19.8344 56.8349 19.8332 57.3281V57.6724C19.8329 57.9817 19.7098 58.2782 19.4911 58.4969C19.2724 58.7157 18.9759 58.8387 18.6665 58.839H17.4999V53.3945L20.7665 49.039C20.8965 48.8657 20.9757 48.6596 20.9952 48.4438C21.0146 48.228 20.9736 48.0111 20.8767 47.8173C20.7798 47.6235 20.6309 47.4605 20.4466 47.3466C20.2623 47.2327 20.0499 47.1724 19.8332 47.1724H12.8332C12.6165 47.1724 12.4042 47.2327 12.2199 47.3466C12.0356 47.4605 11.8866 47.6235 11.7897 47.8173C11.6928 48.0111 11.6518 48.228 11.6713 48.4438C11.6907 48.6596 11.7699 48.8657 11.8999 49.039L15.1665 53.3945V58.839H13.9999C13.6906 58.8387 13.394 58.7157 13.1753 58.4969C12.9566 58.2782 12.8336 57.9817 12.8332 57.6724V57.3281C12.832 56.8349 12.7271 56.3475 12.5253 55.8976C12.3235 55.4476 12.0292 55.0452 11.6617 54.7163C10.9298 54.0597 10.3443 53.2565 9.9431 52.3587C9.54193 51.461 9.33413 50.489 9.33321 49.5057C9.35256 47.6556 10.0961 45.8868 11.4043 44.5785C12.7125 43.2702 14.4813 42.5266 16.3313 42.5072H16.3358C17.7525 42.5071 19.1359 42.9371 20.3029 43.7402C21.47 44.5433 22.3658 45.6818 22.8718 47.0051C23.3778 48.3283 23.4702 49.774 23.1368 51.1509C22.8034 52.5279 22.0598 53.7711 21.0045 54.7163Z" fill="#373737"/>
</g>
</svg>
