<svg width="51" height="50" viewBox="0 0 51 50" fill="none" xmlns="http://www.w3.org/2000/svg">
<g clip-path="url(#clip0_563_318)">
<path d="M49.7916 13C48.977 12.1854 47.6604 12.1854 46.8458 13L39.2395 20.6062C37.7583 19.8208 36.0833 19.1771 34.3791 18.8979L49.7208 3.55623C50.5354 2.74164 50.5354 1.42498 49.7208 0.610392C48.9062 -0.204191 47.5895 -0.204191 46.7749 0.610392L31.4333 15.9521C31.152 14.2271 30.4937 12.5333 29.6979 11.0396L37.2916 3.44581C38.1062 2.63123 38.1062 1.31456 37.2916 0.499976C36.477 -0.314608 35.1604 -0.314608 34.3458 0.499976L27.302 7.54373C25.6874 5.85831 22.6708 5.90831 21.1416 7.69581C19.7041 9.37706 18.0833 12.0375 17.3708 14.8791C15.802 14.3541 13.9166 14.7354 12.8083 16.0291C11.3708 17.7104 9.74995 20.3708 9.03745 23.2125C7.4687 22.6875 5.58328 23.0687 4.47495 24.3625C2.56453 26.5958 0.333284 30.5583 0.333284 34.375C0.333284 38.3541 2.34787 41.7396 3.76245 43.625L0.943701 46.4437C0.129118 47.2583 0.129118 48.575 0.943701 49.3896C1.34995 49.7958 1.88328 50 2.41662 50C2.94995 50 3.48328 49.7958 3.88953 49.3896L6.70828 46.5708C8.59578 47.9854 11.9791 50 15.9583 50C19.775 50 23.7354 47.7687 25.9708 45.8583C26.8895 45.0708 27.4166 43.9229 27.4166 42.7083C27.4166 42.2166 27.3291 41.7354 27.1645 41.2854C29.9895 40.5666 32.6312 38.9562 34.3041 37.525C35.2229 36.7375 35.75 35.5896 35.75 34.375C35.75 33.8833 35.6624 33.4021 35.4979 32.9521C38.3229 32.2333 40.9645 30.6229 42.6374 29.1916C43.5562 28.4041 44.0833 27.2562 44.0833 26.0416C44.0833 24.8771 43.5979 23.775 42.7458 22.9916L49.7916 15.9458C50.6062 15.1312 50.6062 13.8146 49.7916 13ZM24.275 10.4062C25.7895 12.175 27.4166 15.2125 27.4166 17.7083C27.4166 19.5708 26.3937 20.9271 26.2458 21.1416L23.102 24.2854C22.7999 22.4416 22.0708 20.6312 21.1979 19.0646C21.225 18.8916 21.1666 17.9854 21.1666 17.7083C21.1666 15.2125 22.7937 12.175 24.275 10.4062ZM15.9416 18.7396C17.4562 20.5083 19.0833 23.5458 19.0833 26.0416C19.0833 27.9041 18.0604 29.2604 17.9124 29.475L14.7687 32.6187C14.4666 30.775 13.7374 28.9646 12.8645 27.3979C12.8916 27.225 12.8333 26.3187 12.8333 26.0416C12.8333 23.5458 14.4604 20.5083 15.9416 18.7396ZM7.60828 27.0729C9.12287 28.8416 10.75 31.8791 10.75 34.375C10.75 36.2375 9.72703 37.5937 9.57912 37.8083L6.74578 40.6416C5.7312 39.1791 4.49995 36.8896 4.49995 34.375C4.49995 31.8791 6.12703 28.8416 7.60828 27.0729ZM15.9583 45.8333C13.4437 45.8333 11.152 44.6 9.69162 43.5875L12.525 40.7541C12.7375 40.6062 14.0958 39.5833 15.9583 39.5833C18.4541 39.5833 21.4916 41.2104 23.2604 42.6916C21.4916 44.2062 18.4541 45.8333 15.9583 45.8333ZM24.2916 37.5C24.0145 37.5 23.1041 37.4396 22.927 37.4646C21.3625 36.5937 19.5541 35.8646 17.7145 35.5646L20.8583 32.4208C21.0708 32.2729 22.4291 31.25 24.2916 31.25C26.7874 31.25 29.8249 32.8771 31.5937 34.3583C29.8249 35.8729 26.7874 37.5 24.2916 37.5ZM32.625 29.1666C32.3479 29.1666 31.4374 29.1062 31.2624 29.1333C29.6979 28.2625 27.8895 27.5333 26.0479 27.2312L29.1916 24.0875C29.4041 23.9396 30.7624 22.9166 32.625 22.9166C35.1208 22.9166 38.1583 24.5437 39.927 26.025C38.1583 27.5396 35.1208 29.1666 32.625 29.1666Z" fill="#373737"/>
</g>
<defs>
<clipPath id="clip0_563_318">
<rect width="50" height="50" fill="white" transform="translate(0.333313)"/>
</clipPath>
</defs>
</svg>
