<svg width="72" height="72" viewBox="0 0 72 72" fill="none" xmlns="http://www.w3.org/2000/svg">
<g id="Group">
<path id="Vector" d="M0 63.4978H15.0228L37.1405 70.5844C38.3026 70.957 39.5319 71.0712 40.7427 70.9192C41.9535 70.7671 43.1165 70.3525 44.1503 69.7042L56.1481 62.1844M57.9281 61.0694L70 53.5036L69.9595 53.4477C67.9894 50.6882 64.2687 49.8345 61.2912 51.4581L48.1379 58.6327L48.0639 58.6732" stroke="black" stroke-width="2" stroke-miterlimit="10"/>
<path id="Vector_2" d="M30.5988 61.3285H44.8503C46.7023 61.3285 48.2036 59.8272 48.2036 57.9752C48.2036 56.1232 46.7023 54.6219 44.8503 54.6219H34.6925C34.6925 54.6219 33.102 51.1531 31.818 50.2562C25.0654 44.0781 12.2993 50.7687 12.2993 50.7687H0M46.6443 8.48047H63.014C65.3291 8.48047 67.2056 10.3569 67.2056 12.6721V51.3747M24.8926 8.48047H15.6599" stroke="black" stroke-width="2" stroke-miterlimit="10"/>
<path id="Vector_3" d="M4.33154 50.7683V12.6721C4.33154 10.357 6.20799 8.48052 8.52316 8.48052H13.5643M37.18 3.7377L38.7489 2L42.0592 3.37108L41.9397 5.7093L43.9356 7.70521L46.2738 7.58575L47.6449 10.896L45.9071 12.4649V15.2876L47.6449 16.8565L46.2738 20.1667L43.9356 20.0473L41.9397 22.0432L42.0592 24.3814L38.7489 25.7525L37.18 24.0147H34.3574L32.7884 25.7525L29.4782 24.3814L29.5976 22.0432L27.6017 20.0473L25.2635 20.1667L23.8924 16.8565L25.6303 15.2876V12.4649L23.8924 10.896L25.2635 7.58575L27.6017 7.70521L29.5976 5.7093L29.4782 3.37108L32.7884 2L34.3574 3.73784L37.18 3.7377Z" stroke="black" stroke-width="2" stroke-miterlimit="10"/>
<path id="Vector_4" d="M35.7683 18.0678C38.0832 18.0678 39.9599 16.1912 39.9599 13.8762C39.9599 11.5612 38.0832 9.68457 35.7683 9.68457C33.4533 9.68457 31.5767 11.5612 31.5767 13.8762C31.5767 16.1912 33.4533 18.0678 35.7683 18.0678Z" stroke="black" stroke-width="2" stroke-miterlimit="10"/>
<path id="Vector_5" d="M10.5488 50.7686V39.3052H23.1237V47.6948M48.4131 58.7798V39.3052H60.9879V51.7937M29.481 48.8933V46.1578H42.0558V54.6218M12.2953 15.2773H14.3911M16.487 15.2773H18.5828M52.954 15.2773H55.0498M57.1456 15.2773H59.2414M10.5488 26.7304H23.1237V35.1136H10.5488V26.7304ZM48.4131 26.7304H60.9879V35.1136H48.4131V26.7304ZM29.481 29.9276H42.0558V41.9663H29.481V29.9276Z" stroke="black" stroke-width="2" stroke-miterlimit="10"/>
</g>
</svg>
