<svg width="70" height="71" viewBox="0 0 70 71" fill="none" xmlns="http://www.w3.org/2000/svg">
<g id="Group">
<g id="Out line">
<path id="Vector" d="M24.5 43.6729V30.8395C24.5 30.5301 24.3771 30.2334 24.1583 30.0146C23.9395 29.7958 23.6428 29.6729 23.3333 29.6729H18.6667C18.3572 29.6729 18.0605 29.7958 17.8417 30.0146C17.6229 30.2334 17.5 30.5301 17.5 30.8395V43.6729H19.8333V32.0062H22.1667V43.6729H24.5ZM43.1667 48.3395V32.0062C43.1667 31.6968 43.0438 31.4 42.825 31.1812C42.6062 30.9624 42.3094 30.8395 42 30.8395H37.3333C37.0239 30.8395 36.7272 30.9624 36.5084 31.1812C36.2896 31.4 36.1667 31.6968 36.1667 32.0062V48.3395H38.5V33.1729H40.8333V48.3395H43.1667ZM33.8333 48.3395V27.3395C33.8333 27.0301 33.7104 26.7334 33.4916 26.5146C33.2728 26.2958 32.9761 26.1729 32.6667 26.1729H28C27.6906 26.1729 27.3938 26.2958 27.175 26.5146C26.9562 26.7334 26.8333 27.0301 26.8333 27.3395V46.0062H29.1667V28.5062H31.5V48.3395H33.8333ZM52.5 39.0062V27.3395C52.5 27.0301 52.3771 26.7334 52.1583 26.5146C51.9395 26.2958 51.6427 26.1729 51.3333 26.1729H46.6667C46.3572 26.1729 46.0605 26.2958 45.8417 26.5146C45.6229 26.7334 45.5 27.0301 45.5 27.3395V40.1729H47.8333V28.5062H50.1667V39.0062H52.5ZM61.8333 37.8395V20.3395C61.8333 20.0301 61.7104 19.7334 61.4916 19.5146C61.2728 19.2958 60.9761 19.1729 60.6667 19.1729H56C55.6906 19.1729 55.3938 19.2958 55.175 19.5146C54.9562 19.7334 54.8333 20.0301 54.8333 20.3395V37.8395H57.1667V21.5062H59.5V37.8395H61.8333Z" fill="white"/>
<path id="Vector_2" d="M17.8417 26.9975C18.0605 27.2163 18.3572 27.3392 18.6667 27.3392C18.9761 27.3392 19.2728 27.2163 19.4916 26.9975L29.122 17.367L38.7995 28.1197C38.9055 28.2374 39.0343 28.3323 39.1781 28.3986C39.3219 28.4649 39.4777 28.5013 39.636 28.5054L39.6667 28.5059C39.9761 28.5059 40.2728 28.3829 40.4916 28.1642L56 12.6558V15.6725C56 15.9819 56.1229 16.2787 56.3417 16.4975C56.5605 16.7163 56.8572 16.8392 57.1667 16.8392H61.8333C62.1427 16.8392 62.4395 16.7163 62.6583 16.4975C62.8771 16.2787 63 15.9819 63 15.6725V1.67253C63 1.36311 62.8771 1.06636 62.6583 0.847568C62.4395 0.628776 62.1427 0.505859 61.8333 0.505859H47.8333C47.5239 0.505859 47.2272 0.628776 47.0084 0.847568C46.7896 1.06636 46.6667 1.36311 46.6667 1.67253V6.33919C46.6667 6.64861 46.7896 6.94536 47.0084 7.16415C47.2272 7.38294 47.5239 7.50586 47.8333 7.50586H50.8502L39.7113 18.6446L30.0338 7.89203C29.9278 7.77431 29.799 7.67941 29.6552 7.61308C29.5114 7.54676 29.3556 7.51041 29.1973 7.50625C29.039 7.50209 28.8815 7.5302 28.7344 7.58888C28.5873 7.64755 28.4537 7.73556 28.3417 7.84755L14.3417 21.8475C14.2333 21.9559 14.1474 22.0845 14.0888 22.226C14.0301 22.3676 14 22.5193 14 22.6725C14 22.8257 14.0301 22.9775 14.0888 23.119C14.1474 23.2606 14.2333 23.3892 14.3417 23.4975L17.8417 26.9975ZM29.122 10.367L38.7995 21.1197C38.9055 21.2374 39.0343 21.3323 39.1781 21.3986C39.3219 21.465 39.4777 21.5013 39.636 21.5055C39.7943 21.5096 39.9519 21.4815 40.0989 21.4228C40.246 21.3642 40.3797 21.2762 40.4916 21.1642L54.4916 7.16417C54.6548 7.00101 54.7659 6.79313 54.811 6.56681C54.856 6.34049 54.8329 6.10591 54.7446 5.89272C54.6563 5.67954 54.5067 5.49733 54.3148 5.36913C54.123 5.24094 53.8974 5.17252 53.6667 5.17253H49V2.83919H60.6667V14.5059H58.3333V9.83919C58.3333 9.60844 58.2649 9.38287 58.1367 9.191C58.0085 8.99914 57.8263 8.8496 57.6131 8.76129C57.3999 8.67299 57.1654 8.64988 56.939 8.6949C56.7127 8.73992 56.5048 8.85104 56.3417 9.01421L39.7113 25.6448L30.0338 14.892C29.9278 14.7743 29.799 14.6794 29.6552 14.6131C29.5114 14.5468 29.3556 14.5104 29.1973 14.5063C29.1871 14.506 29.1769 14.5059 29.1667 14.5059C28.8572 14.5059 28.5605 14.6288 28.3417 14.8475L18.6667 24.5226L16.8165 22.6725L29.122 10.367ZM10.5 69.3392V67.0059H14C14.3094 67.0059 14.6062 66.8829 14.825 66.6641C15.0437 66.4454 15.1667 66.1486 15.1667 65.8392V62.7825C20.7375 67.8961 28.0681 70.6606 35.6283 70.4989C43.1885 70.3372 50.3942 67.2619 55.7413 61.9148L68.4916 49.1648C69.2626 48.3939 69.7249 47.3678 69.7917 46.2797C69.8584 45.1915 69.5249 44.1166 68.854 43.2573C68.1831 42.3981 67.221 41.8139 66.1492 41.6148C65.0774 41.4157 63.9697 41.6154 63.035 42.1764C62.6367 41.56 62.0951 41.0492 61.4565 40.6875C60.8179 40.3259 60.1012 40.1243 59.3677 40.0998C58.6342 40.0753 57.9057 40.2288 57.2444 40.5471C56.5831 40.8653 56.0087 41.339 55.5702 41.9275L55.0756 42.591C54.8226 42.397 54.5518 42.2276 54.2668 42.085C53.6632 41.7832 53.0049 41.6065 52.3314 41.5655C51.6579 41.5245 50.983 41.6201 50.3474 41.8465C49.7117 42.0729 49.1284 42.4254 48.6324 42.8829C48.1363 43.3404 47.7379 43.8934 47.461 44.5087L44.52 51.0443C43.9039 50.7984 43.2466 50.6723 42.5833 50.6725H28.4831L26.4916 48.6809C25.0301 47.2235 23.1309 46.2858 21.0853 46.0115C19.0396 45.7372 16.9605 46.1414 15.1667 47.1623V46.0059C15.1667 45.6964 15.0437 45.3997 14.825 45.1809C14.6062 44.9621 14.3094 44.8392 14 44.8392H10.5V43.6725C10.5 43.3631 10.3771 43.0664 10.1583 42.8476C9.9395 42.6288 9.64275 42.5059 9.33333 42.5059H0V44.8392H8.16667V68.1725H0V70.5059H9.33333C9.64275 70.5059 9.9395 70.3829 10.1583 70.1641C10.3771 69.9454 10.5 69.6486 10.5 69.3392ZM60.3556 42.7465C60.7542 42.986 61.067 43.3453 61.2493 43.7732L51.9925 53.0301C50.7535 54.2709 49.3546 55.341 47.8329 56.2123L57.441 43.3221C57.7681 42.8807 58.248 42.5771 58.787 42.4707C59.326 42.3643 59.8853 42.4626 60.3556 42.7465ZM49.5887 45.4663C49.7366 45.1377 49.9494 44.8423 50.2143 44.598C50.4791 44.3537 50.7907 44.1655 51.1301 44.0446C51.4696 43.9237 51.83 43.8726 52.1896 43.8945C52.5493 43.9164 52.9009 44.0107 53.2232 44.1719C53.3851 44.2531 53.5383 44.3505 53.6805 44.4627L47.1132 53.2735C46.9296 52.9599 46.7141 52.6661 46.4701 52.3969L49.5887 45.4663ZM24.8417 50.3308L27.175 52.6642C27.2834 52.7725 27.412 52.8584 27.5535 52.9171C27.6951 52.9757 27.8468 53.0059 28 53.0059H42.5833C43.3569 53.0059 44.0987 53.3131 44.6457 53.8601C45.1927 54.4071 45.5 55.149 45.5 55.9225C45.5 56.6961 45.1927 57.4379 44.6457 57.9849C44.0987 58.5319 43.3569 58.8392 42.5833 58.8392H28V61.1725H42.5833C43.3053 61.1727 44.0194 61.0237 44.681 60.7346C45.3425 60.4456 45.9371 60.0229 46.4275 59.4931C49.1276 58.3825 51.5801 56.7465 53.6425 54.68L63.8248 44.4976C64.2258 44.1019 64.7671 43.8808 65.3306 43.8827C65.894 43.8845 66.4338 44.1092 66.8322 44.5076C67.2306 44.906 67.4552 45.4458 67.457 46.0092C67.4589 46.5727 67.2378 47.1139 66.842 47.5149L54.0912 60.2649C49.0278 65.3281 42.1605 68.1726 34.9999 68.1725C27.8393 68.1724 20.972 65.3279 15.9087 60.2646L15.1667 59.5226V50.0132C16.5194 48.8304 18.2708 48.2053 20.0668 48.2643C21.8628 48.3232 23.5694 49.0619 24.8417 50.3308ZM12.8333 47.1725V64.6725H10.5V47.1725H12.8333Z" fill="white"/>
</g>
</g>
</svg>
