<svg width="71" height="70" viewBox="0 0 71 70" fill="none" xmlns="http://www.w3.org/2000/svg">
<g id="Group">
<path id="Vector" d="M47.03 30.3667C47.3415 29.588 47.5751 28.7315 47.5751 27.875V26.162C47.5751 22.736 44.772 20.0107 41.4238 20.0107C38.3092 20.0107 35.7397 22.2688 35.3504 25.2277C34.9611 25.1498 34.6496 25.1498 34.2603 25.1498C33.871 25.1498 33.4817 25.2277 33.1702 25.2277C32.703 22.2688 30.1335 20.0107 27.0968 20.0107C23.6708 20.0107 20.9455 22.8139 20.9455 26.162V27.875C20.9455 28.8094 21.1791 29.6659 21.4906 30.3667C18.8432 32.2354 17.2859 35.1943 17.2859 38.3867V41.0341C17.2859 42.825 18.7653 44.3823 20.6341 44.3823H24.5273V46.1731C24.5273 47.964 26.0067 49.5213 27.8754 49.5213H40.9566C42.8254 49.5213 44.3048 48.0419 44.3048 46.1731V44.3823H48.198C50.0668 44.3823 51.5462 42.9028 51.5462 41.0341V38.3867C51.3126 35.1943 49.6774 32.2354 47.03 30.3667ZM41.4238 22.3467C43.5262 22.3467 45.2392 24.0597 45.2392 26.162V27.875C45.2392 29.9774 43.5262 31.6904 41.4238 31.6904C41.0345 31.6904 40.723 31.6125 40.4116 31.5347V31.3011C40.4116 29.1209 39.3215 27.2521 37.6085 26.162C37.6085 23.9818 39.3215 22.3467 41.4238 22.3467ZM38.0757 31.3011V33.0141C38.0757 35.1164 36.3626 36.8294 34.2603 36.8294C32.158 36.8294 30.445 35.1164 30.445 33.0141V31.3011C30.445 29.1987 32.158 27.4857 34.2603 27.4857C36.3626 27.4079 38.0757 29.1987 38.0757 31.3011ZM23.2036 26.162C23.2036 24.0597 24.9166 22.3467 27.0189 22.3467C29.1213 22.3467 30.8343 24.0597 30.8343 26.162C29.1213 27.2521 28.0312 29.1987 28.0312 31.3011V31.5347C27.7197 31.6125 27.3304 31.6904 27.0189 31.6904C24.9166 31.6904 23.2036 29.9774 23.2036 27.875V26.162ZM19.544 41.112V38.4646C19.544 35.9729 20.7898 33.7149 22.8143 32.3133C23.9044 33.4034 25.4616 34.0263 27.0968 34.0263C27.4861 34.0263 27.8754 33.9485 28.1869 33.9485C28.2648 34.4935 28.4205 35.0386 28.6541 35.5836C26.4739 37.1409 24.9945 39.4768 24.5273 42.1242H20.5562C19.9333 42.0463 19.544 41.657 19.544 41.112ZM41.7353 46.251C41.7353 46.7961 41.2681 47.2632 40.723 47.2632H27.7197C27.1747 47.2632 26.7075 46.7961 26.7075 46.251V43.6036C26.7075 41.112 27.9533 38.8539 29.9778 37.4523C31.0679 38.5424 32.6252 39.1654 34.2603 39.1654C35.8955 39.1654 37.4527 38.5424 38.5428 37.4523C40.5673 38.8539 41.8131 41.112 41.8131 43.6036V46.251H41.7353ZM48.9767 41.112C48.9767 41.657 48.5095 42.1242 47.9644 42.1242H43.9933C43.604 39.4768 42.1246 37.1409 39.8665 35.5836C40.1001 35.1164 40.2559 34.5714 40.3337 33.9485C40.723 34.0263 41.0345 34.0263 41.4238 34.0263C43.059 34.0263 44.6163 33.4034 45.7064 32.3133C47.7308 33.7149 48.9767 35.9729 48.9767 38.4646V41.112Z" fill="#373737"/>
<path id="Vector_2" d="M68.9099 33.5595H59.9555C59.3326 20.3226 48.6652 9.65517 35.4283 9.03226V1.16796C35.4283 0.54505 34.8832 0 34.2603 0C33.6374 0 33.0923 0.54505 33.0923 1.16796V9.11012C19.8554 9.73304 9.11012 20.4004 8.56507 33.6374H1.16796C0.54505 33.6374 0 34.1824 0 34.8053C0 35.4283 0.54505 35.9733 1.16796 35.9733H8.48721C9.11012 49.2102 19.7775 59.8776 33.0145 60.5006V68.832C33.0145 69.455 33.5595 70 34.1824 70C34.8053 70 35.3504 69.455 35.3504 68.832V60.4227C48.5873 59.7998 59.3326 49.1324 59.8776 35.8954H68.832C69.455 35.8954 70 35.3504 70 34.7275C70 34.1046 69.5328 33.5595 68.9099 33.5595ZM34.2603 58.0868C21.3348 58.0868 10.8231 47.5751 10.8231 34.7275C10.8231 21.8799 21.3348 11.3682 34.2603 11.3682C47.1858 11.3682 57.6974 21.8799 57.6974 34.7275C57.6196 47.653 47.1079 58.0868 34.2603 58.0868ZM1.16796 17.6752H6.92992C7.55284 17.6752 8.09789 17.1301 8.09789 16.5072V8.09789H16.5072C17.1301 8.09789 17.6752 7.55284 17.6752 6.92992V1.16796C17.6752 0.54505 17.1301 0 16.5072 0H1.16796C0.54505 0 0 0.54505 0 1.16796V16.5072C0 17.1301 0.54505 17.6752 1.16796 17.6752ZM2.33593 2.33593H15.3393V5.76196H6.92992C6.30701 5.76196 5.76196 6.30701 5.76196 6.92992V15.3393H2.33593V2.33593ZM68.9099 0H53.5706C52.9477 0 52.4027 0.54505 52.4027 1.16796V6.92992C52.4027 7.55284 52.9477 8.09789 53.5706 8.09789H61.98V16.5072C61.98 17.1301 62.525 17.6752 63.1479 17.6752H68.9099C69.5328 17.6752 70.0779 17.1301 70.0779 16.5072V1.16796C70.0779 0.54505 69.5328 0 68.9099 0ZM67.7419 15.3393H64.3159V6.92992C64.3159 6.30701 63.7709 5.76196 63.1479 5.76196H54.7386V2.33593H67.7419V15.3393ZM16.5072 61.8243H8.09789V53.4149C8.09789 52.792 7.55284 52.2469 6.92992 52.2469H1.16796C0.54505 52.2469 0 52.792 0 53.4149V68.7542C0 69.3771 0.54505 69.9221 1.16796 69.9221H16.5072C17.1301 69.9221 17.6752 69.3771 17.6752 68.7542V62.9922C17.6752 62.3693 17.208 61.8243 16.5072 61.8243ZM15.3393 67.5862H2.33593V54.5829H5.76196V62.9922C5.76196 63.6151 6.30701 64.1602 6.92992 64.1602H15.3393V67.5862ZM68.9099 52.2469H63.1479C62.525 52.2469 61.98 52.792 61.98 53.4149V61.8243H53.5706C52.9477 61.8243 52.4027 62.3693 52.4027 62.9922V68.7542C52.4027 69.3771 52.9477 69.9221 53.5706 69.9221H68.9099C69.5328 69.9221 70.0779 69.3771 70.0779 68.7542V53.4149C70.0779 52.792 69.5328 52.2469 68.9099 52.2469ZM67.7419 67.5862H54.7386V64.1602H63.1479C63.7709 64.1602 64.3159 63.6151 64.3159 62.9922V54.5829H67.7419V67.5862Z" fill="#373737"/>
</g>
</svg>
