<svg width="70" height="70" viewBox="0 0 70 70" fill="none" xmlns="http://www.w3.org/2000/svg">
<g id="Group">
<path id="Vector" d="M69.0106 34.6077L57.8355 7.86046L47.0527 12.3657C47.188 11.0939 47.188 9.29455 46.4981 7.99575C44.9557 5.11403 41.357 4.01817 38.4752 5.56049C35.5935 7.10282 34.4977 10.7016 36.04 13.5833C36.5812 14.598 37.3929 15.4233 38.3941 15.978L26.8672 20.7808C26.6101 19.9691 26.2178 19.1979 25.7172 18.5079C25.866 18.4268 25.9878 18.332 26.1096 18.2103C26.3937 17.9262 26.5696 17.5474 26.5696 17.1415L26.5154 12.6768H27.4354C27.6519 12.6768 27.8548 12.5821 28.0037 12.4333C28.166 12.2845 28.2472 12.068 28.2472 11.8516L28.0848 0L26.4613 0.0270584L26.6101 11.0533L4.92286 11.2157L4.77404 0L3.15054 0.0270584L3.29936 12.0545C3.31289 12.501 3.66465 12.8392 4.11111 12.8527H5.05816C5.05816 12.8933 5.11227 17.3174 5.11227 17.3174C5.1258 17.8044 5.36933 18.2509 5.76167 18.535L5.16639 19.482C4.93639 19.8473 4.62522 20.7538 4.62522 20.7538H4.61169L2.24409 29.5883L2.86643 31.5095L1.98703 31.9018C1.17528 32.2671 0.525879 32.93 0.214708 33.7688C-0.0964631 34.6077 -0.0694047 35.5276 0.295883 36.3394L12.3233 63.2084L23.5931 58.162C23.999 57.9861 24.2831 57.6073 24.3237 57.1608C24.3643 56.7143 24.1614 56.2814 23.7961 56.0379C22.3485 55.0232 21.3473 53.9273 21.0497 53.0344C20.292 50.7886 21.4961 48.3398 23.7555 47.5821C26.0013 46.8245 28.4501 48.0286 29.2078 50.288C29.573 51.3568 29.4919 52.5338 28.9913 53.5485C28.7748 53.9814 28.856 54.4956 29.1942 54.8338C29.5189 55.1855 30.033 55.2938 30.466 55.0908L39.8282 50.8968C40.2746 50.7074 40.6534 50.3827 40.924 49.9768L42.3446 49.3951C42.5069 50.7344 43.0075 52.0062 43.8057 53.1021C43.6569 53.1832 43.5352 53.2915 43.4134 53.4132C43.1157 53.6973 42.9534 54.0897 42.9534 54.4956L43.021 58.9467H42.1011C41.8846 58.9467 41.6817 59.0414 41.5328 59.1902C41.3705 59.339 41.2893 59.5555 41.3028 59.7719L41.4517 69.9865H43.0752L42.9263 60.5837L64.6136 60.4078L64.7625 70H66.3859L66.2371 59.5961C66.2236 59.1496 65.8718 58.7978 65.4254 58.7843H64.4783C64.4783 58.7572 64.4919 58.7167 64.4919 58.6896L64.4242 54.3332C64.4242 53.8462 64.1807 53.3862 63.7748 53.1156C64.086 52.615 64.3295 52.2362 64.3701 52.155C64.6001 51.8032 64.776 51.4109 64.8842 50.9915L64.9113 50.8968H64.9248L67.2924 42.0487L66.4265 39.3158L67.2112 38.9911C68.9159 38.2876 69.7277 36.3529 69.0241 34.6482C69.0241 34.6347 69.0106 34.6212 69.0106 34.6077ZM12.3369 27.2748L12.2016 27.5048C11.2816 29.1283 9.61749 29.8454 9.60396 29.8454L9.00868 30.0889C9.00868 30.0889 9.94219 35.7306 10.1992 37.3676C10.3481 38.3417 10.1722 39.3429 9.68514 40.1952C9.33338 40.6958 8.76515 40.9934 8.15634 40.9934C7.73693 40.9799 7.56106 40.7634 7.49341 40.6417L4.85522 32.4024L4.35464 30.8465L3.93523 29.5477L6.22167 21.0379C6.28931 20.7944 6.39755 20.5644 6.53284 20.3479C6.53284 20.3479 6.95224 19.6714 7.42576 18.9409L23.8773 18.8056C24.5808 19.5497 25.0949 20.4561 25.379 21.4438L12.3369 27.2748ZM24.6484 17.1956H24.6214V17.1685L7.074 17.3038C6.95224 17.3174 6.84401 17.2768 6.7493 17.2091V17.0468L6.69519 12.961C6.78989 12.9068 6.89813 12.8663 7.00636 12.8663L24.5808 12.731C24.7025 12.7174 24.8108 12.758 24.9055 12.8257L24.9731 17.1009C24.8784 17.155 24.7566 17.1956 24.6484 17.1956ZM39.1652 49.4086L30.8718 53.1291C31.6701 49.9497 29.7489 46.7298 26.5696 45.9316C23.3902 45.1334 20.1703 47.0545 19.372 50.2339C19.0879 51.3297 19.142 52.4932 19.4938 53.562C19.9538 54.9014 21.1849 56.092 22.3079 56.9579L13.1215 61.0707L1.75704 35.6765C1.56763 35.2571 1.5541 34.7835 1.72998 34.3506C1.89233 33.9177 2.21703 33.5794 2.63643 33.39L3.35348 33.0653L6.0052 41.3317C6.41107 42.1028 7.19577 42.6034 8.07516 42.6169C8.07516 42.6169 10.1857 42.6575 11.0516 41.0475V41.0205C11.728 39.8299 11.9851 38.4499 11.7686 37.097C11.5657 35.7982 11.011 32.4024 10.781 31.0359C11.8633 30.4407 12.7833 29.5748 13.4598 28.5466L27.1919 22.3908C27.1919 22.3908 27.5707 22.1743 27.8684 22.242C28.0442 22.3096 28.2066 22.5126 28.2878 22.6884L32.5359 32.4024C32.7118 32.8489 33.1583 33.1194 33.6318 33.0924C34.1053 33.0653 34.5112 32.7406 34.66 32.2942C35.0253 31.063 35.9182 30.0754 37.1088 29.5883C39.2193 28.6413 41.7087 29.5748 42.6558 31.6854C43.5352 33.6336 42.8181 35.92 40.9781 37.0159C39.8011 37.6788 37.7447 37.5164 36.9194 37.4217C36.4865 37.3676 36.0535 37.557 35.7829 37.9088C35.7829 37.9223 35.3906 38.3688 35.6476 39.1399L39.6658 48.0963C39.8146 48.4345 39.7605 48.8404 39.5305 49.1245C39.4493 49.2462 39.3141 49.3545 39.1652 49.4086ZM62.8007 54.5632L62.8684 58.649C62.7737 58.7167 62.6654 58.7572 62.5437 58.7437L44.9692 58.879C44.8475 58.8925 44.7393 58.852 44.6446 58.7843L44.5769 54.5767L62.8007 54.5632ZM63.3148 50.5721C63.2472 50.8156 63.1389 51.0456 63.0037 51.2621V51.2891C63.0037 51.2891 62.5978 51.9521 62.1243 52.6826L61.9619 52.9397H45.7945L45.6592 52.8044C44.6175 51.695 43.9952 50.2474 43.914 48.7186L55.6302 43.8346C55.3732 44.2945 55.1297 44.7816 54.8997 45.2687L56.3744 45.9586C56.672 45.3228 56.9967 44.7004 57.3349 44.1051C57.6732 43.5099 58.1331 42.9958 58.6608 42.5628C59.0531 42.2381 59.4725 41.9811 59.9325 41.7646L60.5278 41.5211L60.4331 40.8852C60.4196 40.8717 60.379 40.574 60.2978 40.1276C60.0543 38.6664 59.5402 35.5006 59.3372 34.2559C59.1884 33.2818 59.3643 32.2806 59.8514 31.4283C60.2031 30.9277 60.7713 30.6165 61.3802 30.6165C61.7996 30.6301 61.9754 30.8465 62.0431 30.9818L64.4242 38.3958L64.9248 39.9517L65.6013 42.0758L63.3148 50.5721ZM67.5224 36.5559C67.3465 36.9753 67.0083 37.3135 66.5889 37.4894L65.926 37.7735L63.5178 30.2783C63.1119 29.5072 62.3272 29.0201 61.4613 28.993C59.3778 29.0472 58.4714 30.576 58.4714 30.576C57.7949 31.7665 57.5379 33.1465 57.7543 34.4994C57.9573 35.8118 58.512 39.194 58.742 40.5605C58.4308 40.7364 58.1331 40.9393 57.849 41.1558L41.3434 48.0557C41.3028 47.8392 37.5417 39.3699 37.5417 39.3699C38.8811 39.4646 40.4234 39.397 41.5734 38.7882L42.0875 38.477C42.7099 38.0576 43.251 37.53 43.6704 36.9076L43.8463 36.637C44.1575 36.1229 44.3875 35.5682 44.5363 34.9865C44.5498 34.9594 44.5498 34.9324 44.5498 34.9053H44.5634C44.7122 34.3777 44.7798 33.8365 44.7798 33.2818C44.7798 32.6865 44.6851 32.0777 44.5093 31.5095C43.5352 28.3842 40.207 26.6525 37.0817 27.6266C36.3355 27.8625 35.6432 28.2433 35.0442 28.747C34.4453 29.2508 33.9515 29.8677 33.5912 30.5624L32.6306 28.4113C32.3195 27.6401 30.2495 23.0943 29.7895 22.039C29.6813 21.8361 29.5595 21.6332 29.4107 21.4573L40.1123 17.0468C40.5587 16.8574 40.8293 16.4109 40.8023 15.9374C40.7887 15.4639 40.464 15.058 40.0176 14.9227C37.7447 14.2327 36.4594 11.838 37.1494 9.5516C37.217 9.33514 37.2982 9.1322 37.3929 8.92926C37.9205 7.81987 38.8946 6.98106 40.0852 6.65636C42.0334 6.10166 44.1034 6.96753 45.064 8.75338C45.6998 9.94395 45.4834 11.9869 45.3616 12.8121C45.3075 13.2586 45.4834 13.6915 45.8351 13.9621C46.1869 14.2327 46.6469 14.3003 47.0527 14.1245L56.9561 9.98454L67.5089 35.23C67.6983 35.6494 67.6983 36.1365 67.5224 36.5559Z" fill="#373737"/>
<path id="Vector_2" d="M16.7018 64.2374L18.1426 63.4938L20.014 67.1199L18.5731 67.8635L16.7018 64.2374ZM5.00586 67.1852L6.87727 63.5591L8.31818 64.3027L6.44678 67.9287L5.00586 67.1852ZM11.6177 69.9609L11.7174 65.8815L13.3383 65.9211L13.2386 70.0004L11.6177 69.9609ZM50.9828 3.03248L52.4236 2.28892L54.295 5.91499L52.8541 6.65856L50.9828 3.03248ZM62.6831 5.96945L64.5545 2.34337L65.9951 3.08707L64.1237 6.71301L62.6831 5.96945ZM57.5685 4.25518L57.6682 0.175781L59.2891 0.215371L59.1895 4.29464L57.5685 4.25518Z" fill="#373737"/>
</g>
</svg>
