<svg width="70" height="72" viewBox="0 0 70 72" fill="none" xmlns="http://www.w3.org/2000/svg">
<g id="Group">
<path id="Vector" d="M0.000144866 66.754L0.927007 68.8403L34.1889 55.0485L39.9836 55.744L42.0694 62.1182L39.2881 64.784C38.245 65.7111 37.8976 67.2174 38.4771 68.6084L39.6361 71.5058L58.874 63.9726L57.8311 61.1912C57.3675 59.8003 56.0927 58.9893 54.5864 58.9893H50.7614L48.6756 54.0056L53.775 51.4562C55.3972 50.6448 56.0929 48.7904 55.5134 47.168L48.9076 29.4364C48.2122 27.5821 46.2417 26.7705 44.3873 27.35C44.3873 27.35 44.2718 27.35 44.2718 27.4659L39.4041 29.552L38.7088 27.8136L41.3745 24.6847C43.2283 22.5982 44.3873 20.0489 44.7354 17.2675L48.0962 13.2112C50.2982 10.6614 49.8346 6.83702 47.2846 4.6346C46.8212 4.28721 46.3578 3.93967 45.8943 3.70774C44.6193 3.12827 43.3444 3.01223 41.9539 3.3602L41.606 2.31672C41.0265 0.46285 38.9407 -0.464592 37.2023 0.230917L12.7485 9.03886C10.8942 9.73437 9.96703 11.7043 10.6625 13.4427V13.5586L11.242 15.0652C8.22877 16.4559 6.83775 19.9328 7.88065 22.9463C8.6922 25.2642 10.778 26.8865 13.2119 27.2339L18.6592 27.8134C20.8611 29.4364 23.5263 30.4794 26.1923 30.7108L30.0166 31.0589L30.7119 32.7973C29.9007 33.2607 29.3212 34.0721 29.0897 35.1152L28.2781 39.0554L0 50.5288L0.811548 52.7308L17.0367 46.241L20.9771 58.0619L0.000144866 66.754ZM55.5134 61.8867L55.7452 62.5816L40.9104 68.4924L40.5631 67.797C40.4472 67.3334 40.5631 66.8699 40.795 66.5225L44.7354 62.8137L49.7185 61.1912H54.3543C54.9338 61.1912 55.2817 61.4227 55.5132 61.8867H55.5134ZM48.2121 59.1048L44.0399 60.4958L42.5334 56.092C43.2283 56.2075 43.8078 56.092 44.3873 55.744L46.3578 54.8172L48.2121 59.1048ZM45.0829 29.2044C45.6624 28.9723 46.3578 29.2044 46.5897 29.7839L47.5167 32.2177L41.8379 34.0721L42.5334 36.2741L48.2122 34.4197L49.6025 38.1284L44.1559 39.9823L44.8513 42.1847L50.4141 40.3304L51.8049 44.0386L46.4738 45.777L47.1692 47.9794L52.6159 46.1251L53.1954 47.6314C53.4274 48.2109 53.1954 48.7904 52.6159 49.0225L43.4603 53.5422C43.2285 53.6581 42.997 53.6581 42.7649 53.6581L34.8844 52.7306L30.596 39.8668L31.4076 35.5786C31.5235 35.2311 31.755 34.8831 32.1029 34.7671L45.0829 29.2044ZM44.9667 5.79354C46.8212 6.60509 47.7486 8.80693 46.9372 10.7774C46.8213 11.1248 46.5897 11.3569 46.3578 11.7043L44.9667 13.4427C44.8513 12.2838 44.6194 11.2407 44.2718 10.0818L42.7649 5.56219C43.5764 5.44615 44.2718 5.56219 44.9669 5.79354H44.9667ZM10.1985 22.3668C9.5036 20.3963 10.3146 18.3105 12.169 17.3829L13.7915 21.3238C14.371 22.7142 15.1823 24.1052 16.1094 25.2642L13.6754 25.0321C12.053 24.9162 10.6625 23.8732 10.1985 22.3668ZM26.6558 28.5089C21.9041 28.0453 17.7316 25.0321 15.9932 20.5122L12.9804 12.8632C12.7485 12.2838 12.9804 11.5884 13.5599 11.3569L38.0131 2.5488C38.3612 2.43276 38.5926 2.43276 38.9407 2.5488C39.172 2.66469 39.4041 2.89619 39.5202 3.24416L42.0694 10.8933C43.4604 15.1811 42.5334 19.8169 39.6361 23.1776L36.0433 27.35L37.0862 30.1314L32.914 31.8698L31.7551 28.9725L26.6558 28.5089ZM19.2386 45.3136L21.9041 44.2705L24.8015 53.0787L27.0032 52.3832L23.9904 43.3437L28.6261 41.4893L32.5665 53.1946L23.1789 57.135L19.2386 45.3136ZM57.2517 20.2803V21.4392H59.5695V20.2803C59.5695 17.0356 62.1195 14.4856 65.3642 14.4856V12.1677C62.1195 12.1677 59.5695 9.61848 59.5695 6.37301V5.21407H57.2517V6.37301C57.2517 9.61848 54.7023 12.1677 51.457 12.1677V14.4856C54.7023 14.4856 57.2517 17.0356 57.2517 20.2803ZM58.4106 10.5453C59.106 11.7043 60.0331 12.6317 61.1921 13.3268C60.0331 14.0222 59.106 14.9496 58.4106 16.1085C57.7152 14.9496 56.7881 14.0222 55.6291 13.3267C56.7881 12.6317 57.7152 11.7043 58.4106 10.5453Z" fill="#373737"/>
<path id="Vector_2" d="M6.25759 43.4585V44.6175H8.57547V43.4585C8.57547 40.2138 11.1254 37.6638 14.3702 37.6638V35.3459C11.1254 35.3459 8.57547 32.7967 8.57547 29.5512V28.3923H6.25759V29.5512C6.25759 32.7967 3.70821 35.3459 0.462891 35.3459V37.6638C3.70821 37.6638 6.25759 40.2138 6.25759 43.4585ZM7.41653 33.7236C8.1119 34.8825 9.03905 35.81 10.198 36.505C9.03905 37.2004 8.1119 38.1278 7.41653 39.2868C6.72117 38.1278 5.79402 37.2004 4.63508 36.5049C5.79402 35.81 6.72117 34.8825 7.41653 33.7236ZM64.2046 29.5512V28.3923H61.8867V29.5512C61.8867 32.7967 59.3373 35.3459 56.092 35.3459V37.6638C59.3373 37.6638 61.8867 40.2138 61.8867 43.4585V44.6175H64.2046V43.4585C64.2046 40.2138 66.7546 37.6638 69.9993 37.6638V35.3459C66.7546 35.3459 64.2046 32.7967 64.2046 29.5512ZM63.0457 39.2868C62.3503 38.1278 61.4231 37.2004 60.2642 36.5049C61.4231 35.81 62.3503 34.8825 63.0457 33.7236C63.741 34.8825 64.6682 35.81 65.8271 36.505C64.6682 37.2004 63.741 38.1278 63.0457 39.2868ZM34.4201 20.6278L36.0426 22.2502C42.4168 15.876 36.5061 6.14094 36.1585 5.79297L34.1882 7.06795C34.3041 7.06795 39.5193 15.5285 34.4201 20.6278Z" fill="#373737"/>
</g>
</svg>
