<svg width="70" height="71" viewBox="0 0 70 71" fill="none" xmlns="http://www.w3.org/2000/svg">
<path d="M42.8151 28.5128L32.2921 38.4519L27.2418 33.2564C26.6819 32.6798 25.7601 32.6667 25.1843 33.2266C24.6077 33.787 24.5946 34.7085 25.1545 35.2848L31.2116 41.5028C31.4823 41.7753 31.8481 41.932 32.232 41.9401C32.616 41.9481 32.988 41.8069 33.2699 41.546L44.8441 30.6292C44.9833 30.498 45.0952 30.3406 45.1734 30.1661C45.2517 29.9916 45.2948 29.8033 45.3002 29.6121C45.3056 29.421 45.2733 29.2306 45.205 29.0519C45.1368 28.8733 45.034 28.7098 44.9025 28.5709C44.3391 27.9853 43.4104 27.9596 42.8151 28.5128Z" fill="#373737"/>
<path d="M35.0071 13.2168C22.9807 13.2168 13.2017 22.9958 13.2017 35.0225C13.2017 47.0495 22.9807 56.8285 35.0071 56.8285C47.0343 56.8285 56.8132 47.0495 56.8132 35.0223C56.8132 22.9959 47.0343 13.2168 35.0071 13.2168ZM35.0071 53.9094C24.5862 53.9094 16.1208 45.4291 16.1208 35.0223C16.1208 24.6156 24.5862 16.136 35.0071 16.136C45.4385 16.136 53.8941 24.5917 53.8941 35.0223C53.8941 45.453 45.4384 53.9094 35.0071 53.9094Z" fill="#373737"/>
<path d="M65.0157 26.9946L65.4974 18.3392C65.5138 18.0549 65.4465 17.772 65.3038 17.5255C65.1612 17.2791 64.9494 17.0799 64.6946 16.9526L56.9882 13.0557L53.0912 5.3493C52.9614 5.09661 52.7617 4.88657 52.5158 4.74424C52.27 4.6019 51.9884 4.53328 51.7046 4.54655L43.0346 5.01404L35.8098 0.24073C35.5716 0.0836976 35.2924 0 35.0071 0C34.7217 0 34.4426 0.0836976 34.2043 0.24073L26.9795 5.01404L18.325 4.53225C18.0407 4.51549 17.7576 4.58265 17.5111 4.72536C17.2646 4.86808 17.0655 5.08007 16.9384 5.335L13.0408 13.0414L5.335 16.9384C5.08214 17.068 4.87196 17.2677 4.7296 17.5136C4.58724 17.7595 4.51872 18.0412 4.53225 18.325L5.01331 26.9801L0.24073 34.2049C0.0836976 34.4432 0 34.7223 0 35.0077C0 35.293 0.0836976 35.5721 0.24073 35.8104L4.99916 43.0495L4.51736 51.7048C4.5008 51.9891 4.56803 52.272 4.71072 52.5185C4.85342 52.765 5.0653 52.9641 5.32011 53.0913L13.0265 56.9883L16.9235 64.6948C17.0531 64.9476 17.2528 65.1578 17.4987 65.3002C17.7446 65.4425 18.0263 65.511 18.3101 65.4975L26.9652 65.0159L34.19 69.7883C34.4264 69.9501 34.7063 70.0367 34.9928 70.0367C35.2793 70.0367 35.5591 69.9501 35.7955 69.7883L43.0203 65.0157L51.6757 65.4975C51.96 65.5139 52.2429 65.4466 52.4893 65.3039C52.7357 65.1612 52.9349 64.9495 53.0623 64.6948L56.9592 56.9883L64.6656 53.0913C64.9183 52.9616 65.1284 52.7619 65.2707 52.516C65.4131 52.2702 65.4817 51.9885 65.4683 51.7048L64.9867 43.0496L69.7593 35.8249C69.9163 35.5866 70 35.3075 70 35.0221C70 34.7367 69.9163 34.4576 69.7593 34.2194L65.0157 26.9946ZM62.3007 41.8528C62.1226 42.1139 62.0403 42.4286 62.0676 42.7434L62.5196 50.9311L55.2367 54.6091C54.9591 54.7485 54.7339 54.9738 54.5948 55.2516L50.9162 62.5345L42.7285 62.0825C42.4152 62.0709 42.1054 62.152 41.8379 62.3156L35.0072 66.826L28.177 62.3156C27.9399 62.1552 27.6605 62.0689 27.3742 62.0676H27.3012L19.1129 62.5203L15.4348 55.2367C15.2956 54.959 15.0702 54.7337 14.7923 54.5948L7.49455 50.9311L7.9473 42.7434C7.95869 42.4298 7.87724 42.1202 7.71348 41.8528L3.20376 35.0221L7.71348 28.1911C7.89197 27.9304 7.9746 27.616 7.9473 27.3012L7.49455 19.1129L14.7781 15.4349C15.0558 15.2958 15.2809 15.0707 15.4201 14.793L19.0981 7.50944L27.2863 7.96219C27.5994 7.97299 27.909 7.89213 28.177 7.72837L35.0071 3.21865L41.8379 7.72837C42.0989 7.90685 42.4136 7.98947 42.7285 7.96219L50.9162 7.50944L54.5948 14.793C54.7339 15.0707 54.9591 15.2958 55.2367 15.4349L62.5196 19.113L62.0676 27.3011C62.0564 27.6142 62.1374 27.9237 62.3007 28.1911L66.8111 35.022L62.3007 41.8528Z" fill="#373737"/>
</svg>
