<svg width="84" height="73" viewBox="0 0 84 73" fill="none" xmlns="http://www.w3.org/2000/svg">
<g id="Group">
<g id="Group_2">
<path id="Vector" d="M38.1099 67.3431L41.8033 71.0366M41.8033 71.0366L45.4968 67.3431M41.8033 71.0366V59.7803" stroke="#373737" stroke-width="2" stroke-miterlimit="10" stroke-linecap="round" stroke-linejoin="round"/>
</g>
<g id="Group_3">
<path id="Vector_2" d="M4.51759 26.54L1 30.2335M1 30.2335L4.51759 33.927M1 30.2335H12.2563" stroke="#373737" stroke-width="2" stroke-miterlimit="10" stroke-linecap="round" stroke-linejoin="round"/>
</g>
<g id="Group_4">
<path id="Vector_3" d="M79.0907 33.927L82.7842 30.2335M82.7842 30.2335L79.0907 26.54M82.7842 30.2335H71.3521" stroke="#373737" stroke-width="2" stroke-miterlimit="10" stroke-linecap="round" stroke-linejoin="round"/>
</g>
<g id="Group_5">
<path id="Vector_4" d="M59.0409 64.1776L63.9655 65.5846M63.9655 65.5846L65.3726 60.4841M63.9655 65.5846L58.3374 55.7354" stroke="#373737" stroke-width="2" stroke-miterlimit="10" stroke-linecap="round" stroke-linejoin="round"/>
</g>
<g id="Group_6">
<path id="Vector_5" d="M4.16475 47.2933L2.93359 52.3938M2.93359 52.3938L7.85822 53.8008M2.93359 52.3938L12.607 46.7656" stroke="#373737" stroke-width="2" stroke-miterlimit="10" stroke-linecap="round" stroke-linejoin="round"/>
</g>
<g id="Group_7">
<path id="Vector_6" d="M75.7487 53.8008L80.6734 52.3938M80.6734 52.3938L79.4422 47.2933M80.6734 52.3938L71 46.7656" stroke="#373737" stroke-width="2" stroke-miterlimit="10" stroke-linecap="round" stroke-linejoin="round"/>
</g>
<g id="Group_8">
<path id="Vector_7" d="M18.2358 60.4841L19.6429 65.5846M19.6429 65.5846L24.5675 64.1776M19.6429 65.5846L25.271 55.7354" stroke="#373737" stroke-width="2" stroke-miterlimit="10" stroke-linecap="round" stroke-linejoin="round"/>
</g>
<g id="Group_9">
<path id="Vector_8" d="M31.6018 7.36877V3.85118C31.6018 2.26826 32.833 1.03711 34.4159 1.03711H49.3656C50.9485 1.03711 52.1797 2.26826 52.1797 3.85118V7.36877M66.4259 14.5798V45.007C66.4259 46.7657 65.0189 48.1728 63.2601 48.1728H20.3455C18.5867 48.1728 17.1797 46.7657 17.1797 45.007V14.5798C17.1797 12.821 18.5867 11.414 20.3455 11.414H63.0842C65.0189 11.414 66.4259 12.821 66.4259 14.5798Z" stroke="#373737" stroke-width="2" stroke-miterlimit="10" stroke-linecap="round" stroke-linejoin="round"/>
<path id="Vector_9" d="M17.1797 22.4941C21.7526 25.4841 27.9083 27.5946 34.7676 28.474M48.838 28.474C55.6973 27.5946 61.8531 25.4841 66.4259 22.4941" stroke="#373737" stroke-width="2" stroke-miterlimit="10" stroke-linecap="round" stroke-linejoin="round"/>
</g>
<path id="Vector_10" d="M45.6733 11.4141V35.6854L41.8039 38.4995L37.9346 35.6854V11.4141" stroke="#373737" stroke-width="2" stroke-miterlimit="10" stroke-linecap="round" stroke-linejoin="round"/>
<path id="Vector_11" d="M37.9344 23.9014H34.7686V31.4642H48.8389V23.9014H45.6731M41.8037 25.836V27.5948" stroke="#373737" stroke-width="2" stroke-miterlimit="10" stroke-linecap="round" stroke-linejoin="round"/>
<g id="Group_10">
<path id="Vector_12" d="M27.7329 11.4134V7.36816H35.2957V11.4134M48.3108 11.4134V7.36816H55.8736V11.4134" stroke="#373737" stroke-width="2" stroke-miterlimit="10" stroke-linecap="round" stroke-linejoin="round"/>
</g>
</g>
</svg>
