<svg width="70" height="70" viewBox="0 0 70 70" fill="none" xmlns="http://www.w3.org/2000/svg">
<g clip-path="url(#clip0_879_194)">
<path d="M56.803 38.7896C53.73 38.7896 50.7527 39.8525 48.3774 41.802L40.7602 34.5558C42.46 32.2703 43.377 29.4983 43.3782 26.6505C43.3782 26.2771 43.3782 25.947 43.3222 25.548L54.276 22.8798C56.25 27.0285 61.2154 28.7913 65.3629 26.8173C69.5115 24.8421 71.2732 19.8791 69.3004 15.7293C67.3264 11.5806 62.361 9.8178 58.2124 11.7918C55.3074 13.1743 53.4594 16.1096 53.4675 19.3261C53.4675 19.4323 53.4675 19.5303 53.4675 19.6353L42.6292 22.2825C40.2235 15.3385 32.6472 11.6588 25.7032 14.0621C23.9544 14.6676 22.3525 15.6301 20.9969 16.8901L15.6337 12.4055C17.8492 8.33613 16.3477 3.2413 12.2784 1.02463C8.21019 -1.19203 3.11419 0.310635 0.898694 4.37997C-1.31797 8.44813 0.184694 13.543 4.25286 15.7596C7.21269 17.3708 10.8469 17.0558 13.4859 14.9605L18.849 19.4475C15.7807 24.183 16.0479 30.343 19.5164 34.795L13.4287 40.5805C9.80736 37.7583 4.58419 38.407 1.76319 42.0283C-1.05781 45.6496 -0.40914 50.874 3.21219 53.695C6.83353 56.516 12.0567 55.8673 14.8777 52.246C16.9217 49.6221 17.2052 46.0346 15.5987 43.1226L21.8404 37.182C26.738 41.0285 33.6505 40.955 38.4642 37.007L46.0837 44.2041C43.783 47.2853 42.9442 51.2146 43.7807 54.9666L35.824 57.7748C33.6715 53.7113 28.6315 52.162 24.568 54.3156C20.5057 56.4681 18.9552 61.507 21.1089 65.5705C23.2625 69.634 28.3014 71.1833 32.3649 69.0308C35.0902 67.5865 36.7935 64.755 36.7935 61.6703C36.7935 61.4381 36.7935 61.2071 36.7935 60.968L44.868 58.1236C48.179 64.7071 56.1987 67.3578 62.7799 64.0456C69.3599 60.7335 72.0105 52.715 68.6995 46.1338C66.4374 41.6375 61.8372 38.7966 56.803 38.7896ZM61.8092 14.3281C64.573 14.3421 66.8025 16.595 66.7897 19.36C66.7745 22.125 64.524 24.3545 61.7579 24.3405C58.9917 24.3265 56.7645 22.0736 56.7762 19.3086C56.7785 19.1488 56.7867 18.989 56.8019 18.8291C57.062 16.2671 59.225 14.32 61.801 14.3293L61.8092 14.3281ZM8.27553 13.4438C5.50353 13.4543 3.24719 11.2143 3.23669 8.4423C3.22619 5.6703 5.46503 3.41397 8.23703 3.40347C11.009 3.39297 13.2654 5.63297 13.2759 8.40497C13.2829 10.1841 12.3472 11.8338 10.8165 12.7415C10.0477 13.1988 9.17036 13.4415 8.27553 13.4438ZM13.2817 47.1441C13.284 49.9138 11.044 52.1596 8.27436 52.1643C5.50586 52.1678 3.25886 49.9255 3.25536 47.157C3.25186 44.3896 5.49419 42.1403 8.26269 42.138C10.4187 42.1345 12.3355 43.5123 13.0215 45.5575C13.1895 46.0673 13.2747 46.5981 13.2747 47.1325L13.2817 47.1441ZM30.0327 36.6558C27.9759 36.6558 25.9692 36.0176 24.2904 34.83C23.3757 34.1836 22.5765 33.388 21.9244 32.478C19.6039 29.2778 19.402 25.0055 21.411 21.6023C21.9675 20.6398 22.6792 19.7776 23.518 19.0473C27.7075 15.4505 34.0192 15.9311 37.616 20.1206C39.1082 21.859 39.9587 24.0581 40.0229 26.3483C40.0229 26.4463 40.0229 26.5443 40.0229 26.6505C40.031 28.6525 39.4337 30.609 38.309 32.2668C37.679 33.192 36.8974 34.0063 36.0002 34.6748C34.2782 35.9628 32.184 36.6581 30.0327 36.6558ZM28.453 66.7126C25.6927 66.708 23.4574 64.4668 23.462 61.7076C23.4655 58.945 25.7067 56.7108 28.4682 56.7143C31.2239 56.7201 33.4557 58.9508 33.4604 61.7076C33.4604 61.8768 33.4604 62.0355 33.4604 62.1988C33.2049 64.7701 31.0372 66.7231 28.453 66.7126ZM56.803 62.1416C51.2777 62.1416 46.7989 57.6616 46.7989 52.1375C46.7989 46.6121 51.2777 42.1333 56.803 42.1333C62.3295 42.1333 66.8084 46.6121 66.8084 52.1375C66.8037 57.6605 62.3272 62.1381 56.803 62.1416Z" fill="#373737"/>
</g>
<defs>
<clipPath id="clip0_879_194">
<rect width="70" height="70" fill="white"/>
</clipPath>
</defs>
</svg>
