<svg width="51" height="50" viewBox="0 0 51 50" fill="none" xmlns="http://www.w3.org/2000/svg">
<g clip-path="url(#clip0_563_298)">
<path d="M46.1666 20.8333H31.5833C29.2854 20.8333 27.4166 22.7021 27.4166 25V33.3333H4.49998C2.20206 33.3333 0.333313 35.2021 0.333313 37.5V40.625C0.333313 45.7938 4.53956 50 9.70831 50H40.9583C46.1271 50 50.3333 45.7938 50.3333 40.625V25C50.3333 22.7021 48.4646 20.8333 46.1666 20.8333ZM31.5833 25H46.1666V33.3333H31.5833V25ZM33.6666 37.5V45.8333H17V37.5H33.6666ZM4.49998 40.625V37.5H12.8333V45.8333H9.70831C6.83748 45.8333 4.49998 43.4958 4.49998 40.625ZM46.1666 40.625C46.1666 43.4958 43.8312 45.8333 40.9583 45.8333H37.8333V37.5H46.1666V40.625ZM3.24373 17.4708L13.2833 23.325C14.1979 23.7458 15.1708 23.9521 16.1437 23.9521C17.4354 23.9521 18.7187 23.5854 19.85 22.8604C21.9791 21.4958 23.25 19.1229 23.25 16.5083V14.5833H27.9771C28.6979 15.8271 30.0437 16.6667 31.5833 16.6667H42C44.2979 16.6667 46.1666 14.7979 46.1666 12.5C46.1666 10.2021 44.2979 8.33335 42 8.33335H31.5833C30.0437 8.33335 28.6979 9.17293 27.9771 10.4167H23.25V8.49168C23.25 5.87918 21.9791 3.50418 19.85 2.1396C17.8687 0.868764 15.4146 0.695847 13.1041 1.76876L3.27915 7.51043C1.46248 8.49168 0.333313 10.4042 0.333313 12.5C0.333313 14.5833 1.4479 16.4833 3.24373 17.4708ZM5.31873 11.1438L15.025 5.46251C15.4271 5.2771 15.8041 5.20626 16.1458 5.20626C16.7875 5.20626 17.2979 5.45418 17.6021 5.64793C18.5291 6.24376 19.0833 7.30626 19.0833 8.49168V16.5083C19.0833 17.6938 18.5291 18.7583 17.6021 19.3521C17.1354 19.65 16.1854 20.0708 15.2062 19.6333L5.31873 13.8583C5.2979 13.8458 5.27706 13.8354 5.25831 13.8229C4.5729 13.4542 4.49998 12.775 4.49998 12.5C4.49998 12.225 4.5729 11.5458 5.31873 11.1438Z" fill="#373737"/>
</g>
<defs>
<clipPath id="clip0_563_298">
<rect width="50" height="50" fill="white" transform="translate(0.333313)"/>
</clipPath>
</defs>
</svg>
