<svg width="70" height="70" viewBox="0 0 70 70" fill="none" xmlns="http://www.w3.org/2000/svg">
<g id="Group">
<path id="Vector" d="M32.666 0.00440878C32.084 0.00440878 31.5021 0.387977 31.5021 1.16834V3.50061C31.5021 5.05693 33.8343 5.05693 33.8343 3.50061V1.16393C33.8343 0.387977 33.2524 0.00440878 32.666 0.00440878ZM17.3409 8.48259L18.9898 10.1315C20.092 11.2337 21.7409 9.5848 20.6387 8.48259L18.9898 6.83369C18.8784 6.71359 18.7423 6.61907 18.5908 6.55666C18.4393 6.49425 18.2761 6.46542 18.1124 6.47217C17.2351 6.52066 16.5164 7.65814 17.3409 8.48259ZM47.2195 6.47217C47.0559 6.46542 46.8927 6.49425 46.7412 6.55666C46.5897 6.61907 46.4536 6.71359 46.3422 6.83369L44.6933 8.48259C43.5911 9.5848 45.2444 11.2337 46.3422 10.1315L47.9955 8.48259C48.82 7.65814 48.0969 6.52066 47.2195 6.47217ZM22.3934 52.9236C24.8227 54.524 27.5517 55.4984 30.3337 55.8467V68.8219C30.3337 69.47 30.8628 69.9946 31.5065 69.9902H40.8267C40.9805 69.9908 41.1329 69.961 41.2752 69.9025C41.4175 69.8441 41.5468 69.7581 41.6557 69.6496C41.7647 69.541 41.8511 69.412 41.9101 69.27C41.9691 69.128 41.9995 68.9757 41.9995 68.8219V53.6467C41.9995 53.6026 41.9819 53.5585 41.9774 53.5144C42.7975 53.0471 43.5779 52.5092 44.3318 51.9052V68.8219C44.3318 69.47 44.8608 69.9946 45.5045 69.9902H54.8248C54.9786 69.9908 55.131 69.961 55.2732 69.9025C55.4155 69.8441 55.5448 69.7581 55.6538 69.6496C55.7627 69.541 55.8492 69.412 55.9082 69.27C55.9672 69.128 55.9975 68.9757 55.9975 68.8219L56.0019 37.3296C56.0019 37.1758 55.9716 37.0235 55.9126 36.8815C55.8536 36.7394 55.7671 36.6104 55.6582 36.5019C55.5492 36.3933 55.4199 36.3074 55.2777 36.2489C55.1354 36.1905 54.983 36.1607 54.8292 36.1612H51.3065C51.1539 33.7126 50.5196 31.3182 49.44 29.1151C48.3604 26.9121 46.8567 24.9437 45.0151 23.3227C45.3193 22.3087 45.5001 21.1536 45.5001 19.7824C45.5001 13.372 40.3594 7.00123 32.6704 7.00123C24.977 7.00123 19.8407 13.372 19.8407 19.7824C19.8407 21.1536 20.0171 22.3043 20.3169 23.3183C16.9395 26.2941 14.7515 30.3903 14.156 34.852C13.5605 39.3138 14.5977 43.8404 17.0764 47.5978L1.90557 59.7441C-0.739732 61.8868 -0.497246 65.8856 1.80857 68.187C4.11439 70.4928 8.1132 70.7353 10.2515 68.0944L22.3934 52.9236ZM32.666 9.3335C39.0147 9.3335 43.1634 14.6241 43.1634 19.7824C43.1634 23.4329 41.7085 25.1656 40.0023 26.8762C39.1514 27.7316 38.2299 28.5736 37.4716 29.667C36.8406 30.5594 36.4242 31.5854 36.2548 32.665H33.8299V28.3973L36.9602 25.342C37.1287 25.1817 37.2456 24.9747 37.2958 24.7477C37.346 24.5206 37.3273 24.2836 37.242 24.0673C37.1568 23.8509 37.0089 23.6648 36.8173 23.533C36.6258 23.4011 36.3992 23.3294 36.1666 23.3271C36.0103 23.325 35.8553 23.3543 35.7106 23.4134C35.5659 23.4725 35.4346 23.5601 35.3245 23.671L32.6616 26.2722L30.0031 23.671C29.8923 23.5598 29.7603 23.472 29.6148 23.4129C29.4694 23.3538 29.3135 23.3246 29.1566 23.3271C28.9234 23.3281 28.6958 23.3992 28.5035 23.531C28.3111 23.6628 28.1628 23.8494 28.0778 24.0666C27.9927 24.2837 27.9749 24.5214 28.0265 24.7488C28.0781 24.9762 28.1969 25.1829 28.3674 25.342L31.4977 28.4061V32.6562H29.0772C28.9037 31.579 28.4876 30.5554 27.8604 29.6626C27.1065 28.5692 26.185 27.7227 25.3297 26.8718C23.6279 25.1612 22.1686 23.3271 22.1686 19.7736C22.1686 14.6197 26.3129 9.3335 32.666 9.3335ZM32.666 11.6658C30.3293 11.6658 28.1028 12.671 26.5553 14.4213C25.4223 15.5896 27.2828 17.2297 28.3012 15.9644C29.4079 14.7123 30.995 13.998 32.666 13.998C34.2532 14.0333 34.2532 11.6305 32.666 11.6658ZM25.6692 18.6317C25.5078 18.6177 25.3453 18.6373 25.1919 18.6894C25.0386 18.7415 24.8977 18.825 24.7783 18.9344C24.6589 19.0439 24.5636 19.1769 24.4983 19.3252C24.4331 19.4735 24.3994 19.6337 24.3994 19.7957C24.3994 19.9576 24.4331 20.1178 24.4983 20.2661C24.5636 20.4144 24.6589 20.5475 24.7783 20.6569C24.8977 20.7664 25.0386 20.8498 25.1919 20.9019C25.3453 20.954 25.5078 20.9736 25.6692 20.9596C25.9661 20.9413 26.2448 20.8105 26.4486 20.5938C26.6523 20.3771 26.7658 20.0909 26.7658 19.7935C26.7658 19.496 26.6523 19.2098 26.4486 18.9931C26.2448 18.7764 25.9661 18.65 25.6692 18.6317ZM14.0078 20.9993C12.4515 20.9993 12.4515 23.3315 14.0078 23.3315H16.3401C17.8964 23.3315 17.8964 20.9949 16.3401 20.9949L14.0078 20.9993ZM49.0051 20.9993C47.4488 20.9993 47.4488 23.3315 49.0051 23.3315H51.3374C52.8937 23.3315 52.8937 20.9949 51.3374 20.9949L49.0051 20.9993ZM59.507 22.15C59.3532 22.1494 59.2008 22.1792 59.0585 22.2376C58.9162 22.2961 58.7869 22.3821 58.678 22.4906C58.569 22.5992 58.4826 22.7282 58.4236 22.8702C58.3646 23.0122 58.3342 23.1645 58.3342 23.3183V68.8263C58.3342 69.4744 58.8633 69.999 59.507 69.9946H68.8316C69.1415 69.9946 69.4387 69.8715 69.6578 69.6524C69.8769 69.4333 70 69.1361 70 68.8263V23.3271C70.0006 23.1733 69.9708 23.0209 69.9123 22.8787C69.8539 22.7364 69.7679 22.6071 69.6593 22.4981C69.5508 22.3892 69.4218 22.3027 69.2798 22.2437C69.1377 22.1847 68.9854 22.1544 68.8316 22.1544L59.507 22.15ZM60.6665 24.4955H67.6677V67.6447H60.6665V24.4955ZM21.3 25.5889C21.7233 26.3075 22.2082 26.9291 22.702 27.4847C20.1671 30.137 18.7737 33.6779 18.8212 37.3465C18.8687 41.0151 20.3532 44.5187 22.9558 47.1046C25.5585 49.6906 29.0716 51.1524 32.7405 51.1762C36.4093 51.2 39.9411 49.7838 42.577 47.2318C45.1936 44.6185 46.6689 41.0756 46.6804 37.3776C46.692 33.6796 45.2389 30.1275 42.6388 27.4979C43.1326 26.9424 43.6087 26.3119 44.032 25.5933L44.2215 25.7696C45.7878 27.2759 47.0379 29.0793 47.8989 31.0745C48.7598 33.0697 49.2142 35.2165 49.2355 37.3894C49.2568 39.5622 48.8446 41.7176 48.023 43.7292C47.2014 45.7409 45.9869 47.5685 44.4505 49.1052C42.9141 50.6419 41.0867 51.8568 39.0752 52.6788C37.0637 53.5008 34.9084 53.9134 32.7355 53.8925C30.5626 53.8716 28.4157 53.4176 26.4204 52.557C24.4251 51.6965 22.6214 50.4467 21.1148 48.8807C18.0551 45.8143 16.3367 41.6593 16.3367 37.3274C16.3367 32.9955 18.0551 28.8405 21.1148 25.774C21.181 25.7079 21.2295 25.6506 21.3 25.5889ZM24.3289 29.1732C24.9549 29.8037 25.5325 30.3945 25.9469 30.9941C26.3085 31.5143 26.573 32.039 26.7141 32.6783C25.2724 32.8282 25.3341 34.9973 26.8375 34.9973V38.4935C26.8375 40.0102 27.8163 41.3019 29.183 41.7825V43.1625C29.1592 43.6358 29.2319 44.109 29.3966 44.5533C29.5614 44.9977 29.8147 45.4039 30.1413 45.7473C30.4679 46.0907 30.8609 46.3642 31.2964 46.551C31.7319 46.7379 32.2009 46.8342 32.6748 46.8342C33.1487 46.8342 33.6177 46.7379 34.0532 46.551C34.4887 46.3642 34.8817 46.0907 35.2083 45.7473C35.5349 45.4039 35.7882 44.9977 35.953 44.5533C36.1177 44.109 36.1904 43.6358 36.1666 43.1625V41.7825C36.8493 41.5446 37.441 41.1001 37.8597 40.5108C38.2784 39.9215 38.5033 39.2164 38.5033 38.4935V34.9973C40.0067 34.9973 40.0376 32.8194 38.6356 32.6739C38.7766 32.0346 39.0323 31.5143 39.3983 30.9941C39.8083 30.3945 40.3859 29.8037 41.0119 29.1777C43.1595 31.3724 44.3548 34.3256 44.3383 37.3962C44.3218 40.4668 43.0948 43.407 40.9237 45.5785C38.7332 47.766 35.764 48.9946 32.6682 48.9946C29.5724 48.9946 26.6032 47.766 24.4127 45.5785C22.2469 43.4042 21.0236 40.465 21.007 37.3962C20.9906 34.3273 22.1822 31.3751 24.3245 29.1777L24.3289 29.1732ZM29.1698 34.9929H36.171V38.4935C36.1734 38.647 36.1449 38.7994 36.0873 38.9417C36.0296 39.084 35.944 39.2133 35.8354 39.3218C35.7268 39.4304 35.5976 39.516 35.4553 39.5737C35.313 39.6313 35.1606 39.6598 35.0071 39.6574H30.3337C30.1805 39.6586 30.0287 39.6293 29.8869 39.5712C29.7452 39.5132 29.6164 39.4275 29.5081 39.3192C29.3998 39.2108 29.3141 39.0821 29.256 38.9403C29.1979 38.7986 29.1686 38.6467 29.1698 38.4935V34.9973V34.9929ZM51.3065 38.4935H53.6697V67.6447H46.6684V49.692C49.4153 46.5779 51.0472 42.6379 51.3065 38.4935ZM31.5109 41.9941H33.8343V43.1625C33.8367 43.3156 33.8084 43.4677 33.751 43.6096C33.6936 43.7516 33.6083 43.8807 33.5003 43.9892C33.3922 44.0977 33.2634 44.1834 33.1217 44.2414C32.9799 44.2993 32.8279 44.3282 32.6748 44.3264C32.5218 44.3276 32.3702 44.2983 32.2287 44.2401C32.0872 44.182 31.9587 44.0962 31.8507 43.9879C31.7427 43.8795 31.6575 43.7507 31.5999 43.6089C31.5423 43.4672 31.5135 43.3154 31.5153 43.1625L31.5109 41.9941ZM18.496 49.4627C18.8046 49.8242 19.1132 50.1901 19.4615 50.5296C19.8098 50.8779 20.1714 51.191 20.5373 51.504L8.43946 66.6263C7.26671 68.0591 4.88153 67.9401 3.4707 66.5293C2.05988 65.1185 1.92761 62.7201 3.37371 61.5517L18.496 49.4627ZM39.1867 54.8282L39.6716 54.6431V67.6447H32.666V56.0054C34.8748 56.0054 37.0836 55.6086 39.1822 54.8282H39.1867Z" fill="white"/>
</g>
</svg>
