<svg xmlns="http://www.w3.org/2000/svg" width="70" height="71" viewBox="0 0 70 71" fill="none">
  <path d="M66.8432 14.3057H62.4121V3.50488C62.4121 1.58221 60.8483 0.0185547 58.9258 0.0185547H44.1602C42.2375 0.0185547 40.6738 1.58234 40.6738 3.50488V14.3057H34.248V5.55566C34.248 3.63299 32.6843 2.06934 30.7617 2.06934H10.8008C8.87811 2.06934 7.31445 3.63313 7.31445 5.55566V14.3057H3.15684C1.41641 14.3057 0 15.7221 0 17.4625V21.8594C0 22.1313 0.108032 22.3921 0.30033 22.5844C0.492628 22.7767 0.75344 22.8848 1.02539 22.8848C1.29734 22.8848 1.55815 22.7767 1.75045 22.5844C1.94275 22.3921 2.05078 22.1313 2.05078 21.8594V17.4625C2.05078 16.8526 2.54693 16.3564 3.15684 16.3564H7.31445V18.4072H5.12695C4.855 18.4072 4.59419 18.5153 4.40189 18.7076C4.20959 18.8999 4.10156 19.1607 4.10156 19.4326V54.9795C4.10156 55.2514 4.20959 55.5123 4.40189 55.7046C4.59419 55.8969 4.855 56.0049 5.12695 56.0049H56.875C57.441 56.0049 57.9004 55.5462 57.9004 54.9795C57.9004 54.4128 57.441 53.9541 56.875 53.9541H6.15234V20.458H7.32621C7.46607 22.253 8.97053 23.6709 10.8008 23.6709H19.0765V45.0961C19.0765 45.6624 19.5359 46.1215 20.1019 46.1215H23.3105C23.5825 46.1215 23.8433 46.0135 24.0356 45.8212C24.2279 45.6289 24.3359 45.368 24.3359 45.0961C24.3359 44.8241 24.2279 44.5633 24.0356 44.371C23.8433 44.1787 23.5825 44.0707 23.3105 44.0707H21.1273V23.6709H30.7617C32.592 23.6709 34.0963 22.253 34.2363 20.458H41.4482C42.088 21.2496 43.0653 21.7568 44.1602 21.7568H47.6165C48.0908 23.0579 49.2492 24.0318 50.6543 24.2435V31.5776H47.3047C47.0327 31.5776 46.7719 31.6856 46.5796 31.8779C46.3873 32.0702 46.2793 32.3311 46.2793 32.603C46.2793 32.875 46.3873 33.1358 46.5796 33.3281C46.7719 33.5204 47.0327 33.6284 47.3047 33.6284H51.6797C51.9516 33.6284 52.2125 33.5204 52.4048 33.3281C52.597 33.1358 52.7051 32.875 52.7051 32.603V24.2435C54.1101 24.032 55.2686 23.0579 55.7428 21.7568H58.9258C60.0201 21.7568 60.9979 21.2496 61.6377 20.458H63.8477V53.9541H61.2842C60.7182 53.9541 60.2588 54.4128 60.2588 54.9795C60.2588 55.5462 60.7182 56.0049 61.2842 56.0049H64.873C65.145 56.0049 65.4058 55.8969 65.5981 55.7046C65.7904 55.5123 65.8984 55.2514 65.8984 54.9795V19.4326C65.8984 19.1607 65.7904 18.8999 65.5981 18.7076C65.4058 18.5153 65.145 18.4072 64.873 18.4072H62.409C62.4105 18.3618 62.4121 18.3164 62.4121 18.2705V16.3564H66.8432C67.4531 16.3564 67.9492 16.8526 67.9492 17.4625V56.9496C67.9492 57.5595 67.4531 58.0557 66.8432 58.0557H3.15684C2.54693 58.0557 2.05078 57.5595 2.05078 56.9496V26.2344C2.05078 25.9624 1.94275 25.7016 1.75045 25.5093C1.55815 25.317 1.29734 25.209 1.02539 25.209C0.75344 25.209 0.492628 25.317 0.30033 25.5093C0.108032 25.7016 0 25.9624 0 26.2344L0 56.9496C0 58.69 1.41641 60.1064 3.15684 60.1064H27.8223V63.8662H17.3633C15.6671 63.8662 14.2871 65.2462 14.2871 66.9424C14.2871 68.6385 15.6671 70.0186 17.3633 70.0186H52.6367C54.3329 70.0186 55.7129 68.6385 55.7129 66.9424C55.7129 65.2462 54.3329 63.8662 52.6367 63.8662H42.1777V60.1064H66.8432C68.5836 60.1064 70 58.69 70 56.9496V17.4625C70 15.7221 68.5836 14.3057 66.8432 14.3057ZM32.1973 20.1846C32.1973 20.9762 31.5533 21.6201 30.7617 21.6201H10.8008C10.0092 21.6201 9.36523 20.9762 9.36523 20.1846V5.55566C9.36523 4.76406 10.0092 4.12012 10.8008 4.12012H30.7617C31.5533 4.12012 32.1973 4.76406 32.1973 5.55566V20.1846ZM34.248 18.4072V16.3564H40.6738V18.2705C40.6738 18.3164 40.6755 18.3618 40.677 18.4072H34.248ZM52.1315 22.2354H51.2278C50.3044 22.2354 49.5424 21.533 49.4464 20.6348L49.4446 20.6177C49.4386 20.5597 49.4356 20.5014 49.4356 20.4431V20.1877H53.9238V20.4431C53.9238 20.5071 53.9202 20.5711 53.9131 20.6348C53.817 21.533 53.0549 22.2354 52.1315 22.2354ZM58.9258 19.7061H55.9746V19.6388C55.9746 19.2132 55.7956 18.8291 55.51 18.5552C55.6339 18.1573 55.8757 17.8074 56.2116 17.5671C58.2962 16.0749 59.541 13.6419 59.541 11.0591C59.541 9.58299 59.1393 8.14102 58.3789 6.88977C58.2378 6.65726 58.01 6.49035 57.7458 6.42574C57.4816 6.36113 57.2025 6.40411 56.97 6.54523C56.4862 6.83959 56.3318 7.47027 56.6262 7.95412C57.1911 8.88504 57.4902 9.95842 57.4902 11.059C57.4902 12.9817 56.5657 14.7917 55.0175 15.8993C54.2608 16.4413 53.7268 17.2387 53.4945 18.1369H49.865C49.6326 17.2387 49.0986 16.4413 48.3413 15.8993C46.7936 14.7917 45.8691 12.9817 45.8691 11.0591C45.8691 7.79812 48.4758 5.14551 51.6797 5.14551C52.4196 5.14425 53.1526 5.28718 53.8378 5.56633C53.9624 5.61723 54.0959 5.64305 54.2306 5.64234C54.3652 5.64162 54.4984 5.61437 54.6225 5.56214C54.7466 5.50992 54.8592 5.43374 54.9538 5.33797C55.0485 5.2422 55.1233 5.12872 55.1741 5.004C55.2249 4.87929 55.2507 4.74579 55.25 4.61112C55.2492 4.47644 55.222 4.34323 55.1697 4.21909C55.1175 4.09496 55.0413 3.98232 54.9456 3.88762C54.8498 3.79292 54.7363 3.71801 54.6116 3.66717C53.6807 3.2878 52.6849 3.09337 51.6797 3.09473C47.3447 3.09473 43.8184 6.6676 43.8184 11.0591C43.8184 13.6418 45.0632 16.0749 47.1477 17.5671C47.4837 17.8074 47.7255 18.1573 47.8494 18.5556C47.7025 18.6953 47.5856 18.8634 47.5058 19.0497C47.4259 19.236 47.3848 19.4366 47.3848 19.6393V19.7061H44.1602C43.3686 19.7061 42.7246 19.0621 42.7246 18.2705V3.50488C42.7246 2.71328 43.3686 2.06934 44.1602 2.06934H58.9258C59.7174 2.06934 60.3613 2.71328 60.3613 3.50488V18.2705C60.3613 19.0621 59.7174 19.7061 58.9258 19.7061ZM53.6621 66.9424C53.6621 67.508 53.2023 67.9678 52.6367 67.9678H17.3633C16.7977 67.9678 16.3379 67.508 16.3379 66.9424C16.3379 66.3768 16.7977 65.917 17.3633 65.917H52.6367C53.2023 65.917 53.6621 66.3768 53.6621 66.9424ZM40.127 63.8662H29.873V60.1064H40.127V63.8662Z" fill="black"/>
  <path d="M45.4579 40.5439C46.766 40.264 47.7148 39.0902 47.7148 37.7529C47.7148 36.4157 46.7659 35.2418 45.4579 34.962C45.0993 34.8839 44.7398 34.8099 44.3796 34.7398L43.7634 33.2513C43.9681 32.9468 44.1698 32.6403 44.3684 32.3318C45.0953 31.2092 44.9367 29.7079 43.9909 28.762C43.0451 27.8168 41.5438 27.6576 40.4212 28.3846C40.1128 28.5831 39.8064 28.7848 39.5021 28.9895L38.0137 28.3733C37.9656 28.1245 37.8952 27.78 37.7915 27.295C37.5117 25.9869 36.3372 25.0381 35 25.0381C33.6628 25.0381 32.4883 25.9871 32.2085 27.295C32.1309 27.6537 32.0569 28.0132 31.9863 28.3733L30.4979 28.9895C30.1936 28.7848 29.8872 28.5831 29.5788 28.3846C28.4562 27.6576 26.9549 27.8168 26.0091 28.762C25.0633 29.7079 24.9047 31.2092 25.6316 32.3318C25.8302 32.6403 26.0319 32.9468 26.2366 33.2513L25.6204 34.7398C25.3716 34.7878 25.0265 34.8578 24.5421 34.962C23.234 35.2418 22.2852 36.4157 22.2852 37.7529C22.2852 39.0902 23.2341 40.264 24.5421 40.5439C24.9008 40.6218 25.2602 40.696 25.6204 40.7666L26.2366 42.2545C26.0319 42.559 25.8302 42.8656 25.6316 43.1741C24.9047 44.2967 25.0633 45.798 26.0091 46.7438C26.9549 47.6891 28.4562 47.8482 29.5788 47.1213C29.8872 46.9227 30.1936 46.7211 30.4979 46.5163L31.9863 47.1331C32.0344 47.3815 32.1048 47.7264 32.2085 48.2108C32.4883 49.5189 33.6628 50.4678 35 50.4678C36.3372 50.4678 37.5117 49.5188 37.7915 48.2108C37.8691 47.8521 37.9431 47.4927 38.0137 47.1325L39.5021 46.5163C39.712 46.6584 40.0053 46.8522 40.4212 47.1213C41.5438 47.8482 43.0451 47.6891 43.9909 46.7438C44.9367 45.798 45.0953 44.2967 44.3684 43.1741C44.1698 42.8656 43.9681 42.559 43.7634 42.2545L44.3796 40.7661C44.6284 40.7185 44.9729 40.6481 45.4579 40.5439ZM26.3382 38.8173H26.3531H26.338H26.3382ZM43.6326 38.8178C43.6432 38.8173 43.6528 38.8173 43.6609 38.8173H43.6688C43.6565 38.8173 43.6442 38.8173 43.6326 38.8178ZM43.6192 38.8184C43.2154 38.8371 42.8582 39.0854 42.699 39.4656L41.6544 41.9875C41.5 42.3619 41.5743 42.7875 41.8455 43.0908C41.8802 43.1351 42.0421 43.3542 42.6472 44.2888C42.8518 44.6043 42.8069 45.0273 42.5409 45.2932C42.2744 45.5598 41.8514 45.6047 41.5358 45.4002C40.6242 44.8095 40.3934 44.6412 40.3416 44.6012C40.0431 44.3283 39.6154 44.2513 39.2328 44.4079L36.7176 45.4496C36.333 45.6069 36.0809 45.9684 36.0654 46.3748C36.0564 46.4441 36.0105 46.733 35.7861 47.7815C35.7071 48.15 35.3765 48.417 35 48.417C34.6235 48.417 34.2929 48.15 34.2139 47.7815C33.9869 46.7203 33.9432 46.4373 33.9346 46.3721C33.926 46.1728 33.8604 45.9802 33.7455 45.8171C33.6307 45.654 33.4715 45.5273 33.2868 45.452L30.7634 44.4062C30.3815 44.2504 29.9499 44.3298 29.6557 44.6032C29.5985 44.6477 29.3598 44.8201 28.4648 45.4002C28.1486 45.6047 27.7256 45.5603 27.4597 45.2938C27.3302 45.1634 27.2491 44.9928 27.2296 44.8101C27.2102 44.6274 27.2536 44.4435 27.3528 44.2888C27.9441 43.3755 28.1122 43.1458 28.1518 43.0945C28.286 42.9472 28.3755 42.7647 28.4098 42.5683C28.444 42.3719 28.4216 42.1698 28.3451 41.9857L27.2995 39.4619C27.2231 39.2789 27.0963 39.1212 26.9339 39.0074C26.7715 38.8936 26.5801 38.8282 26.3819 38.8189C26.3195 38.8109 26.0407 38.7677 24.9714 38.5391C24.6029 38.46 24.3359 38.1295 24.3359 37.7529C24.3359 37.3764 24.6029 37.0458 24.9714 36.9673C26.0343 36.7398 26.3162 36.6955 26.3808 36.6875C26.7846 36.6687 27.1418 36.4205 27.301 36.0403L28.3456 33.5183C28.5 33.144 28.4257 32.7184 28.1545 32.415C28.1198 32.3707 27.9579 32.1517 27.3528 31.2171C27.1482 30.9015 27.1931 30.4785 27.4591 30.2126C27.7251 29.946 28.1481 29.9012 28.4642 30.1057C29.3758 30.6963 29.6066 30.8646 29.6584 30.9047C29.9569 31.1776 30.3846 31.2546 30.7672 31.098L33.2868 30.054C33.6686 29.8958 33.9191 29.5359 33.9346 29.1312C33.9436 29.0617 33.9895 28.7727 34.2139 27.7243C34.2923 27.3559 34.6229 27.0889 35 27.0889C35.1837 27.0896 35.3617 27.1529 35.5045 27.2684C35.6474 27.384 35.7465 27.5448 35.7856 27.7243C36.0131 28.7866 36.0568 29.0691 36.0654 29.1338C36.0842 29.5364 36.3303 29.8926 36.7121 30.0539L39.2373 31.1002C39.6196 31.2561 40.0501 31.1761 40.3443 30.9026C40.4015 30.8589 40.6402 30.6858 41.5352 30.1057C41.8514 29.9012 42.2744 29.946 42.5403 30.2126C42.8069 30.4785 42.8518 30.9015 42.6472 31.2171C42.0559 32.1304 41.8878 32.3601 41.8482 32.4119C41.7139 32.559 41.6244 32.7415 41.5901 32.9378C41.5559 33.134 41.5784 33.336 41.6549 33.52L42.6979 36.0386C42.7735 36.2232 42.9002 36.3823 43.0633 36.4972C43.2263 36.6121 43.4188 36.6779 43.6181 36.6869C43.6805 36.6955 43.9599 36.7382 45.0286 36.9672C45.397 37.0458 45.6641 37.3764 45.6641 37.7529C45.6641 38.1295 45.3965 38.46 45.0286 38.5385C43.9657 38.766 43.6838 38.8103 43.6192 38.8184Z" fill="black"/>
  <path d="M35 32.9151C32.3329 32.9151 30.163 35.0855 30.163 37.7526C30.163 40.4197 32.3329 42.5902 35 42.5902C37.6671 42.5902 39.837 40.4197 39.837 37.7526C39.837 35.0855 37.6671 32.9151 35 32.9151ZM35 40.5394C33.4636 40.5394 32.2138 39.2891 32.2138 37.7526C32.2138 36.2162 33.4634 34.9659 35 34.9659C36.5366 34.9659 37.7862 36.2162 37.7862 37.7526C37.7862 39.2891 36.5366 40.5394 35 40.5394ZM12.5781 9.4792L20.5896 9.47852C20.7243 9.47852 20.8577 9.45197 20.9821 9.40041C21.1065 9.34884 21.2196 9.27327 21.3148 9.17799C21.41 9.08272 21.4856 8.96962 21.5371 8.84515C21.5886 8.72068 21.615 8.58728 21.615 8.45258C21.615 8.31795 21.5884 8.18464 21.5369 8.06026C21.4854 7.93589 21.4098 7.82288 21.3146 7.72771C21.2194 7.63254 21.1063 7.55706 20.9819 7.50559C20.8575 7.45412 20.7242 7.42766 20.5896 7.42773L12.5781 7.42842C12.3062 7.42842 12.0454 7.53645 11.8531 7.72875C11.6608 7.92105 11.5527 8.18186 11.5527 8.45381C11.5527 8.72576 11.6608 8.98657 11.8531 9.17887C12.0454 9.37117 12.3062 9.4792 12.5781 9.4792ZM12.5781 13.5801L28.9844 13.5795C29.119 13.5795 29.2524 13.553 29.3768 13.5015C29.5012 13.4499 29.6142 13.3744 29.7094 13.2792C29.8047 13.184 29.8802 13.0709 29.9317 12.9465C29.9832 12.8221 30.0098 12.6888 30.0098 12.5541C30.0098 12.4195 29.9832 12.2861 29.9317 12.1617C29.8802 12.0373 29.8047 11.9243 29.7094 11.8291C29.6142 11.7339 29.5012 11.6583 29.3768 11.6068C29.2524 11.5553 29.119 11.5288 28.9844 11.5288L12.5781 11.5293C12.3062 11.5293 12.0454 11.6373 11.8531 11.8296C11.6608 12.0219 11.5527 12.2827 11.5527 12.5547C11.5527 12.8266 11.6608 13.0875 11.8531 13.2797C12.0454 13.472 12.3062 13.5801 12.5781 13.5801ZM28.9844 15.6303L12.5787 15.6309C12.444 15.6308 12.3106 15.6573 12.1862 15.7088C12.0618 15.7603 11.9487 15.8358 11.8535 15.9311C11.7583 16.0263 11.6827 16.1394 11.6312 16.2638C11.5797 16.3882 11.5532 16.5216 11.5533 16.6562C11.5533 16.9282 11.6613 17.189 11.8536 17.3813C12.0459 17.5736 12.3067 17.6816 12.5787 17.6816L28.9844 17.6811C29.5504 17.6811 30.0098 17.2219 30.0098 16.6557C30.0098 16.0896 29.5504 15.6303 28.9844 15.6303Z" fill="black"/>
</svg>