<svg xmlns="http://www.w3.org/2000/svg" width="64" height="72" viewBox="0 0 64 72" fill="none">
  <path d="M62.2171 25.6761V18.9382C62.2171 18.8133 62.1842 18.6907 62.1217 18.5825C62.0593 18.4744 61.9695 18.3846 61.8614 18.3222L31.8585 1L1.5 18.5275V53.5825L31.5028 70.9047C31.611 70.9671 31.7337 71 31.8585 71C31.9834 71 32.1061 70.9671 32.2142 70.9047L61.8614 53.7878C61.9695 53.7254 62.0593 53.6356 62.1217 53.5275C62.1842 53.4193 62.2171 53.2966 62.2171 53.1718V38.6405M31.7636 70.5612V34.3348M31.7636 34.3348L1.87717 18.7245M31.7636 34.3348L61.5412 18.8783M18.8451 16.8004L11.8907 13.1681M17.8959 52.7408L1.87717 44.374M31.7636 46.494L14.2629 37.3531M61.8342 43.8857L48.3939 51.2865" stroke="#373737" stroke-width="2" stroke-miterlimit="10" stroke-linecap="round" stroke-linejoin="round"/>
  <path d="M48.9384 35.2305L44.8915 37.331C44.6615 37.4504 44.4687 37.6307 44.3341 37.8521C44.1995 38.0736 44.1284 38.3278 44.1283 38.5869V42.7822C44.1284 43.0414 44.0572 43.2955 43.9227 43.517C43.7881 43.7384 43.5953 43.9187 43.3653 44.0381L31.7637 50.0607" stroke="#373737" stroke-width="2" stroke-miterlimit="10" stroke-linecap="round" stroke-linejoin="round"/>
  <path d="M51.7689 36.5441C53.3319 36.5441 54.599 35.277 54.599 33.714C54.599 32.1509 53.3319 30.8838 51.7689 30.8838C50.2058 30.8838 48.9387 32.1509 48.9387 33.714C48.9387 35.277 50.2058 36.5441 51.7689 36.5441Z" stroke="#373737" stroke-width="2" stroke-miterlimit="10" stroke-linecap="round" stroke-linejoin="round"/>
  <path d="M45.5636 55.5715C47.1266 55.5715 48.3937 54.3044 48.3937 52.7413C48.3937 51.1782 47.1266 49.9111 45.5636 49.9111C44.0005 49.9111 42.7334 51.1782 42.7334 52.7413C42.7334 54.3044 44.0005 55.5715 45.5636 55.5715Z" stroke="#373737" stroke-width="2" stroke-miterlimit="10" stroke-linecap="round" stroke-linejoin="round"/>
  <path d="M11.1427 38.6408C12.7057 38.6408 13.9728 37.3737 13.9728 35.8106C13.9728 34.2476 12.7057 32.9805 11.1427 32.9805C9.57961 32.9805 8.3125 34.2476 8.3125 35.8106C8.3125 37.3737 9.57961 38.6408 11.1427 38.6408Z" stroke="#373737" stroke-width="2" stroke-miterlimit="10" stroke-linecap="round" stroke-linejoin="round"/>
  <path d="M35.8868 18.8283C37.4499 18.8283 38.717 17.5612 38.717 15.9981C38.717 14.4351 37.4499 13.168 35.8868 13.168C34.3237 13.168 33.0566 14.4351 33.0566 15.9981C33.0566 17.5612 34.3237 18.8283 35.8868 18.8283Z" stroke="#373737" stroke-width="2" stroke-miterlimit="10" stroke-linecap="round" stroke-linejoin="round"/>
  <path d="M21.6751 20.8859C23.2382 20.8859 24.5053 19.6188 24.5053 18.0557C24.5053 16.4927 23.2382 15.2256 21.6751 15.2256C20.1121 15.2256 18.845 16.4927 18.845 18.0557C18.845 19.6188 20.1121 20.8859 21.6751 20.8859Z" stroke="#373737" stroke-width="2" stroke-miterlimit="10" stroke-linecap="round" stroke-linejoin="round"/>
  <path d="M20.7259 56.9465C22.289 56.9465 23.5561 55.6794 23.5561 54.1163C23.5561 52.5532 22.289 51.2861 20.7259 51.2861C19.1629 51.2861 17.8958 52.5532 17.8958 54.1163C17.8958 55.6794 19.1629 56.9465 20.7259 56.9465Z" stroke="#373737" stroke-width="2" stroke-miterlimit="10" stroke-linecap="round" stroke-linejoin="round"/>
  <path d="M38.9858 17.8047L49.8252 23.967" stroke="#373737" stroke-width="2" stroke-miterlimit="10" stroke-linecap="round" stroke-linejoin="round"/>
</svg>