<svg width="70" height="70" viewBox="0 0 70 70" fill="none" xmlns="http://www.w3.org/2000/svg">
<g id="Group">
<path id="Vector" d="M52.4099 30.1763C52.3145 29.8187 52.1471 29.4843 51.918 29.1937C51.6889 28.903 51.403 28.6621 51.0776 28.4858L50.1268 27.962C50.0615 27.9325 50.0063 27.8848 49.9678 27.8245C49.9292 27.7642 49.9091 27.694 49.9098 27.6225C50.0027 26.9728 50.0499 26.3175 50.0509 25.6613C50.0504 25.0047 50.0032 24.3489 49.9098 23.699C49.9099 23.6276 49.9305 23.5577 49.9691 23.4978C50.0078 23.4378 50.0629 23.3902 50.1279 23.3606L51.0788 22.8368C51.4041 22.6605 51.6901 22.4196 51.9192 22.1289C52.1483 21.8382 52.3157 21.5039 52.4111 21.1463C52.5054 20.7982 52.5277 20.4345 52.4768 20.0775C52.4258 19.7204 52.3027 19.3775 52.1148 19.0696L49.4828 14.7133C49.0949 14.0938 48.4848 13.646 47.7775 13.4616C47.0702 13.2773 46.3192 13.3703 45.6783 13.7217L44.7181 14.2513C44.619 14.2984 44.5087 14.3166 44.3997 14.3038C44.2907 14.291 44.1876 14.2478 44.1021 14.179C43.075 13.4266 41.9576 12.8062 40.776 12.3322C40.6208 12.2703 40.44 12.1327 40.44 11.9472V10.8972C40.4298 10.1622 40.1284 9.46124 39.6019 8.94829C39.0754 8.43534 38.3668 8.15231 37.6318 8.16134H32.3701C31.6355 8.15262 30.9274 8.43563 30.4012 8.94829C29.875 9.46095 29.5736 10.1614 29.5632 10.896V11.946C29.5632 12.1315 29.3823 12.2692 29.226 12.3322C28.0447 12.8055 26.9276 13.4256 25.901 14.1778C25.8155 14.2466 25.7124 14.2899 25.6034 14.3026C25.4944 14.3154 25.3841 14.2972 25.285 14.2502L24.3248 13.7205C23.6837 13.3693 22.9325 13.2764 22.2251 13.4608C21.5177 13.6451 20.9074 14.0928 20.5192 14.7122L17.8895 19.0696C17.7012 19.3773 17.5777 19.7202 17.5266 20.0773C17.4754 20.4344 17.4977 20.7981 17.592 21.1463C17.6874 21.5039 17.8548 21.8382 18.0839 22.1289C18.313 22.4196 18.599 22.6605 18.9243 22.8368L19.8752 23.3606C19.9404 23.3901 19.9956 23.4378 20.0342 23.4981C20.0727 23.5584 20.0928 23.6286 20.0922 23.7001C19.9992 24.3497 19.9521 25.0051 19.951 25.6613C19.9515 26.3179 19.9987 26.9737 20.0922 27.6236C20.0921 27.695 20.0715 27.7648 20.0328 27.8248C19.9941 27.8848 19.939 27.9324 19.874 27.962L18.9232 28.4858C18.5978 28.6621 18.3118 28.903 18.0827 29.1937C17.8536 29.4843 17.6863 29.8187 17.5908 30.1763C17.4966 30.5244 17.4742 30.8881 17.5252 31.2451C17.5761 31.6022 17.6993 31.9451 17.8872 32.2529L20.5192 36.6093C20.907 37.2288 21.5171 37.6766 22.2244 37.861C22.9317 38.0453 23.6827 37.9523 24.3237 37.6009L25.2838 37.0713C25.3829 37.0242 25.4933 37.006 25.6022 37.0188C25.7112 37.0316 25.8143 37.0748 25.8998 37.1436C26.9269 37.896 28.0443 38.5164 29.226 38.9904C29.3811 39.0523 29.562 39.1899 29.562 39.3754V40.4254C29.5721 41.1604 29.8736 41.8614 30.4001 42.3743C30.9266 42.8872 31.6351 43.1703 32.3701 43.1612H37.6318C38.3664 43.17 39.0745 42.887 39.6007 42.3743C40.1269 41.8616 40.4283 41.1612 40.4388 40.4266V39.3766C40.4388 39.1911 40.6196 39.0534 40.776 38.9904C41.9573 38.517 43.0744 37.897 44.1009 37.1448C44.1864 37.076 44.2896 37.0327 44.3985 37.0199C44.5075 37.0071 44.6179 37.0253 44.7169 37.0724L45.6771 37.6021C46.3181 37.9541 47.0695 38.0475 47.7771 37.8631C48.4848 37.6787 49.0951 37.2305 49.4828 36.6104L52.1124 32.2541C52.3009 31.9463 52.4245 31.6032 52.4756 31.2459C52.5268 30.8886 52.5044 30.5246 52.4099 30.1763ZM50.1151 31.0466L47.4843 35.4029C47.4101 35.5082 47.2995 35.5823 47.174 35.611C47.0484 35.6396 46.9166 35.6208 46.8041 35.5581L45.8439 35.0284C45.3551 34.7663 44.8016 34.649 44.2484 34.6904C43.6952 34.7317 43.1653 34.9299 42.7208 35.2618C41.8526 35.8984 40.9075 36.4229 39.908 36.8228C39.3859 37.0182 38.9347 37.3661 38.613 37.8213C38.2914 38.2766 38.1141 38.8181 38.1043 39.3754V40.4254C38.0939 40.5411 38.0384 40.6481 37.9497 40.7232C37.8611 40.7983 37.7465 40.8355 37.6306 40.8268H32.369C32.2531 40.8355 32.1385 40.7983 32.0499 40.7232C31.9612 40.6481 31.9057 40.5411 31.8953 40.4254V39.3754C31.8857 38.8183 31.7086 38.2771 31.3871 37.822C31.0656 37.3669 30.6146 37.0192 30.0928 36.8239C29.0927 36.4235 28.1472 35.8982 27.2788 35.2606C26.7683 34.8842 26.1514 34.68 25.5172 34.6773C25.041 34.677 24.5726 34.7974 24.1557 35.0273L23.1955 35.5569C23.083 35.6188 22.9517 35.6371 22.8265 35.6085C22.7013 35.5799 22.591 35.5064 22.5165 35.4018L19.8845 31.0454C19.8596 31.0061 19.8433 30.9621 19.8364 30.9161C19.8296 30.87 19.8325 30.8231 19.8448 30.7783C19.8597 30.7243 19.8858 30.6741 19.9214 30.6309C19.957 30.5877 20.0013 30.5524 20.0513 30.5274L21.0022 30.0024C21.4812 29.7448 21.8711 29.3483 22.1207 28.865C22.3703 28.3818 22.468 27.8344 22.401 27.2946C22.3237 26.7536 22.2847 26.2078 22.2843 25.6613C22.2852 25.1148 22.3241 24.569 22.401 24.028C22.4683 23.4877 22.3705 22.9398 22.1207 22.4561C21.8708 21.9724 21.4805 21.5756 21.001 21.3178L20.0502 20.794C20.0001 20.769 19.9558 20.7337 19.9202 20.6905C19.8847 20.6473 19.8586 20.5971 19.8437 20.5431C19.8312 20.4983 19.8285 20.4512 19.8355 20.4052C19.8425 20.3591 19.8592 20.3151 19.8845 20.276L22.5177 15.9197C22.5924 15.815 22.7029 15.7414 22.8282 15.7128C22.9536 15.6842 23.0851 15.7026 23.1978 15.7645L24.158 16.2942C24.6469 16.5563 25.2004 16.6736 25.7536 16.6322C26.3067 16.5909 26.8367 16.3927 27.2812 16.0608C28.1493 15.4242 29.0944 14.8997 30.094 14.4998C30.616 14.3044 31.0672 13.9565 31.3889 13.5012C31.7106 13.046 31.8878 12.5045 31.8976 11.9472V10.8972C31.9078 10.7815 31.963 10.6744 32.0514 10.5991C32.1398 10.5238 32.2543 10.4863 32.3701 10.4947H37.6318C37.7476 10.4859 37.8623 10.5231 37.9509 10.5982C38.0395 10.6733 38.0951 10.7803 38.1055 10.896V11.946C38.1151 12.5031 38.2922 13.0444 38.6137 13.4994C38.9351 13.9545 39.3861 14.3023 39.908 14.4975C40.9081 14.8979 41.8536 15.4232 42.7219 16.0608C43.1664 16.3927 43.6964 16.5909 44.2496 16.6322C44.8027 16.6736 45.3562 16.5563 45.8451 16.2942L46.8053 15.7645C46.9176 15.7019 47.0492 15.6831 47.1746 15.7117C47.2999 15.7404 47.4103 15.8144 47.4843 15.9197L50.1163 20.276C50.1411 20.3153 50.1575 20.3594 50.1643 20.4054C50.1712 20.4514 50.1683 20.4983 50.1559 20.5431C50.141 20.5971 50.1149 20.6473 50.0794 20.6905C50.0438 20.7337 49.9995 20.769 49.9494 20.794L48.9986 21.319C48.5196 21.5769 48.1298 21.9736 47.8804 22.4571C47.631 22.9406 47.5335 23.4881 47.6009 24.028C47.6783 24.569 47.7173 25.1148 47.7176 25.6613C47.7168 26.2078 47.6778 26.7536 47.6009 27.2946C47.5337 27.8349 47.6314 28.3828 47.8812 28.8665C48.1311 29.3502 48.5214 29.747 49.0009 30.0048L49.9518 30.5286C50.0018 30.5536 50.0461 30.5888 50.0817 30.6321C50.1173 30.6753 50.1434 30.7255 50.1583 30.7794C50.1703 30.8245 50.1727 30.8716 50.1653 30.9177C50.1579 30.9637 50.1408 31.0077 50.1151 31.0466Z" fill="#373737"/>
<path id="Vector_2" d="M35.0008 17.4941C33.3856 17.4941 31.8067 17.9731 30.4637 18.8705C29.1207 19.7678 28.074 21.0433 27.4558 22.5355C26.8377 24.0278 26.676 25.6698 26.9911 27.254C27.3062 28.8382 28.084 30.2933 29.2261 31.4355C30.3683 32.5776 31.8234 33.3554 33.4076 33.6705C34.9918 33.9856 36.6338 33.8239 38.1261 33.2058C39.6183 32.5877 40.8938 31.5409 41.7912 30.1979C42.6885 28.8549 43.1675 27.276 43.1675 25.6608C43.165 23.4956 42.3038 21.4198 40.7728 19.8888C39.2418 18.3578 37.166 17.4966 35.0008 17.4941ZM35.0008 31.4941C33.8471 31.4941 32.7193 31.152 31.76 30.511C30.8007 29.87 30.0531 28.959 29.6116 27.8931C29.17 26.8272 29.0545 25.6543 29.2796 24.5228C29.5047 23.3912 30.0603 22.3518 30.8761 21.536C31.6919 20.7202 32.7313 20.1646 33.8628 19.9396C34.9944 19.7145 36.1673 19.83 37.2332 20.2715C38.299 20.713 39.2101 21.4607 39.8511 22.42C40.492 23.3793 40.8342 24.5071 40.8342 25.6608C40.8323 27.2073 40.2171 28.69 39.1236 29.7835C38.03 30.8771 36.5474 31.4923 35.0008 31.4941ZM32.6675 69.994V53.6607C32.6674 53.3513 32.5445 53.0546 32.3257 52.8359L29.9923 50.5026L28.3427 52.1522L30.3342 54.1437V69.994H32.6675ZM28.0009 47.8274C28.0009 47.1352 27.7956 46.4585 27.411 45.8829C27.0264 45.3073 26.4798 44.8587 25.8403 44.5938C25.2007 44.3289 24.497 44.2596 23.818 44.3947C23.1391 44.5297 22.5155 44.863 22.026 45.3525C21.5365 45.842 21.2032 46.4656 21.0681 47.1446C20.9331 47.8235 21.0024 48.5272 21.2673 49.1668C21.5322 49.8063 21.9808 50.3529 22.5564 50.7375C23.1319 51.1221 23.8086 51.3274 24.5009 51.3274C25.4291 51.3274 26.3194 50.9586 26.9757 50.3023C27.6321 49.6459 28.0009 48.7556 28.0009 47.8274ZM23.3342 47.8274C23.3342 47.5966 23.4026 47.3711 23.5308 47.1792C23.659 46.9874 23.8412 46.8378 24.0544 46.7495C24.2676 46.6612 24.5022 46.6381 24.7285 46.6831C24.9548 46.7282 25.1627 46.8393 25.3258 47.0024C25.489 47.1656 25.6001 47.3735 25.6451 47.5998C25.6901 47.8261 25.667 48.0607 25.5787 48.2739C25.4904 48.487 25.3409 48.6692 25.149 48.7974C24.9572 48.9256 24.7316 48.9941 24.5009 48.9941C24.1914 48.9941 23.8947 48.8711 23.6759 48.6523C23.4571 48.4336 23.3342 48.1368 23.3342 47.8274ZM12.8342 55.994C12.8342 56.6863 13.0395 57.363 13.4241 57.9385C13.8087 58.5141 14.3553 58.9627 14.9948 59.2276C15.6344 59.4925 16.3381 59.5618 17.017 59.4268C17.696 59.2917 18.3196 58.9584 18.8091 58.4689C19.2986 57.9794 19.6319 57.3558 19.767 56.6768C19.902 55.9979 19.8327 55.2942 19.5678 54.6547C19.3029 54.0151 18.8543 53.4685 18.2787 53.0839C17.7031 52.6993 17.0265 52.494 16.3342 52.494C15.406 52.494 14.5157 52.8628 13.8594 53.5192C13.203 54.1755 12.8342 55.0658 12.8342 55.994ZM17.5009 55.994C17.5009 56.2248 17.4325 56.4503 17.3043 56.6422C17.1761 56.8341 16.9939 56.9836 16.7807 57.0719C16.5675 57.1602 16.3329 57.1833 16.1066 57.1383C15.8803 57.0933 15.6724 56.9822 15.5093 56.819C15.3461 56.6558 15.235 56.448 15.19 56.2216C15.145 55.9953 15.1681 55.7608 15.2564 55.5476C15.3447 55.3344 15.4942 55.1522 15.6861 55.024C15.8779 54.8958 16.1035 54.8274 16.3342 54.8274C16.6436 54.8274 16.9404 54.9503 17.1592 55.1691C17.378 55.3879 17.5009 55.6846 17.5009 55.994ZM24.5009 69.994V61.8274C24.5008 61.518 24.3778 61.2213 24.159 61.0025L21.8257 58.6692L20.176 60.3189L22.1675 62.3104V69.994H24.5009ZM37.676 52.8359C37.4572 53.0546 37.3342 53.3513 37.3342 53.6607V69.994H39.6675V54.1437L41.659 52.1522L40.0093 50.5026L37.676 52.8359ZM49.0008 47.8274C49.0008 47.1352 48.7955 46.4585 48.4109 45.8829C48.0264 45.3073 47.4797 44.8587 46.8402 44.5938C46.2007 44.3289 45.4969 44.2596 44.818 44.3947C44.1391 44.5297 43.5154 44.863 43.0259 45.3525C42.5365 45.842 42.2031 46.4656 42.0681 47.1446C41.933 47.8235 42.0023 48.5272 42.2672 49.1668C42.5321 49.8063 42.9807 50.3529 43.5563 50.7375C44.1319 51.1221 44.8086 51.3274 45.5008 51.3274C46.4291 51.3274 47.3193 50.9586 47.9757 50.3023C48.632 49.6459 49.0008 48.7556 49.0008 47.8274ZM44.3341 47.8274C44.3341 47.5966 44.4026 47.3711 44.5308 47.1792C44.659 46.9874 44.8412 46.8378 45.0543 46.7495C45.2675 46.6612 45.5021 46.6381 45.7284 46.6831C45.9547 46.7282 46.1626 46.8393 46.3258 47.0024C46.4889 47.1656 46.6 47.3735 46.6451 47.5998C46.6901 47.8261 46.667 48.0607 46.5787 48.2739C46.4904 48.487 46.3408 48.6692 46.149 48.7974C45.9571 48.9256 45.7316 48.9941 45.5008 48.9941C45.1914 48.9941 44.8946 48.8711 44.6758 48.6523C44.4571 48.4336 44.3341 48.1368 44.3341 47.8274ZM53.6675 59.494C54.3597 59.494 55.0364 59.2888 55.6119 58.9042C56.1875 58.5196 56.6361 57.973 56.901 57.3334C57.1659 56.6939 57.2352 55.9902 57.1002 55.3112C56.9651 54.6323 56.6318 54.0087 56.1423 53.5192C55.6528 53.0297 55.0292 52.6963 54.3503 52.5613C53.6713 52.4263 52.9676 52.4956 52.3281 52.7605C51.6885 53.0254 51.1419 53.474 50.7573 54.0495C50.3727 54.6251 50.1675 55.3018 50.1675 55.994C50.1675 56.9223 50.5362 57.8125 51.1926 58.4689C51.849 59.1253 52.7392 59.494 53.6675 59.494ZM53.6675 54.8274C53.8982 54.8274 54.1238 54.8958 54.3156 55.024C54.5075 55.1522 54.657 55.3344 54.7453 55.5476C54.8336 55.7608 54.8567 55.9953 54.8117 56.2216C54.7667 56.448 54.6556 56.6558 54.4924 56.819C54.3292 56.9822 54.1214 57.0933 53.8951 57.1383C53.6687 57.1833 53.4342 57.1602 53.221 57.0719C53.0078 56.9836 52.8256 56.8341 52.6974 56.6422C52.5692 56.4503 52.5008 56.2248 52.5008 55.994C52.5008 55.6846 52.6237 55.3879 52.8425 55.1691C53.0613 54.9503 53.358 54.8274 53.6675 54.8274ZM47.8341 62.3104L49.8256 60.3189L48.176 58.6692L45.8426 61.0025C45.6238 61.2213 45.5009 61.518 45.5008 61.8274V69.994H47.8341V62.3104Z" fill="#373737"/>
<path id="Vector_3" d="M0.622747 20.5742L4.02007 22.3697C2.38835 27.2389 1.93253 32.4251 2.6899 37.5042C3.44726 42.5834 5.3963 47.411 8.37756 51.5923L10.2781 50.239C7.54761 46.4105 5.74925 41.997 5.02635 37.3505C4.30344 32.704 4.67597 27.9528 6.11423 23.4757L8.87456 24.9352C9.06127 25.0339 9.27127 25.08 9.48214 25.0687C9.69302 25.0574 9.89687 24.989 10.072 24.8709C10.247 24.7529 10.3868 24.5895 10.4763 24.3982C10.5658 24.2069 10.6017 23.995 10.5802 23.7849L9.76356 15.8434C12.7449 11.3642 16.8648 7.75929 21.7002 5.399C26.5355 3.03871 31.912 2.0081 37.2774 2.41301C42.6429 2.81792 47.8038 4.64377 52.2302 7.70301C56.6565 10.7623 60.1888 14.9446 62.4641 19.8206L59.5031 20.5906C59.2986 20.6436 59.1124 20.7511 58.9643 20.9016C58.8162 21.0521 58.7117 21.2401 58.662 21.4453C58.6123 21.6506 58.6192 21.8655 58.6821 22.0672C58.7449 22.2688 58.8614 22.4496 59.0189 22.5902L64.9327 27.8682C65.1973 29.4521 65.3316 31.055 65.3341 32.6609C65.3487 38.9717 63.3809 45.1277 59.7084 50.26L61.6089 51.6156C65.5634 46.0877 67.6826 39.4576 67.6674 32.6609C67.6652 30.9384 67.5232 29.2189 67.2427 27.5194L69.9354 19.7552C70.0048 19.5553 70.0186 19.3403 69.9752 19.1332C69.9318 18.926 69.8329 18.7346 69.6891 18.5794C69.5452 18.4242 69.3619 18.311 69.1587 18.252C68.9555 18.193 68.74 18.1904 68.5354 18.2444L64.7566 19.2256C62.3561 13.9024 58.5718 9.32058 53.7981 5.9576C49.0244 2.59461 43.4361 0.573597 37.6155 0.105205C31.795 -0.363188 25.9554 0.738189 20.7053 3.29454C15.4553 5.85089 10.987 9.76863 7.76623 14.6394L0.611081 18.5162C0.425271 18.6169 0.27028 18.7661 0.162657 18.9479C0.0550346 19.1298 -0.00117912 19.3374 1.87517e-05 19.5487C0.00121662 19.76 0.059781 19.967 0.169459 20.1477C0.279136 20.3283 0.435809 20.4757 0.622747 20.5742ZM67.0164 21.0502L65.5487 25.2852L62.2028 22.3009L67.0164 21.0502ZM7.58423 17.3939L8.04039 21.8529L3.64207 19.5289L7.58423 17.3939Z" fill="#373737"/>
</g>
</svg>
