<svg xmlns="http://www.w3.org/2000/svg" width="70" height="70" viewBox="0 0 70 70" fill="none">
  <path d="M13.5877 6.79297C9.8517 6.79297 6.81348 9.83119 6.81348 13.5672C6.81348 17.3031 9.8517 20.3414 13.5877 20.3414C17.3236 20.3414 20.3619 17.3031 20.3619 13.5672C20.3619 9.83119 17.3236 6.79297 13.5877 6.79297ZM13.5877 18.0833C11.097 18.0833 9.07154 16.0578 9.07154 13.5672C9.07154 11.0765 11.097 9.05103 13.5877 9.05103C16.0783 9.05103 18.1038 11.0765 18.1038 13.5672C18.1038 16.0578 16.0783 18.0833 13.5877 18.0833ZM64.0238 53.842L62.4273 52.2455L54.1933 60.4796L52.7335 59.0197L51.137 60.6162L54.1933 63.6725L64.0238 53.842ZM38.3869 12.3986H40.6449V14.6567H38.3869V12.3986ZM51.9352 12.3986H54.1933V14.6567H51.9352V12.3986ZM47.4191 12.3986H49.6772V14.6567H47.4191V12.3986ZM42.903 12.3986H45.1611V14.6567H42.903V12.3986Z" fill="#373737"/>
  <path d="M25.9677 40.6242H44.0323C45.8997 40.6242 47.4194 39.1045 47.4194 37.2371V36.1081H62.0968C66.4537 36.1081 70 32.5629 70 28.2048V20.3016C70 15.9436 66.4537 12.3984 62.0968 12.3984H58.7097V11.2694C58.7097 9.40194 57.19 7.88226 55.3226 7.88226H37.2581C35.3906 7.88226 33.871 9.40194 33.871 11.2694V12.3984H27.1363V10.4474L24.1726 9.63791C24.0755 9.37823 23.9671 9.11968 23.8497 8.86452L25.375 6.19323L20.9627 1.78097L18.2926 3.30517C18.0363 3.18775 17.7789 3.07936 17.5192 2.98226L16.7085 0.0185547H10.4684L9.65774 2.98226C9.39627 3.07993 9.13865 3.18764 8.88548 3.30517L6.21419 1.78097L1.80194 6.19323L3.32613 8.86452C3.20871 9.11968 3.10032 9.37823 3.00323 9.63791L0.0395161 10.4474V16.6865L3.00323 17.4971C3.10032 17.7568 3.20871 18.0153 3.32613 18.2705L1.80081 20.9418L6.21306 25.3529L8.88436 23.8287C9.13952 23.9461 9.39694 24.0545 9.65661 24.1516L10.4673 27.1153H16.7074L17.5181 24.1516C17.7766 24.0545 18.0352 23.9461 18.2915 23.8287L20.9616 25.3518L25.3739 20.9407L23.8485 18.2694C23.966 18.0142 24.0744 17.7557 24.1715 17.496L27.1352 16.6853V14.6565H33.871V15.7855C33.871 17.6529 35.3906 19.1726 37.2581 19.1726H55.3226C57.19 19.1726 58.7097 17.6529 58.7097 15.7855V14.6565H62.0968C65.2095 14.6565 67.7419 17.1889 67.7419 20.3016V28.2048C67.7419 31.3176 65.2095 33.85 62.0968 33.85H47.4194V32.721C47.4194 30.8536 45.8997 29.3339 44.0323 29.3339H25.9677C24.1003 29.3339 22.5806 30.8536 22.5806 32.721V33.85H7.90323C3.54629 33.85 0 37.3963 0 41.7532V50.7855C0 55.1424 3.54629 58.6887 7.90323 58.6887H11.2903V59.8177C11.2903 61.6852 12.81 63.2048 14.6774 63.2048H32.7419C34.6094 63.2048 36.129 61.6852 36.129 59.8177V58.6887H45.2189C45.7913 65.009 51.1135 69.979 57.5806 69.979C64.4282 69.979 70 64.4073 70 57.5597C70 50.7121 64.4282 45.1403 57.5806 45.1403C51.1135 45.1403 45.7913 50.1103 45.2189 56.4307H36.129V55.3016C36.129 53.4342 34.6094 51.9145 32.7419 51.9145H14.6774C12.81 51.9145 11.2903 53.4342 11.2903 55.3016V56.4307H7.90323C4.79048 56.4307 2.25806 53.8982 2.25806 50.7855V41.7532C2.25806 38.6405 4.79048 36.1081 7.90323 36.1081H22.5806V37.2371C22.5806 39.1045 24.1003 40.6242 25.9677 40.6242ZM24.8782 14.9636L22.4023 15.641L22.2205 16.2337C22.0533 16.7681 21.8371 17.2859 21.5747 17.7805L21.2834 18.3292L22.5592 20.5636L20.5856 22.5382L18.3502 21.2636L17.8026 21.5537C17.3084 21.8167 16.7905 22.0325 16.2558 22.1984L15.6642 22.3813L14.9856 24.8573H12.1935L11.515 22.3813L10.9234 22.1984C10.3888 22.0322 9.87098 21.8164 9.37661 21.5537L8.8279 21.2636L6.59355 22.5382L4.61774 20.5636L5.89355 18.3292L5.60226 17.7805C5.33933 17.2861 5.12313 16.7683 4.95645 16.2337L4.77468 15.641L2.29871 14.9636V12.1703L4.77468 11.494L4.95758 10.9013C5.11903 10.3786 5.33581 9.85807 5.60226 9.35565L5.89355 8.80581L4.61774 6.57146L6.59129 4.59678L8.82565 5.87146L9.37436 5.5813C9.86884 5.31861 10.3867 5.10241 10.9211 4.93549L11.5127 4.75259L12.1913 2.27662H14.9834L15.6619 4.75259L16.2535 4.93549C16.7752 5.09694 17.2956 5.31372 17.8003 5.5813L18.3479 5.87146L20.5834 4.59678L22.5569 6.57146L21.2811 8.80581L21.5724 9.35452C21.8389 9.85694 22.0568 10.3774 22.2171 10.9002L22.4 11.4929L24.876 12.1692V14.9636H24.8782ZM56.4516 15.7855C56.4516 16.4076 55.9458 16.9145 55.3226 16.9145H37.2581C36.6348 16.9145 36.129 16.4076 36.129 15.7855V11.2694C36.129 10.6473 36.6348 10.1403 37.2581 10.1403H55.3226C55.9458 10.1403 56.4516 10.6473 56.4516 11.2694V15.7855ZM57.5806 47.3984C63.184 47.3984 67.7419 51.9563 67.7419 57.5597C67.7419 63.1631 63.184 67.721 57.5806 67.721C51.9773 67.721 47.4194 63.1631 47.4194 57.5597C47.4194 51.9563 51.9773 47.3984 57.5806 47.3984ZM13.5484 55.3016C13.5484 55.0022 13.6673 54.715 13.8791 54.5033C14.0908 54.2915 14.378 54.1726 14.6774 54.1726H32.7419C33.0414 54.1726 33.3285 54.2915 33.5403 54.5033C33.752 54.715 33.871 55.0022 33.871 55.3016V59.8177C33.871 60.1172 33.752 60.4044 33.5403 60.6161C33.3285 60.8278 33.0414 60.9468 32.7419 60.9468H14.6774C14.378 60.9468 14.0908 60.8278 13.8791 60.6161C13.6673 60.4044 13.5484 60.1172 13.5484 59.8177V55.3016ZM24.8387 32.721C24.8387 32.0989 25.3445 31.5919 25.9677 31.5919H44.0323C44.6555 31.5919 45.1613 32.0989 45.1613 32.721V37.2371C45.1613 37.5365 45.0423 37.8237 44.8306 38.0354C44.6189 38.2472 44.3317 38.3661 44.0323 38.3661H25.9677C25.6683 38.3661 25.3811 38.2472 25.1694 38.0354C24.9577 37.8237 24.8387 37.5365 24.8387 37.2371V32.721Z" fill="#373737"/>
  <path d="M36.1292 33.8496H38.3873V36.1077H36.1292V33.8496ZM31.6131 33.8496H33.8712V36.1077H31.6131V33.8496ZM27.097 33.8496H29.355V36.1077H27.097V33.8496ZM40.6453 33.8496H42.9034V36.1077H40.6453V33.8496ZM20.3228 56.4303H22.5808V58.6883H20.3228V56.4303ZM29.355 56.4303H31.6131V58.6883H29.355V56.4303ZM24.8389 56.4303H27.097V58.6883H24.8389V56.4303ZM15.8066 56.4303H18.0647V58.6883H15.8066V56.4303Z" fill="#373737"/>
</svg>