<svg width="70" height="78" viewBox="0 0 70 78" fill="none" xmlns="http://www.w3.org/2000/svg">
<g id="Group">
<path id="Vector" d="M33.0482 30.2159H20.2632C19.7291 30.2159 19.3286 30.6499 19.3286 31.1506C19.3286 31.6847 19.7625 32.0853 20.2632 32.0853H33.0482C33.5822 32.0853 33.9828 31.6513 33.9828 31.1506C33.9828 30.6499 33.5822 30.2159 33.0482 30.2159ZM29.3095 25.9432H20.2632C19.7291 25.9432 19.3286 26.3771 19.3286 26.8778C19.3286 27.4119 19.7625 27.8125 20.2632 27.8125H29.3095C29.8436 27.8125 30.2441 27.3786 30.2441 26.8778C30.2441 26.3771 29.8436 25.9432 29.3095 25.9432ZM16.7248 27.1115C16.7248 26.1435 15.9237 25.3423 14.9556 25.3423H9.7482C8.78015 25.3423 7.979 26.1435 7.979 27.1115V52.214C7.979 53.1821 8.78015 53.9832 9.7482 53.9832H14.9556C15.9237 53.9832 16.7248 53.1821 16.7248 52.214V27.1115ZM10.082 27.4787H14.5884V31.9851H10.082V27.4787ZM10.082 34.0881H14.5884V38.5946H10.082V34.0881ZM10.082 40.731H14.5884V45.2374H10.082V40.731ZM10.082 51.8802V47.3738H14.5884V51.8802H10.082ZM51.174 9.48633C45.8998 9.48633 41.6271 13.7925 41.6271 19.0333C41.6271 24.2741 45.9332 28.5803 51.174 28.5803C56.4482 28.5803 60.721 24.2741 60.721 19.0333C60.721 13.7591 56.4482 9.48633 51.174 9.48633ZM51.174 26.3104C47.1683 26.3104 43.897 23.039 43.897 19.0333C43.897 15.0276 47.1683 11.7562 51.174 11.7562C55.1798 11.7562 58.4511 15.0276 58.4511 19.0333C58.4511 23.039 55.2132 26.3104 51.174 26.3104Z" fill="#373737"/>
<path id="Vector_2" d="M51.1737 14.0264C48.403 14.0264 46.1665 16.2629 46.1665 19.0335C46.1665 21.8041 48.403 24.0407 51.1737 24.0407C53.9443 24.0407 56.1808 21.8041 56.1808 19.0335C56.1808 16.2629 53.9443 14.0264 51.1737 14.0264ZM51.1737 21.7708C49.6715 21.7708 48.4364 20.5357 48.4364 19.0335C48.4364 17.5314 49.6715 16.2963 51.1737 16.2963C52.6758 16.2963 53.9109 17.5314 53.9109 19.0335C53.9109 20.5357 52.6758 21.7708 51.1737 21.7708Z" fill="#373737"/>
<path id="Vector_3" d="M70 17.9989C70 16.5969 68.8651 15.462 67.463 15.462H67.0959C66.1278 15.462 65.2265 14.8277 64.8927 13.9265C64.7926 13.626 64.659 13.2922 64.5255 12.9918C64.1249 12.0905 64.2918 11.0223 64.9928 10.3213L65.2599 10.0543C65.7272 9.58692 65.9943 8.95268 65.9943 8.25168C65.9943 7.58406 65.7272 6.94982 65.2599 6.4491L63.7911 4.98034C62.7897 3.97891 61.1874 3.97891 60.2194 4.98034L59.9523 5.24739C59.2513 5.94839 58.1831 6.11529 57.2818 5.71472C56.9814 5.5812 56.681 5.44767 56.3472 5.34753C55.4125 5.01372 54.8116 4.11243 54.8116 3.14438V2.77719C54.8116 1.37519 53.6767 0.240234 52.2747 0.240234H50.1717C48.7697 0.240234 47.6347 1.37519 47.6347 2.77719V3.14438C47.6347 4.11243 47.0005 5.01372 46.0992 5.34753C45.7988 5.48105 45.465 5.5812 45.1645 5.7481C44.2632 6.14867 43.195 5.98177 42.494 5.28077L42.227 5.01372C41.2256 4.01229 39.6233 4.01229 38.6552 5.01372L37.1865 6.48248C36.7191 6.94982 36.4521 7.58406 36.4521 8.28506C36.4521 8.95268 36.7191 9.58692 37.1865 10.0876L37.4535 10.3547C37.8541 10.7219 38.0544 11.256 38.1211 11.7567H29.6757L29.0081 9.42001C28.6743 8.2183 27.5393 7.38377 26.3042 7.38377H2.80401C1.26848 7.38377 0 8.65225 0 10.1878V59.5583C0 61.0938 1.26848 62.3623 2.80401 62.3623H17.9256C18.0591 62.5292 18.1927 62.6627 18.3262 62.8296L21.4306 65.9341C20.8965 66.4014 20.5293 67.069 20.5293 67.8368V69.2388C20.5293 70.6074 21.6309 71.709 22.9995 71.709H23.1998V75.2474C23.1998 76.616 24.3014 77.7176 25.67 77.7176H34.8164C36.185 77.7176 37.2866 76.616 37.2866 75.2474V71.709H37.4869C38.8555 71.709 39.9571 70.6074 39.9571 69.2388V67.8368C39.9571 67.069 39.5899 66.4014 39.0558 65.9341L42.1602 62.8296C42.2938 62.6961 42.4273 62.5292 42.5608 62.3623H51.1397C52.6753 62.3623 53.9437 61.0938 53.9437 59.5583V37.1596C54.4444 36.6923 54.7449 36.0581 54.7449 35.3237V34.9565C54.7449 33.9884 55.4459 33.2541 56.2804 32.7533C58.2499 31.585 59.3515 32.4529 59.3515 32.4529C59.5517 32.5531 59.7187 32.6866 59.8856 32.8535L60.1526 33.1205C61.154 34.122 62.7563 34.122 63.7244 33.1205L65.1931 31.6518C66.1946 30.6503 66.1946 29.0481 65.1931 28.08L64.9261 27.813C64.2251 27.112 64.0582 26.0438 64.4588 25.1425C64.5923 24.842 64.7258 24.5416 64.8259 24.2078C65.1598 23.2731 66.061 22.6723 67.0291 22.6723H67.3963C68.7983 22.6723 69.9332 21.5373 69.9332 20.1353L70 17.9989ZM26.2375 9.25311C26.6381 9.25311 27.0386 9.52016 27.1388 9.92073L27.6729 11.7567H23.133L22.4654 9.42001C22.4654 9.35325 22.432 9.31987 22.3987 9.25311H26.2375ZM19.7616 9.25311C20.1621 9.25311 20.5627 9.52016 20.6629 9.92073L21.1969 11.7567H16.6237L15.9561 9.42001C15.9561 9.35325 15.9227 9.31987 15.8894 9.25311H19.7616ZM1.83596 10.1878C1.83596 9.68706 2.26991 9.25311 2.77062 9.25311H13.2189C13.6195 9.25311 14.02 9.52016 14.1202 9.92073L14.8546 12.4911C15.0548 13.1587 15.6557 13.626 16.3567 13.626H37.587C37.5536 13.7262 37.5203 13.8263 37.4535 13.9265C37.1197 14.8611 36.2184 15.462 35.2504 15.462H34.8832C34.2823 15.462 33.6481 15.729 33.1474 16.1296H1.83596V10.1878ZM37.1531 31.585L38.6218 33.0538C39.6233 34.0552 41.2256 34.0552 42.1936 33.0538L42.4607 32.7867C43.1617 32.0857 44.2299 31.9188 45.1311 32.3194C45.4316 32.4529 45.732 32.5864 46.0658 32.6866C47.0005 33.0204 47.6013 33.9217 47.6013 34.8897V35.2569C47.6013 36.0247 47.9351 36.7257 48.5026 37.193V56.8211H43.2618C43.1617 56.6542 43.0949 56.4539 42.9948 56.287L32.3796 38.7619C31.9123 38.0275 31.1445 37.5602 30.2766 37.5602C29.4087 37.5602 28.6075 37.9942 28.1736 38.7619L17.5584 56.287C17.4583 56.4539 17.3581 56.6542 17.2914 56.8211H5.44111V21.6041H32.8469C33.3143 22.2383 34.0486 22.6389 34.8832 22.6389H35.2504C36.2184 22.6389 37.1197 23.2731 37.4535 24.1744C37.5536 24.4749 37.6872 24.8087 37.8207 25.1091C38.2213 26.0104 38.0544 27.0786 37.3534 27.7796L37.0863 28.0466C36.1516 29.0147 36.1516 30.617 37.1531 31.585ZM31.1445 54.4844C32.0458 54.8516 32.68 55.7195 32.68 56.7209C32.68 58.0562 31.6118 59.1243 30.2766 59.1243C28.9413 59.1243 27.8732 58.0562 27.8732 56.7209C27.8732 55.7195 28.474 54.8516 29.4087 54.4844H31.1445ZM2.80401 60.493C2.30329 60.493 1.86934 60.059 1.86934 59.5583V17.9989H32.4464L32.413 20.0018H5.2742C4.50644 20.0018 3.83882 20.636 3.83882 21.4372V57.0547C3.83882 57.8225 4.47306 58.4901 5.2742 58.4901H16.7907C16.7239 59.1577 16.7573 59.8587 16.9576 60.493H2.80401ZM35.1836 75.2474C35.1836 75.4477 35.0167 75.6146 34.8164 75.6146H25.67C25.4697 75.6146 25.3028 75.4477 25.3028 75.2474V72.0762H35.1836V75.2474ZM37.8541 69.2388C37.8541 69.4391 37.6872 69.606 37.4869 69.606H22.9995C22.7992 69.606 22.6323 69.4391 22.6323 69.2388V67.8368C22.6323 67.6365 22.7992 67.4696 22.9995 67.4696H37.5203C37.7206 67.4696 37.8875 67.6365 37.8875 67.8368V69.2388H37.8541ZM40.6915 61.3275L36.7191 65.2998H23.8007L19.8283 61.3275C18.7935 60.2927 18.5932 58.6904 19.361 57.4553L29.2084 41.1987V52.3814H29.0415L28.8746 52.4481C27.0052 53.049 25.7368 54.7848 25.7368 56.7543C25.7368 59.2579 27.773 61.2607 30.2432 61.2607C32.7134 61.2607 34.7496 59.2245 34.7496 56.7543C34.7496 54.7848 33.4812 53.049 31.6118 52.4481L31.4449 52.3814H31.3114V41.1987L41.1588 57.4553C41.9266 58.6904 41.7263 60.2927 40.6915 61.3275ZM52.1078 59.5583C52.1078 60.059 51.6738 60.493 51.1731 60.493H43.5622C43.7291 59.8254 43.7959 59.1577 43.7291 58.4901H48.6695C49.4373 58.4901 50.1049 57.8559 50.1049 57.0547V37.8606H52.1412V59.5583H52.1078ZM67.463 20.3356H67.0959C65.1598 20.3356 63.4239 21.5373 62.7563 23.3399C62.6562 23.6069 62.556 23.874 62.4225 24.1077C61.6214 25.8769 61.9886 27.9799 63.3572 29.3151L63.6242 29.5821C63.7244 29.6823 63.7244 29.8492 63.6242 29.9493L62.1555 31.4181C62.0553 31.5182 61.8884 31.5182 61.7883 31.4181L61.5212 31.1511C60.1526 29.7824 58.083 29.4152 56.3138 30.2164C56.0467 30.3165 55.7797 30.4501 55.546 30.5502C53.7434 31.2178 52.5417 32.9536 52.5417 34.8897V35.2569C52.5417 35.3904 52.4416 35.524 52.2747 35.524H50.1717C50.0382 35.524 49.9046 35.4238 49.9046 35.2569V34.8897C49.9046 32.9536 48.7029 31.2178 46.9003 30.5502C46.6333 30.4501 46.3662 30.3499 46.1326 30.2164C44.3634 29.4152 42.2604 29.7824 40.9251 31.1511L40.6581 31.4181C40.5579 31.5182 40.391 31.5182 40.2909 31.4181L38.8221 29.9493C38.722 29.8492 38.722 29.6823 38.8221 29.5821L39.0892 29.3151C39.9571 28.4472 40.4244 27.2455 40.4244 26.0438C40.4244 25.3761 40.2909 24.7419 39.9905 24.1077C39.8903 23.8406 39.7568 23.5736 39.6567 23.3399C38.989 21.5373 37.2532 20.3356 35.3171 20.3356H34.9499C34.8164 20.3356 34.6829 20.2355 34.6829 20.0686V17.9656C34.6829 17.832 34.783 17.6985 34.9499 17.6985H35.3171C37.2532 17.6985 38.989 16.4968 39.6567 14.6942C39.7568 14.4272 39.8569 14.1601 39.9905 13.9265C40.7916 12.1573 40.4244 10.0543 39.0558 8.71901L38.7887 8.45196C38.722 8.3852 38.722 8.31844 38.722 8.28506C38.722 8.25168 38.722 8.15154 38.7887 8.11815L40.2575 6.64939C40.3577 6.54925 40.5246 6.54925 40.6247 6.64939L40.8918 6.91644C42.2604 8.28506 44.33 8.65225 46.0992 7.85111C46.3662 7.75096 46.6333 7.61744 46.867 7.5173C48.6695 6.84968 49.8713 5.08048 49.8713 3.17776V2.81057C49.8713 2.67705 49.9714 2.54352 50.1383 2.54352H52.2413C52.3748 2.54352 52.5083 2.64367 52.5083 2.81057V3.17776C52.5083 5.11386 53.7101 6.84968 55.5126 7.5173C55.7797 7.61744 56.0467 7.71758 56.2804 7.85111C58.0496 8.65225 60.1526 8.28506 61.4878 6.91644L61.7549 6.64939C61.855 6.54925 62.0219 6.54925 62.1221 6.64939L63.5908 8.11815C63.6576 8.18492 63.6576 8.25168 63.6576 8.31844C63.6576 8.35182 63.6576 8.45197 63.5908 8.48535L63.3238 8.75239C61.9552 10.121 61.588 12.1906 62.3891 13.9598C62.4893 14.2269 62.6228 14.4939 62.7229 14.7276C63.3906 16.5302 65.1598 17.7319 67.0625 17.7319H67.4297C67.5632 17.7319 67.6967 17.832 67.6967 17.9989V20.1019C67.7301 20.2355 67.5966 20.3356 67.463 20.3356Z" fill="#373737"/>
</g>
</svg>
