<svg width="238" height="30" viewBox="0 0 238 30" fill="none" xmlns="http://www.w3.org/2000/svg">
<path d="M16.992 15.5506C16.992 16.8386 16.788 18.0106 16.38 19.0666C15.972 20.1226 15.396 21.0266 14.652 21.7786C13.908 22.5306 13.016 23.1146 11.976 23.5306C10.936 23.9386 9.784 24.1426 8.52 24.1426H2.088V6.94658H8.52C9.784 6.94658 10.936 7.15458 11.976 7.57058C13.016 7.97858 13.908 8.56258 14.652 9.32258C15.396 10.0746 15.972 10.9786 16.38 12.0346C16.788 13.0906 16.992 14.2626 16.992 15.5506ZM14.604 15.5506C14.604 14.4946 14.46 13.5506 14.172 12.7186C13.884 11.8866 13.476 11.1826 12.948 10.6066C12.42 10.0306 11.78 9.59058 11.028 9.28658C10.276 8.98258 9.44 8.83058 8.52 8.83058H4.428V22.2586H8.52C9.44 22.2586 10.276 22.1066 11.028 21.8026C11.78 21.4986 12.42 21.0626 12.948 20.4946C13.476 19.9186 13.884 19.2146 14.172 18.3826C14.46 17.5506 14.604 16.6066 14.604 15.5506ZM24.6343 11.7946C25.3623 11.7946 26.0343 11.9186 26.6503 12.1666C27.2663 12.4066 27.7983 12.7586 28.2463 13.2226C28.6943 13.6786 29.0423 14.2466 29.2903 14.9266C29.5463 15.5986 29.6743 16.3666 29.6743 17.2306C29.6743 17.5666 29.6383 17.7906 29.5663 17.9026C29.4943 18.0146 29.3583 18.0706 29.1583 18.0706H21.0703C21.0863 18.8386 21.1903 19.5066 21.3823 20.0746C21.5743 20.6426 21.8383 21.1186 22.1743 21.5026C22.5103 21.8786 22.9103 22.1626 23.3743 22.3546C23.8383 22.5386 24.3583 22.6306 24.9343 22.6306C25.4703 22.6306 25.9303 22.5706 26.3143 22.4506C26.7063 22.3226 27.0423 22.1866 27.3223 22.0426C27.6023 21.8986 27.8343 21.7666 28.0183 21.6466C28.2103 21.5186 28.3743 21.4546 28.5103 21.4546C28.6863 21.4546 28.8223 21.5226 28.9183 21.6586L29.5183 22.4386C29.2543 22.7586 28.9383 23.0386 28.5703 23.2786C28.2023 23.5106 27.8063 23.7026 27.3823 23.8546C26.9663 24.0066 26.5343 24.1186 26.0863 24.1906C25.6383 24.2706 25.1943 24.3106 24.7543 24.3106C23.9143 24.3106 23.1383 24.1706 22.4263 23.8906C21.7223 23.6026 21.1103 23.1866 20.5903 22.6426C20.0783 22.0906 19.6783 21.4106 19.3903 20.6026C19.1023 19.7946 18.9583 18.8666 18.9583 17.8186C18.9583 16.9706 19.0863 16.1786 19.3423 15.4426C19.6063 14.7066 19.9823 14.0706 20.4703 13.5346C20.9583 12.9906 21.5543 12.5666 22.2583 12.2626C22.9623 11.9506 23.7543 11.7946 24.6343 11.7946ZM24.6823 13.3666C23.6503 13.3666 22.8383 13.6666 22.2463 14.2666C21.6543 14.8586 21.2863 15.6826 21.1423 16.7386H27.7543C27.7543 16.2426 27.6863 15.7906 27.5503 15.3826C27.4143 14.9666 27.2143 14.6106 26.9503 14.3146C26.6863 14.0106 26.3623 13.7786 25.9783 13.6186C25.6023 13.4506 25.1703 13.3666 24.6823 13.3666ZM30.5676 11.9866H32.3196C32.4876 11.9866 32.6276 12.0306 32.7396 12.1186C32.8516 12.2066 32.9316 12.3106 32.9796 12.4306L36.0636 20.2546C36.1756 20.5426 36.2636 20.8306 36.3276 21.1186C36.3916 21.4066 36.4516 21.6906 36.5076 21.9706C36.5716 21.6906 36.6396 21.4066 36.7116 21.1186C36.7836 20.8306 36.8756 20.5426 36.9876 20.2546L40.1076 12.4306C40.1556 12.3026 40.2316 12.1986 40.3356 12.1186C40.4476 12.0306 40.5836 11.9866 40.7436 11.9866H42.4116L37.4556 24.1426H35.5236L30.5676 11.9866ZM48.8921 11.7946C49.6201 11.7946 50.2921 11.9186 50.9081 12.1666C51.5241 12.4066 52.0561 12.7586 52.5041 13.2226C52.9521 13.6786 53.3001 14.2466 53.5481 14.9266C53.8041 15.5986 53.9321 16.3666 53.9321 17.2306C53.9321 17.5666 53.8961 17.7906 53.8241 17.9026C53.7521 18.0146 53.6161 18.0706 53.4161 18.0706H45.3281C45.3441 18.8386 45.4481 19.5066 45.6401 20.0746C45.8321 20.6426 46.0961 21.1186 46.4321 21.5026C46.7681 21.8786 47.1681 22.1626 47.6321 22.3546C48.0961 22.5386 48.6161 22.6306 49.1921 22.6306C49.7281 22.6306 50.1881 22.5706 50.5721 22.4506C50.9641 22.3226 51.3001 22.1866 51.5801 22.0426C51.8601 21.8986 52.0921 21.7666 52.2761 21.6466C52.4681 21.5186 52.6321 21.4546 52.7681 21.4546C52.9441 21.4546 53.0801 21.5226 53.1761 21.6586L53.7761 22.4386C53.5121 22.7586 53.1961 23.0386 52.8281 23.2786C52.4601 23.5106 52.0641 23.7026 51.6401 23.8546C51.2241 24.0066 50.7921 24.1186 50.3441 24.1906C49.8961 24.2706 49.4521 24.3106 49.0121 24.3106C48.1721 24.3106 47.3961 24.1706 46.6841 23.8906C45.9801 23.6026 45.3681 23.1866 44.8481 22.6426C44.3361 22.0906 43.9361 21.4106 43.6481 20.6026C43.3601 19.7946 43.2161 18.8666 43.2161 17.8186C43.2161 16.9706 43.3441 16.1786 43.6001 15.4426C43.8641 14.7066 44.2401 14.0706 44.7281 13.5346C45.2161 12.9906 45.8121 12.5666 46.5161 12.2626C47.2201 11.9506 48.0121 11.7946 48.8921 11.7946ZM48.9401 13.3666C47.9081 13.3666 47.0961 13.6666 46.5041 14.2666C45.9121 14.8586 45.5441 15.6826 45.4001 16.7386H52.0121C52.0121 16.2426 51.9441 15.7906 51.8081 15.3826C51.6721 14.9666 51.4721 14.6106 51.2081 14.3146C50.9441 14.0106 50.6201 13.7786 50.2361 13.6186C49.8601 13.4506 49.4281 13.3666 48.9401 13.3666ZM59.0421 6.46658V24.1426H56.9061V6.46658H59.0421ZM67.7267 11.7946C68.6147 11.7946 69.4147 11.9426 70.1267 12.2386C70.8467 12.5346 71.4547 12.9546 71.9507 13.4986C72.4547 14.0426 72.8387 14.7026 73.1027 15.4786C73.3747 16.2466 73.5107 17.1066 73.5107 18.0586C73.5107 19.0186 73.3747 19.8826 73.1027 20.6506C72.8387 21.4186 72.4547 22.0746 71.9507 22.6186C71.4547 23.1626 70.8467 23.5826 70.1267 23.8786C69.4147 24.1666 68.6147 24.3106 67.7267 24.3106C66.8387 24.3106 66.0347 24.1666 65.3147 23.8786C64.6027 23.5826 63.9947 23.1626 63.4907 22.6186C62.9867 22.0746 62.5987 21.4186 62.3267 20.6506C62.0547 19.8826 61.9187 19.0186 61.9187 18.0586C61.9187 17.1066 62.0547 16.2466 62.3267 15.4786C62.5987 14.7026 62.9867 14.0426 63.4907 13.4986C63.9947 12.9546 64.6027 12.5346 65.3147 12.2386C66.0347 11.9426 66.8387 11.7946 67.7267 11.7946ZM67.7267 22.6426C68.9267 22.6426 69.8227 22.2426 70.4147 21.4426C71.0067 20.6346 71.3027 19.5106 71.3027 18.0706C71.3027 16.6226 71.0067 15.4946 70.4147 14.6866C69.8227 13.8786 68.9267 13.4746 67.7267 13.4746C67.1187 13.4746 66.5907 13.5786 66.1427 13.7866C65.6947 13.9946 65.3187 14.2946 65.0147 14.6866C64.7187 15.0786 64.4947 15.5626 64.3427 16.1386C64.1987 16.7066 64.1267 17.3506 64.1267 18.0706C64.1267 18.7906 64.1987 19.4346 64.3427 20.0026C64.4947 20.5706 64.7187 21.0506 65.0147 21.4426C65.3187 21.8266 65.6947 22.1226 66.1427 22.3306C66.5907 22.5386 67.1187 22.6426 67.7267 22.6426ZM76.1426 28.2586V11.9866H77.4146C77.7186 11.9866 77.9106 12.1346 77.9906 12.4306L78.1706 13.8706C78.6906 13.2386 79.2826 12.7306 79.9466 12.3466C80.6186 11.9626 81.3906 11.7706 82.2626 11.7706C82.9586 11.7706 83.5906 11.9066 84.1586 12.1786C84.7266 12.4426 85.2106 12.8386 85.6106 13.3666C86.0106 13.8866 86.3186 14.5346 86.5346 15.3106C86.7506 16.0866 86.8586 16.9786 86.8586 17.9866C86.8586 18.8826 86.7386 19.7186 86.4986 20.4946C86.2586 21.2626 85.9146 21.9306 85.4666 22.4986C85.0186 23.0586 84.4666 23.5026 83.8106 23.8306C83.1626 24.1506 82.4306 24.3106 81.6146 24.3106C80.8626 24.3106 80.2186 24.1866 79.6826 23.9386C79.1546 23.6906 78.6866 23.3386 78.2786 22.8826V28.2586H76.1426ZM81.5546 13.4986C80.8586 13.4986 80.2466 13.6586 79.7186 13.9786C79.1986 14.2986 78.7186 14.7506 78.2786 15.3346V21.2146C78.6706 21.7426 79.0986 22.1146 79.5626 22.3306C80.0346 22.5466 80.5586 22.6546 81.1346 22.6546C82.2626 22.6546 83.1306 22.2506 83.7386 21.4426C84.3466 20.6346 84.6506 19.4826 84.6506 17.9866C84.6506 17.1946 84.5786 16.5146 84.4346 15.9466C84.2986 15.3786 84.0986 14.9146 83.8346 14.5546C83.5706 14.1866 83.2466 13.9186 82.8626 13.7506C82.4786 13.5826 82.0426 13.4986 81.5546 13.4986ZM89.3848 24.1426V11.9866H90.6568C90.9608 11.9866 91.1528 12.1346 91.2328 12.4306L91.3888 13.6786C91.8368 13.1266 92.3368 12.6746 92.8888 12.3226C93.4488 11.9706 94.0968 11.7946 94.8328 11.7946C95.6568 11.7946 96.3208 12.0226 96.8248 12.4786C97.3368 12.9346 97.7048 13.5506 97.9288 14.3266C98.0968 13.8866 98.3168 13.5066 98.5888 13.1866C98.8688 12.8666 99.1808 12.6026 99.5248 12.3946C99.8688 12.1866 100.233 12.0346 100.617 11.9386C101.009 11.8426 101.405 11.7946 101.805 11.7946C102.445 11.7946 103.013 11.8986 103.509 12.1066C104.013 12.3066 104.437 12.6026 104.781 12.9946C105.133 13.3866 105.401 13.8706 105.585 14.4466C105.769 15.0146 105.861 15.6666 105.861 16.4026V24.1426H103.725V16.4026C103.725 15.4506 103.517 14.7306 103.101 14.2426C102.685 13.7466 102.081 13.4986 101.289 13.4986C100.937 13.4986 100.601 13.5626 100.281 13.6906C99.9688 13.8106 99.6928 13.9906 99.4528 14.2306C99.2128 14.4706 99.0208 14.7746 98.8768 15.1426C98.7408 15.5026 98.6728 15.9226 98.6728 16.4026V24.1426H96.5368V16.4026C96.5368 15.4266 96.3408 14.6986 95.9488 14.2186C95.5568 13.7386 94.9848 13.4986 94.2328 13.4986C93.7048 13.4986 93.2128 13.6426 92.7568 13.9306C92.3088 14.2106 91.8968 14.5946 91.5208 15.0826V24.1426H89.3848ZM113.908 11.7946C114.636 11.7946 115.308 11.9186 115.924 12.1666C116.54 12.4066 117.072 12.7586 117.52 13.2226C117.968 13.6786 118.316 14.2466 118.564 14.9266C118.82 15.5986 118.948 16.3666 118.948 17.2306C118.948 17.5666 118.912 17.7906 118.84 17.9026C118.768 18.0146 118.632 18.0706 118.432 18.0706H110.344C110.36 18.8386 110.464 19.5066 110.656 20.0746C110.848 20.6426 111.112 21.1186 111.448 21.5026C111.784 21.8786 112.184 22.1626 112.648 22.3546C113.112 22.5386 113.632 22.6306 114.208 22.6306C114.744 22.6306 115.204 22.5706 115.588 22.4506C115.98 22.3226 116.316 22.1866 116.596 22.0426C116.876 21.8986 117.108 21.7666 117.292 21.6466C117.484 21.5186 117.648 21.4546 117.784 21.4546C117.96 21.4546 118.096 21.5226 118.192 21.6586L118.792 22.4386C118.528 22.7586 118.212 23.0386 117.844 23.2786C117.476 23.5106 117.08 23.7026 116.656 23.8546C116.24 24.0066 115.808 24.1186 115.36 24.1906C114.912 24.2706 114.468 24.3106 114.028 24.3106C113.188 24.3106 112.412 24.1706 111.7 23.8906C110.996 23.6026 110.384 23.1866 109.864 22.6426C109.352 22.0906 108.952 21.4106 108.664 20.6026C108.376 19.7946 108.232 18.8666 108.232 17.8186C108.232 16.9706 108.36 16.1786 108.616 15.4426C108.88 14.7066 109.256 14.0706 109.744 13.5346C110.232 12.9906 110.828 12.5666 111.532 12.2626C112.236 11.9506 113.028 11.7946 113.908 11.7946ZM113.956 13.3666C112.924 13.3666 112.112 13.6666 111.52 14.2666C110.928 14.8586 110.56 15.6826 110.416 16.7386H117.028C117.028 16.2426 116.96 15.7906 116.824 15.3826C116.688 14.9666 116.488 14.6106 116.224 14.3146C115.96 14.0106 115.636 13.7786 115.252 13.6186C114.876 13.4506 114.444 13.3666 113.956 13.3666ZM121.682 24.1426V11.9866H122.954C123.258 11.9866 123.45 12.1346 123.53 12.4306L123.698 13.7506C124.226 13.1666 124.814 12.6946 125.462 12.3346C126.118 11.9746 126.874 11.7946 127.73 11.7946C128.394 11.7946 128.978 11.9066 129.482 12.1306C129.994 12.3466 130.418 12.6586 130.754 13.0666C131.098 13.4666 131.358 13.9506 131.534 14.5186C131.71 15.0866 131.798 15.7146 131.798 16.4026V24.1426H129.662V16.4026C129.662 15.4826 129.45 14.7706 129.026 14.2666C128.61 13.7546 127.97 13.4986 127.106 13.4986C126.474 13.4986 125.882 13.6506 125.33 13.9546C124.786 14.2586 124.282 14.6706 123.818 15.1906V24.1426H121.682ZM138.702 24.3346C137.742 24.3346 137.002 24.0666 136.482 23.5306C135.97 22.9946 135.714 22.2226 135.714 21.2146V13.7746H134.25C134.122 13.7746 134.014 13.7386 133.926 13.6666C133.838 13.5866 133.794 13.4666 133.794 13.3066V12.4546L135.786 12.2026L136.278 8.44658C136.294 8.32658 136.346 8.23058 136.434 8.15858C136.522 8.07858 136.634 8.03858 136.77 8.03858H137.85V12.2266H141.33V13.7746H137.85V21.0706C137.85 21.5826 137.974 21.9626 138.222 22.2106C138.47 22.4586 138.79 22.5826 139.182 22.5826C139.406 22.5826 139.598 22.5546 139.758 22.4986C139.926 22.4346 140.07 22.3666 140.19 22.2946C140.31 22.2226 140.41 22.1586 140.49 22.1026C140.578 22.0386 140.654 22.0066 140.718 22.0066C140.83 22.0066 140.93 22.0746 141.018 22.2106L141.642 23.2306C141.274 23.5746 140.83 23.8466 140.31 24.0466C139.79 24.2386 139.254 24.3346 138.702 24.3346Z" fill="white"/>
<path d="M157.226 14.6426L163 20.4161L168.774 14.6426L163 8.86908L157.226 14.6426ZM237.773 14.6426L232 8.86908L226.226 14.6426L232 20.4161L237.773 14.6426ZM163 15.6426H164.917V13.6426H163V15.6426ZM168.75 15.6426H172.583V13.6426H168.75V15.6426ZM176.417 15.6426H180.25V13.6426H176.417V15.6426ZM184.083 15.6426H187.917V13.6426H184.083V15.6426ZM191.75 15.6426H195.583V13.6426H191.75V15.6426ZM199.417 15.6426H203.25V13.6426H199.417V15.6426ZM207.083 15.6426H210.917V13.6426H207.083V15.6426ZM214.75 15.6426H218.583V13.6426H214.75V15.6426ZM222.417 15.6426H226.25V13.6426H222.417V15.6426ZM230.083 15.6426H232V13.6426H230.083V15.6426Z" fill="white"/>
</svg>
