<svg width="50" height="51" viewBox="0 0 50 51" fill="none" xmlns="http://www.w3.org/2000/svg">
<g clip-path="url(#clip0_291_218)">
<path d="M48.375 11.9829L42.1021 3.5079C41.3307 2.42943 40.3134 1.55033 39.1344 0.943471C37.9555 0.336611 36.6489 0.0194641 35.3229 0.0183142H14.6771C13.3576 0.0170757 12.0566 0.329196 10.8813 0.928987C9.70599 1.52878 8.6899 2.3991 7.91667 3.46831L1.53125 12.0037C0.491593 13.4698 -0.0453206 15.2331 0.00087273 17.0297C0.047066 18.8264 0.673882 20.5597 1.7875 21.9704L20.1042 47.6537C20.6879 48.3929 21.4319 48.9898 22.28 49.3994C23.1281 49.809 24.0582 50.0206 25 50.0183C25.958 50.0164 26.9028 49.7947 27.7617 49.3703C28.6206 48.9459 29.3706 48.3302 29.9542 47.5704L48.125 22.1725C49.2885 20.7412 49.9443 18.9643 49.9895 17.1204C50.0347 15.2764 49.4669 13.4695 48.375 11.9829ZM38.7333 5.9579L45.0208 14.4537C45.0542 14.4996 45.0625 14.5537 45.0958 14.6016H34.9042L31.9292 4.18498H35.3229C35.9916 4.18706 36.65 4.34907 37.2433 4.65749C37.8366 4.96591 38.3475 5.41179 38.7333 5.9579ZM25 39.8475L19.375 18.7683H30.625L25 39.8475ZM19.4292 14.6016L22.4042 4.18498H27.5958L30.5708 14.6016H19.4292ZM11.2854 5.92873C11.672 5.38996 12.1811 4.95085 12.7709 4.64765C13.3606 4.34446 14.014 4.18587 14.6771 4.18498H18.0708L15.0958 14.6016H4.82917C4.85834 14.5558 4.86667 14.4996 4.9 14.4558L11.2854 5.92873ZM5.1 19.4454C4.94958 19.2329 4.82048 19.0061 4.71459 18.7683H15.0667L21.3042 42.1641L5.1 19.4454ZM28.6896 42.185L34.9396 18.7683H45.3271C45.1929 19.0793 45.023 19.3736 44.8208 19.6454L28.6896 42.185Z" fill="#373737"/>
</g>
<defs>
<clipPath id="clip0_291_218">
<rect width="50" height="50" fill="white" transform="translate(0 0.0183105)"/>
</clipPath>
</defs>
</svg>
