<svg xmlns="http://www.w3.org/2000/svg" width="85" height="72" viewBox="0 0 85 72" fill="none">
  <path d="M38.6104 67.306L42.3038 70.9994M42.3038 70.9994L45.9973 67.306M42.3038 70.9994V59.7432" stroke="#373737" stroke-width="2" stroke-miterlimit="10" stroke-linecap="round" stroke-linejoin="round"/>
  <path d="M5.01759 26.5029L1.5 30.1964M1.5 30.1964L5.01759 33.8899M1.5 30.1964H12.7563" stroke="#373737" stroke-width="2" stroke-miterlimit="10" stroke-linecap="round" stroke-linejoin="round"/>
  <path d="M79.5903 33.8899L83.2837 30.1964M83.2837 30.1964L79.5903 26.5029M83.2837 30.1964H71.8516" stroke="#373737" stroke-width="2" stroke-miterlimit="10" stroke-linecap="round" stroke-linejoin="round"/>
  <path d="M59.5414 64.1405L64.466 65.5475M64.466 65.5475L65.8731 60.447M64.466 65.5475L58.8379 55.6982" stroke="#373737" stroke-width="2" stroke-miterlimit="10" stroke-linecap="round" stroke-linejoin="round"/>
  <path d="M4.66475 47.2562L3.43359 52.3567M3.43359 52.3567L8.35822 53.7637M3.43359 52.3567L13.107 46.7285" stroke="#373737" stroke-width="2" stroke-miterlimit="10" stroke-linecap="round" stroke-linejoin="round"/>
  <path d="M76.2487 53.7637L81.1734 52.3567M81.1734 52.3567L79.9422 47.2562M81.1734 52.3567L71.5 46.7285" stroke="#373737" stroke-width="2" stroke-miterlimit="10" stroke-linecap="round" stroke-linejoin="round"/>
  <path d="M18.7363 60.447L20.1434 65.5475M20.1434 65.5475L25.068 64.1405M20.1434 65.5475L25.7715 55.6982" stroke="#373737" stroke-width="2" stroke-miterlimit="10" stroke-linecap="round" stroke-linejoin="round"/>
  <path d="M32.1018 7.33166V3.81407C32.1018 2.23116 33.333 1 34.9159 1H49.8656C51.4485 1 52.6797 2.23116 52.6797 3.81407V7.33166M66.9259 14.5427V44.9698C66.9259 46.7286 65.5189 48.1357 63.7601 48.1357H20.8455C19.0867 48.1357 17.6797 46.7286 17.6797 44.9698V14.5427C17.6797 12.7839 19.0867 11.3769 20.8455 11.3769H63.5842C65.5189 11.3769 66.9259 12.7839 66.9259 14.5427Z" stroke="#373737" stroke-width="2" stroke-miterlimit="10" stroke-linecap="round" stroke-linejoin="round"/>
  <path d="M17.6797 22.457C22.2526 25.447 28.4083 27.5575 35.2676 28.4369M49.338 28.4369C56.1973 27.5575 62.3531 25.447 66.9259 22.457" stroke="#373737" stroke-width="2" stroke-miterlimit="10" stroke-linecap="round" stroke-linejoin="round"/>
  <path d="M46.1733 11.377V35.6483L42.3039 38.4624L38.4346 35.6483V11.377" stroke="#373737" stroke-width="2" stroke-miterlimit="10" stroke-linecap="round" stroke-linejoin="round"/>
  <path d="M38.4344 23.8643H35.2686V31.4271H49.3389V23.8643H46.1731M42.3037 25.7989V27.5577" stroke="#373737" stroke-width="2" stroke-miterlimit="10" stroke-linecap="round" stroke-linejoin="round"/>
  <path d="M28.2334 11.3763V7.33105H35.7962V11.3763M48.8113 11.3763V7.33105H56.3741V11.3763" stroke="#373737" stroke-width="2" stroke-miterlimit="10" stroke-linecap="round" stroke-linejoin="round"/>
</svg>