<svg width="50" height="50" viewBox="0 0 50 50" fill="none" xmlns="http://www.w3.org/2000/svg">
<path d="M48.5833 8.54167C47.3958 7.08333 45.625 6.25 43.75 6.25H15.0833L15 5.52083C14.625 2.375 11.9583 0 8.79164 0H6.24997C5.10414 0 4.16664 0.9375 4.16664 2.08333C4.16664 3.22917 5.10414 4.16667 6.24997 4.16667H8.79164C9.85414 4.16667 10.7291 4.95833 10.8541 6L13.7291 30.375C14.3541 35.625 18.7916 39.5833 24.0833 39.5833H41.6666C42.8125 39.5833 43.75 38.6458 43.75 37.5C43.75 36.3542 42.8125 35.4167 41.6666 35.4167H24.0833C21.3958 35.4167 19.0625 33.7083 18.1875 31.25H37.8333C42.7916 31.25 47.0833 27.7292 48.0416 22.875L49.875 13.7292C50.25 11.8958 49.7708 10 48.5833 8.54167ZM45.7916 12.9167L43.9583 22.0625C43.375 24.9792 40.7916 27.0833 37.8333 27.0833H17.5416L15.5833 10.4167H43.75C44.375 10.4167 44.9583 10.6875 45.3541 11.1875C45.75 11.6667 45.9166 12.3125 45.7916 12.9167ZM22.9166 45.8333C22.9166 48.125 21.0416 50 18.75 50C16.4583 50 14.5833 48.125 14.5833 45.8333C14.5833 43.5417 16.4583 41.6667 18.75 41.6667C21.0416 41.6667 22.9166 43.5417 22.9166 45.8333ZM41.6666 45.8333C41.6666 48.125 39.7916 50 37.5 50C35.2083 50 33.3333 48.125 33.3333 45.8333C33.3333 43.5417 35.2083 41.6667 37.5 41.6667C39.7916 41.6667 41.6666 43.5417 41.6666 45.8333ZM-3.05176e-05 12.5C-3.05176e-05 11.3542 0.93747 10.4167 2.0833 10.4167H5.29164C6.43747 10.4167 7.37497 11.3542 7.37497 12.5C7.37497 13.6458 6.43747 14.5833 5.29164 14.5833H2.0833C0.93747 14.5833 -3.05176e-05 13.6458 -3.05176e-05 12.5ZM-3.05176e-05 20.8333C-3.05176e-05 19.6875 0.93747 18.75 2.0833 18.75H6.24997C7.3958 18.75 8.3333 19.6875 8.3333 20.8333C8.3333 21.9792 7.3958 22.9167 6.24997 22.9167H2.0833C0.93747 22.9167 -3.05176e-05 21.9792 -3.05176e-05 20.8333ZM10.4166 29.1667C10.4166 30.3125 9.47914 31.25 8.3333 31.25H2.0833C0.93747 31.25 -3.05176e-05 30.3125 -3.05176e-05 29.1667C-3.05176e-05 28.0208 0.93747 27.0833 2.0833 27.0833H8.3333C9.47914 27.0833 10.4166 28.0208 10.4166 29.1667Z" fill="#373737"/>
</svg>
