<svg width="51" height="50" viewBox="0 0 51 50" fill="none" xmlns="http://www.w3.org/2000/svg">
<g clip-path="url(#clip0_563_230)">
<path d="M46.6187 10.8958L31.2562 3.57706C27.8746 1.55713 23.6656 1.52129 20.2499 3.48331L4.71459 10.8958C4.65629 10.925 4.59584 10.9563 4.53959 10.9896C0.852872 13.0976 -0.427011 17.7951 1.681 21.4818C2.39555 22.7316 3.44662 23.7557 4.71459 24.4375L9.00004 26.4792V36.6875C9.00258 41.2523 11.9728 45.2851 16.3313 46.6417C19.3644 47.5191 22.5094 47.9487 25.6667 47.9167C28.8236 47.9521 31.9686 47.5261 35.0022 46.6521C39.3607 45.2956 42.3309 41.2627 42.3334 36.698V26.475L46.5001 24.4833V41.6666C46.5001 42.8172 47.4329 43.7499 48.5834 43.7499C49.734 43.7499 50.6667 42.8172 50.6667 41.6666V16.6666C50.6806 14.2202 48.749 11.9603 46.6187 10.8958ZM38.1666 36.698C38.1677 39.4283 36.3962 41.8435 33.7916 42.6625C31.1504 43.4172 28.4134 43.7835 25.6666 43.75C22.9199 43.7835 20.1829 43.4172 17.5416 42.6625C14.9371 41.8434 13.1656 39.4283 13.1666 36.698V28.4647L20.0771 31.7564C21.7822 32.7689 23.7295 33.3009 25.7125 33.2959C27.6 33.3093 29.4558 32.8096 31.0813 31.8501L38.1666 28.4646V36.698ZM44.8333 20.6771L29.1208 28.1771C26.93 29.4527 24.2145 29.4166 22.0583 28.0833L6.68539 20.7708C4.97182 19.8468 4.33178 17.7086 5.2558 15.9951C5.5683 15.4156 6.03686 14.9353 6.60834 14.6083L22.2229 7.15C24.4144 5.87715 27.1285 5.91319 29.2854 7.24375L44.6479 14.5625C45.7777 15.1898 46.4845 16.3745 46.4999 17.6667C46.502 18.8907 45.8717 20.029 44.8333 20.6771Z" fill="#373737"/>
</g>
<defs>
<clipPath id="clip0_563_230">
<rect width="50" height="50" fill="white" transform="translate(0.666626)"/>
</clipPath>
</defs>
</svg>
