<svg width="70" height="78" viewBox="0 0 70 78" fill="none" xmlns="http://www.w3.org/2000/svg">
<path d="M33.0482 29.9757H20.2633C19.7292 29.9757 19.3286 30.4097 19.3286 30.9104C19.3286 31.4445 19.7625 31.845 20.2633 31.845H33.0482C33.5823 31.845 33.9829 31.4111 33.9829 30.9104C33.9829 30.4097 33.5823 29.9757 33.0482 29.9757ZM29.3095 25.7029H20.2633C19.7292 25.7029 19.3286 26.1369 19.3286 26.6376C19.3286 27.1717 19.7625 27.5723 20.2633 27.5723H29.3095C29.8436 27.5723 30.2442 27.1383 30.2442 26.6376C30.2442 26.1369 29.8436 25.7029 29.3095 25.7029ZM16.7249 26.8713C16.7249 25.9032 15.9237 25.1021 14.9557 25.1021H9.74823C8.78018 25.1021 7.97903 25.9032 7.97903 26.8713V51.9738C7.97903 52.9418 8.78018 53.743 9.74823 53.743H14.9557C15.9237 53.743 16.7249 52.9418 16.7249 51.9738V26.8713ZM10.082 27.2385H14.5885V31.7449H10.082V27.2385ZM10.082 33.8479H14.5885V38.3543H10.082V33.8479ZM10.082 40.4907H14.5885V44.9972H10.082V40.4907ZM10.082 51.64V47.1336H14.5885V51.64H10.082ZM51.1741 9.24609C45.8999 9.24609 41.6271 13.5522 41.6271 18.7931C41.6271 24.0339 45.9333 28.34 51.1741 28.34C56.4483 28.34 60.7211 24.0339 60.7211 18.7931C60.7211 13.5189 56.4483 9.24609 51.1741 9.24609ZM51.1741 26.0701C47.1684 26.0701 43.897 22.7988 43.897 18.7931C43.897 14.7873 47.1684 11.516 51.1741 11.516C55.1798 11.516 58.4511 14.7873 58.4511 18.7931C58.4511 22.7988 55.2132 26.0701 51.1741 26.0701Z" fill="#373737"/>
<path d="M51.1736 13.7861C48.403 13.7861 46.1665 16.0227 46.1665 18.7933C46.1665 21.5639 48.403 23.8004 51.1736 23.8004C53.9443 23.8004 56.1808 21.5639 56.1808 18.7933C56.1808 16.0227 53.9443 13.7861 51.1736 13.7861ZM51.1736 21.5305C49.6715 21.5305 48.4364 20.2954 48.4364 18.7933C48.4364 17.2911 49.6715 16.056 51.1736 16.056C52.6758 16.056 53.9109 17.2911 53.9109 18.7933C53.9109 20.2954 52.6758 21.5305 51.1736 21.5305Z" fill="#373737"/>
<path d="M70 17.7587C70 16.3567 68.8651 15.2217 67.463 15.2217H67.0959C66.1278 15.2217 65.2265 14.5875 64.8927 13.6862C64.7926 13.3858 64.659 13.052 64.5255 12.7515C64.1249 11.8503 64.2918 10.7821 64.9928 10.0811L65.2599 9.81402C65.7272 9.34669 65.9943 8.71245 65.9943 8.01144C65.9943 7.34382 65.7272 6.70958 65.2599 6.20887L63.7911 4.7401C62.7897 3.73867 61.1874 3.73867 60.2194 4.7401L59.9523 5.00715C59.2513 5.70815 58.1831 5.87506 57.2818 5.47449C56.9814 5.34096 56.681 5.20744 56.3472 5.1073C55.4125 4.77349 54.8116 3.8722 54.8116 2.90415V2.53696C54.8116 1.13495 53.6767 0 52.2747 0H50.1717C48.7697 0 47.6347 1.13495 47.6347 2.53696V2.90415C47.6347 3.8722 47.0005 4.77349 46.0992 5.1073C45.7988 5.24082 45.465 5.34096 45.1645 5.50787C44.2632 5.90844 43.195 5.74154 42.494 5.04053L42.227 4.77349C41.2256 3.77205 39.6233 3.77205 38.6552 4.77349L37.1865 6.24225C36.7191 6.70958 36.4521 7.34382 36.4521 8.04482C36.4521 8.71245 36.7191 9.34669 37.1865 9.8474L37.4535 10.1144C37.8541 10.4816 38.0544 11.0157 38.1211 11.5165H29.6757L29.0081 9.17978C28.6743 7.97806 27.5393 7.14354 26.3042 7.14354H2.80401C1.26848 7.14354 0 8.41202 0 9.94754V59.3181C0 60.8536 1.26848 62.1221 2.80401 62.1221H17.9256C18.0591 62.289 18.1927 62.4225 18.3262 62.5894L21.4306 65.6938C20.8965 66.1612 20.5293 66.8288 20.5293 67.5966V68.9986C20.5293 70.3672 21.6309 71.4688 22.9995 71.4688H23.1998V75.0071C23.1998 76.3758 24.3014 77.4773 25.67 77.4773H34.8164C36.185 77.4773 37.2866 76.3758 37.2866 75.0071V71.4688H37.4869C38.8555 71.4688 39.9571 70.3672 39.9571 68.9986V67.5966C39.9571 66.8288 39.5899 66.1612 39.0558 65.6938L42.1602 62.5894C42.2938 62.4559 42.4273 62.289 42.5608 62.1221H51.1397C52.6753 62.1221 53.9437 60.8536 53.9437 59.3181V36.9194C54.4444 36.4521 54.7449 35.8178 54.7449 35.0835V34.7163C54.7449 33.7482 55.4459 33.0138 56.2804 32.5131C58.2499 31.3448 59.3515 32.2127 59.3515 32.2127C59.5517 32.3128 59.7187 32.4464 59.8856 32.6133L60.1526 32.8803C61.154 33.8817 62.7563 33.8817 63.7244 32.8803L65.1931 31.4115C66.1946 30.4101 66.1946 28.8078 65.1931 27.8398L64.9261 27.5727C64.2251 26.8717 64.0582 25.8035 64.4588 24.9022C64.5923 24.6018 64.7258 24.3014 64.8259 23.9676C65.1598 23.0329 66.061 22.432 67.0291 22.432H67.3963C68.7983 22.432 69.9332 21.2971 69.9332 19.8951L70 17.7587ZM26.2375 9.01287C26.6381 9.01287 27.0386 9.27992 27.1388 9.6805L27.6729 11.5165H23.133L22.4654 9.17978C22.4654 9.11302 22.432 9.07964 22.3987 9.01287H26.2375ZM19.7616 9.01287C20.1621 9.01287 20.5627 9.27992 20.6629 9.6805L21.1969 11.5165H16.6237L15.9561 9.17978C15.9561 9.11302 15.9227 9.07964 15.8894 9.01287H19.7616ZM1.83596 9.94754C1.83596 9.44683 2.26991 9.01287 2.77062 9.01287H13.2189C13.6195 9.01287 14.02 9.27992 14.1202 9.6805L14.8546 12.2508C15.0548 12.9185 15.6557 13.3858 16.3567 13.3858H37.587C37.5536 13.4859 37.5203 13.5861 37.4535 13.6862C37.1197 14.6209 36.2184 15.2217 35.2504 15.2217H34.8832C34.2823 15.2217 33.6481 15.4888 33.1474 15.8894H1.83596V9.94754ZM37.1531 31.3448L38.6218 32.8135C39.6233 33.815 41.2256 33.815 42.1936 32.8135L42.4607 32.5465C43.1617 31.8455 44.2299 31.6786 45.1311 32.0792C45.4316 32.2127 45.732 32.3462 46.0658 32.4464C47.0005 32.7802 47.6013 33.6814 47.6013 34.6495V35.0167C47.6013 35.7845 47.9351 36.4855 48.5026 36.9528V56.5808H43.2618C43.1617 56.4139 43.0949 56.2136 42.9948 56.0467L32.3796 38.5217C31.9123 37.7873 31.1445 37.32 30.2766 37.32C29.4087 37.32 28.6075 37.7539 28.1736 38.5217L17.5584 56.0467C17.4583 56.2136 17.3581 56.4139 17.2914 56.5808H5.44111V21.3639H32.8469C33.3143 21.9981 34.0486 22.3987 34.8832 22.3987H35.2504C36.2184 22.3987 37.1197 23.0329 37.4535 23.9342C37.5536 24.2346 37.6872 24.5684 37.8207 24.8689C38.2213 25.7701 38.0544 26.8383 37.3534 27.5393L37.0863 27.8064C36.1516 28.7744 36.1516 30.3767 37.1531 31.3448ZM31.1445 54.2442C32.0458 54.6113 32.68 55.4793 32.68 56.4807C32.68 57.8159 31.6118 58.8841 30.2766 58.8841C28.9413 58.8841 27.8732 57.8159 27.8732 56.4807C27.8732 55.4793 28.474 54.6113 29.4087 54.2442H31.1445ZM2.80401 60.2527C2.30329 60.2527 1.86934 59.8188 1.86934 59.3181V17.7587H32.4464L32.413 19.7616H5.2742C4.50644 19.7616 3.83882 20.3958 3.83882 21.1969V56.8145C3.83882 57.5823 4.47306 58.2499 5.2742 58.2499H16.7907C16.7239 58.9175 16.7573 59.6185 16.9576 60.2527H2.80401ZM35.1836 75.0071C35.1836 75.2074 35.0167 75.3743 34.8164 75.3743H25.67C25.4697 75.3743 25.3028 75.2074 25.3028 75.0071V71.836H35.1836V75.0071ZM37.8541 68.9986C37.8541 69.1989 37.6872 69.3658 37.4869 69.3658H22.9995C22.7992 69.3658 22.6323 69.1989 22.6323 68.9986V67.5966C22.6323 67.3963 22.7992 67.2294 22.9995 67.2294H37.5203C37.7206 67.2294 37.8875 67.3963 37.8875 67.5966V68.9986H37.8541ZM40.6915 61.0873L36.7191 65.0596H23.8007L19.8283 61.0873C18.7935 60.0525 18.5932 58.4502 19.361 57.2151L29.2084 40.9585V52.1411H29.0415L28.8746 52.2079C27.0052 52.8088 25.7368 54.5446 25.7368 56.5141C25.7368 59.0176 27.773 61.0205 30.2432 61.0205C32.7134 61.0205 34.7496 58.9843 34.7496 56.5141C34.7496 54.5446 33.4812 52.8088 31.6118 52.2079L31.4449 52.1411H31.3114V40.9585L41.1588 57.2151C41.9266 58.4502 41.7263 60.0525 40.6915 61.0873ZM52.1078 59.3181C52.1078 59.8188 51.6738 60.2527 51.1731 60.2527H43.5622C43.7291 59.5851 43.7959 58.9175 43.7291 58.2499H48.6695C49.4373 58.2499 50.1049 57.6156 50.1049 56.8145V37.6204H52.1412V59.3181H52.1078ZM67.463 20.0954H67.0959C65.1598 20.0954 63.4239 21.2971 62.7563 23.0997C62.6562 23.3667 62.556 23.6338 62.4225 23.8674C61.6214 25.6366 61.9886 27.7396 63.3572 29.0749L63.6242 29.3419C63.7244 29.4421 63.7244 29.609 63.6242 29.7091L62.1555 31.1779C62.0553 31.278 61.8884 31.278 61.7883 31.1779L61.5212 30.9108C60.1526 29.5422 58.083 29.175 56.3138 29.9762C56.0467 30.0763 55.7797 30.2098 55.546 30.31C53.7434 30.9776 52.5417 32.7134 52.5417 34.6495V35.0167C52.5417 35.1502 52.4416 35.2837 52.2747 35.2837H50.1717C50.0382 35.2837 49.9046 35.1836 49.9046 35.0167V34.6495C49.9046 32.7134 48.7029 30.9776 46.9003 30.31C46.6333 30.2098 46.3662 30.1097 46.1326 29.9762C44.3634 29.175 42.2604 29.5422 40.9251 30.9108L40.6581 31.1779C40.5579 31.278 40.391 31.278 40.2909 31.1779L38.8221 29.7091C38.722 29.609 38.722 29.4421 38.8221 29.3419L39.0892 29.0749C39.9571 28.207 40.4244 27.0052 40.4244 25.8035C40.4244 25.1359 40.2909 24.5017 39.9905 23.8674C39.8903 23.6004 39.7568 23.3333 39.6567 23.0997C38.989 21.2971 37.2532 20.0954 35.3171 20.0954H34.9499C34.8164 20.0954 34.6829 19.9952 34.6829 19.8283V17.7253C34.6829 17.5918 34.783 17.4583 34.9499 17.4583H35.3171C37.2532 17.4583 38.989 16.2566 39.6567 14.454C39.7568 14.1869 39.8569 13.9199 39.9905 13.6862C40.7916 11.917 40.4244 9.81402 39.0558 8.47878L38.7887 8.21173C38.722 8.14497 38.722 8.07821 38.722 8.04482C38.722 8.01144 38.722 7.9113 38.7887 7.87792L40.2575 6.40916C40.3577 6.30901 40.5246 6.30901 40.6247 6.40916L40.8918 6.6762C42.2604 8.04483 44.33 8.41202 46.0992 7.61087C46.3662 7.51073 46.6333 7.3772 46.867 7.27706C48.6695 6.60944 49.8713 4.84025 49.8713 2.93753V2.57034C49.8713 2.43681 49.9714 2.30329 50.1383 2.30329H52.2413C52.3748 2.30329 52.5083 2.40343 52.5083 2.57034V2.93753C52.5083 4.87363 53.7101 6.60944 55.5126 7.27706C55.7797 7.3772 56.0467 7.47735 56.2804 7.61087C58.0496 8.41202 60.1526 8.04483 61.4878 6.6762L61.7549 6.40916C61.855 6.30901 62.0219 6.30901 62.1221 6.40916L63.5908 7.87792C63.6576 7.94468 63.6576 8.01145 63.6576 8.07821C63.6576 8.11159 63.6576 8.21173 63.5908 8.24511L63.3238 8.51216C61.9552 9.88078 61.588 11.9504 62.3891 13.7196C62.4893 13.9866 62.6228 14.2537 62.7229 14.4874C63.3906 16.2899 65.1598 17.4917 67.0625 17.4917H67.4297C67.5632 17.4917 67.6967 17.5918 67.6967 17.7587V19.8617C67.7301 19.9952 67.5966 20.0954 67.463 20.0954Z" fill="#373737"/>
</svg>
