<svg width="74" height="73" viewBox="0 0 74 73" fill="none" xmlns="http://www.w3.org/2000/svg">
<path d="M42.2539 13.0092C44.8397 12.4446 46.9851 9.73465 47.9222 6.08752C47.9222 6.06493 47.9448 6.05364 47.9674 6.06493C51.6823 6.87792 55.1488 8.32322 58.2539 10.3331C58.2652 10.3444 58.2765 10.367 58.2652 10.3783C56.0859 14.0367 55.8601 17.9209 57.9942 20.055C60.1283 22.1891 64.0238 21.9746 67.6935 19.8179C67.7161 19.8066 67.7387 19.8179 67.7387 19.8292C69.726 22.923 71.1826 26.4008 71.9956 30.0931C71.9956 30.1157 71.9843 30.127 71.973 30.1383C67.8629 31.2109 64.9497 33.808 64.9497 36.8115C64.9497 39.8376 67.8629 42.4459 71.973 43.4847C71.9956 43.4847 72.0069 43.5073 71.9956 43.5299C71.1826 47.2561 69.726 50.7225 67.7274 53.8164C67.7161 53.8277 67.6935 53.839 67.6822 53.8277C64.0125 51.6484 60.1283 51.4452 57.9942 53.5793C55.8714 55.7021 56.0972 59.5976 58.2539 63.2673C58.2652 63.2899 58.2539 63.3125 58.2426 63.3125C55.0977 65.3284 51.618 66.7661 47.9674 67.5581C47.9448 67.5581 47.9335 67.5468 47.9222 67.5355C46.9851 63.8996 44.8397 61.1897 42.2539 60.6364M37.7374 12.4672V60.7493C37.7374 66.4854 33.2885 71.4649 27.5525 71.6117C22.0987 71.7585 17.5709 67.7387 16.8934 62.5108C16.8934 62.4995 16.8821 62.4882 16.8708 62.4769C11.3719 61.3591 7.23922 56.4925 7.23922 50.6661C7.23922 48.8707 7.63442 47.1657 8.33449 45.6301C8.34578 45.6188 8.33449 45.5962 8.3232 45.5849C4.56315 43.5525 2 39.5779 2 34.9823C2 30.5335 4.41637 26.6492 7.99575 24.5603C8.00704 24.549 8.01833 24.5377 8.00704 24.5151C7.51022 23.2053 7.23922 21.7713 7.23922 20.2808C7.23922 14.1948 11.7671 9.15878 17.6273 8.3458C17.6386 8.3458 17.6499 8.33451 17.6499 8.32322C18.4556 6.44348 19.7959 4.84197 21.5043 3.71776C23.2127 2.59355 25.2138 1.99622 27.2589 2.00002C33.0514 2.00002 37.7374 6.67467 37.7374 12.4672Z" stroke="#373737" stroke-width="2.25829" stroke-miterlimit="10" stroke-linecap="round" stroke-linejoin="round"/>
<path d="M42.2538 22.7988C49.5594 23.3069 55.318 29.3817 55.318 36.8115C55.318 44.2413 49.5594 50.3273 42.2538 50.8354" fill="white"/>
<path d="M42.2538 22.7988C49.5594 23.3069 55.318 29.3817 55.318 36.8115C55.318 44.2413 49.5594 50.3273 42.2538 50.8354" stroke="#373737" stroke-width="2.25829" stroke-miterlimit="10" stroke-linecap="round" stroke-linejoin="round"/>
<path d="M14.0592 47.0527C7.3973 47.0527 2 41.6554 2 34.9935C2 28.3315 7.3973 22.9342 14.0592 22.9342M17.6499 8.3457C17.6499 8.3457 26.0282 10.7508 26.0282 16.8707L17.6499 8.3457Z" fill="white"/>
<path d="M14.0592 47.0527C7.3973 47.0527 2 41.6554 2 34.9935C2 28.3315 7.3973 22.9342 14.0592 22.9342M17.6499 8.3457C17.6499 8.3457 26.0282 10.7508 26.0282 16.8707" stroke="#373737" stroke-width="2.25829" stroke-miterlimit="10" stroke-linecap="round" stroke-linejoin="round"/>
<path d="M20.427 22.2006C20.427 22.2006 23.3176 14.7369 30.9393 16.871L20.427 22.2006ZM27.868 27.8124C27.868 27.8124 34.3945 28.0721 37.748 22.9345L27.868 27.8124ZM14.0586 36.8117C14.0586 36.8117 17.3105 43.4849 25.0564 38.3247L14.0586 36.8117Z" fill="white"/>
<path d="M20.427 22.2006C20.427 22.2006 23.3176 14.7369 30.9393 16.871M27.868 27.8124C27.868 27.8124 34.3945 28.0721 37.748 22.9345M14.0586 36.8117C14.0586 36.8117 17.3105 43.4849 25.0564 38.3247" stroke="#373737" stroke-width="2.25829" stroke-miterlimit="10" stroke-linecap="round" stroke-linejoin="round"/>
<path d="M21.8394 34.0898C21.8394 34.0898 25.1704 41.9713 37.7377 39.4307L21.8394 34.0898ZM27.869 50.135C27.869 50.135 30.6806 44.6022 37.749 47.5605L27.869 50.135ZM16.905 62.4991C16.905 62.4991 16.6228 56.684 21.8394 56.0178L16.905 62.4991Z" fill="white"/>
<path d="M21.8394 34.0898C21.8394 34.0898 25.1704 41.9713 37.7377 39.4307M27.869 50.135C27.869 50.135 30.6806 44.6022 37.749 47.5605M16.905 62.4991C16.905 62.4991 16.6228 56.684 21.8394 56.0178" stroke="#373737" stroke-width="2.25829" stroke-miterlimit="10" stroke-linecap="round" stroke-linejoin="round"/>
<path d="M19.3771 48.4072C19.3771 48.4072 18.79 59.0776 29.212 58.4114L19.3771 48.4072Z" fill="white"/>
<path d="M19.3771 48.4072C19.3771 48.4072 18.79 59.0776 29.2119 58.4114" stroke="#373737" stroke-width="2.25829" stroke-miterlimit="10" stroke-linecap="round" stroke-linejoin="round"/>
</svg>
