<svg width="70" height="70" viewBox="0 0 70 70" fill="none" xmlns="http://www.w3.org/2000/svg">
<g id="Group">
<path id="Vector" d="M50.5633 5.94799C45.5583 1.46799 39.0833 -0.597011 32.34 0.149656C21.56 1.33966 12.9267 10.043 11.795 20.8347C10.9433 29.0247 14.3267 36.888 20.8483 41.858C22.8433 43.3747 24.0917 45.5097 24.4067 47.8313C23.4946 47.8526 22.627 48.2291 21.9885 48.8807C21.35 49.5323 20.9911 50.4074 20.9883 51.3197C20.9883 53.2213 22.5633 54.8197 24.4883 54.8197V57.153H23.3217C22.68 57.153 22.155 57.678 22.155 58.3197C22.155 58.9613 22.68 59.4863 23.3217 59.4863H24.4883V60.653C24.4883 62.578 26.0633 64.153 27.9883 64.153H29.155C29.155 67.373 31.7683 69.9863 34.9883 69.9863C38.2083 69.9863 40.8217 67.373 40.8217 64.153H41.9883C43.9133 64.153 45.4883 62.578 45.4883 60.653V59.4863H46.655C47.2967 59.4863 47.8217 58.9613 47.8217 58.3197C47.8217 57.678 47.2967 57.153 46.655 57.153H45.4883V54.8197C47.4133 54.8197 48.9883 53.2447 48.9883 51.3197C48.9883 49.3947 47.46 47.878 45.57 47.8313C45.885 45.5097 47.1333 43.3747 49.1167 41.8697C54.9617 37.413 58.3217 30.658 58.3217 23.3313C58.3217 16.7047 55.4867 10.3697 50.5517 5.94799H50.5633ZM35 67.6646C33.075 67.6646 31.5 66.0897 31.5 64.1646H38.5C38.5 66.0897 36.925 67.6646 35 67.6646ZM43.1667 60.6647C43.1667 61.3063 42.6417 61.8313 42 61.8313H28C27.3583 61.8313 26.8333 61.3063 26.8333 60.6647V59.498H43.1667V60.6647ZM43.1667 57.1647H26.8333V54.8313H43.1667V57.1647ZM46.6667 51.3313C46.6667 51.973 46.1417 52.498 45.5 52.498H24.5C23.8583 52.498 23.3333 51.973 23.3333 51.3313C23.3333 50.6897 23.8583 50.1647 24.5 50.1647H45.5C46.1417 50.1647 46.6667 50.6897 46.6667 51.3313ZM47.7167 40.0147C45.15 41.9747 43.5517 44.7747 43.225 47.8313H26.7633C26.4367 44.7747 24.8383 41.9747 22.26 40.003C16.3917 35.523 13.3467 28.4413 14.105 21.068C15.12 11.3613 22.89 3.53299 32.585 2.45966C38.6517 1.78299 44.485 3.63799 48.9883 7.67466C53.4333 11.653 55.9883 17.358 55.9883 23.3197C55.9883 29.9113 52.9667 36.0013 47.705 40.003L47.7167 40.0147ZM68.8333 22.1647H63C62.3583 22.1647 61.8333 22.6897 61.8333 23.3313C61.8333 23.973 62.3583 24.498 63 24.498H68.8333C69.475 24.498 70 23.973 70 23.3313C70 22.6897 69.475 22.1647 68.8333 22.1647ZM8.16667 23.3313C8.16667 22.6897 7.64167 22.1647 7 22.1647H1.16667C0.525 22.1647 0 22.6897 0 23.3313C0 23.973 0.525 24.498 1.16667 24.498H7C7.64167 24.498 8.16667 23.973 8.16667 23.3313ZM57.9367 8.44466C58.17 8.44466 58.4033 8.37466 58.6017 8.23466L63.385 4.88632C63.91 4.51299 64.0383 3.78966 63.6767 3.26466C63.3033 2.73966 62.58 2.61132 62.055 2.97299L57.2717 6.32132C56.7467 6.69466 56.6183 7.41799 56.98 7.94299C57.2017 8.26966 57.5633 8.44466 57.9367 8.44466ZM11.3983 38.4397L6.615 41.788C6.09 42.1613 5.96167 42.8847 6.32333 43.4097C6.545 43.7363 6.90667 43.9113 7.28 43.9113C7.51333 43.9113 7.74667 43.8413 7.945 43.7013L12.7283 40.353C13.2533 39.9797 13.3817 39.2563 13.02 38.7313C12.6467 38.2063 11.9233 38.078 11.3983 38.4397ZM58.6017 38.4397C58.4766 38.3507 58.335 38.2876 58.1853 38.2541C58.0355 38.2206 57.8805 38.2173 57.7295 38.2445C57.5784 38.2716 57.4343 38.3287 57.3056 38.4123C57.1769 38.4959 57.0662 38.6044 56.98 38.7313C56.891 38.8564 56.828 38.9979 56.7944 39.1477C56.7609 39.2975 56.7576 39.4524 56.7848 39.6035C56.812 39.7545 56.869 39.8986 56.9526 40.0273C57.0362 40.156 57.1447 40.2668 57.2717 40.353L62.055 43.7013C62.2533 43.8413 62.4983 43.9113 62.72 43.9113C63.0933 43.9113 63.455 43.7363 63.6767 43.4097C63.7656 43.2846 63.8287 43.143 63.8622 42.9933C63.8957 42.8435 63.899 42.6885 63.8718 42.5375C63.8447 42.3864 63.7876 42.2423 63.704 42.1136C63.6204 41.9849 63.512 41.8742 63.385 41.788L58.6017 38.4397ZM11.3983 8.23466C11.5967 8.37466 11.8417 8.44466 12.0633 8.44466C12.4367 8.44466 12.7983 8.26966 13.02 7.94299C13.109 7.81793 13.172 7.67636 13.2056 7.52659C13.2391 7.37682 13.2423 7.22187 13.2152 7.07082C13.188 6.91977 13.131 6.77567 13.0474 6.64697C12.9638 6.51826 12.8553 6.40755 12.7283 6.32132L7.945 2.97299C7.81994 2.88403 7.67837 2.82094 7.5286 2.78743C7.37884 2.75391 7.22388 2.75064 7.07283 2.7778C6.92178 2.80497 6.77768 2.86203 6.64898 2.94563C6.52027 3.02923 6.40956 3.1377 6.32333 3.26466C6.23438 3.38972 6.17129 3.53128 6.13777 3.68105C6.10425 3.83082 6.10098 3.98577 6.12815 4.13682C6.15532 4.28787 6.21237 4.43197 6.29598 4.56068C6.37958 4.68938 6.48804 4.8001 6.615 4.88632L11.3983 8.23466Z" fill="#373737"/>
<path id="Vector_2" d="M48.9999 17.4163C49.6416 17.4163 50.1666 16.8913 50.1666 16.2497C50.1666 15.608 49.6416 15.083 48.9999 15.083H46.6666V12.7497C46.6666 12.108 46.1416 11.583 45.4999 11.583H43.1666V9.24967C43.1666 8.60801 42.6416 8.08301 41.9999 8.08301C41.3583 8.08301 40.8333 8.60801 40.8333 9.24967V11.583H36.1666V9.24967C36.1666 8.60801 35.6416 8.08301 34.9999 8.08301C34.3583 8.08301 33.8333 8.60801 33.8333 9.24967V11.583H29.1666V9.24967C29.1666 8.60801 28.6416 8.08301 27.9999 8.08301C27.3583 8.08301 26.8333 8.60801 26.8333 9.24967V11.583H24.4999C23.8583 11.583 23.3333 12.108 23.3333 12.7497V15.083H20.9999C20.3583 15.083 19.8333 15.608 19.8333 16.2497C19.8333 16.8913 20.3583 17.4163 20.9999 17.4163H23.3333V22.083H20.9999C20.3583 22.083 19.8333 22.608 19.8333 23.2497C19.8333 23.8913 20.3583 24.4163 20.9999 24.4163H23.3333V29.083H20.9999C20.3583 29.083 19.8333 29.608 19.8333 30.2497C19.8333 30.8913 20.3583 31.4163 20.9999 31.4163H23.3333V33.7497C23.3333 34.3913 23.8583 34.9163 24.4999 34.9163H26.8333V37.2497C26.8333 37.8913 27.3583 38.4163 27.9999 38.4163C28.6416 38.4163 29.1666 37.8913 29.1666 37.2497V34.9163H33.8333V37.2497C33.8333 37.8913 34.3583 38.4163 34.9999 38.4163C35.6416 38.4163 36.1666 37.8913 36.1666 37.2497V34.9163H40.8333V37.2497C40.8333 37.8913 41.3583 38.4163 41.9999 38.4163C42.6416 38.4163 43.1666 37.8913 43.1666 37.2497V34.9163H45.4999C46.1416 34.9163 46.6666 34.3913 46.6666 33.7497V31.4163H48.9999C49.6416 31.4163 50.1666 30.8913 50.1666 30.2497C50.1666 29.608 49.6416 29.083 48.9999 29.083H46.6666V24.4163H48.9999C49.6416 24.4163 50.1666 23.8913 50.1666 23.2497C50.1666 22.608 49.6416 22.083 48.9999 22.083H46.6666V17.4163H48.9999ZM44.3333 32.583H25.6666V13.9163H44.3333V32.583Z" fill="#373737"/>
<path id="Vector_3" d="M33.7633 18.1743C33.5883 17.7193 33.1567 17.416 32.6667 17.416C32.1767 17.416 31.745 17.7193 31.57 18.1743L28.07 27.5077C27.8483 28.1143 28.1517 28.7793 28.7583 29.0127C29.365 29.2343 30.03 28.931 30.2633 28.3243L30.8583 26.7493H34.4867L35.0817 28.3243C35.2567 28.791 35.7 29.0827 36.1783 29.0827C36.3183 29.0827 36.4583 29.0593 36.5867 29.0127C37.1933 28.791 37.4967 28.1143 37.275 27.5077L33.775 18.1743H33.7633ZM31.7333 24.416L32.6783 21.9077L33.6233 24.416H31.745H31.7333ZM39.6667 17.416C39.025 17.416 38.5 17.941 38.5 18.5827V27.916C38.5 28.5577 39.025 29.0827 39.6667 29.0827C40.3083 29.0827 40.8333 28.5577 40.8333 27.916V18.5827C40.8333 17.941 40.3083 17.416 39.6667 17.416Z" fill="#373737"/>
</g>
</svg>
