<svg width="50" height="50" viewBox="0 0 50 50" fill="none" xmlns="http://www.w3.org/2000/svg">
<g clip-path="url(#clip0_563_237)">
<path d="M14.5833 11.4583C14.5833 9.73333 15.9833 8.33333 17.7083 8.33333C19.4333 8.33333 20.8333 9.73333 20.8333 11.4583C20.8333 13.1833 19.4333 14.5833 17.7083 14.5833C15.9833 14.5833 14.5833 13.1833 14.5833 11.4583ZM50 22.7292V42.3271C49.6646 42.6146 40.8646 50 25 50C8.82292 50 0.3375 38.1437 0 37.6604C0 30.1437 3.48542 20.9042 6.86458 15.1312C6.47292 13.975 6.25 12.7437 6.25 11.4563C6.25 5.13958 11.3896 0 17.7083 0C24.0271 0 29.1667 5.13958 29.1667 11.4583C29.1667 17.3937 24.6292 22.2875 18.8417 22.8583C18.8354 24.975 18.7375 27.2 18.4 29.3958C20.5708 28.1125 23.1917 27.0833 26.0417 27.0833C27.4896 27.0833 28.7854 27.3583 29.9562 27.7542C30.7896 26.7 35.6937 20.8333 41.6667 20.8333C46.4292 20.8333 49.7604 22.5958 50 22.7292ZM10.4167 11.4583C10.4167 15.4792 13.6875 18.75 17.7083 18.75C21.7292 18.75 25 15.4792 25 11.4583C25 7.4375 21.7292 4.16667 17.7083 4.16667C13.6875 4.16667 10.4167 7.4375 10.4167 11.4583ZM45.8333 25.4354C44.9833 25.225 43.6146 25 41.6667 25C38.5375 25 35.2875 27.9583 33.7396 29.7229C35.4104 30.9562 36.3604 32.1792 36.4375 32.2812L33.1104 34.7896C33.0833 34.7542 30.3437 31.25 26.0396 31.25C21.4687 31.25 16.9792 35.4354 15.6354 37.0479L12.4354 34.3812C14.1271 31.0917 14.6812 26.375 14.675 22.4958C12.6 21.925 10.7625 20.7875 9.33542 19.2562C6.73958 24.1937 4.35625 30.6 4.175 36.3125C5.83542 38.3667 12.7146 45.8312 24.9979 45.8312C36.7562 45.8312 43.6792 41.8063 45.8312 40.325L45.8333 25.4354Z" fill="#373737"/>
</g>
<defs>
<clipPath id="clip0_563_237">
<rect width="50" height="50" fill="white"/>
</clipPath>
</defs>
</svg>
