<svg width="51" height="50" viewBox="0 0 51 50" fill="none" xmlns="http://www.w3.org/2000/svg">
<g clip-path="url(#clip0_563_244)">
<path d="M39.9167 25H34.4709L35.5959 15.9771C35.7924 15.0644 35.7831 14.1194 35.5688 13.2107C35.3544 12.302 34.9403 11.4525 34.3565 10.7239C33.7727 9.99529 33.034 9.40588 32.1939 8.99849C31.3539 8.59111 30.4336 8.37598 29.5 8.36874H24.5646C24.7917 6.76249 24.6542 4.18749 26.9271 4.17707H33.6667C34.2192 4.17707 34.7491 3.95758 35.1398 3.56688C35.5305 3.17618 35.75 2.64627 35.75 2.09374C35.75 1.54121 35.5305 1.0113 35.1398 0.620601C34.7491 0.2299 34.2192 0.0104065 33.6667 0.0104065H26.9271C25.4044 0.0113438 23.9344 0.568151 22.7932 1.57626C21.652 2.58437 20.918 3.97444 20.7292 5.48541L20.3688 8.36874H6.58337C5.66837 8.37855 4.76651 8.58777 3.94064 8.98181C3.11478 9.37585 2.38476 9.94524 1.80148 10.6503C1.2182 11.3554 0.795672 12.1791 0.563347 13.0642C0.331022 13.9493 0.294486 14.8744 0.456286 15.775L3.60837 40.8958C3.9271 43.4119 5.15196 45.7256 7.05363 47.4037C8.95531 49.0818 11.4034 50.0093 13.9396 50.0125L39.9167 49.9875C41.2846 49.9875 42.6392 49.7181 43.903 49.1946C45.1668 48.6711 46.3151 47.9038 47.2824 46.9365C48.2497 45.9692 49.017 44.8209 49.5404 43.5571C50.0639 42.2933 50.3334 40.9388 50.3334 39.5708V35.4167C50.3334 34.0487 50.0639 32.6942 49.5404 31.4304C49.017 30.1666 48.2497 29.0182 47.2824 28.051C46.3151 27.0837 45.1668 26.3164 43.903 25.7929C42.6392 25.2694 41.2846 25 39.9167 25ZM46.1667 35.4167H21.1667C21.1667 33.7591 21.8252 32.1693 22.9973 30.9972C24.1694 29.8251 25.7591 29.1667 27.4167 29.1667H39.9167C41.5743 29.1667 43.164 29.8251 44.3361 30.9972C45.5082 32.1693 46.1667 33.7591 46.1667 35.4167ZM29.5 12.5333C29.8292 12.5351 30.1533 12.614 30.4464 12.7637C30.7396 12.9133 30.9936 13.1296 31.188 13.3952C31.3825 13.6607 31.512 13.9681 31.5662 14.2928C31.6204 14.6174 31.5977 14.9503 31.5 15.2646L31.3188 16.6667H23.5271L24.0438 12.5292L29.5 12.5333ZM4.9667 13.3125C5.16108 13.0703 5.40712 12.8747 5.68684 12.7399C5.96655 12.6051 6.27286 12.5345 6.58337 12.5333H19.848L19.3292 16.6667H4.75837L4.55004 15.0625C4.48326 14.7582 4.48605 14.4428 4.5582 14.1398C4.63034 13.8368 4.76999 13.554 4.9667 13.3125ZM7.7417 40.3792L5.28337 20.8333H30.798L30.275 25H27.4167C24.654 25 22.0045 26.0975 20.051 28.051C18.0975 30.0045 17 32.654 17 35.4167C16.9125 38.8208 16.7917 43.2083 19.1584 45.8542H13.9396C12.4169 45.8532 10.9469 45.2964 9.80568 44.2883C8.66445 43.2802 7.93052 41.8901 7.7417 40.3792ZM39.9167 45.8333H27.4167C25.7591 45.8333 24.1694 45.1748 22.9973 44.0027C21.8252 42.8306 21.1667 41.2409 21.1667 39.5833H28.875C29.6813 39.9708 34.8646 43.9812 35.75 43.75C36.6167 43.9958 41.8542 39.9521 42.625 39.5833H46.1667C46.1667 41.2409 45.5082 42.8306 44.3361 44.0027C43.164 45.1748 41.5743 45.8333 39.9167 45.8333Z" fill="#373737"/>
</g>
<defs>
<clipPath id="clip0_563_244">
<rect width="50" height="50" fill="white" transform="translate(0.333374)"/>
</clipPath>
</defs>
</svg>
