<svg width="70" height="70" viewBox="0 0 70 70" fill="none" xmlns="http://www.w3.org/2000/svg">
<g id="Group">
<path id="Vector" d="M44.1957 6.90433C44.0531 6.46555 43.794 6.07371 43.4462 5.77064C43.0983 5.46757 42.6747 5.26464 42.2205 5.1835L38.8453 4.599L37.261 1.41633C36.8235 0.543667 35.9578 0 35 0C34.0422 0 33.1765 0.543667 32.739 1.4175L31.1547 4.60017L27.7807 5.18467C27.3261 5.26513 26.902 5.4678 26.5538 5.77095C26.2056 6.07411 25.9466 6.46631 25.8043 6.9055C25.652 7.35647 25.6251 7.84038 25.7267 8.30544C25.8282 8.7705 26.0542 9.1992 26.3807 9.54567L28.8073 12.1147L28.2917 15.6917C28.2195 16.1676 28.2807 16.6543 28.4686 17.0975C28.6564 17.5407 28.9635 17.9232 29.3557 18.2023C29.7296 18.4685 30.1699 18.626 30.6278 18.6575C31.0857 18.689 31.5434 18.5933 31.9503 18.3808L34.9988 16.793L38.0473 18.3808C38.4541 18.5943 38.9122 18.6906 39.3705 18.6591C39.8288 18.6276 40.2694 18.4695 40.6432 18.2023C41.0354 17.9233 41.3426 17.5408 41.5304 17.0976C41.7183 16.6543 41.7795 16.1676 41.7072 15.6917L41.1915 12.1147L43.6182 9.54567C43.9446 9.1992 44.1707 8.7705 44.2722 8.30544C44.3737 7.84038 44.3468 7.35647 44.1945 6.9055L44.1957 6.90433ZM41.9242 7.94267L39.1102 10.9223C38.9893 11.0499 38.8989 11.2032 38.8457 11.3707C38.7926 11.5382 38.7781 11.7156 38.8033 11.8895L39.4007 16.0242C39.424 16.1898 39.3342 16.2715 39.2957 16.2995C39.214 16.3543 39.158 16.3275 39.1265 16.3123L35.539 14.4422C35.3724 14.3559 35.1876 14.3109 35 14.3109C34.8124 14.3109 34.6276 14.3559 34.461 14.4422L30.8735 16.3123C30.842 16.3287 30.7848 16.3543 30.7043 16.2995C30.6658 16.2715 30.5772 16.1887 30.5993 16.0242L31.1967 11.8895C31.2219 11.7156 31.2074 11.5382 31.1543 11.3707C31.1011 11.2032 31.0107 11.0499 30.8898 10.9223L28.0758 7.94267C28.0395 7.90265 28.0148 7.85341 28.0045 7.80033C27.9942 7.74725 27.9987 7.69237 28.0175 7.64167C28.0478 7.5495 28.1015 7.497 28.1785 7.483L32.1358 6.797C32.501 6.73283 32.8148 6.4995 32.9817 6.167L34.8297 2.457C34.8448 2.42667 34.8915 2.33333 35 2.33333C35.1085 2.33333 35.1563 2.4255 35.1703 2.45583L37.0183 6.167C37.1852 6.4995 37.4978 6.73283 37.8642 6.797L41.8227 7.483C41.8973 7.497 41.951 7.5495 41.9825 7.64167C42.0015 7.69233 42.0062 7.74728 41.9959 7.80041C41.9856 7.85354 41.9608 7.90279 41.9242 7.94267ZM23.1957 16.2377C23.0531 15.7989 22.794 15.407 22.4462 15.104C22.0983 14.8009 21.6747 14.598 21.2205 14.5168L17.8453 13.9323L16.261 10.7497C15.8258 9.877 14.9602 9.33333 14.0012 9.33333C13.0422 9.33333 12.1777 9.877 11.7402 10.7508L10.1558 13.9335L6.78183 14.518C6.32725 14.5985 5.90314 14.8011 5.55498 15.1043C5.20681 15.4074 4.94773 15.7996 4.8055 16.2388C4.65316 16.6898 4.62631 17.1737 4.72783 17.6388C4.82935 18.1038 5.05541 18.5325 5.38183 18.879L7.8085 21.448L7.29283 25.025C7.22067 25.5009 7.28191 25.9876 7.46974 26.4308C7.65758 26.874 7.96466 27.2565 8.35683 27.5357C8.73079 27.8018 9.17107 27.9594 9.62899 27.9909C10.0869 28.0224 10.5446 27.9266 10.9515 27.7142L14 26.1263L17.0485 27.7142C17.4553 27.9276 17.9134 28.0239 18.3717 27.9924C18.83 27.9609 19.2706 27.8028 19.6443 27.5357C20.0366 27.2566 20.3438 26.8742 20.5316 26.4309C20.7195 25.9876 20.7806 25.501 20.7083 25.025L20.1927 21.448L22.6193 18.879C22.9458 18.5325 23.1718 18.1038 23.2733 17.6388C23.3749 17.1737 23.348 16.6886 23.1957 16.2377ZM20.9242 17.276L18.1102 20.2557C17.9893 20.3832 17.8989 20.5365 17.8457 20.704C17.7926 20.8715 17.7781 21.0489 17.8033 21.2228L18.4007 25.3575C18.424 25.5232 18.3342 25.6048 18.2957 25.6328C18.214 25.6877 18.158 25.662 18.1265 25.6457L14.539 23.7755C14.3724 23.6893 14.1876 23.6443 14 23.6443C13.8124 23.6443 13.6276 23.6893 13.461 23.7755L9.8735 25.6457C9.842 25.6632 9.786 25.6877 9.70433 25.6328C9.66583 25.6048 9.57717 25.522 9.59933 25.3575L10.1967 21.2228C10.2219 21.0489 10.2074 20.8715 10.1543 20.704C10.1011 20.5365 10.0107 20.3832 9.88983 20.2557L7.07583 17.276C7.03947 17.236 7.01481 17.1867 7.00452 17.1337C6.99423 17.0806 6.99872 17.0257 7.0175 16.975C7.04783 16.8828 7.1015 16.8303 7.1785 16.8163L11.1358 16.1303C11.501 16.0662 11.8148 15.8328 11.9817 15.5003L13.8297 11.7903C13.8448 11.76 13.8915 11.6667 14 11.6667C14.1085 11.6667 14.1563 11.7588 14.1703 11.7892L16.0183 15.5003C16.1852 15.8328 16.4978 16.0662 16.8642 16.1303L20.8227 16.8163C20.8973 16.8303 20.951 16.8828 20.9825 16.975C21.0015 17.0257 21.0062 17.0806 20.9959 17.1337C20.9856 17.1869 20.9608 17.2361 20.9242 17.276ZM65.1957 16.2377C65.0531 15.7989 64.794 15.407 64.4462 15.104C64.0983 14.8009 63.6747 14.598 63.2205 14.5168L59.8453 13.9323L58.261 10.7497C57.8258 9.877 56.9602 9.33333 56.0012 9.33333C55.0422 9.33333 54.1777 9.877 53.7402 10.7508L52.1558 13.9335L48.7818 14.518C48.3272 14.5985 47.9031 14.8011 47.555 15.1043C47.2068 15.4074 46.9477 15.7996 46.8055 16.2388C46.6532 16.6898 46.6263 17.1737 46.7278 17.6388C46.8293 18.1038 47.0554 18.5325 47.3818 18.879L49.8085 21.448L49.2928 25.025C49.2207 25.5009 49.2819 25.9876 49.4697 26.4308C49.6576 26.874 49.9647 27.2565 50.3568 27.5357C50.7308 27.8018 51.1711 27.9594 51.629 27.9909C52.0869 28.0224 52.5446 27.9266 52.9515 27.7142L56 26.1263L59.0485 27.7142C59.4553 27.9276 59.9134 28.0239 60.3717 27.9924C60.83 27.9609 61.2706 27.8028 61.6443 27.5357C62.0366 27.2566 62.3438 26.8742 62.5316 26.4309C62.7195 25.9876 62.7806 25.501 62.7083 25.025L62.1927 21.448L64.6193 18.879C64.9457 18.5325 65.1718 18.1038 65.2733 17.6388C65.3749 17.1737 65.348 16.6886 65.1957 16.2377ZM62.9242 17.276L60.1102 20.2557C59.9893 20.3832 59.8989 20.5365 59.8457 20.704C59.7926 20.8715 59.7781 21.0489 59.8033 21.2228L60.4007 25.3575C60.424 25.5232 60.3342 25.6048 60.2957 25.6328C60.214 25.6877 60.158 25.662 60.1265 25.6457L56.539 23.7755C56.3724 23.6893 56.1876 23.6443 56 23.6443C55.8124 23.6443 55.6276 23.6893 55.461 23.7755L51.8735 25.6457C51.8432 25.6632 51.7848 25.6877 51.7043 25.6328C51.6658 25.6048 51.5772 25.522 51.5993 25.3575L52.1967 21.2228C52.2219 21.0489 52.2074 20.8715 52.1543 20.704C52.1011 20.5365 52.0107 20.3832 51.8898 20.2557L49.0758 17.276C49.0395 17.236 49.0148 17.1867 49.0045 17.1337C48.9942 17.0806 48.9987 17.0257 49.0175 16.975C49.0478 16.8828 49.1015 16.8303 49.1785 16.8163L53.1358 16.1303C53.501 16.0662 53.8148 15.8328 53.9817 15.5003L55.8297 11.7903C55.8448 11.76 55.8915 11.6667 56 11.6667C56.1085 11.6667 56.1563 11.7588 56.1703 11.7892L58.0183 15.5003C58.1852 15.8328 58.4978 16.0662 58.8642 16.1303L62.8227 16.8163C62.8973 16.8303 62.951 16.8828 62.9825 16.975C63.0015 17.0257 63.0062 17.0806 62.9959 17.1337C62.9856 17.1869 62.9608 17.2361 62.9242 17.276ZM35 28C15.701 28 0 43.701 0 63C0 64.2868 1.0465 65.3333 2.33333 65.3333H16.3333C17.6202 65.3333 18.6667 64.2868 18.6667 63C18.6667 53.9933 25.9933 46.6667 35 46.6667C37.7066 46.6684 40.3702 47.3432 42.7512 48.6303C45.1321 49.9174 47.1556 51.7764 48.6395 54.04C43.4362 55.8798 39.4018 57.365 36.4315 58.5317C35.9646 58.4055 35.4836 58.3389 35 58.3333C31.7835 58.3333 29.1667 60.9502 29.1667 64.1667C29.1667 67.3832 31.7835 70 35 70C37.2972 70 39.27 68.6537 40.2208 66.7182C43.2693 65.058 47.1823 62.804 51.1187 60.494C51.247 61.32 51.3333 62.1553 51.3333 63C51.3333 64.2868 52.3798 65.3333 53.6667 65.3333H67.6667C68.9535 65.3333 70 64.2868 70 63C70 43.701 54.299 28 35 28ZM47.3398 49.0105C44.2349 46.2649 40.3032 44.633 36.1667 44.373V30.3625C44.2937 30.6495 51.6728 33.9162 57.2437 39.1067L47.3398 49.0105ZM16.3333 63H2.33333C2.33333 54.4122 5.66883 46.5932 11.1067 40.7563L21.021 50.6707C18.1137 53.963 16.3333 58.2727 16.3333 63ZM22.6707 49.021L12.7563 39.1067C18.3272 33.9173 25.7052 30.6507 33.8333 30.3625V44.3917C29.7002 44.6464 25.771 46.2759 22.6707 49.021ZM59.7975 52.6295C54.1987 55.9802 46.4427 60.5908 40.789 63.7397C40.6931 62.3293 40.0852 61.0025 39.0798 60.0087C43.7757 58.2178 50.589 55.79 59.7975 52.6295ZM34.9988 67.6667C33.0692 67.6667 31.4988 66.0963 31.4988 64.1667C31.4988 62.237 33.0692 60.6667 34.9988 60.6667C36.9285 60.6667 38.4988 62.237 38.4988 64.1667C38.4988 66.0963 36.9285 67.6667 34.9988 67.6667ZM53.6655 63C53.6655 61.7237 53.5302 60.459 53.2747 59.2247C56.0175 57.6053 58.6915 56.0105 61.0003 54.6303C62.0492 53.9945 62.4353 52.7333 61.9208 51.6308C61.6829 51.1043 61.255 50.6869 60.7227 50.4622C60.1904 50.2375 59.5929 50.2219 59.0497 50.4187C56.0852 51.436 53.3762 52.3763 50.8958 53.2467C50.334 52.3329 49.6946 51.4691 48.9848 50.6648L58.891 40.7587C64.3288 46.5955 67.6643 54.4145 67.6643 63.0023H53.6643L53.6655 63Z" fill="#373737"/>
</g>
</svg>
