<svg width="50" height="50" viewBox="0 0 50 50" fill="none" xmlns="http://www.w3.org/2000/svg">
<path d="M46.2655 10.4772C44.3983 7.36514 41.0788 5.29044 37.3443 5.29044H12.4481C8.71367 5.29044 5.39424 7.36514 3.52695 10.4772C1.24482 14.6266 0 19.1909 0 23.9627C0 35.3734 4.56436 44.7096 10.3734 44.7096C13.4854 44.7096 15.9751 41.805 17.8423 35.7884C18.0497 34.9585 18.8796 34.3361 19.917 34.3361H30.083C30.9129 34.3361 31.7428 34.9585 32.1577 35.7884C34.0249 41.805 36.5145 44.7096 39.6266 44.7096C45.4356 44.7096 50 35.3734 50 23.9627C49.7926 19.1909 48.5478 14.6266 46.2655 10.4772ZM39.419 40.5602C38.7967 40.5602 37.3443 38.9004 35.8921 34.5436C35.0622 31.8465 32.5726 30.1867 29.8755 30.1867H19.917C17.2199 30.1867 14.7303 32.0539 13.9004 34.5436C12.4481 38.9004 10.9958 40.5602 10.3734 40.5602C8.29873 40.5602 4.14941 34.1286 4.14941 23.9627C4.14941 20.0208 5.18672 16.0789 7.054 12.552C8.29883 10.6848 10.3735 9.43995 12.4482 9.43995H37.3445C39.4192 9.43995 41.4939 10.6848 42.7388 12.552C44.606 16.0789 45.6434 20.0208 45.6434 23.9627C45.6432 34.1286 41.4938 40.5602 39.419 40.5602Z" fill="#373737"/>
<path d="M18.75 18.75H16.6667V16.6667C16.6667 15.4167 15.8334 14.5834 14.5834 14.5834C13.3334 14.5834 12.5001 15.4167 12.5001 16.6667V18.75H10.4168C9.1668 18.75 8.3335 19.5833 8.3335 20.8333C8.3335 22.0833 9.1668 22.9166 10.4168 22.9166H12.5V25C12.5 26.25 13.3333 27.0833 14.5833 27.0833C15.8333 27.0833 16.6666 26.25 16.6666 25V22.9167H18.75C20 22.9167 20.8333 22.0834 20.8333 20.8334C20.8333 19.5833 20 18.75 18.75 18.75Z" fill="#373737"/>
<path d="M38.5417 20.8333C40.2676 20.8333 41.6667 19.4342 41.6667 17.7083C41.6667 15.9824 40.2676 14.5833 38.5417 14.5833C36.8158 14.5833 35.4167 15.9824 35.4167 17.7083C35.4167 19.4342 36.8158 20.8333 38.5417 20.8333Z" fill="#373737"/>
<path d="M32.2917 27.0833C34.0176 27.0833 35.4167 25.6842 35.4167 23.9583C35.4167 22.2324 34.0176 20.8333 32.2917 20.8333C30.5658 20.8333 29.1667 22.2324 29.1667 23.9583C29.1667 25.6842 30.5658 27.0833 32.2917 27.0833Z" fill="#373737"/>
</svg>
