<svg width="19" height="20" viewBox="0 0 17 18" fill="none" xmlns="http://www.w3.org/2000/svg">
<path d="M6.0002 2.23926H4.2002C3.08009 2.23926 2.51962 2.23926 2.0918 2.45724C1.71547 2.64899 1.40973 2.95473 1.21799 3.33105C1 3.75888 1 4.31935 1 5.43945V13.0395C1 14.1596 1 14.7193 1.21799 15.1471C1.40973 15.5235 1.71547 15.8297 2.0918 16.0215C2.5192 16.2393 3.07899 16.2393 4.19691 16.2393H11.8031C12.921 16.2393 13.48 16.2393 13.9074 16.0215C14.2837 15.8297 14.5905 15.5232 14.7822 15.1468C15 14.7194 15 14.1603 15 13.0423V11.2393M16 6.23926V1.23926M16 1.23926H11M16 1.23926L9 8.23926" stroke="white" stroke-width="2" stroke-linecap="round" stroke-linejoin="round"/>
</svg>
