<svg width="33" height="34" viewBox="0 0 33 34" fill="none" xmlns="http://www.w3.org/2000/svg">
<path d="M10.5599 0.200195L12.7599 4.2002L16.5599 8.2002L29.5999 8.2002V2.6002C29.5999 1.2746 28.5255 0.200195 27.1999 0.200195L10.5599 0.200195Z" fill="#4CAF50"/>
<path d="M10.5599 33.8003L11.9279 30.9091L16.5599 25.8003H29.5999V31.4003C29.5999 32.7259 28.5255 33.8003 27.1999 33.8003H10.5599Z" fill="#1E88E5"/>
<path d="M6.55994 8.2001L13.1599 17.0001L6.55994 25.8001L11.1999 26.6001L16.5599 25.8001L23.1599 17.0001L16.5599 8.2001L11.1999 7.4001L6.55994 8.2001Z" fill="#E53935"/>
<path d="M7.4384 33.8003H10.56L16.56 25.8003H6.56L4.6872 28.2995C4.2408 28.8947 4 29.6179 4 30.3619C4 32.2611 5.5392 33.8003 7.4384 33.8003Z" fill="#C62828"/>
<path d="M7.4384 0.200195H10.56L16.56 8.2002H6.56L4.6872 5.70099C4.2408 5.10579 4 4.3826 4 3.6386C4 1.7394 5.5392 0.200195 7.4384 0.200195Z" fill="#FBC02D"/>
</svg>
