<svg width="70" height="70" viewBox="0 0 70 70" fill="none" xmlns="http://www.w3.org/2000/svg">
<g id="Group">
<g id="Clip path group">
<mask id="mask0_879_1215" style="mask-type:luminance" maskUnits="userSpaceOnUse" x="0" y="0" width="70" height="70">
<g id="a">
<path id="Vector" d="M69 69V1H1V69H69Z" fill="white" stroke="white" stroke-width="2"/>
</g>
</mask>
<g mask="url(#mask0_879_1215)">
<g id="Group_2">
<g id="Vector_2">
<path d="M12.1914 13.5176C13.3476 12.1942 14.6087 10.9663 15.9624 9.84572L12.1914 13.5176Z" fill="black" fill-opacity="0.01"/>
<path d="M12.1914 13.5176C13.3476 12.1942 14.6087 10.9663 15.9624 9.84572" stroke="#373737" stroke-width="2" stroke-miterlimit="10" stroke-linecap="round" stroke-linejoin="round"/>
</g>
<g id="Vector_3">
<path d="M4.97461 27.6367C5.77863 24.1417 7.15598 20.8041 9.05074 17.7592L4.97461 27.6367Z" fill="black" fill-opacity="0.01"/>
<path d="M4.97461 27.6367C5.77863 24.1417 7.15598 20.8041 9.05074 17.7592" stroke="#373737" stroke-width="2" stroke-miterlimit="10" stroke-linecap="round" stroke-linejoin="round"/>
</g>
<g id="Vector_4">
<path d="M15.7593 59.9863C8.6584 54.0109 4.14258 45.0356 4.14258 35.0003C4.14258 34.6191 4.14914 34.2395 4.16199 33.8616" fill="black" fill-opacity="0.01"/>
<path d="M15.7593 59.9863C8.6584 54.0109 4.14258 45.0356 4.14258 35.0003C4.14258 34.6191 4.14914 34.2395 4.16199 33.8616" stroke="#373737" stroke-width="2" stroke-miterlimit="10" stroke-linecap="round" stroke-linejoin="round"/>
</g>
<g id="Vector_5">
<path d="M52.2668 63.5021C47.6136 66.0973 42.2579 67.5752 36.5587 67.5752C30.879 67.5752 25.5406 66.1074 20.8984 63.5285" fill="black" fill-opacity="0.01"/>
<path d="M52.2668 63.5021C47.6136 66.0973 42.2579 67.5752 36.5587 67.5752C30.879 67.5752 25.5406 66.1074 20.8984 63.5285" stroke="#373737" stroke-width="2" stroke-miterlimit="10" stroke-linecap="round" stroke-linejoin="round"/>
</g>
<g id="Vector_6">
<path d="M64.0457 17.7254C67.1691 22.733 68.9748 28.6551 68.9748 35.001C68.9748 45.0217 64.4723 53.9855 57.3892 59.9609" fill="black" fill-opacity="0.01"/>
<path d="M64.0457 17.7254C67.1691 22.733 68.9748 28.6551 68.9748 35.001C68.9748 45.0217 64.4723 53.9855 57.3892 59.9609" stroke="#373737" stroke-width="2" stroke-miterlimit="10" stroke-linecap="round" stroke-linejoin="round"/>
</g>
<g id="Vector_7">
<path d="M56.8672 9.60971C58.0667 10.5799 59.1961 11.6339 60.2467 12.7637L56.8672 9.60971Z" fill="black" fill-opacity="0.01"/>
<path d="M56.8672 9.60971C58.0667 10.5799 59.1961 11.6339 60.2467 12.7637" stroke="#373737" stroke-width="2" stroke-miterlimit="10" stroke-linecap="round" stroke-linejoin="round"/>
</g>
<g id="Vector_8">
<path d="M21.1011 6.36133C25.6956 3.85186 30.9616 2.42629 36.5589 2.42629C42.0125 2.42629 47.1516 3.77967 51.6617 6.17033" fill="black" fill-opacity="0.01"/>
<path d="M21.1011 6.36133C25.6956 3.85186 30.9616 2.42629 36.5589 2.42629C42.0125 2.42629 47.1516 3.77967 51.6617 6.17033" stroke="#373737" stroke-width="2" stroke-miterlimit="10" stroke-linecap="round" stroke-linejoin="round"/>
</g>
<g id="Vector_9">
<path d="M39.2734 13.8135C42.9245 11.5413 46.9465 9.75553 51.2687 8.56348L39.2734 13.8135Z" fill="black" fill-opacity="0.01"/>
<path d="M39.2734 13.8135C42.9245 11.5413 46.9465 9.75553 51.2687 8.56348" stroke="#373737" stroke-width="2" stroke-miterlimit="10" stroke-linecap="round" stroke-linejoin="round"/>
</g>
<g id="Vector_10">
<path d="M25.9907 26.374C28.3347 23.0459 31.1087 20.0426 34.2406 17.4423L25.9907 26.374Z" fill="black" fill-opacity="0.01"/>
<path d="M25.9907 26.374C28.3347 23.0459 31.1087 20.0426 34.2406 17.4423" stroke="#373737" stroke-width="2" stroke-miterlimit="10" stroke-linecap="round" stroke-linejoin="round"/>
</g>
<g id="Vector_11">
<path d="M17.8843 58.6279C16.7174 49.0878 18.5623 39.7758 22.7296 31.7399L17.8843 58.6279Z" fill="black" fill-opacity="0.01"/>
<path d="M17.8843 58.6279C16.7174 49.0878 18.5623 39.7758 22.7296 31.7399" stroke="#373737" stroke-width="2" stroke-miterlimit="10" stroke-linecap="round" stroke-linejoin="round"/>
</g>
<g id="Vector_12">
<path d="M33.8439 13.8135C30.0694 11.4645 25.8985 9.63535 21.4092 8.44453L33.8439 13.8135Z" fill="black" fill-opacity="0.01"/>
<path d="M33.8439 13.8135C30.0694 11.4645 25.8985 9.63535 21.4092 8.44453" stroke="#373737" stroke-width="2" stroke-miterlimit="10" stroke-linecap="round" stroke-linejoin="round"/>
</g>
<g id="Vector_13">
<path d="M51.5813 34.2188C48.6976 27.7454 44.3531 21.9867 38.877 17.4427L51.5813 34.2188Z" fill="black" fill-opacity="0.01"/>
<path d="M51.5813 34.2188C48.6976 27.7454 44.3531 21.9867 38.877 17.4427" stroke="#373737" stroke-width="2" stroke-miterlimit="10" stroke-linecap="round" stroke-linejoin="round"/>
</g>
<g id="Vector_14">
<path d="M55.0827 46.2539C54.7746 44.1718 54.3244 42.1131 53.7354 40.0924L55.0827 46.2539Z" fill="black" fill-opacity="0.01"/>
<path d="M55.0827 46.2539C54.7746 44.1718 54.3244 42.1131 53.7354 40.0924" stroke="#373737" stroke-width="2" stroke-miterlimit="10" stroke-linecap="round" stroke-linejoin="round"/>
</g>
<g id="Vector_15">
<path d="M55.2139 58.7832C55.4855 56.6228 55.6051 54.4459 55.5718 52.2687L55.2139 58.7832Z" fill="black" fill-opacity="0.01"/>
<path d="M55.2139 58.7832C55.4855 56.6228 55.6051 54.4459 55.5718 52.2687" stroke="#373737" stroke-width="2" stroke-miterlimit="10" stroke-linecap="round" stroke-linejoin="round"/>
</g>
<g id="Vector_16">
<path d="M21.3098 28.4039C16.6401 28.3801 11.8999 28.8812 7.1626 29.9502L21.3098 28.4039Z" fill="black" fill-opacity="0.01"/>
<path d="M21.3098 28.4039C16.6401 28.3801 11.8999 28.8812 7.1626 29.9502" stroke="#373737" stroke-width="2" stroke-miterlimit="10" stroke-linecap="round" stroke-linejoin="round"/>
</g>
<g id="Vector_17">
<path d="M50.0588 35.583C43.1066 31.9384 35.4684 29.5857 27.5225 28.7473L50.0588 35.583Z" fill="black" fill-opacity="0.01"/>
<path d="M50.0588 35.583C43.1066 31.9384 35.4684 29.5857 27.5225 28.7473" stroke="#373737" stroke-width="2" stroke-miterlimit="10" stroke-linecap="round" stroke-linejoin="round"/>
</g>
<g id="Vector_18">
<path d="M66.358 47.8418C63.0704 44.4095 59.4061 41.3591 55.4346 38.7485L66.358 47.8418Z" fill="black" fill-opacity="0.01"/>
<path d="M66.358 47.8418C63.0704 44.4095 59.4061 41.3591 55.4346 38.7485" stroke="#373737" stroke-width="2" stroke-miterlimit="10" stroke-linecap="round" stroke-linejoin="round"/>
</g>
<g id="Vector_19">
<path d="M54.3359 34.3984C57.4421 29.3984 59.8325 23.9879 61.4375 18.3247L54.3359 34.3984Z" fill="black" fill-opacity="0.01"/>
<path d="M54.3359 34.3984C57.4421 29.3984 59.8325 23.9879 61.4375 18.3247" stroke="#373737" stroke-width="2" stroke-miterlimit="10" stroke-linecap="round" stroke-linejoin="round"/>
</g>
<g id="Vector_20">
<path d="M21.3101 60.7861C33.0293 56.7445 43.2847 49.3029 50.791 39.5216L21.3101 60.7861Z" fill="black" fill-opacity="0.01"/>
<path d="M21.3101 60.7861C33.0293 56.7445 43.2847 49.3029 50.791 39.5216" stroke="#373737" stroke-width="2" stroke-miterlimit="10" stroke-linecap="round" stroke-linejoin="round"/>
</g>
<path id="Vector_21" d="M36.5587 18.4834C34.8398 18.4834 33.4414 17.0782 33.4414 15.3508C33.4414 13.6235 34.8398 12.2183 36.5587 12.2183C38.2777 12.2183 39.6761 13.6235 39.6761 15.3508C39.6761 17.0782 38.2777 18.4834 36.5587 18.4834Z" fill="black" fill-opacity="0.01" stroke="#373737" stroke-width="2" stroke-miterlimit="10" stroke-linecap="round" stroke-linejoin="round"/>
<path id="Vector_22" d="M24.4269 32.2471C22.7079 32.2471 21.3096 30.8417 21.3096 29.1144C21.3096 27.3871 22.7079 25.9818 24.4269 25.9818C26.1459 25.9818 27.5442 27.3871 27.5442 29.1144C27.5442 30.8417 26.1459 32.2471 24.4269 32.2471Z" fill="black" fill-opacity="0.01" stroke="#373737" stroke-width="2" stroke-miterlimit="10" stroke-linecap="round" stroke-linejoin="round"/>
<path id="Vector_23" d="M52.7785 40.2432C51.0595 40.2432 49.6611 38.8378 49.6611 37.1105C49.6611 35.3832 51.0595 33.9779 52.7785 33.9779C54.4974 33.9779 55.8958 35.3832 55.8958 37.1105C55.8958 38.8378 54.4974 40.2432 52.7785 40.2432Z" fill="black" fill-opacity="0.01" stroke="#373737" stroke-width="2" stroke-miterlimit="10" stroke-linecap="round" stroke-linejoin="round"/>
<path id="Vector_24" d="M18.3512 64.8574C16.6322 64.8574 15.2339 63.4522 15.2339 61.7248C15.2339 59.9975 16.6322 58.5923 18.3512 58.5923C20.0702 58.5923 21.4687 59.9975 21.4687 61.7248C21.4687 63.4522 20.0702 64.8574 18.3512 64.8574Z" fill="black" fill-opacity="0.01" stroke="#373737" stroke-width="2" stroke-miterlimit="10" stroke-linecap="round" stroke-linejoin="round"/>
<path id="Vector_25" d="M54.9459 65.0361C53.227 65.0361 51.8286 63.6308 51.8286 61.9035C51.8286 60.1762 53.227 58.7709 54.9459 58.7709C56.6649 58.7709 58.0634 60.1762 58.0634 61.9035C58.0634 63.6308 56.6649 65.0361 54.9459 65.0361Z" fill="black" fill-opacity="0.01" stroke="#373737" stroke-width="2" stroke-miterlimit="10" stroke-linecap="round" stroke-linejoin="round"/>
<path id="Vector_26" d="M62.2141 18.3242C60.4952 18.3242 59.0967 16.9189 59.0967 15.1916C59.0967 13.4643 60.4952 12.0589 62.2141 12.0589C63.9331 12.0589 65.3315 13.4643 65.3315 15.1916C65.3315 16.9189 63.9331 18.3242 62.2141 18.3242Z" fill="black" fill-opacity="0.01" stroke="#373737" stroke-width="2" stroke-miterlimit="10" stroke-linecap="round" stroke-linejoin="round"/>
<path id="Vector_27" d="M54.3004 10.9678C52.5815 10.9678 51.1831 9.56258 51.1831 7.83514C51.1831 6.10783 52.5815 4.70264 54.3004 4.70264C56.0194 4.70264 57.4179 6.10783 57.4179 7.83514C57.4179 9.56258 56.0194 10.9678 54.3004 10.9678Z" fill="black" fill-opacity="0.01" stroke="#373737" stroke-width="2" stroke-miterlimit="10" stroke-linecap="round" stroke-linejoin="round"/>
<path id="Vector_28" d="M18.3512 10.9678C16.6322 10.9678 15.2339 9.56258 15.2339 7.83514C15.2339 6.10783 16.6322 4.70264 18.3512 4.70264C20.0702 4.70264 21.4687 6.10783 21.4687 7.83514C21.4687 9.56258 20.0702 10.9678 18.3512 10.9678Z" fill="black" fill-opacity="0.01" stroke="#373737" stroke-width="2" stroke-miterlimit="10" stroke-linecap="round" stroke-linejoin="round"/>
<path id="Vector_29" d="M4.14271 33.8613C2.42375 33.8613 1.02539 32.4561 1.02539 30.7287C1.02539 29.0014 2.42375 27.5962 4.14271 27.5962C5.86168 27.5962 7.26004 29.0014 7.26004 30.7287C7.26004 32.4561 5.86168 33.8613 4.14271 33.8613Z" fill="black" fill-opacity="0.01" stroke="#373737" stroke-width="2" stroke-miterlimit="10" stroke-linecap="round" stroke-linejoin="round"/>
</g>
</g>
</g>
</g>
</svg>
