<svg width="30" height="20" viewBox="0 0 30 20" fill="none" xmlns="http://www.w3.org/2000/svg">
<path d="M27.7532 0H2.24678C1.00588 0 0 1.02353 0 2.2862V6.66667H30V2.2862C30 1.02353 28.9941 0 27.7532 0Z" fill="#FAB446"/>
<path d="M0 17.7138C0 18.9764 1.00588 20 2.24678 20H27.7532C28.9941 20 30 18.9765 30 17.7138V13.3333H0V17.7138Z" fill="#73AF00"/>
<path d="M0 6.66655H30V13.3329H0V6.66655Z" fill="#F5F5F5"/>
<path d="M15 12.8289C13.467 12.8289 12.2198 11.5599 12.2198 10C12.2198 8.44006 13.467 7.17107 15 7.17107C16.533 7.17107 17.7802 8.44006 17.7802 10C17.7802 11.5599 16.533 12.8289 15 12.8289ZM15 7.69735C13.7521 7.69735 12.7371 8.73018 12.7371 10C12.7371 11.2698 13.7521 12.3027 15 12.3027C16.2479 12.3027 17.2629 11.2698 17.2629 10C17.2629 8.73018 16.2479 7.69735 15 7.69735Z" fill="#41479B"/>
<path d="M15 10.3207C15.1741 10.3207 15.3152 10.1771 15.3152 10C15.3152 9.82288 15.1741 9.67929 15 9.67929C14.8259 9.67929 14.6848 9.82288 14.6848 10C14.6848 10.1771 14.8259 10.3207 15 10.3207Z" fill="#41479B"/>
<path d="M15 10.0481L14.199 10.1304L12.4785 10.0481V9.95188L14.199 9.86961L15 9.95188V10.0481ZM15 10.0481L15.801 10.1304L17.5215 10.0481V9.95188L15.801 9.86961L15 9.95188V10.0481Z" fill="#41479B"/>
<path d="M14.9527 10L14.8719 9.18497L14.9527 7.43424H15.0473L15.1281 9.18497L15.0473 10H14.9527ZM14.9527 10L14.8719 10.815L14.9527 12.5658H15.0473L15.1281 10.815L15.0473 10H14.9527Z" fill="#41479B"/>
<path d="M14.9666 10.034L14.343 9.51593L13.1836 8.21975L13.2504 8.15172L14.5243 9.33152L15.0334 9.96601L14.9666 10.034Z" fill="#41479B"/>
<path d="M14.9666 10.034L15.4757 10.6685L16.7496 11.8483L16.8164 11.7802L15.657 10.4841L15.0334 9.96601L14.9666 10.034Z" fill="#41479B"/>
<path d="M14.9666 9.96601L15.4757 9.33152L16.7496 8.15172L16.8164 8.21975L15.657 9.51593L15.0334 10.034L14.9666 9.96601Z" fill="#41479B"/>
<path d="M14.9666 9.96601L14.343 10.4841L13.1836 11.7802L13.2504 11.8483L14.5243 10.6685L15.0334 10.034L14.9666 9.96601Z" fill="#41479B"/>
<path d="M15.0181 10.0445L14.309 10.4324L12.6885 11.0263L12.6523 10.9374L14.211 10.1914L14.9819 9.95552L15.0181 10.0445Z" fill="#41479B"/>
<path d="M15.0181 10.0445L15.789 9.80855L17.3477 9.06257L17.3115 8.97367L15.691 9.56762L14.9819 9.95552L15.0181 10.0445Z" fill="#41479B"/>
<path d="M14.9563 10.0184L14.5751 9.29688L13.9914 7.64798L14.0787 7.61113L14.8119 9.19713L15.0437 9.98158L14.9563 10.0184Z" fill="#41479B"/>
<path d="M14.9563 10.0184L15.1881 10.8029L15.9213 12.3889L16.0086 12.352L15.4249 10.7031L15.0437 9.98158L14.9563 10.0184Z" fill="#41479B"/>
<path d="M14.9819 10.0445L14.211 9.80855L12.6523 9.06257L12.6885 8.97367L14.309 9.56762L15.0181 9.95552L14.9819 10.0445ZM14.9819 10.0445L15.691 10.4324L17.3115 11.0263L17.3477 10.9374L15.789 10.1914L15.0181 9.95552L14.9819 10.0445Z" fill="#41479B"/>
<path d="M14.9563 9.98158L15.1881 9.19713L15.9213 7.61113L16.0086 7.64798L15.4249 9.29688L15.0437 10.0184L14.9563 9.98158ZM14.9563 9.98158L14.5751 10.7031L13.9914 12.352L14.0787 12.3889L14.8119 10.8029L15.0437 10.0184L14.9563 9.98158Z" fill="#41479B"/>
<path d="M15 10.4326C15.2348 10.4326 15.4252 10.2389 15.4252 10C15.4252 9.76107 15.2348 9.56738 15 9.56738C14.7652 9.56738 14.5748 9.76107 14.5748 10C14.5748 10.2389 14.7652 10.4326 15 10.4326Z" fill="#F5F5F5"/>
<path d="M15 10.2594C15.1408 10.2594 15.2549 10.1433 15.2549 10C15.2549 9.85673 15.1408 9.74059 15 9.74059C14.8592 9.74059 14.7451 9.85673 14.7451 10C14.7451 10.1433 14.8592 10.2594 15 10.2594Z" fill="#41479B"/>
</svg>
