<svg width="50" height="51" viewBox="0 0 50 51" fill="none" xmlns="http://www.w3.org/2000/svg">
<g clip-path="url(#clip0_291_208)">
<path d="M47.8542 13.0412C46.5271 12.3037 44.9062 12.3516 43.4792 13.2516L33.3333 20.8537V16.685C33.3333 15.1704 32.5104 13.7746 31.1875 13.0412C29.8604 12.3037 28.2375 12.3516 26.8125 13.2516L16.6667 20.8537V4.18498C17.8187 4.18498 18.75 3.25164 18.75 2.10164C18.75 0.951644 17.8187 0.0183105 16.6667 0.0183105H2.08333C0.93125 0.0183105 0 0.951644 0 2.10164C0 3.25164 0.93125 4.18498 2.08333 4.18498V39.6016C2.08333 45.3454 6.75625 50.0183 12.5 50.0183H39.5833C45.3271 50.0183 50 45.3454 50 39.6016V16.685C50 15.1704 49.1771 13.7746 47.8542 13.0412ZM45.8333 39.6016C45.8333 43.0475 43.0292 45.8516 39.5833 45.8516H12.5C9.05417 45.8516 6.25 43.0475 6.25 39.6016V4.18498H12.5V24.9996C12.5 25.0141 12.5 25.0287 12.5 25.0412V37.5183C12.5 38.6683 13.4312 39.6016 14.5833 39.6016C15.7354 39.6016 16.6667 38.6683 16.6667 37.5183V26.06L29.1667 16.685V25.0183C29.1667 25.8079 29.6125 26.5287 30.3188 26.8829C31.025 27.2371 31.8667 27.1621 32.5 26.6871L45.8333 16.6871V39.6016ZM29.1667 35.435V37.5183C29.1667 38.6683 28.2333 39.6016 27.0833 39.6016H25C23.85 39.6016 22.9167 38.6683 22.9167 37.5183V35.435C22.9167 34.285 23.85 33.3516 25 33.3516H27.0833C28.2333 33.3516 29.1667 34.285 29.1667 35.435ZM33.3333 37.5183V35.435C33.3333 34.285 34.2667 33.3516 35.4167 33.3516H37.5C38.65 33.3516 39.5833 34.285 39.5833 35.435V37.5183C39.5833 38.6683 38.65 39.6016 37.5 39.6016H35.4167C34.2667 39.6016 33.3333 38.6683 33.3333 37.5183Z" fill="#373737"/>
</g>
<defs>
<clipPath id="clip0_291_208">
<rect width="50" height="50" fill="white" transform="translate(0 0.0183105)"/>
</clipPath>
</defs>
</svg>
