<svg width="51" height="50" viewBox="0 0 51 50" fill="none" xmlns="http://www.w3.org/2000/svg">
<g clip-path="url(#clip0_563_303)">
<path d="M30.2583 26.6562L30.2 26.7146C29.6687 27.2437 28.8541 27.3229 28.2083 26.9417C26.6458 26.0208 24.6875 26.0208 23.127 26.9417C22.4812 27.3229 21.6645 27.2437 21.1354 26.7146L21.077 26.6562C20.3354 25.9146 20.4625 24.6562 21.3604 24.1146C24 22.5208 27.3395 22.5208 29.977 24.1146C30.875 24.6562 31 25.9146 30.2583 26.6562ZM25.6666 28.6458C24.2291 28.6458 23.0625 29.8125 23.0625 31.25C23.0625 32.6875 24.2291 33.8542 25.6666 33.8542C27.1041 33.8542 28.2708 32.6875 28.2708 31.25C28.2708 29.8125 27.1041 28.6458 25.6666 28.6458ZM25.6666 17.7083C22.6937 17.7083 19.8687 18.6604 17.5375 20.4187C16.725 21.0312 16.6333 22.2188 17.3541 22.9375C17.9395 23.5208 18.8666 23.5938 19.525 23.0958C21.2854 21.7646 23.4208 21.0437 25.6666 21.0437C27.9125 21.0437 30.0479 21.7646 31.8083 23.0958C32.4666 23.5938 33.3958 23.5208 33.9791 22.9375C34.7 22.2188 34.6083 21.0312 33.7958 20.4187C31.4645 18.6604 28.6375 17.7083 25.6645 17.7083H25.6666ZM48.5833 39.0625C48.5833 43.9458 44.6104 47.9167 39.7291 47.9167C36.0062 47.9167 32.7916 45.5479 31.502 42.2208C29.6729 42.8625 27.7145 43.2292 25.6666 43.2292C24.3583 43.2292 23.0875 43.0771 21.8583 42.8063C20.2979 47.0854 16.2562 50 11.6125 50C5.57704 50 0.666626 45.0917 0.666626 39.0542C0.666626 34.2625 3.71038 30.1146 8.25204 28.65C8.06871 27.6333 7.95829 26.5896 7.95829 25.5208C7.95829 22.6854 8.64371 20.0125 9.83538 17.6354C5.87288 17.2625 2.74996 13.9562 2.74996 9.89583C2.74996 5.5875 6.25413 2.08333 10.5625 2.08333C14.7083 2.08333 18.0791 5.33958 18.327 9.425C20.5666 8.4 23.0458 7.8125 25.6666 7.8125C28.4041 7.8125 30.9875 8.45417 33.3041 9.56875C33.277 9.2875 33.2187 9.0125 33.2187 8.725C33.2187 3.91458 37.1312 0 41.9437 0C46.7562 0 50.6687 3.9125 50.6687 8.725C50.6687 13.5375 46.7562 17.45 41.9437 17.45C41.752 17.45 41.5708 17.4062 41.3833 17.3937C42.65 19.8312 43.377 22.5917 43.377 25.5229C43.377 27.3333 43.102 29.0792 42.5958 30.725C46.0791 31.9312 48.5854 35.2292 48.5854 39.0646L48.5833 39.0625ZM37.3854 8.725C37.3854 11.2375 39.4291 13.2833 41.9437 13.2833C44.4583 13.2833 46.502 11.2396 46.502 8.725C46.502 6.21042 44.4583 4.16667 41.9437 4.16667C39.4291 4.16667 37.3854 6.21042 37.3854 8.725ZM10.5625 13.5417C12.5729 13.5417 14.2083 11.9062 14.2083 9.89583C14.2083 7.88542 12.5729 6.25 10.5625 6.25C8.55204 6.25 6.91663 7.88542 6.91663 9.89583C6.91663 11.9062 8.55204 13.5417 10.5625 13.5417ZM17.9416 41.4312C14.1791 39.5958 11.1562 36.4792 9.46246 32.6375C6.72913 33.5562 4.83329 36.1583 4.83329 39.0562C4.83329 42.7937 7.87288 45.8354 11.6125 45.8354C14.4708 45.8354 16.9625 44.0542 17.9416 41.4333V41.4312ZM25.6666 39.0625C33.1333 39.0625 39.2083 32.9875 39.2083 25.5208C39.2083 18.0542 33.1333 11.9792 25.6666 11.9792C18.2 11.9792 12.125 18.0542 12.125 25.5208C12.125 32.9875 18.2 39.0625 25.6666 39.0625ZM44.4166 39.0625C44.4166 36.9 42.9187 35.0458 40.8854 34.5271C39.4812 36.8917 37.5479 38.9042 35.2416 40.3937C35.8229 42.3354 37.6291 43.75 39.7291 43.75C42.3145 43.75 44.4166 41.6458 44.4166 39.0625Z" fill="#373737"/>
</g>
<defs>
<clipPath id="clip0_563_303">
<rect width="50" height="50" fill="white" transform="translate(0.666626)"/>
</clipPath>
</defs>
</svg>
