<svg width="141" height="140" viewBox="0 0 141 140" fill="none" xmlns="http://www.w3.org/2000/svg">
<g id="Group">
<g id="Clip path group">
<mask id="mask0_879_1617" style="mask-type:luminance" maskUnits="userSpaceOnUse" x="0" y="0" width="141" height="140">
<g id="a">
<path id="Vector" d="M138.5 138V2H2.5V138H138.5Z" fill="white" stroke="white" stroke-width="4"/>
</g>
</mask>
<g mask="url(#mask0_879_1617)">
<g id="Group_2">
<path id="Vector_2" d="M82.7188 50.1096C85.5207 45.0663 90.9019 41.6533 97.0805 41.6533C106.148 41.6533 113.498 49.0038 113.498 58.071C113.498 60.7075 112.877 63.1988 111.773 65.4062" stroke="#373737" stroke-width="4" stroke-miterlimit="10" stroke-linecap="round" stroke-linejoin="round"/>
<path id="Vector_3" d="M105.334 72.27C102.91 73.6828 100.09 74.4922 97.0807 74.4922C95.5264 74.4922 94.0225 74.2764 92.5977 73.8726" stroke="#373737" stroke-width="4" stroke-miterlimit="10" stroke-linecap="round" stroke-linejoin="round"/>
<path id="Vector_4" d="M82.4986 84.484C84.0119 85.3213 85.5949 86.0262 87.2297 86.5906C88.4158 87.0002 89.2238 88.1011 89.2238 89.3559V94.1716C89.2238 95.7808 90.5287 97.0859 92.1381 97.0859H102.022C103.632 97.0859 104.936 95.7808 104.936 94.1716V89.3559C104.936 88.1011 105.744 87.0002 106.931 86.5906C110.839 85.2389 114.428 83.0974 117.473 80.2993C117.92 79.8885 118.483 79.6274 119.085 79.5524C119.688 79.4775 120.298 79.5924 120.832 79.8812L125.074 82.18C126.489 82.9468 128.258 82.4212 129.025 81.0062L133.734 72.3163C134.5 70.9013 133.975 69.1321 132.56 68.3657L128.322 66.0688C127.225 65.4744 126.636 64.2496 126.839 63.0189C127.109 61.3846 127.244 59.731 127.244 58.0746C127.244 56.3908 127.105 54.7392 126.839 53.1306C126.636 51.8996 127.225 50.6746 128.322 50.0804L132.56 47.7835C133.975 47.0171 134.5 45.2479 133.734 43.8329L129.025 35.143C128.258 33.728 126.489 33.2025 125.074 33.9692L120.832 36.268C120.298 36.5568 119.688 36.6717 119.085 36.5968C118.483 36.5218 117.92 36.2607 117.473 35.8499C114.428 33.0518 110.839 30.9103 106.931 29.5586C105.744 29.149 104.936 28.0482 104.936 26.7934V21.9776C104.936 20.3684 103.632 19.0633 102.022 19.0633H92.1381C90.5287 19.0633 89.2238 20.3684 89.2238 21.9776V26.7934C89.2238 28.0482 88.4161 29.149 87.2297 29.5586C83.3212 30.9105 79.7326 33.0519 76.687 35.8499C76.2405 36.2607 75.6769 36.5218 75.0748 36.5968C74.4727 36.6717 73.8622 36.5568 73.3286 36.268L69.0865 33.9692C67.6715 33.2025 65.9026 33.728 65.1356 35.143L60.4268 43.8329C59.6601 45.2479 60.1853 47.0171 61.6006 47.7835L65.8386 50.0804" stroke="#373737" stroke-width="4" stroke-miterlimit="10" stroke-linecap="round" stroke-linejoin="round"/>
<path id="Vector_5" d="M32.8219 50.1093H97.7877C98.3889 50.1093 98.9656 50.3481 99.3907 50.7733C99.8159 51.1984 100.055 51.7751 100.055 52.3763V66.0312H6.91016V52.3763C6.91012 52.0786 6.96873 51.7838 7.08263 51.5088C7.19653 51.2337 7.36349 50.9838 7.57399 50.7733C7.78448 50.5628 8.03439 50.3958 8.30942 50.2818C8.58446 50.1679 8.87925 50.1093 9.17695 50.1093H23.525" stroke="#373737" stroke-width="4" stroke-miterlimit="10" stroke-linecap="round" stroke-linejoin="round"/>
<path id="Vector_6" d="M62.001 116.937V107.699C62.001 106.621 62.4155 105.584 63.159 104.803L100.055 66.0346H6.91016L43.8059 104.803C44.5495 105.584 44.9643 106.621 44.9642 107.699V128.477C44.9642 128.729 45.0312 128.977 45.1585 129.196C45.2857 129.414 45.4687 129.594 45.6885 129.719L59.8712 137.743C60.8225 138.281 62.001 137.593 62.001 136.501V126.507" stroke="#373737" stroke-width="4" stroke-miterlimit="10" stroke-linecap="round" stroke-linejoin="round"/>
<path id="Vector_7" d="M6.91016 9.65293V18.7188" stroke="#373737" stroke-width="4" stroke-miterlimit="10" stroke-linecap="round" stroke-linejoin="round"/>
<path id="Vector_8" d="M41.2422 31.1995V40.2656" stroke="#373737" stroke-width="4" stroke-miterlimit="10" stroke-linecap="round" stroke-linejoin="round"/>
<path id="Vector_9" d="M32.5078 2.06699V11.1328" stroke="#373737" stroke-width="4" stroke-miterlimit="10" stroke-linecap="round" stroke-linejoin="round"/>
<path id="Vector_10" d="M74.2344 6.59824V15.6641" stroke="#373737" stroke-width="4" stroke-miterlimit="10" stroke-linecap="round" stroke-linejoin="round"/>
<path id="Vector_11" d="M28.0205 25.6441C28.0205 28.3648 25.8149 30.5703 23.0942 30.5703C20.3735 30.5703 18.168 28.3648 18.168 25.6441C18.168 22.9234 20.3735 20.7178 23.0942 20.7178C25.8149 20.7178 28.0205 22.9234 28.0205 25.6441Z" stroke="#373737" stroke-width="4" stroke-miterlimit="10" stroke-linecap="round" stroke-linejoin="round"/>
<path id="Vector_12" d="M59.5908 20.2925C59.5908 23.0129 57.3852 25.2188 54.6645 25.2188C51.9438 25.2188 49.7383 23.0129 49.7383 20.2925C49.7383 17.5718 51.9438 15.366 54.6645 15.366C57.3852 15.366 59.5908 17.5718 59.5908 20.2925Z" stroke="#373737" stroke-width="4" stroke-miterlimit="10" stroke-linecap="round" stroke-linejoin="round"/>
</g>
</g>
</g>
</g>
</svg>
