<svg width="283" height="30" viewBox="0 0 283 30" fill="none" xmlns="http://www.w3.org/2000/svg">
<path d="M4.848 24.1426H2.52V6.94658H4.848V24.1426ZM9.11138 24.1426V11.9866H10.3834C10.6874 11.9866 10.8794 12.1346 10.9594 12.4306L11.1274 13.7506C11.6554 13.1666 12.2434 12.6946 12.8914 12.3346C13.5474 11.9746 14.3034 11.7946 15.1594 11.7946C15.8234 11.7946 16.4074 11.9066 16.9114 12.1306C17.4234 12.3466 17.8474 12.6586 18.1834 13.0666C18.5274 13.4666 18.7874 13.9506 18.9634 14.5186C19.1394 15.0866 19.2274 15.7146 19.2274 16.4026V24.1426H17.0914V16.4026C17.0914 15.4826 16.8794 14.7706 16.4554 14.2666C16.0394 13.7546 15.3994 13.4986 14.5354 13.4986C13.9034 13.4986 13.3114 13.6506 12.7594 13.9546C12.2154 14.2586 11.7114 14.6706 11.2474 15.1906V24.1426H9.11138ZM24.8233 11.9866V24.1426H22.6873V11.9866H24.8233ZM25.3033 8.17058C25.3033 8.37858 25.2593 8.57458 25.1713 8.75858C25.0913 8.93458 24.9793 9.09458 24.8353 9.23858C24.6993 9.37458 24.5393 9.48258 24.3553 9.56258C24.1713 9.64258 23.9753 9.68258 23.7673 9.68258C23.5593 9.68258 23.3633 9.64258 23.1793 9.56258C23.0033 9.48258 22.8433 9.37458 22.6993 9.23858C22.5633 9.09458 22.4553 8.93458 22.3753 8.75858C22.2953 8.57458 22.2553 8.37858 22.2553 8.17058C22.2553 7.96258 22.2953 7.76658 22.3753 7.58258C22.4553 7.39058 22.5633 7.22658 22.6993 7.09058C22.8433 6.94658 23.0033 6.83458 23.1793 6.75458C23.3633 6.67458 23.5593 6.63458 23.7673 6.63458C23.9753 6.63458 24.1713 6.67458 24.3553 6.75458C24.5393 6.83458 24.6993 6.94658 24.8353 7.09058C24.9793 7.22658 25.0913 7.39058 25.1713 7.58258C25.2593 7.76658 25.3033 7.96258 25.3033 8.17058ZM32.2719 24.3346C31.3119 24.3346 30.5719 24.0666 30.0519 23.5306C29.5399 22.9946 29.2839 22.2226 29.2839 21.2146V13.7746H27.8199C27.6919 13.7746 27.5839 13.7386 27.4959 13.6666C27.4079 13.5866 27.3639 13.4666 27.3639 13.3066V12.4546L29.3559 12.2026L29.8479 8.44658C29.8639 8.32658 29.9159 8.23058 30.0039 8.15858C30.0919 8.07858 30.2039 8.03858 30.3399 8.03858H31.4199V12.2266H34.8999V13.7746H31.4199V21.0706C31.4199 21.5826 31.5439 21.9626 31.7919 22.2106C32.0399 22.4586 32.3599 22.5826 32.7519 22.5826C32.9759 22.5826 33.1679 22.5546 33.3279 22.4986C33.4959 22.4346 33.6399 22.3666 33.7599 22.2946C33.8799 22.2226 33.9799 22.1586 34.0599 22.1026C34.1479 22.0386 34.2239 22.0066 34.2879 22.0066C34.3999 22.0066 34.4999 22.0746 34.5879 22.2106L35.2119 23.2306C34.8439 23.5746 34.3999 23.8466 33.8799 24.0466C33.3599 24.2386 32.8239 24.3346 32.2719 24.3346ZM39.9171 11.9866V24.1426H37.7811V11.9866H39.9171ZM40.3971 8.17058C40.3971 8.37858 40.3531 8.57458 40.2651 8.75858C40.1851 8.93458 40.0731 9.09458 39.9291 9.23858C39.7931 9.37458 39.6331 9.48258 39.4491 9.56258C39.2651 9.64258 39.0691 9.68258 38.8611 9.68258C38.6531 9.68258 38.4571 9.64258 38.2731 9.56258C38.0971 9.48258 37.9371 9.37458 37.7931 9.23858C37.6571 9.09458 37.5491 8.93458 37.4691 8.75858C37.3891 8.57458 37.3491 8.37858 37.3491 8.17058C37.3491 7.96258 37.3891 7.76658 37.4691 7.58258C37.5491 7.39058 37.6571 7.22658 37.7931 7.09058C37.9371 6.94658 38.0971 6.83458 38.2731 6.75458C38.4571 6.67458 38.6531 6.63458 38.8611 6.63458C39.0691 6.63458 39.2651 6.67458 39.4491 6.75458C39.6331 6.83458 39.7931 6.94658 39.9291 7.09058C40.0731 7.22658 40.1851 7.39058 40.2651 7.58258C40.3531 7.76658 40.3971 7.96258 40.3971 8.17058ZM52.6097 24.1426H51.6617C51.4537 24.1426 51.2857 24.1106 51.1577 24.0466C51.0297 23.9826 50.9457 23.8466 50.9057 23.6386L50.6657 22.5106C50.3457 22.7986 50.0337 23.0586 49.7297 23.2906C49.4257 23.5146 49.1057 23.7066 48.7697 23.8666C48.4337 24.0186 48.0737 24.1346 47.6897 24.2146C47.3137 24.2946 46.8937 24.3346 46.4297 24.3346C45.9577 24.3346 45.5137 24.2706 45.0977 24.1426C44.6897 24.0066 44.3337 23.8066 44.0297 23.5426C43.7257 23.2786 43.4817 22.9466 43.2977 22.5466C43.1217 22.1386 43.0337 21.6586 43.0337 21.1066C43.0337 20.6266 43.1657 20.1666 43.4297 19.7266C43.6937 19.2786 44.1177 18.8826 44.7017 18.5386C45.2937 18.1946 46.0657 17.9146 47.0177 17.6986C47.9697 17.4746 49.1337 17.3466 50.5097 17.3146V16.3666C50.5097 15.4226 50.3057 14.7106 49.8977 14.2306C49.4977 13.7426 48.9017 13.4986 48.1097 13.4986C47.5897 13.4986 47.1497 13.5666 46.7897 13.7026C46.4377 13.8306 46.1297 13.9786 45.8657 14.1466C45.6097 14.3066 45.3857 14.4546 45.1937 14.5906C45.0097 14.7186 44.8257 14.7826 44.6417 14.7826C44.4977 14.7826 44.3697 14.7466 44.2577 14.6746C44.1537 14.5946 44.0697 14.4986 44.0057 14.3866L43.6217 13.7026C44.2937 13.0546 45.0177 12.5706 45.7937 12.2506C46.5697 11.9306 47.4297 11.7706 48.3737 11.7706C49.0537 11.7706 49.6577 11.8826 50.1857 12.1066C50.7137 12.3306 51.1577 12.6426 51.5177 13.0426C51.8777 13.4426 52.1497 13.9266 52.3337 14.4946C52.5177 15.0626 52.6097 15.6866 52.6097 16.3666V24.1426ZM47.0657 22.8346C47.4417 22.8346 47.7857 22.7986 48.0977 22.7266C48.4097 22.6466 48.7017 22.5386 48.9737 22.4026C49.2537 22.2586 49.5177 22.0866 49.7657 21.8866C50.0217 21.6866 50.2697 21.4586 50.5097 21.2026V18.6706C49.5257 18.7026 48.6897 18.7826 48.0017 18.9106C47.3137 19.0306 46.7537 19.1906 46.3217 19.3906C45.8897 19.5906 45.5737 19.8266 45.3737 20.0986C45.1817 20.3706 45.0857 20.6746 45.0857 21.0106C45.0857 21.3306 45.1377 21.6066 45.2417 21.8386C45.3457 22.0706 45.4857 22.2626 45.6617 22.4146C45.8377 22.5586 46.0457 22.6666 46.2857 22.7386C46.5257 22.8026 46.7857 22.8346 47.0657 22.8346ZM59.5298 24.3346C58.5698 24.3346 57.8298 24.0666 57.3098 23.5306C56.7978 22.9946 56.5418 22.2226 56.5418 21.2146V13.7746H55.0778C54.9498 13.7746 54.8418 13.7386 54.7538 13.6666C54.6658 13.5866 54.6218 13.4666 54.6218 13.3066V12.4546L56.6138 12.2026L57.1058 8.44658C57.1218 8.32658 57.1738 8.23058 57.2617 8.15858C57.3498 8.07858 57.4618 8.03858 57.5978 8.03858H58.6778V12.2266H62.1578V13.7746H58.6778V21.0706C58.6778 21.5826 58.8018 21.9626 59.0498 22.2106C59.2978 22.4586 59.6178 22.5826 60.0098 22.5826C60.2338 22.5826 60.4258 22.5546 60.5858 22.4986C60.7538 22.4346 60.8978 22.3666 61.0178 22.2946C61.1378 22.2226 61.2378 22.1586 61.3178 22.1026C61.4058 22.0386 61.4818 22.0066 61.5458 22.0066C61.6578 22.0066 61.7578 22.0746 61.8458 22.2106L62.4698 23.2306C62.1018 23.5746 61.6578 23.8466 61.1378 24.0466C60.6178 24.2386 60.0818 24.3346 59.5298 24.3346ZM67.1749 11.9866V24.1426H65.0389V11.9866H67.1749ZM67.6549 8.17058C67.6549 8.37858 67.6109 8.57458 67.5229 8.75858C67.4429 8.93458 67.3309 9.09458 67.1869 9.23858C67.0509 9.37458 66.8909 9.48258 66.7069 9.56258C66.5229 9.64258 66.3269 9.68258 66.1189 9.68258C65.9109 9.68258 65.7149 9.64258 65.5309 9.56258C65.3549 9.48258 65.1949 9.37458 65.0509 9.23858C64.9149 9.09458 64.8069 8.93458 64.7269 8.75858C64.6469 8.57458 64.6069 8.37858 64.6069 8.17058C64.6069 7.96258 64.6469 7.76658 64.7269 7.58258C64.8069 7.39058 64.9149 7.22658 65.0509 7.09058C65.1949 6.94658 65.3549 6.83458 65.5309 6.75458C65.7149 6.67458 65.9109 6.63458 66.1189 6.63458C66.3269 6.63458 66.5229 6.67458 66.7069 6.75458C66.8909 6.83458 67.0509 6.94658 67.1869 7.09058C67.3309 7.22658 67.4429 7.39058 67.5229 7.58258C67.6109 7.76658 67.6549 7.96258 67.6549 8.17058ZM75.8595 11.7946C76.7475 11.7946 77.5475 11.9426 78.2595 12.2386C78.9795 12.5346 79.5875 12.9546 80.0835 13.4986C80.5875 14.0426 80.9715 14.7026 81.2355 15.4786C81.5075 16.2466 81.6435 17.1066 81.6435 18.0586C81.6435 19.0186 81.5075 19.8826 81.2355 20.6506C80.9715 21.4186 80.5875 22.0746 80.0835 22.6186C79.5875 23.1626 78.9795 23.5826 78.2595 23.8786C77.5475 24.1666 76.7475 24.3106 75.8595 24.3106C74.9715 24.3106 74.1675 24.1666 73.4475 23.8786C72.7355 23.5826 72.1275 23.1626 71.6235 22.6186C71.1195 22.0746 70.7315 21.4186 70.4595 20.6506C70.1875 19.8826 70.0515 19.0186 70.0515 18.0586C70.0515 17.1066 70.1875 16.2466 70.4595 15.4786C70.7315 14.7026 71.1195 14.0426 71.6235 13.4986C72.1275 12.9546 72.7355 12.5346 73.4475 12.2386C74.1675 11.9426 74.9715 11.7946 75.8595 11.7946ZM75.8595 22.6426C77.0595 22.6426 77.9555 22.2426 78.5475 21.4426C79.1395 20.6346 79.4355 19.5106 79.4355 18.0706C79.4355 16.6226 79.1395 15.4946 78.5475 14.6866C77.9555 13.8786 77.0595 13.4746 75.8595 13.4746C75.2515 13.4746 74.7235 13.5786 74.2755 13.7866C73.8275 13.9946 73.4515 14.2946 73.1475 14.6866C72.8515 15.0786 72.6275 15.5626 72.4755 16.1386C72.3315 16.7066 72.2595 17.3506 72.2595 18.0706C72.2595 18.7906 72.3315 19.4346 72.4755 20.0026C72.6275 20.5706 72.8515 21.0506 73.1475 21.4426C73.4515 21.8266 73.8275 22.1226 74.2755 22.3306C74.7235 22.5386 75.2515 22.6426 75.8595 22.6426ZM84.2754 24.1426V11.9866H85.5474C85.8514 11.9866 86.0434 12.1346 86.1234 12.4306L86.2914 13.7506C86.8194 13.1666 87.4074 12.6946 88.0554 12.3346C88.7114 11.9746 89.4674 11.7946 90.3234 11.7946C90.9874 11.7946 91.5714 11.9066 92.0754 12.1306C92.5874 12.3466 93.0114 12.6586 93.3474 13.0666C93.6914 13.4666 93.9514 13.9506 94.1274 14.5186C94.3034 15.0866 94.3914 15.7146 94.3914 16.4026V24.1426H92.2554V16.4026C92.2554 15.4826 92.0434 14.7706 91.6194 14.2666C91.2034 13.7546 90.5634 13.4986 89.6994 13.4986C89.0674 13.4986 88.4754 13.6506 87.9234 13.9546C87.3794 14.2586 86.8754 14.6706 86.4114 15.1906V24.1426H84.2754Z" fill="white"/>
<path d="M110.226 14.6426L116 20.4161L121.774 14.6426L116 8.86908L110.226 14.6426ZM282.773 14.6426L277 8.86908L271.227 14.6426L277 20.4161L282.773 14.6426ZM116 15.6426H118.013V13.6426H116V15.6426ZM122.038 15.6426H126.062V13.6426H122.038V15.6426ZM130.087 15.6426H134.112V13.6426H130.087V15.6426ZM138.137 15.6426H142.162V13.6426H138.137V15.6426ZM146.187 15.6426H150.212V13.6426H146.187V15.6426ZM154.237 15.6426H158.263V13.6426H154.237V15.6426ZM162.288 15.6426H166.313V13.6426H162.288V15.6426ZM170.338 15.6426H174.363V13.6426H170.338V15.6426ZM178.388 15.6426H182.413V13.6426H178.388V15.6426ZM186.438 15.6426H190.463V13.6426H186.438V15.6426ZM194.488 15.6426H198.513V13.6426H194.488V15.6426ZM202.538 15.6426H206.563V13.6426H202.538V15.6426ZM210.588 15.6426H214.613V13.6426H210.588V15.6426ZM218.638 15.6426H222.663V13.6426H218.638V15.6426ZM226.688 15.6426H230.713V13.6426H226.688V15.6426ZM234.738 15.6426H238.763V13.6426H234.738V15.6426ZM242.788 15.6426H246.813V13.6426H242.788V15.6426ZM250.838 15.6426H254.863V13.6426H250.838V15.6426ZM258.888 15.6426H262.913V13.6426H258.888V15.6426ZM266.938 15.6426H270.962V13.6426H266.938V15.6426ZM274.987 15.6426H277V13.6426H274.987V15.6426Z" fill="white"/>
</svg>
