<svg width="62" height="70" viewBox="0 0 62 70" fill="none" xmlns="http://www.w3.org/2000/svg">
<g id="Group">
<path id="Vector" d="M60.0373 17.6037H58.0698C58.0684 17.6004 58.0671 17.5971 58.0658 17.5938L57.6883 16.6724C57.6859 16.6664 57.6834 16.6605 57.6808 16.6545L57.6812 16.6516L59.0792 15.243C59.7398 14.5773 59.7398 13.494 59.0792 12.8282L56.4534 10.1824C56.1314 9.85781 55.7018 9.67898 55.2439 9.67898C54.7861 9.67898 54.3566 9.85781 54.0347 10.1822L52.6425 11.5848L52.6323 11.5806L51.7248 11.203L51.7114 11.1975L51.7106 11.1963V9.2002C51.7106 8.25793 50.944 7.49121 50.0016 7.49121H46.2935C45.3511 7.49121 44.5845 8.25793 44.5845 9.2002V11.1963L44.5837 11.1975L44.5703 11.203L43.6629 11.5806C43.6596 11.5821 43.6562 11.5835 43.6528 11.5848L42.2609 10.1821C42.1028 10.0221 41.9145 9.89519 41.7069 9.8088C41.4992 9.72242 41.2765 9.67828 41.0516 9.67898C40.6078 9.67795 40.1815 9.85138 39.8645 10.1619C37.325 9.19732 34.5756 8.66768 31.7054 8.66768C18.9159 8.66768 8.51074 19.1489 8.51074 32.0322C8.51074 36.8055 9.93029 41.396 12.6161 45.3076C15.1071 48.9355 18.5184 51.7529 22.5127 53.4894V57.2962C21.5984 57.6329 20.9434 58.5101 20.9434 59.5398V61.7643C20.9434 63.0835 22.0168 64.1569 23.336 64.1569H24.8314V67.7581C24.8314 68.9943 25.8351 69.9998 27.0687 69.9998H36.3422C37.5758 69.9998 38.5794 68.9943 38.5794 67.7581V64.1569H40.0749C41.3941 64.1569 42.4674 63.0835 42.4674 61.7643V59.5398C42.4674 58.5101 41.8123 57.6328 40.898 57.2962V53.4896C46.0923 51.2323 50.2633 47.1745 52.6903 41.9977C52.8057 41.7514 52.8186 41.4694 52.7261 41.2137C52.6336 40.9579 52.4434 40.7494 52.1972 40.6339C52.0753 40.5767 51.9433 40.5441 51.8088 40.538C51.6742 40.5318 51.5398 40.5522 51.4132 40.598C51.2866 40.6438 51.1702 40.7141 51.0707 40.8049C50.9713 40.8956 50.8907 41.0051 50.8335 41.127C48.7484 45.5744 45.2535 49.1159 40.898 51.2322V45.6709H41.1283C42.0707 45.6709 42.8373 44.9043 42.8373 43.9619V41.2899C42.8373 40.3475 42.0707 39.5809 41.1283 39.5809H38.5204C37.578 39.5809 36.8114 40.3475 36.8114 41.2899V43.9619C36.8114 44.9043 37.578 45.6709 38.5204 45.6709H38.8474V57.1469H37.3542V49.2804C37.3542 48.6289 37.0337 47.8514 36.5751 47.3893L28.8404 39.5952L29.1696 39.2634C29.8303 38.5977 29.8303 37.5144 29.1696 36.8486L27.3217 34.9866C26.9998 34.662 26.5702 34.4832 26.1123 34.4832C25.6545 34.4832 25.225 34.662 24.903 34.9864L23.0315 36.8723C22.3709 37.538 22.3709 38.6214 23.0315 39.2872L24.8794 41.1492C25.2014 41.4737 25.6309 41.6526 26.0888 41.6526C26.5467 41.6526 26.9761 41.4738 27.2981 41.1493L27.3957 41.0509L35.1194 48.8337C35.195 48.9125 35.3016 49.1716 35.3035 49.2804V57.1469H33.1836V48.535C33.1836 48.2631 33.0755 48.0022 32.8832 47.8099C32.6909 47.6176 32.4301 47.5096 32.1582 47.5096C31.8862 47.5096 31.6254 47.6176 31.4331 47.8099C31.2408 48.0022 31.1328 48.2631 31.1328 48.535V57.147H28.0308V49.8117H28.3094C29.2518 49.8117 30.0184 49.0451 30.0184 48.1027V45.4307C30.0184 44.4883 29.2518 43.7217 28.3094 43.7217H25.7015C24.7591 43.7217 23.9925 44.4883 23.9925 45.4307V48.1027C23.9925 49.0451 24.7591 49.8117 25.7015 49.8117H25.98V57.147H24.5636V52.8061C24.5636 52.6011 24.5021 52.4008 24.3871 52.2311C24.2722 52.0613 24.109 51.9299 23.9187 51.8538C20.0244 50.298 16.7007 47.6328 14.3069 44.1466C11.8568 40.5782 10.5617 36.3892 10.5617 32.0322C10.5617 20.2797 20.0467 10.7185 31.7055 10.7185C33.9948 10.7185 36.1996 11.0891 38.2658 11.7708L37.2166 12.828C36.556 13.4937 36.556 14.5771 37.2166 15.2428L38.6143 16.6515L38.6147 16.6544L38.6072 16.6721L38.2297 17.5934L38.2256 17.6035H36.2581C35.3157 17.6035 34.5491 18.3701 34.5491 19.3125V23.0596C34.5491 24.0021 35.3157 24.7686 36.2581 24.7686H38.2256L38.2297 24.7788L38.607 25.6997L38.6146 25.7176C38.6146 25.7186 38.6143 25.7194 38.6142 25.7203L37.2165 27.1292C36.556 27.7948 36.5559 28.8781 37.2165 29.5441L39.8423 32.1905C40.0003 32.3505 40.1887 32.4774 40.3963 32.5638C40.6039 32.6501 40.8267 32.6942 41.0516 32.6935C41.5093 32.6935 41.9388 32.5148 42.261 32.1903L43.6528 30.7875L43.6629 30.7918L44.5703 31.1694L44.5837 31.1749L44.5845 31.1761V33.1722C44.5845 34.1146 45.3511 34.8812 46.2935 34.8812H50.0017C50.9441 34.8812 51.7107 34.1146 51.7107 33.1722V31.1761L51.7115 31.1749L51.7251 31.1693L52.6326 30.7915L52.6427 30.7873L52.822 30.9679C52.8395 31.3203 52.8493 31.675 52.8493 32.0318C52.8493 32.98 52.787 33.9333 52.6642 34.8656C52.6287 35.1352 52.7017 35.4079 52.8673 35.6236C53.0328 35.8394 53.2772 35.9805 53.5469 36.0161C54.1085 36.0907 54.6234 35.6949 54.6973 35.1334C54.8046 34.3116 54.8689 33.4846 54.8898 32.6561C55.0051 32.6803 55.1235 32.6934 55.2442 32.6934C55.702 32.6934 56.1314 32.5147 56.4536 32.1901L59.0796 29.5438C59.7401 28.8781 59.7401 27.7948 59.0795 27.1289L57.6816 25.7206L57.6812 25.7176L57.6886 25.7L58.0661 24.7788L58.0702 24.7686H60.0377C60.9801 24.7686 61.7467 24.0021 61.7467 23.0596V19.3127C61.7463 18.3703 60.9797 17.6037 60.0373 17.6037ZM26.0885 39.4566L24.7223 38.0798L26.1122 36.6794L27.4784 38.0562L26.0885 39.4566ZM36.342 67.9491H27.0685C26.9675 67.9491 26.8821 67.8616 26.8821 67.7581V66.9587H36.5285V67.7581C36.5285 67.8617 36.4431 67.9491 36.342 67.9491ZM36.5285 64.9079H26.8821V64.1569H36.5285V64.9079ZM38.8619 41.6318H40.7862V43.6202H38.8619V41.6318ZM26.043 45.7725H27.9673V47.7609H26.043V45.7725ZM22.994 59.5396C22.994 59.3544 23.1506 59.1978 23.3358 59.1978H40.0747C40.26 59.1978 40.4165 59.3544 40.4165 59.5396V61.7642C40.4165 61.9494 40.26 62.106 40.0747 62.106H23.3358C23.1506 62.106 22.994 61.9494 22.994 61.7642V59.5396ZM59.6955 22.7181H58.0219C57.2134 22.7181 56.436 23.2651 56.159 24.0237L55.8005 24.8987C55.4649 25.629 55.6273 26.5625 56.1941 27.1337L57.3882 28.3369L55.2439 30.498L54.0605 29.3051C53.6998 28.942 53.18 28.7336 52.634 28.7336C52.347 28.7336 52.0667 28.7939 51.8206 28.9085L50.9595 29.2668C50.2042 29.547 49.6598 30.3245 49.6598 31.1308V32.8307H46.6353V31.1308C46.6353 30.3245 46.0909 29.547 45.3357 29.2668L44.4742 28.9085C44.2282 28.794 43.9481 28.7337 43.6613 28.7337C43.1152 28.7337 42.5953 28.9421 42.2345 29.3056L41.0516 30.498L38.9073 28.3369L40.1015 27.1332C40.6684 26.5621 40.8306 25.6286 40.4949 24.8982L40.1364 24.0235C39.8593 23.2649 39.082 22.718 38.2735 22.718H36.5997V19.6545H38.2735C39.082 19.6545 39.8594 19.1077 40.1364 18.3489L40.4949 17.4739C40.8305 16.7437 40.6681 15.81 40.1014 15.2389L38.9073 14.0354L41.0514 11.8748L42.2346 13.0671C42.5953 13.4303 43.1152 13.6388 43.6613 13.6388C43.9481 13.6388 44.2282 13.5785 44.4742 13.464L45.3357 13.1057C46.0909 12.8256 46.6353 12.048 46.6353 11.2417V9.54199H49.6599V11.2418C49.6599 12.048 50.2044 12.8258 50.9597 13.1058L51.8208 13.464C52.0669 13.5786 52.3471 13.6389 52.6341 13.6389C53.1803 13.6389 53.7003 13.4305 54.0606 13.0671L55.2439 11.875L57.3882 14.0355L56.194 15.2389C55.6273 15.81 55.4649 16.7435 55.8005 17.4737L56.159 18.349C56.4361 19.1075 57.2134 19.6545 58.0219 19.6545H59.6955V22.7181Z" fill="#373737"/>
<path id="Vector_2" d="M54.8715 18.9584C54.8305 18.8295 54.7643 18.7099 54.6768 18.6067C54.5893 18.5035 54.4822 18.4186 54.3618 18.3569C54.2413 18.2953 54.1098 18.2581 53.9749 18.2474C53.84 18.2368 53.7043 18.253 53.5757 18.2951C53.4471 18.3372 53.3281 18.4043 53.2255 18.4926C53.123 18.5809 53.0389 18.6886 52.9782 18.8096C52.9175 18.9305 52.8813 19.0623 52.8717 19.1973C52.8622 19.3322 52.8794 19.4678 52.9225 19.5961C53.09 20.1096 53.175 20.6465 53.1743 21.1867C53.1743 23.9835 50.9196 26.2589 48.1481 26.2589C45.3767 26.2589 43.1221 23.9835 43.1221 21.1867C43.1221 18.3898 45.3767 16.1143 48.1481 16.1143C48.7182 16.1143 49.2772 16.2096 49.8094 16.3975C50.0658 16.4881 50.3477 16.4731 50.5931 16.3558C50.8384 16.2385 51.0272 16.0286 51.1177 15.7721C51.2083 15.5157 51.1933 15.2338 51.076 14.9884C50.9587 14.7431 50.7487 14.5544 50.4923 14.4638C49.7393 14.1981 48.9466 14.0627 48.1481 14.0635C44.2459 14.0635 41.0713 17.2589 41.0713 21.1867C41.0713 25.1143 44.2459 28.3097 48.1481 28.3097C52.0504 28.3097 55.2251 25.1143 55.2251 21.1867C55.2251 20.4251 55.1062 19.6754 54.8715 18.9584Z" fill="#373737"/>
<path id="Vector_3" d="M48.1479 17.5834C46.1719 17.5834 44.5645 19.1997 44.5645 21.1865C44.5645 23.1731 46.1721 24.7896 48.1479 24.7896C50.1239 24.7896 51.7313 23.1733 51.7313 21.1865C51.7315 19.1998 50.1239 17.5834 48.1479 17.5834ZM48.1479 22.7387C47.3027 22.7387 46.6153 22.0423 46.6153 21.1863C46.6153 20.3304 47.3029 19.634 48.1479 19.634C48.9931 19.634 49.6806 20.3304 49.6806 21.1863C49.6807 22.0425 48.9931 22.7387 48.1479 22.7387ZM33.4619 27.6134H30.854C29.9116 27.6134 29.145 28.3799 29.145 29.3223V31.9944C29.145 32.9368 29.9116 33.7034 30.854 33.7034H31.1326V40.0585C31.1326 40.3304 31.2406 40.5912 31.4329 40.7835C31.6252 40.9758 31.886 41.0838 32.158 41.0838C32.4299 41.0838 32.6908 40.9758 32.8831 40.7835C33.0754 40.5912 33.1834 40.3304 33.1834 40.0585V33.7034H33.4619C34.4043 33.7034 35.1709 32.9368 35.1709 31.9944V29.3223C35.1709 28.3799 34.4043 27.6134 33.4619 27.6134ZM33.1201 31.6526H31.1958V29.6641H33.1201V31.6526ZM32.1579 0C31.8859 0 31.6251 0.108032 31.4328 0.30033C31.2405 0.492628 31.1325 0.75344 31.1325 1.02539V3.88254C31.1325 4.15449 31.2405 4.4153 31.4328 4.6076C31.6251 4.7999 31.8859 4.90793 32.1579 4.90793C32.4298 4.90793 32.6906 4.7999 32.8829 4.6076C33.0752 4.4153 33.1833 4.15449 33.1833 3.88254V1.02539C33.1833 0.75344 33.0752 0.492628 32.8829 0.30033C32.6906 0.108032 32.4298 0 32.1579 0ZM24.9018 4.88305L24.0845 2.14594C24.046 2.0169 23.9824 1.89671 23.8974 1.79223C23.8124 1.68776 23.7077 1.60104 23.5892 1.53704C23.4707 1.47304 23.3408 1.43301 23.2069 1.41923C23.0729 1.40545 22.9375 1.4182 22.8085 1.45674C22.6795 1.49526 22.5593 1.55882 22.4548 1.64379C22.3504 1.72875 22.2637 1.83347 22.1997 1.95194C22.1357 2.07042 22.0957 2.20034 22.0819 2.33429C22.0681 2.46823 22.0809 2.60358 22.1194 2.7326L22.9366 5.46971C23.0145 5.73026 23.1926 5.94922 23.4319 6.07845C23.6712 6.20769 23.952 6.23663 24.2126 6.15891C24.4732 6.08111 24.6922 5.90298 24.8214 5.66371C24.9507 5.42444 24.9796 5.14363 24.9018 4.88305ZM17.2543 8.22732L15.6886 5.84103C15.5394 5.61367 15.306 5.45488 15.0397 5.3996C14.7735 5.34432 14.4961 5.39708 14.2688 5.54627C14.0414 5.69546 13.8826 5.92887 13.8273 6.19514C13.772 6.4614 13.8248 6.73872 13.974 6.96609L15.5398 9.35225C15.6136 9.46492 15.7089 9.56193 15.8202 9.63775C15.9315 9.71356 16.0567 9.76669 16.1885 9.79408C16.3204 9.82147 16.4564 9.82259 16.5887 9.79738C16.7209 9.77217 16.847 9.72112 16.9595 9.64715C17.1869 9.49795 17.3457 9.26455 17.401 8.99828C17.4562 8.73201 17.4035 8.45469 17.2543 8.22732ZM10.8852 13.6343L8.7028 11.7994C8.59975 11.7127 8.48064 11.6472 8.35226 11.6065C8.22388 11.5659 8.08875 11.5509 7.95459 11.5625C7.82044 11.5741 7.68987 11.612 7.57037 11.6741C7.45086 11.7361 7.34475 11.8211 7.2581 11.9242C7.17142 12.0273 7.1059 12.1464 7.06528 12.2748C7.02465 12.4031 7.00971 12.5383 7.02132 12.6724C7.03292 12.8066 7.07084 12.9372 7.13291 13.0567C7.19498 13.1762 7.27998 13.2823 7.38306 13.3689L9.56536 15.2038C9.7498 15.3594 9.98342 15.4447 10.2248 15.4444C10.4351 15.4445 10.6405 15.3799 10.8129 15.2594C10.9853 15.1388 11.1164 14.9682 11.1885 14.7705C11.2607 14.5729 11.2702 14.3579 11.216 14.1546C11.1617 13.9513 11.0463 13.7697 10.8852 13.6343ZM6.3295 20.6485L3.71435 19.5197C3.59044 19.4646 3.45682 19.4346 3.32123 19.4314C3.18564 19.4283 3.05077 19.4521 2.92444 19.5014C2.7981 19.5507 2.68281 19.6247 2.58524 19.7189C2.48766 19.8131 2.40975 19.9257 2.356 20.0502C2.30225 20.1747 2.27374 20.3087 2.27212 20.4443C2.2705 20.5799 2.29579 20.7145 2.34655 20.8403C2.3973 20.966 2.4725 21.0805 2.56779 21.177C2.66308 21.2735 2.77657 21.3502 2.90169 21.4025L5.51685 22.5312C5.64494 22.5867 5.78303 22.6154 5.92263 22.6155C6.15858 22.6155 6.38733 22.5342 6.57031 22.3852C6.75328 22.2362 6.87929 22.0287 6.92709 21.7977C6.97489 21.5666 6.94154 21.3261 6.83268 21.1168C6.72382 20.9075 6.54611 20.7421 6.3295 20.6485ZM3.97124 28.6796L1.14335 28.3522C0.580615 28.2867 0.0720215 28.6904 0.00680661 29.2529C-0.00868359 29.3867 0.00232659 29.5222 0.0392086 29.6517C0.0760907 29.7812 0.138122 29.9022 0.221761 30.0077C0.3054 30.1133 0.409008 30.2013 0.526669 30.2668C0.64433 30.3323 0.77374 30.374 0.90751 30.3894L3.7354 30.7169C4.00242 30.742 4.26864 30.6615 4.47703 30.4926C4.68541 30.3238 4.81938 30.0801 4.85022 29.8137C4.88106 29.5472 4.80632 29.2793 4.64202 29.0674C4.47772 28.8554 4.23693 28.7162 3.97124 28.6796ZM5.19911 37.8816C5.17541 37.7491 5.12583 37.6224 5.0532 37.509C4.98057 37.3956 4.88631 37.2976 4.77581 37.2207C4.6653 37.1437 4.54072 37.0892 4.40917 37.0604C4.27762 37.0316 4.14168 37.029 4.00911 37.0527L1.20651 37.554C0.938829 37.6019 0.701132 37.7542 0.545706 37.9773C0.39028 38.2005 0.329856 38.4762 0.377724 38.7439C0.425651 39.0116 0.577936 39.2493 0.801092 39.4048C1.02425 39.5602 1.3 39.6207 1.56772 39.5728L4.37032 39.0715C4.63801 39.0236 4.8757 38.8713 5.03113 38.6482C5.18656 38.425 5.24698 38.1493 5.19911 37.8816ZM7.81878 45.5134C7.69577 45.2709 7.48152 45.0872 7.2231 45.0026C6.96469 44.918 6.68325 44.9394 6.44065 45.0622L3.89946 46.35C3.65847 46.4738 3.47629 46.688 3.39272 46.9457C3.30915 47.2035 3.33098 47.4838 3.45345 47.7255C3.57592 47.9672 3.78907 48.1506 4.04633 48.2356C4.30359 48.3206 4.58404 48.3004 4.82642 48.1793L7.36761 46.8915C7.61018 46.7686 7.79399 46.5543 7.87861 46.2959C7.96322 46.0375 7.9417 45.756 7.81878 45.5134ZM12.5107 52.0695C12.3232 51.8725 12.0652 51.758 11.7934 51.7512C11.5215 51.7444 11.2581 51.8459 11.0611 52.0334L8.99511 53.9993C8.89755 54.0921 8.81923 54.2032 8.76462 54.3263C8.71001 54.4494 8.68019 54.5821 8.67685 54.7167C8.67351 54.8513 8.69672 54.9853 8.74516 55.1109C8.7936 55.2366 8.86631 55.3515 8.95915 55.449C9.05481 55.5499 9.17003 55.6301 9.29778 55.6849C9.42552 55.7397 9.56309 55.7678 9.70208 55.7676C9.96522 55.7679 10.2183 55.6667 10.4088 55.4851L12.4747 53.5192C12.5723 53.4264 12.6506 53.3153 12.7052 53.1922C12.7598 53.0691 12.7897 52.9364 12.793 52.8018C12.7963 52.6672 12.7731 52.5332 12.7247 52.4076C12.6762 52.2819 12.6035 52.167 12.5107 52.0695ZM24.0422 25.3001H21.4343C20.4919 25.3001 19.7253 26.0667 19.7253 27.0091V29.6811C19.7253 30.6235 20.4919 31.3901 21.4343 31.3901H24.0422C24.9846 31.3901 25.7512 30.6235 25.7512 29.6811V27.0091C25.7512 26.0667 24.9846 25.3001 24.0422 25.3001ZM23.7004 29.3393H21.7761V27.3509H23.7004V29.3393ZM28.7199 17.4413H26.112C25.1696 17.4413 24.403 18.2079 24.403 19.1503V21.8224C24.403 22.7648 25.1696 23.5313 26.112 23.5313H28.7199C29.6623 23.5313 30.4289 22.7648 30.4289 21.8224V19.1503C30.4289 18.2079 29.6623 17.4413 28.7199 17.4413ZM28.3781 21.4806H26.4538V19.4921H28.3781V21.4806Z" fill="#373737"/>
</g>
</svg>
