<svg xmlns="http://www.w3.org/2000/svg" width="70" height="70" viewBox="0 0 70 70" fill="none">
  <path d="M0 55.6332C0 58.0378 1.96738 60.0052 4.37196 60.0052H31.5874C32.2432 60.0052 32.6804 59.568 32.6804 58.9122C32.6804 58.2564 32.2432 57.8192 31.5874 57.8192H4.37196C3.16967 57.8192 2.18598 56.8355 2.18598 55.6332V15.8484H61.2075V40.4407C59.8959 39.457 58.475 38.6919 56.8355 38.2547L56.3983 34.5385C56.289 33.992 55.8518 33.5548 55.3053 33.5548H50.1683C49.6218 33.5548 49.1846 33.992 49.0753 34.5385L48.6381 38.2547C46.5614 38.9105 44.7033 40.0035 43.0638 41.4244L39.6756 40.0035C39.1291 39.7849 38.5826 40.0035 38.2547 40.4407L35.6315 44.9219C35.3036 45.3591 35.5222 46.0149 35.9594 46.3428L38.9105 48.5288C38.4733 50.6055 38.4733 52.9008 38.9105 54.9774L35.9594 57.1634C35.5222 57.4913 35.4129 58.1471 35.6315 58.5843L38.2547 63.0656C38.5826 63.5028 39.1291 63.7214 39.6756 63.5028L43.0638 61.9726C44.594 63.5028 46.5614 64.5958 48.6381 65.1423L49.0753 68.8584C49.1846 69.4049 49.6218 69.8421 50.1683 69.8421H55.3053C55.8518 69.8421 56.289 69.4049 56.3983 68.8584L56.8355 65.1423C58.9122 64.4865 60.7703 63.3935 62.4098 61.9726L65.798 63.5028C66.3445 63.7214 66.891 63.5028 67.2189 63.0656L69.8421 58.5843C70.17 58.1471 69.9514 57.4913 69.5142 57.1634L66.5631 54.9774C67.0003 52.9008 67.0003 50.6055 66.5631 48.5288L69.5142 46.3428C69.9514 46.0149 70.0607 45.3591 69.8421 44.9219L67.2189 40.4407C66.891 40.0035 66.3445 39.7849 65.798 40.0035L63.3935 41.0965V4.37196C63.3935 1.96738 61.4261 0 59.0215 0H4.37196C1.96738 0 0 1.96738 0 4.37196V55.6332ZM67.4375 45.1405L64.5958 47.2172C64.2679 47.5451 64.0493 47.9823 64.1586 48.4195C64.8144 50.4962 64.8144 53.0101 64.1586 55.0867C64.0493 55.5239 64.1586 55.9611 64.5958 56.289L67.4375 58.3657L65.798 61.2075L62.6284 59.7866C62.1912 59.568 61.754 59.6773 61.4261 60.0052C59.8959 61.6447 57.8192 62.847 55.6332 63.3935C55.196 63.5028 54.8681 63.8307 54.7588 64.3772L54.3216 67.7654H51.152L50.7148 64.2679C50.7148 63.8307 50.2776 63.3935 49.8404 63.2842C47.6544 62.7377 45.687 61.6447 44.0475 59.8959C43.7196 59.568 43.2824 59.4587 42.8452 59.6773L39.6756 61.0982L38.0361 58.3657L40.8779 56.289C41.2058 55.9611 41.4244 55.5239 41.3151 55.0867C40.6593 53.0101 40.6593 50.4962 41.3151 48.4195C41.4244 47.9823 41.3151 47.5451 40.8779 47.2172L38.0361 45.1405L39.6756 42.408L42.8452 43.8289C43.2824 44.0475 43.7196 43.9382 44.0475 43.6103C45.5777 41.9709 47.6544 40.7686 49.8404 40.3314C50.2776 40.2221 50.6055 39.8942 50.7148 39.3477L51.152 35.8501H54.3216L54.7588 39.3477C54.7588 39.7849 55.196 40.2221 55.6332 40.3314C57.8192 40.8779 59.7866 41.9709 61.4261 43.6103C61.8633 44.0475 62.6284 44.0475 63.0656 43.7196L65.9073 42.5173L67.4375 45.1405ZM2.18598 4.37196C2.18598 3.16967 3.16967 2.18598 4.37196 2.18598H59.0215C60.2238 2.18598 61.2075 3.16967 61.2075 4.37196V13.6624H2.18598V4.37196Z" fill="black"/>
  <path d="M9.83702 4.58984C7.97894 4.58984 6.55805 6.01073 6.55805 7.86882C6.55805 9.7269 7.97894 11.1478 9.83702 11.1478C11.6951 11.1478 13.116 9.7269 13.116 7.86882C13.116 6.01073 11.5858 4.58984 9.83702 4.58984ZM9.83702 8.96181C9.18123 8.96181 8.74403 8.52461 8.74403 7.86882C8.74403 7.21302 9.18123 6.77583 9.83702 6.77583C10.4928 6.77583 10.93 7.21302 10.93 7.86882C10.93 8.52461 10.3835 8.96181 9.83702 8.96181ZM19.0181 4.58984C17.1601 4.58984 15.7392 6.01073 15.7392 7.86882C15.7392 9.7269 17.1601 11.1478 19.0181 11.1478C20.8762 11.1478 22.2971 9.7269 22.2971 7.86882C22.2971 6.01073 20.8762 4.58984 19.0181 4.58984ZM19.0181 8.96181C18.3624 8.96181 17.9252 8.52461 17.9252 7.86882C17.9252 7.21302 18.3624 6.77583 19.0181 6.77583C19.6739 6.77583 20.1111 7.21302 20.1111 7.86882C20.1111 8.52461 19.6739 8.96181 19.0181 8.96181ZM28.3086 4.58984C26.4505 4.58984 25.0296 6.01073 25.0296 7.86882C25.0296 9.7269 26.4505 11.1478 28.3086 11.1478C30.1667 11.1478 31.5875 9.7269 31.5875 7.86882C31.5875 6.01073 30.0574 4.58984 28.3086 4.58984ZM28.3086 8.96181C27.6528 8.96181 27.2156 8.52461 27.2156 7.86882C27.2156 7.21302 27.6528 6.77583 28.3086 6.77583C28.9644 6.77583 29.4016 7.21302 29.4016 7.86882C29.4016 8.52461 28.8551 8.96181 28.3086 8.96181ZM54.3218 6.77583H41.5338C40.878 6.77583 40.4408 7.21302 40.4408 7.86882C40.4408 8.52461 40.878 8.96181 41.5338 8.96181H54.3218C54.9776 8.96181 55.4147 8.52461 55.4147 7.86882C55.4147 7.21302 54.9776 6.77583 54.3218 6.77583ZM8.41614 31.5867C6.23015 31.5867 4.37207 33.4448 4.37207 35.6308C4.37207 37.8168 6.23015 39.6748 8.41614 39.6748C10.6021 39.6748 12.4602 37.8168 12.4602 35.6308C12.4602 34.8657 12.2416 34.1006 11.8044 33.4448L15.0834 29.7286C15.7392 30.1658 16.5043 30.3844 17.2694 30.3844C18.581 30.3844 19.6739 29.7286 20.439 28.8542L25.2482 31.8053C25.1389 32.0239 25.1389 32.3518 25.1389 32.6797C25.1389 34.8657 26.997 36.7238 29.183 36.7238C31.3689 36.7238 33.227 34.8657 33.227 32.6797C33.227 32.0239 33.0084 31.3681 32.6805 30.8216L36.2874 26.6683C36.6153 26.7776 37.0525 26.8869 37.3804 26.8869C39.5664 26.8869 41.4245 25.0288 41.4245 22.8428C41.4245 20.6568 39.5664 18.7987 37.3804 18.7987C35.1944 18.7987 33.3363 20.6568 33.3363 22.8428C33.3363 23.8265 33.7735 24.8102 34.32 25.466L31.041 29.2914C30.4946 28.9635 29.7295 28.7449 29.0737 28.7449C27.9807 28.7449 26.997 29.1821 26.2319 29.9472L21.2041 26.8869V26.4497C21.2041 24.2637 19.346 22.4056 17.1601 22.4056C14.9741 22.4056 13.116 24.2637 13.116 26.4497C13.116 27.1055 13.2253 27.6519 13.5532 28.1984L10.0556 32.1332C9.61843 31.696 9.07193 31.5867 8.41614 31.5867ZM37.4897 20.8754C38.4734 20.8754 39.3478 21.7498 39.3478 22.7335C39.3478 23.7172 38.4734 24.5916 37.4897 24.5916C36.506 24.5916 35.6316 23.7172 35.6316 22.7335C35.6316 21.7498 36.3967 20.8754 37.4897 20.8754ZM29.183 30.8216C30.1667 30.8216 31.041 31.696 31.041 32.6797C31.041 33.6634 30.1667 34.5378 29.183 34.5378C28.1993 34.5378 27.3249 33.6634 27.3249 32.6797C27.3249 31.696 28.09 30.8216 29.183 30.8216ZM8.41614 37.4889C7.43244 37.4889 6.55805 36.6145 6.55805 35.6308C6.55805 34.6471 7.43244 33.7727 8.41614 33.7727C9.39983 33.7727 10.2742 34.5378 10.2742 35.6308C10.2742 36.6145 9.39983 37.4889 8.41614 37.4889ZM17.2694 24.4823C18.2531 24.4823 19.1274 25.3567 19.1274 26.3404C19.1274 27.3241 18.2531 28.1984 17.2694 28.1984C16.2857 28.1984 15.4113 27.3241 15.4113 26.3404C15.5206 25.3567 16.2857 24.4823 17.2694 24.4823ZM37.599 30.1658V36.2866C37.599 36.9424 38.0362 37.3796 38.692 37.3796C39.3478 37.3796 39.785 36.9424 39.785 36.2866V30.1658C39.785 29.51 39.3478 29.0728 38.692 29.0728C38.0362 29.0728 37.599 29.6193 37.599 30.1658Z" fill="black"/>
  <path d="M5.57444 52.6814H34.8666C35.5224 52.6814 35.9596 52.2442 35.9596 51.5885C35.9596 50.9327 35.5224 50.4955 34.8666 50.4955H30.4946V40.112C30.4946 39.4563 30.0574 39.0191 29.4016 39.0191C28.7458 39.0191 28.3086 39.4563 28.3086 40.112V50.4955H19.1275V36.6145C19.1275 35.9587 18.6903 35.5215 18.0345 35.5215C17.3787 35.5215 16.9415 35.9587 16.9415 36.6145V50.4955H9.7278V44.8119C9.7278 44.1561 9.29061 43.7189 8.63481 43.7189C7.97902 43.7189 7.54182 44.1561 7.54182 44.8119V50.4955H5.57444C4.91864 50.4955 4.48145 50.9327 4.48145 51.5885C4.48145 52.2442 4.91864 52.6814 5.57444 52.6814ZM52.7916 44.2654C48.6383 44.2654 45.25 47.6537 45.25 51.8071C45.25 55.9604 48.6383 59.3487 52.7916 59.3487C56.945 59.3487 60.3333 55.9604 60.3333 51.8071C60.224 47.6537 56.945 44.2654 52.7916 44.2654ZM52.7916 57.0534C49.8406 57.0534 47.436 54.6488 47.436 51.6977C47.436 48.7467 49.8406 46.3421 52.7916 46.3421C55.7427 46.3421 58.1473 48.7467 58.1473 51.6977C58.1473 54.6488 55.7427 57.0534 52.7916 57.0534Z" fill="black"/>
</svg>