<svg width="70" height="70" viewBox="0 0 70 70" fill="none" xmlns="http://www.w3.org/2000/svg">
<g id="Group">
<path id="Vector" d="M11.6663 6.77467H10.9143C9.81666 6.77586 8.76429 7.21244 7.98812 7.98861C7.21194 8.76478 6.77537 9.81715 6.77417 10.9148V11.2908H9.03223V10.9148C9.03313 10.4159 9.23171 9.93774 9.58448 9.58497C9.93724 9.23221 10.4154 9.03363 10.9143 9.03273H11.6663C12.1652 9.03363 12.6434 9.23221 12.9961 9.58497C13.3489 9.93774 13.5475 10.4159 13.5484 10.9148C13.5484 11.5042 13.2672 12.0664 12.7964 12.4198L10.3859 14.2274C9.96661 14.5438 9.62619 14.953 9.39134 15.4229C9.15649 15.8928 9.03358 16.4106 9.03223 16.936V18.065H11.2903V16.936C11.2903 16.5826 11.4585 16.245 11.7408 16.0327L14.1513 14.2263C14.664 13.8395 15.0802 13.3392 15.3673 12.7647C15.6545 12.1902 15.8048 11.5571 15.8064 10.9148C15.8052 9.81715 15.3687 8.76478 14.5925 7.98861C13.8163 7.21244 12.7639 6.77586 11.6663 6.77467ZM9.03223 20.3231H11.2903V22.5811H9.03223V20.3231ZM33.8709 4.5166H36.129V6.77467H33.8709V4.5166Z" fill="#373737"/>
<path id="Vector_2" d="M58.7097 36.129C52.99 36.129 48.2605 40.4081 47.5289 45.9324L45.1613 43.5648V41.7742C45.1613 39.9068 43.6416 38.3871 41.7742 38.3871C41.3282 38.3871 40.9048 38.4785 40.5142 38.6355C40.3775 38.1284 40.1248 37.66 39.776 37.2674C39.4272 36.8747 38.9919 36.5685 38.5045 36.3729C38.6705 36.0364 38.9674 35.875 39.0837 35.8265C39.2899 35.7382 39.5179 35.7146 39.7378 35.7585C39.9576 35.8024 40.1591 35.9119 40.3155 36.0726L41.3881 37.1429L46.1774 32.3524L45.1037 31.281C44.9436 31.1247 44.8345 30.9236 44.7907 30.7042C44.747 30.4847 44.7707 30.2572 44.8587 30.0515C44.9424 29.8437 45.0868 29.666 45.2732 29.5417C45.4595 29.4174 45.6791 29.3523 45.9031 29.3548H47.4194V24.1771L51.8237 19.7727C53.6855 22.1629 56.5815 23.7097 59.8387 23.7097C65.4421 23.7097 70 19.1506 70 13.5484C70 7.94613 65.4421 3.3871 59.8387 3.3871C54.2353 3.3871 49.6774 7.94613 49.6774 13.5484C49.6774 15.0624 50.0195 16.4952 50.6156 17.7879L45.8353 22.5682C45.6247 22.5575 45.4214 22.4876 45.2486 22.3666C45.0759 22.2456 44.9408 22.0783 44.8587 21.884C44.7702 21.6787 44.7461 21.4513 44.7896 21.2319C44.8332 21.0126 44.9423 20.8116 45.1026 20.6556L46.1774 19.5831L41.3881 14.7926L40.3144 15.864C40.158 16.0244 39.9567 16.1336 39.737 16.1774C39.5173 16.2211 39.2896 16.1973 39.0837 16.109C38.8759 16.0254 38.6982 15.8809 38.574 15.6945C38.4497 15.5082 38.3845 15.2887 38.3871 15.0647V13.5484H36.129V11.1763C37.403 10.9141 38.5476 10.2209 39.3702 9.21342C40.1928 8.20595 40.643 6.94579 40.6452 5.64516C40.6452 2.53242 38.1127 0 35 0C31.8873 0 29.3548 2.53242 29.3548 5.64516C29.357 6.94579 29.8072 8.20595 30.6298 9.21342C31.4524 10.2209 32.597 10.9141 33.871 11.1763V13.5484H31.6129V15.0647C31.6129 15.7647 31.0789 16.0402 30.9163 16.1079C30.7103 16.1967 30.4821 16.2208 30.262 16.1768C30.042 16.1329 29.8406 16.023 29.6845 15.8618L28.6119 14.7915L23.8226 19.5819L24.8963 20.6534C25.0564 20.8097 25.1655 21.0107 25.2093 21.2302C25.253 21.4496 25.2293 21.6772 25.1413 21.8829C25.0594 22.0773 24.9242 22.2446 24.7515 22.3656C24.5787 22.4866 24.3753 22.5565 24.1647 22.5671L20.9594 19.3618C22.0141 17.6056 22.5743 15.5969 22.5806 13.5484C22.5806 7.3229 17.5158 2.25806 11.2903 2.25806C5.06484 2.25806 0 7.3229 0 13.5484C0 15.9747 0.801613 18.3806 2.25806 20.3226L6.77419 26.3437V29.3548C6.77419 31.8455 8.79968 33.871 11.2903 33.871C13.781 33.871 15.8065 31.8455 15.8065 29.3548V26.3437L19.6384 21.2337L22.5806 24.1771V29.3548H24.0969C24.7969 29.3548 25.0724 29.8889 25.1413 30.0526C25.2298 30.2579 25.2539 30.4853 25.2103 30.7047C25.1668 30.924 25.0577 31.125 24.8974 31.281L23.8226 32.3535L28.6119 37.144L29.3548 36.4023V39.0148C28.6714 38.6085 27.8919 38.3918 27.0968 38.3871C25.8515 38.3871 24.8387 39.3998 24.8387 40.6452V43.5648L18.1763 50.2273C16.3145 47.8371 13.4185 46.2903 10.1613 46.2903C4.5579 46.2903 0 50.8494 0 56.4516C0 62.0539 4.5579 66.6129 10.1613 66.6129C15.7647 66.6129 20.3226 62.0539 20.3226 56.4516C20.3211 54.9871 20.001 53.5405 19.3844 52.2121L24.8387 46.7577V49.4031C24.8342 52.5762 26.0282 55.634 28.1818 57.9645L26.9782 70H43.0229L41.8194 57.9656C43.972 55.6342 45.1655 52.5763 45.1613 49.4031V46.7577L47.5582 49.1547C47.8439 50.9724 48.5698 52.7179 49.6774 54.1936L54.1936 60.2147V63.2258C54.1936 65.7165 56.219 67.7419 58.7097 67.7419C61.2003 67.7419 63.2258 65.7165 63.2258 63.2258V60.2147L67.7419 54.1936C69.1984 52.2516 70 49.8456 70 47.4194C70 41.1939 64.9352 36.129 58.7097 36.129ZM59.8387 5.64516C64.1956 5.64516 67.7419 9.19032 67.7419 13.5484C67.7419 17.9065 64.1956 21.4516 59.8387 21.4516C55.4818 21.4516 51.9355 17.9065 51.9355 13.5484C51.9355 9.19032 55.4818 5.64516 59.8387 5.64516ZM31.6129 5.64516C31.6129 3.77774 33.1326 2.25806 35 2.25806C36.8674 2.25806 38.3871 3.77774 38.3871 5.64516C38.3871 7.51258 36.8674 9.03226 35 9.03226C33.1326 9.03226 31.6129 7.51258 31.6129 5.64516ZM10.1613 64.3548C5.80435 64.3548 2.25806 60.8097 2.25806 56.4516C2.25806 52.0935 5.80435 48.5484 10.1613 48.5484C14.5182 48.5484 18.0645 52.0935 18.0645 56.4516C18.0645 60.8097 14.5182 64.3548 10.1613 64.3548ZM31.8647 27.2266C31.7005 26.8271 31.615 26.3997 31.6129 25.9677C31.6129 24.1003 33.1326 22.5806 35 22.5806C36.8674 22.5806 38.3871 24.1003 38.3871 25.9677C38.3849 26.7104 38.1382 27.4317 37.6852 28.0202C37.2322 28.6087 36.598 29.0317 35.8806 29.2239C35.6292 28.5968 35.196 28.0592 34.6367 27.6802C34.0774 27.3012 33.4176 27.098 32.7419 27.0968C32.436 27.0968 32.1458 27.151 31.8647 27.2266ZM11.2903 31.6129C10.045 31.6129 9.03226 30.6002 9.03226 29.3548V27.0968H13.5484V29.3548C13.5484 30.6002 12.5356 31.6129 11.2903 31.6129ZM14.1129 24.8387H8.46774L4.06452 18.9677C2.89556 17.4024 2.26211 15.502 2.25806 13.5484C2.25806 8.56823 6.31016 4.51613 11.2903 4.51613C16.2705 4.51613 20.3226 8.56823 20.3226 13.5484C20.3185 15.502 19.6851 17.4024 18.5161 18.9677L14.1129 24.8387ZM28.6695 34.0076L26.9613 32.3005C27.5552 31.3815 27.6635 30.2434 27.2266 29.1889C26.7897 28.1344 25.9079 27.4061 24.8387 27.1758V24.7608C25.3711 24.6464 25.8673 24.403 26.2836 24.052C26.7 23.701 27.0238 23.2531 27.2266 22.7477C27.4406 22.247 27.5282 21.7014 27.482 21.1588C27.4357 20.6163 27.2569 20.0934 26.9613 19.6361L28.6684 17.929C29.1258 18.2248 29.6489 18.4036 30.1917 18.4499C30.7344 18.4961 31.2802 18.4084 31.7811 18.1944C32.2864 17.9916 32.7341 17.6677 33.0849 17.2514C33.4358 16.835 33.6789 16.3388 33.7931 15.8065H36.2081C36.3226 16.3387 36.5659 16.8347 36.9166 17.251C37.2674 17.6673 37.7149 17.9912 38.22 18.1944C38.7209 18.4084 39.2667 18.4961 39.8095 18.4499C40.3522 18.4036 40.8753 18.2248 41.3327 17.929L43.0398 19.6361C42.446 20.5552 42.3376 21.6932 42.7745 22.7477C43.2115 23.8023 44.0932 24.5305 45.1624 24.7608V27.1758C44.63 27.2902 44.1339 27.5336 43.7175 27.8846C43.3011 28.2356 42.9773 28.6835 42.7745 29.1889C42.5606 29.6896 42.4729 30.2352 42.5191 30.7778C42.5654 31.3203 42.7442 31.8432 43.0398 32.3005L41.3327 34.0076C40.8753 33.7118 40.3522 33.533 39.8095 33.4867C39.2667 33.4405 38.7209 33.5282 38.22 33.7423C37.684 33.9578 37.2135 34.3092 36.8547 34.762C36.496 35.2148 36.2614 35.7533 36.1742 36.3244L36.1302 36.3379V31.5C37.4042 31.238 38.549 30.5448 39.3716 29.5373C40.1942 28.5298 40.6444 27.2696 40.6463 25.9689C40.6463 22.8561 38.1139 20.3237 35.0011 20.3237C31.8884 20.3237 29.356 22.8561 29.356 25.9689C29.356 26.8766 29.5716 27.7494 29.9781 28.5408C29.5733 29.1079 29.3555 29.7871 29.3548 30.4839V33.6892C29.1143 33.767 28.8841 33.8739 28.6695 34.0076ZM29.4734 67.7419L30.3766 58.7097H39.6223L40.5255 67.7419H29.4734ZM42.9032 49.4031C42.9032 52.0405 41.921 54.5221 40.1473 56.4516H29.8527C28.0777 54.534 27.0932 52.0161 27.0968 49.4031V40.6452C28.3421 40.6452 29.3548 41.6579 29.3548 42.9032V45.1613H31.6129V30.4839C31.6259 30.1932 31.7505 29.9187 31.9608 29.7176C32.1712 29.5165 32.4509 29.4042 32.7419 29.4042C33.0329 29.4042 33.3127 29.5165 33.523 29.7176C33.7333 29.9187 33.858 30.1932 33.871 30.4839V45.1613H36.129V39.5161C36.142 39.2254 36.2667 38.9509 36.477 38.7498C36.6873 38.5487 36.9671 38.4365 37.2581 38.4365C37.5491 38.4365 37.8288 38.5487 38.0392 38.7498C38.2495 38.9509 38.3741 39.2254 38.3871 39.5161V45.1613H40.6452V41.7742C40.6582 41.4835 40.7828 41.209 40.9931 41.0079C41.2034 40.8068 41.4832 40.6945 41.7742 40.6945C42.0652 40.6945 42.345 40.8068 42.5553 41.0079C42.7656 41.209 42.8902 41.4835 42.9032 41.7742V49.4031ZM58.7097 65.4839C57.4644 65.4839 56.4516 64.4711 56.4516 63.2258V60.9677H60.9677V63.2258C60.9677 64.4711 59.955 65.4839 58.7097 65.4839ZM65.9355 52.8387L61.5323 58.7097H55.8871L51.4839 52.8387C50.3149 51.2734 49.6815 49.373 49.6774 47.4194C49.6774 42.4392 53.7295 38.3871 58.7097 38.3871C63.6898 38.3871 67.7419 42.4392 67.7419 47.4194C67.7379 49.373 67.1044 51.2734 65.9355 52.8387Z" fill="#373737"/>
<path id="Vector_3" d="M59.0859 40.6448H58.3339C57.2363 40.6459 56.1839 41.0825 55.4077 41.8587C54.6316 42.6349 54.195 43.6872 54.1938 44.7849V45.1609H56.4518V44.7849C56.4527 44.286 56.6513 43.8078 57.0041 43.4551C57.3568 43.1023 57.835 42.9037 58.3339 42.9028H59.0859C59.5848 42.9037 60.063 43.1023 60.4157 43.4551C60.7685 43.8078 60.9671 44.286 60.968 44.7849C60.968 45.3743 60.6868 45.9365 60.216 46.2899L57.8056 48.0975C57.3862 48.4139 57.0458 48.8231 56.8109 49.293C56.5761 49.7629 56.4532 50.2807 56.4518 50.806V51.9351H58.7099V50.806C58.7099 50.4527 58.8781 50.1151 59.1604 49.9028L61.5709 48.0964C62.0836 47.7095 62.4998 47.2093 62.7869 46.6348C63.0741 46.0603 63.2244 45.4272 63.226 44.7849C63.2248 43.6872 62.7883 42.6349 62.0121 41.8587C61.2359 41.0825 60.1835 40.6459 59.0859 40.6448ZM56.4518 54.1931H58.7099V56.4512H56.4518V54.1931ZM4.51636 55.3222H6.77442V57.5802H4.51636V55.3222ZM9.03249 55.3222H11.2906V57.5802H9.03249V55.3222ZM13.5486 55.3222H15.8067V57.5802H13.5486V55.3222ZM54.1938 12.4189H56.4518V14.677H54.1938V12.4189ZM58.7099 12.4189H60.968V14.677H58.7099V12.4189ZM63.226 12.4189H65.4841V14.677H63.226V12.4189Z" fill="#373737"/>
</g>
</svg>
