<svg width="16" height="21" viewBox="0 0 16 21" fill="none" xmlns="http://www.w3.org/2000/svg">
<g id="Vector">
<path d="M1 8.3349C1 13.1867 5.24448 17.199 7.12319 18.7373C7.39206 18.9574 7.52811 19.0688 7.72871 19.1253C7.88491 19.1693 8.1148 19.1693 8.271 19.1253C8.47197 19.0687 8.60707 18.9584 8.87695 18.7374C10.7557 17.1991 14.9999 13.1872 14.9999 8.33534C14.9999 6.49923 14.2625 4.7381 12.9497 3.43977C11.637 2.14144 9.8566 1.41205 8.00008 1.41205C6.14357 1.41205 4.36301 2.14155 3.05025 3.43988C1.7375 4.73821 1 6.49879 1 8.3349Z" stroke="white" stroke-width="2" stroke-linecap="round" stroke-linejoin="round"/>
<path d="M6 7.41205C6 8.51662 6.89543 9.41205 8 9.41205C9.10457 9.41205 10 8.51662 10 7.41205C10 6.30748 9.10457 5.41205 8 5.41205C6.89543 5.41205 6 6.30748 6 7.41205Z" stroke="white" stroke-width="2" stroke-linecap="round" stroke-linejoin="round"/>
</g>
</svg>
