<svg width="51" height="50" viewBox="0 0 51 50" fill="none" xmlns="http://www.w3.org/2000/svg">
<g clip-path="url(#clip0_563_206)">
<path d="M50.6666 20.8333C50.6666 15.0896 45.9937 10.4167 40.25 10.4167H36.0833V8.33333C36.0833 4.8875 33.2791 2.08333 29.8333 2.08333H25.6666V6.25H29.8333C30.9833 6.25 31.9166 7.18542 31.9166 8.33333V35.4167H4.83329V27.0833H0.666626V39.5833H4.91038C4.86038 39.9271 4.83329 40.2729 4.83329 40.625C4.83329 44.6458 8.10413 47.9167 12.125 47.9167C16.1458 47.9167 19.4166 44.6458 19.4166 40.625C19.4166 40.2729 19.3895 39.9271 19.3395 39.5833H31.9937C31.9437 39.9271 31.9166 40.2729 31.9166 40.625C31.9166 44.6458 35.1875 47.9167 39.2083 47.9167C43.2291 47.9167 46.5 44.6458 46.5 40.625C46.5 40.2729 46.4729 39.9271 46.4229 39.5833H50.6666V20.8333ZM15.25 40.625C15.25 42.3479 13.8479 43.75 12.125 43.75C10.402 43.75 8.99996 42.3479 8.99996 40.625C8.99996 40.2312 9.07704 39.8833 9.18954 39.5833H15.0625C15.175 39.8833 15.25 40.2312 15.25 40.625ZM40.25 14.5833C43.6958 14.5833 46.5 17.3875 46.5 20.8333V22.9167H36.0833V14.5833H40.25ZM42.3333 40.625C42.3333 42.3479 40.9312 43.75 39.2083 43.75C37.4854 43.75 36.0833 42.3479 36.0833 40.625C36.0833 40.2312 36.1604 39.8833 36.2729 39.5833H42.1458C42.2583 39.8833 42.3333 40.2312 42.3333 40.625ZM36.0833 35.4167V27.0833H46.5V35.4167H36.0833ZM21.5 6.25H0.666626V2.08333H21.5V6.25ZM17.3333 14.5833H0.666626V10.4167H17.3333V14.5833ZM13.1666 22.9167H0.666626V18.75H13.1666V22.9167Z" fill="#373737"/>
</g>
<defs>
<clipPath id="clip0_563_206">
<rect width="50" height="50" fill="white" transform="translate(0.666626)"/>
</clipPath>
</defs>
</svg>
