<svg width="20" height="17" viewBox="0 0 20 17" fill="none" xmlns="http://www.w3.org/2000/svg">
<path d="M2 2.5L8.10764 7.11227L8.10967 7.11396C8.78785 7.61128 9.12714 7.8601 9.49876 7.95621C9.82723 8.04117 10.1725 8.04117 10.501 7.95621C10.8729 7.86001 11.2132 7.61047 11.8926 7.11227C11.8926 7.11227 15.8101 4.10594 18 2.5M1 12.3002V4.7002C1 3.58009 1 3.01962 1.21799 2.5918C1.40973 2.21547 1.71547 1.90973 2.0918 1.71799C2.51962 1.5 3.08009 1.5 4.2002 1.5H15.8002C16.9203 1.5 17.4796 1.5 17.9074 1.71799C18.2837 1.90973 18.5905 2.21547 18.7822 2.5918C19 3.0192 19 3.57899 19 4.69691V12.3036C19 13.4215 19 13.9805 18.7822 14.4079C18.5905 14.7842 18.2837 15.0905 17.9074 15.2822C17.48 15.5 16.921 15.5 15.8031 15.5H4.19691C3.07899 15.5 2.5192 15.5 2.0918 15.2822C1.71547 15.0905 1.40973 14.7842 1.21799 14.4079C1 13.9801 1 13.4203 1 12.3002Z" stroke="white" stroke-width="2" stroke-linecap="round" stroke-linejoin="round"/>
</svg>
