<svg width="70" height="70" viewBox="0 0 70 70" fill="none" xmlns="http://www.w3.org/2000/svg">
<rect width="70" height="70" fill="#F5F5F5"/>
<g id="L02_SERVICES - Hardware Development Page" clip-path="url(#clip0_109_47)">
<rect width="1920" height="7588" transform="translate(-248 -4378)" fill="white"/>
<g id="Frame 2449">
<g id="Frame 2448">
<g id="Frame 2439">
<g id="Frame 2439_2">
<rect x="-40" y="-29.7598" width="810" height="181" rx="20" fill="#EBF2FE"/>
<g id="Group">
<path id="Vector" d="M64.3952 54.5355H64.9661V43.4012C64.9661 43.1017 64.8471 42.8145 64.6354 42.6028C64.4236 42.3911 64.1365 42.2721 63.837 42.2721H51.9074C51.608 42.2721 51.3208 42.3911 51.1091 42.6028C50.8973 42.8145 50.7784 43.1017 50.7784 43.4012V54.2019H48.1727V43.4012C48.1727 43.1017 48.0537 42.8145 47.842 42.6028C47.6303 42.3911 47.3431 42.2721 47.0437 42.2721H35.114C34.8146 42.2721 34.5274 42.3911 34.3157 42.6028C34.104 42.8145 33.985 43.1017 33.985 43.4012V54.2019H29.0547V53.4178C29.0547 51.7403 27.6899 50.3756 26.0125 50.3756H25.2251L22.4948 40.0557L22.608 39.7619C23.7933 39.4304 24.9344 38.9573 26.0066 38.353L28.1849 39.3204C28.3934 39.413 28.6251 39.4403 28.8494 39.3986C29.0737 39.357 29.2801 39.2483 29.4415 39.087L32.6352 35.8932C32.7966 35.7319 32.9052 35.5255 32.9469 35.3011C32.9886 35.0768 32.9613 34.8451 32.8687 34.6366L31.9009 32.4576C32.505 31.3857 32.9778 30.245 33.3093 29.0602L35.5329 28.2044C35.7459 28.1224 35.929 27.9779 36.0582 27.7898C36.1873 27.6017 36.2565 27.3789 36.2565 27.1507V22.6342C36.2565 22.406 36.1874 22.1832 36.0582 21.9951C35.9291 21.807 35.746 21.6625 35.533 21.5805L33.3101 20.725C33.1188 20.0428 32.8803 19.3746 32.5964 18.7255L41.6792 11.1149L50.887 19.1831C50.9323 20.2839 51.3643 21.2865 52.0502 22.0586C48.8651 23.41 46.6255 26.5688 46.6255 30.241C46.6255 33.3998 48.3253 36.3468 51.0613 37.9321C51.2329 38.0316 51.4277 38.0841 51.6261 38.0843C51.8244 38.0845 52.0193 38.0325 52.1911 37.9335C52.363 37.8344 52.5057 37.6919 52.605 37.5201C52.7042 37.3484 52.7564 37.1536 52.7564 36.9552V30.7815L55.4293 29.2383L58.1021 30.7815V37.0448C58.1021 37.2409 58.1532 37.4336 58.2503 37.604C58.3474 37.7743 58.4872 37.9164 58.6559 38.0163C58.8246 38.1163 59.0164 38.1705 59.2124 38.1737C59.4085 38.177 59.602 38.1291 59.7739 38.0349C62.6226 36.4731 64.3922 33.4867 64.3922 30.2412C64.3922 26.5688 62.1527 23.4101 58.9675 22.0588C59.6933 21.2416 60.1348 20.1664 60.1348 18.9901C60.1348 16.4967 58.1519 14.458 55.6805 14.3674L47.2853 5.35856C47.2072 2.52328 44.8782 0.240234 42.0244 0.240234C40.1525 0.240234 38.5068 1.2232 37.5731 2.69913L24.2735 10.5952C23.7298 10.3727 23.1738 10.1817 22.6082 10.0232L21.7524 7.79967C21.6704 7.58672 21.5259 7.4036 21.3378 7.27446C21.1497 7.14531 20.9269 7.0762 20.6987 7.07624H16.1821C15.954 7.07624 15.7312 7.14536 15.5431 7.2745C15.355 7.40365 15.2104 7.58674 15.1285 7.79967L14.2724 10.0232C13.0875 10.3547 11.9469 10.8276 10.8751 11.4318L8.69595 10.4639C8.48742 10.3713 8.25573 10.3441 8.03141 10.3858C7.80709 10.4274 7.60066 10.5361 7.43933 10.6975L4.24558 13.8912C4.08426 14.0526 3.97561 14.259 3.93394 14.4833C3.89227 14.7076 3.91954 14.9393 4.01216 15.1478L4.97988 17.3266C4.37562 18.3985 3.90267 19.5393 3.57127 20.7244L1.34778 21.5802C1.13486 21.6622 0.951758 21.8067 0.822617 21.9948C0.693477 22.1829 0.624353 22.4057 0.624355 22.6339V27.1504C0.624364 27.3786 0.693508 27.6014 0.822675 27.7895C0.951843 27.9776 1.13497 28.1222 1.34792 28.2041L3.57085 29.0596C3.90238 30.2449 4.37536 31.386 4.9796 32.4583L4.01216 34.6365C3.91956 34.845 3.89231 35.0767 3.934 35.301C3.9757 35.5253 4.08438 35.7318 4.24573 35.8931L7.43962 39.0868C7.55366 39.2002 7.69067 39.2878 7.84141 39.3437L8.50133 50.3755H8.07597C6.39865 50.3755 5.03407 51.7402 5.03407 53.4177V54.7324C2.09224 55.873 0 58.7316 0 62.0713C0 66.4104 3.5302 69.9406 7.86935 69.9406H62.1305C66.4697 69.9406 70 66.4104 70 62.0711C70 58.5192 67.6337 55.5107 64.3952 54.5355ZM57.004 44.5302H58.7403V47.1394H57.004V44.5302ZM53.0364 44.5302H54.7459V48.2684C54.7459 48.5679 54.8649 48.855 55.0766 49.0668C55.2883 49.2785 55.5755 49.3974 55.875 49.3974H59.8693C60.1688 49.3974 60.4559 49.2785 60.6677 49.0668C60.8794 48.855 60.9984 48.5679 60.9984 48.2684V44.5302H62.708V54.2253C62.5159 54.2105 62.3232 54.2027 62.1305 54.2019H53.0364V44.5302ZM40.2106 44.5302H41.9469V47.1394H40.2106V44.5302ZM36.2431 44.5302H37.9526V48.2684C37.9526 48.5679 38.0715 48.855 38.2832 49.0668C38.495 49.2785 38.7822 49.3974 39.0816 49.3974H43.076C43.3754 49.3974 43.6626 49.2785 43.8743 49.0668C44.086 48.855 44.205 48.5679 44.205 48.2684V44.5302H45.9146V54.2019H36.2431V44.5302ZM32.635 13.8912L29.4411 10.6975C29.314 10.5709 29.1586 10.4765 28.9876 10.4223L36.7686 5.80269C36.8709 7.6289 37.9085 9.20828 39.4087 10.071L32.5832 15.7903L32.8685 15.1478C32.9611 14.9393 32.9884 14.7076 32.9467 14.4833C32.905 14.259 32.7963 14.0525 32.635 13.8912ZM62.1343 30.2406C62.1343 31.9147 61.5005 33.5268 60.3605 34.7528V30.1292C60.3605 29.9311 60.3083 29.7364 60.2092 29.5647C60.1101 29.3931 59.9676 29.2506 59.7959 29.1515L55.9941 26.9564C55.8224 26.8573 55.6277 26.8051 55.4296 26.8051C55.2314 26.8051 55.0367 26.8573 54.865 26.9564L51.0632 29.1515C50.8915 29.2506 50.749 29.3931 50.6499 29.5647C50.5508 29.7364 50.4986 29.9311 50.4986 30.1292V34.5714C49.4745 33.3831 48.884 31.8488 48.884 30.2406C48.884 26.5875 51.8562 23.6153 55.5092 23.6153C59.1621 23.6154 62.1343 26.5875 62.1343 30.2406ZM55.5089 16.6218C56.8145 16.6218 57.8766 17.6839 57.8766 18.9895C57.8766 20.2951 56.8145 21.3572 55.5089 21.3572C54.2033 21.3572 53.1411 20.2951 53.1411 18.9895C53.1411 17.6839 54.2033 16.6218 55.5089 16.6218ZM51.487 16.7062L44.182 10.3053C45.2377 9.8281 46.108 9.01801 46.6594 7.99909L53.1787 14.9947C52.4747 15.4073 51.8914 15.9975 51.487 16.7062ZM42.0243 2.4983C43.6821 2.4983 45.0309 3.84707 45.0309 5.50491C45.0309 7.16275 43.6821 8.51152 42.0243 8.51152C40.3664 8.51152 39.0177 7.16275 39.0177 5.50491C39.0177 3.84707 40.3664 2.4983 42.0243 2.4983ZM6.39032 34.8446L7.27887 32.8441C7.35329 32.6765 7.38576 32.4933 7.37346 32.3103C7.36117 32.1273 7.30448 31.95 7.20831 31.7939C6.47642 30.6066 5.93895 29.31 5.61623 27.9532C5.5738 27.7748 5.48854 27.6094 5.36782 27.4714C5.24711 27.3334 5.09458 27.2268 4.92343 27.161L2.88228 26.3754V23.4091L4.92399 22.6232C5.09512 22.5573 5.24762 22.4507 5.36831 22.3127C5.489 22.1746 5.57424 22.0093 5.61665 21.8309C5.93938 20.4743 6.4768 19.1781 7.20859 17.9912C7.30476 17.835 7.36145 17.6577 7.37374 17.4747C7.38604 17.2917 7.35357 17.1085 7.27915 16.9409L6.39032 14.9397L8.48764 12.8422L10.4891 13.731C10.6567 13.8054 10.84 13.8379 11.0229 13.8256C11.2059 13.8133 11.3831 13.7566 11.5393 13.6605C12.7262 12.9288 14.0224 12.3914 15.3788 12.0687C15.5572 12.0262 15.7225 11.9409 15.8606 11.8202C15.9986 11.6995 16.1051 11.547 16.171 11.3759L16.9569 9.33403H19.9232L20.7091 11.3759C20.775 11.547 20.8815 11.6995 21.0196 11.8202C21.1576 11.9409 21.3229 12.0262 21.5013 12.0687C22.8578 12.3915 24.154 12.9289 25.341 13.6605C25.4971 13.7567 25.6744 13.8133 25.8573 13.8256C26.0403 13.8379 26.2235 13.8054 26.3911 13.7309L28.3925 12.8421L30.4899 14.9395L29.6014 16.94C29.527 17.1077 29.4945 17.2909 29.5068 17.4739C29.5191 17.6569 29.5758 17.8341 29.672 17.9903C30.4038 19.1774 30.9413 20.4739 31.2639 21.8307C31.3063 22.0091 31.3916 22.1745 31.5123 22.3125C31.633 22.4506 31.7856 22.5571 31.9567 22.623L33.998 23.4087V26.3749L31.9561 27.1609C31.785 27.2267 31.6324 27.3333 31.5117 27.4713C31.391 27.6094 31.3057 27.7748 31.2633 27.9532C30.9405 29.3097 30.4032 30.6059 29.6715 31.7929C29.5754 31.949 29.5188 32.1263 29.5065 32.3092C29.4942 32.4922 29.5267 32.6754 29.6011 32.843L30.4899 34.8444L28.3926 36.9418L26.392 36.0534C26.2244 35.9789 26.0411 35.9464 25.8581 35.9587C25.6751 35.971 25.4978 36.0278 25.3417 36.124C24.1545 36.8559 22.8581 37.3933 21.5013 37.7161C21.3229 37.7585 21.1575 37.8438 21.0195 37.9645C20.8814 38.0852 20.7749 38.2377 20.709 38.4089L19.9233 40.45H16.9571L16.1711 38.4082C16.1052 38.237 15.9987 38.0845 15.8607 37.9638C15.7227 37.8431 15.5573 37.7579 15.379 37.7154C14.0225 37.3926 12.7264 36.8552 11.5394 36.1236C11.3833 36.0274 11.206 35.9708 11.0231 35.9585C10.8401 35.9462 10.6569 35.9786 10.4893 36.053L8.48778 36.9418L6.39032 34.8446ZM10.0656 38.7121L10.8753 38.3526C11.9471 38.9567 13.0877 39.4296 14.2725 39.761L15.1283 41.9845C15.2103 42.1975 15.3548 42.3806 15.5429 42.5097C15.731 42.6389 15.9538 42.708 16.182 42.7079H20.6987C20.7525 42.7079 20.8054 42.7031 20.8576 42.6958L22.8894 50.3753H10.7632L10.0656 38.7121ZM7.292 53.4178C7.29218 53.2099 7.37482 53.0107 7.52176 52.8636C7.66871 52.7166 7.86797 52.6339 8.07583 52.6337H26.0126C26.2205 52.6339 26.4198 52.7166 26.5668 52.8636C26.7138 53.0106 26.7965 53.2099 26.7967 53.4178V54.2019H7.86935C7.67502 54.2019 7.48294 54.2115 7.292 54.2253V53.4178ZM62.1305 67.6827H7.86935C4.77524 67.6827 2.25806 65.1655 2.25806 62.0713C2.25806 58.9771 4.77524 56.46 7.86935 56.46H62.1305C65.2246 56.46 67.7419 58.9771 67.7419 62.0714C67.7419 65.1654 65.2246 67.6827 62.1305 67.6827ZM38.7879 58.508C38.7879 58.8075 38.669 59.0946 38.4572 59.3064C38.2455 59.5181 37.9583 59.6371 37.6589 59.6371H32.3411C32.0417 59.6371 31.7545 59.5181 31.5428 59.3064C31.331 59.0946 31.2121 58.8075 31.2121 58.508C31.2121 58.2086 31.331 57.9214 31.5428 57.7097C31.7545 57.498 32.0417 57.379 32.3411 57.379H37.6589C37.9583 57.379 38.2455 57.498 38.4572 57.7097C38.669 57.9214 38.7879 58.2086 38.7879 58.508ZM56.8749 65.6345C56.8749 65.9339 56.7559 66.2211 56.5442 66.4328C56.3324 66.6446 56.0453 66.7635 55.7458 66.7635H50.4281C50.1286 66.7635 49.8415 66.6446 49.6297 66.4328C49.418 66.2211 49.2991 65.9339 49.2991 65.6345C49.2991 65.3351 49.418 65.0479 49.6297 64.8361C49.8415 64.6244 50.1286 64.5055 50.4281 64.5055H55.7458C56.0453 64.5055 56.3324 64.6244 56.5442 64.8361C56.7559 65.0479 56.8749 65.3351 56.8749 65.6345ZM20.7008 58.508C20.7008 58.8075 20.5819 59.0946 20.3701 59.3064C20.1584 59.5181 19.8712 59.6371 19.5718 59.6371H14.254C13.9546 59.6371 13.6674 59.5181 13.4557 59.3064C13.244 59.0946 13.125 58.8075 13.125 58.508C13.125 58.2086 13.244 57.9214 13.4557 57.7097C13.6674 57.498 13.9546 57.379 14.254 57.379H19.5718C19.8712 57.379 20.1584 57.498 20.3701 57.7097C20.5819 57.9214 20.7008 58.2086 20.7008 58.508ZM56.8749 58.508C56.8749 58.8075 56.7559 59.0946 56.5442 59.3064C56.3324 59.5181 56.0453 59.6371 55.7458 59.6371H50.4281C50.1286 59.6371 49.8415 59.5181 49.6297 59.3064C49.418 59.0946 49.2991 58.8075 49.2991 58.508C49.2991 58.2086 49.418 57.9214 49.6297 57.7097C49.8415 57.498 50.1286 57.379 50.4281 57.379H55.7458C56.0453 57.379 56.3324 57.498 56.5442 57.7097C56.7559 57.9214 56.8749 58.2086 56.8749 58.508ZM38.7879 65.6345C38.7879 65.9339 38.669 66.2211 38.4572 66.4328C38.2455 66.6446 37.9583 66.7635 37.6589 66.7635H32.3411C32.0417 66.7635 31.7545 66.6446 31.5428 66.4328C31.331 66.2211 31.2121 65.9339 31.2121 65.6345C31.2121 65.3351 31.331 65.0479 31.5428 64.8361C31.7545 64.6244 32.0417 64.5055 32.3411 64.5055H37.6589C37.9583 64.5055 38.2455 64.6244 38.4572 64.8361C38.669 65.0479 38.7879 65.3351 38.7879 65.6345ZM20.7008 65.6345C20.7008 65.9339 20.5819 66.2211 20.3701 66.4328C20.1584 66.6446 19.8712 66.7635 19.5718 66.7635H14.254C13.9546 66.7635 13.6674 66.6446 13.4557 66.4328C13.244 66.2211 13.125 65.9339 13.125 65.6345C13.125 65.3351 13.244 65.0479 13.4557 64.8361C13.6674 64.6244 13.9546 64.5055 14.254 64.5055H19.5718C19.8712 64.5055 20.1584 64.6244 20.3701 64.8361C20.5819 65.0479 20.7008 65.3351 20.7008 65.6345ZM7.86935 57.379C5.28204 57.379 3.1771 59.4839 3.1771 62.0713C3.1771 64.6586 5.28204 66.7635 7.86935 66.7635C10.4568 66.7635 12.5618 64.6586 12.5618 62.0713C12.5618 59.4839 10.4568 57.379 7.86935 57.379ZM7.86935 64.5056C6.52708 64.5056 5.43516 63.4137 5.43516 62.0714C5.43516 60.7291 6.52708 59.6372 7.86935 59.6372C9.21163 59.6372 10.3037 60.7291 10.3037 62.0714C10.3037 63.4137 9.21163 64.5056 7.86935 64.5056ZM25.9565 57.379C23.3691 57.379 21.2642 59.4839 21.2642 62.0713C21.2642 64.6586 23.3691 66.7635 25.9565 66.7635C28.5438 66.7635 30.6487 64.6586 30.6487 62.0713C30.6487 59.4839 28.5438 57.379 25.9565 57.379ZM25.9565 64.5056C24.6142 64.5056 23.5223 63.4137 23.5223 62.0714C23.5223 60.7291 24.6142 59.6372 25.9565 59.6372C27.2987 59.6372 28.3906 60.7291 28.3906 62.0714C28.3906 63.4137 27.2987 64.5056 25.9565 64.5056ZM44.0435 57.379C41.4561 57.379 39.3511 59.4839 39.3511 62.0713C39.3511 64.6586 41.4561 66.7635 44.0435 66.7635C46.6309 66.7635 48.7358 64.6586 48.7358 62.0713C48.7358 59.4839 46.6309 57.379 44.0435 57.379ZM44.0435 64.5056C42.7013 64.5056 41.6092 63.4137 41.6092 62.0714C41.6092 60.7291 42.7013 59.6372 44.0435 59.6372C45.3858 59.6372 46.4777 60.7291 46.4777 62.0714C46.4777 63.4137 45.3858 64.5056 44.0435 64.5056ZM62.1305 57.379C59.5432 57.379 57.4382 59.4839 57.4382 62.0713C57.4382 64.6586 59.5432 66.7635 62.1305 66.7635C64.7178 66.7635 66.8228 64.6586 66.8228 62.0713C66.8228 59.4839 64.7178 57.379 62.1305 57.379ZM62.1305 64.5056C60.7882 64.5056 59.6963 63.4137 59.6963 62.0714C59.6963 60.7291 60.7882 59.6372 62.1305 59.6372C63.4728 59.6372 64.5647 60.7291 64.5647 62.0714C64.5647 63.4137 63.4728 64.5056 62.1305 64.5056ZM40.4721 5.50491C40.4721 4.64755 41.1671 3.95263 42.0244 3.95263C42.8816 3.95263 43.5767 4.64755 43.5767 5.50491C43.5767 6.36227 42.8818 7.05719 42.0244 7.05719C41.1671 7.05719 40.4721 6.36227 40.4721 5.50491ZM18.4402 33.8982C23.4062 33.8982 27.4462 29.8583 27.4462 24.8924C27.4462 19.9263 23.4061 15.8864 18.4402 15.8864C13.4743 15.8864 9.43433 19.9265 9.43433 24.8924C9.43433 29.8581 13.4744 33.8982 18.4402 33.8982ZM18.4402 18.1443C22.1611 18.1443 25.1881 21.1714 25.1881 24.8922C25.1881 28.613 22.1611 31.64 18.4402 31.64C14.7195 31.64 11.6924 28.613 11.6924 24.8922C11.6924 21.1714 14.7195 18.1443 18.4402 18.1443Z" fill="#373737"/>
</g>
</g>
</g>
</g>
</g>
</g>
<defs>
<clipPath id="clip0_109_47">
<rect width="1920" height="7588" fill="white" transform="translate(-248 -4378)"/>
</clipPath>
</defs>
</svg>
