<svg width="50" height="50" viewBox="0 0 50 50" fill="none" xmlns="http://www.w3.org/2000/svg">
<g clip-path="url(#clip0_563_293)">
<path d="M40.625 31.25H9.375C4.20625 31.25 0 35.4562 0 40.625C0 45.7937 4.20625 50 9.375 50H40.625C45.7937 50 50 45.7937 50 40.625C50 35.4562 45.7937 31.25 40.625 31.25ZM40.625 45.8333H9.375C6.50208 45.8333 4.16667 43.4958 4.16667 40.625C4.16667 37.7542 6.50208 35.4167 9.375 35.4167H40.625C43.4979 35.4167 45.8333 37.7542 45.8333 40.625C45.8333 43.4958 43.4979 45.8333 40.625 45.8333ZM41.6667 6.25C41.6667 2.80417 38.8625 0 35.4167 0H14.5833C11.1375 0 8.33333 2.80417 8.33333 6.25V27.0833H41.6667V6.25ZM22.9167 4.16667H27.0833V10.4167H22.9167V4.16667ZM37.5 22.9167H12.5V6.25C12.5 5.10208 13.4333 4.16667 14.5833 4.16667H18.75V14.5833H31.25V4.16667H35.4167C36.5667 4.16667 37.5 5.10208 37.5 6.25V22.9167ZM12.5 40.625C12.5 42.35 11.1 43.75 9.375 43.75C7.65 43.75 6.25 42.35 6.25 40.625C6.25 38.9 7.65 37.5 9.375 37.5C11.1 37.5 12.5 38.9 12.5 40.625ZM43.75 40.625C43.75 42.35 42.35 43.75 40.625 43.75C38.9 43.75 37.5 42.35 37.5 40.625C37.5 38.9 38.9 37.5 40.625 37.5C42.35 37.5 43.75 38.9 43.75 40.625ZM28.125 40.625C28.125 42.35 26.725 43.75 25 43.75C23.275 43.75 21.875 42.35 21.875 40.625C21.875 38.9 23.275 37.5 25 37.5C26.725 37.5 28.125 38.9 28.125 40.625Z" fill="#373737"/>
</g>
<defs>
<clipPath id="clip0_563_293">
<rect width="50" height="50" fill="white"/>
</clipPath>
</defs>
</svg>
