<svg width="50" height="51" viewBox="0 0 50 51" fill="none" xmlns="http://www.w3.org/2000/svg">
<g clip-path="url(#clip0_291_230)">
<path d="M33.3333 14.6016H16.6667C15.5208 14.6016 14.5833 15.5391 14.5833 16.685V33.3516C14.5833 34.4975 15.5208 35.435 16.6667 35.435H33.3333C34.4792 35.435 35.4167 34.4975 35.4167 33.3516V16.685C35.4167 15.5391 34.4792 14.6016 33.3333 14.6016ZM31.25 31.2683H18.75V18.7683H31.25V31.2683ZM47.9167 22.935C49.0625 22.935 50 21.9975 50 20.8516C50 19.7058 49.0625 18.7683 47.9167 18.7683H45.8333V14.6016H47.9167C49.0625 14.6016 50 13.6641 50 12.5183C50 11.3725 49.0625 10.435 47.9167 10.435H44.9583C43.9167 8.03914 41.9792 6.12248 39.5833 5.05998V2.10164C39.5833 0.95581 38.6458 0.0183105 37.5 0.0183105C36.3542 0.0183105 35.4167 0.95581 35.4167 2.10164V4.18498H31.25V2.10164C31.25 0.95581 30.3125 0.0183105 29.1667 0.0183105C28.0208 0.0183105 27.0833 0.95581 27.0833 2.10164V4.18498H22.9167V2.10164C22.9167 0.95581 21.9792 0.0183105 20.8333 0.0183105C19.6875 0.0183105 18.75 0.95581 18.75 2.10164V4.18498H14.5833V2.10164C14.5833 0.95581 13.6458 0.0183105 12.5 0.0183105C11.3542 0.0183105 10.4167 0.95581 10.4167 2.10164V5.05998C8.02083 6.10164 6.10417 8.03914 5.04167 10.435H2.08333C0.9375 10.435 0 11.3725 0 12.5183C0 13.6641 0.9375 14.6016 2.08333 14.6016H4.16667V18.7683H2.08333C0.9375 18.7683 0 19.7058 0 20.8516C0 21.9975 0.9375 22.935 2.08333 22.935H4.16667V27.1016H2.08333C0.9375 27.1016 0 28.0391 0 29.185C0 30.3308 0.9375 31.2683 2.08333 31.2683H4.16667V35.435H2.08333C0.9375 35.435 0 36.3725 0 37.5183C0 38.6641 0.9375 39.6016 2.08333 39.6016H5.04167C6.08333 41.9975 8.02083 43.9141 10.4167 44.9766V47.935C10.4167 49.0808 11.3542 50.0183 12.5 50.0183C13.6458 50.0183 14.5833 49.0808 14.5833 47.935V45.8516H18.75V47.935C18.75 49.0808 19.6875 50.0183 20.8333 50.0183C21.9792 50.0183 22.9167 49.0808 22.9167 47.935V45.8516H27.0833V47.935C27.0833 49.0808 28.0208 50.0183 29.1667 50.0183C30.3125 50.0183 31.25 49.0808 31.25 47.935V45.8516H35.4167V47.935C35.4167 49.0808 36.3542 50.0183 37.5 50.0183C38.6458 50.0183 39.5833 49.0808 39.5833 47.935V44.9766C41.9792 43.935 43.8958 41.9975 44.9583 39.6016H47.9167C49.0625 39.6016 50 38.6641 50 37.5183C50 36.3725 49.0625 35.435 47.9167 35.435H45.8333V31.2683H47.9167C49.0625 31.2683 50 30.3308 50 29.185C50 28.0391 49.0625 27.1016 47.9167 27.1016H45.8333V22.935H47.9167ZM35.4167 41.685H14.5833C11.1458 41.685 8.33333 38.8725 8.33333 35.435V14.6016C8.33333 11.1641 11.1458 8.35164 14.5833 8.35164H35.4167C38.8542 8.35164 41.6667 11.1641 41.6667 14.6016V35.435C41.6667 38.8725 38.8542 41.685 35.4167 41.685Z" fill="#373737"/>
</g>
<defs>
<clipPath id="clip0_291_230">
<rect width="50" height="50" fill="white" transform="translate(0 0.0183105)"/>
</clipPath>
</defs>
</svg>
