<svg width="140" height="140" viewBox="0 0 140 140" fill="none" xmlns="http://www.w3.org/2000/svg">
<g id="Group">
<path id="Vector" d="M138.906 88.5572L124.642 80.3221C124.671 79.6018 124.687 78.8988 124.687 78.2029C124.687 68.6646 122.194 59.2734 117.477 51.0452C113.108 43.4245 106.918 36.9254 99.5311 32.1753V17.9743C99.5311 17.5904 99.43 17.2131 99.238 16.8806C99.046 16.5481 98.7699 16.2719 98.4373 16.08L71.0936 0.293069C70.7611 0.101076 70.3839 0 69.9999 0C69.6159 0 69.2387 0.101076 68.9061 0.293069L41.5624 16.08C41.2299 16.2719 40.9538 16.5481 40.7618 16.8806C40.5698 17.2131 40.4687 17.5904 40.4687 17.9743V32.1756C33.0818 36.926 26.8914 43.4248 22.5227 51.0454C17.8057 59.274 15.3125 68.6649 15.3125 78.2032C15.3125 78.8895 15.3289 79.5994 15.3576 80.3221L1.09375 88.5572C0.761196 88.7491 0.485041 89.0253 0.293046 89.3578C0.101051 89.6904 -1.79577e-05 90.0676 2.39323e-09 90.4516V122.026C9.75692e-06 122.41 0.10109 122.787 0.293083 123.119C0.485075 123.452 0.761215 123.728 1.09375 123.92L28.4375 139.707C28.7699 139.899 29.1472 140 29.5312 140C29.9152 140 30.2925 139.899 30.625 139.707L49.3956 128.869C55.9417 131.537 62.8673 132.891 69.9999 132.891C77.133 132.891 84.0584 131.537 90.6045 128.869L109.375 139.707C109.707 139.899 110.085 140 110.469 140C110.853 140 111.23 139.899 111.562 139.707L138.906 123.92C139.239 123.728 139.515 123.452 139.707 123.119C139.899 122.787 140 122.41 140 122.026V90.4516C140 90.0676 139.899 89.6904 139.707 89.3578C139.515 89.0253 139.239 88.7492 138.906 88.5572ZM97.2069 96.0559L120.176 82.7948L123.731 84.8472L100.762 98.1083L97.2069 96.0559ZM98.5741 101.897V109.278L95.0194 107.226V99.8444L98.5741 101.897ZM92.8319 93.5302L87.4999 90.4516L110.469 77.1904L115.801 80.269L92.8319 93.5302ZM85.3124 94.2403L90.6444 97.3189V108.489C90.6444 108.873 90.7455 109.251 90.9375 109.583C91.1295 109.916 91.4056 110.192 91.7381 110.384L99.6678 114.962C100 115.154 100.378 115.255 100.762 115.255C101.146 115.255 101.523 115.154 101.855 114.962C102.188 114.77 102.464 114.494 102.656 114.161C102.848 113.829 102.949 113.452 102.949 113.068V104.423L108.281 107.501V134.023L85.3124 120.762V94.2403ZM110.469 103.713L105.137 100.634L128.105 87.3729L133.437 90.4516L110.469 103.713ZM44.8437 21.7631L50.1757 24.8414V36.0119C50.1757 36.3959 50.2768 36.7731 50.4688 37.1056C50.6608 37.4381 50.9369 37.7143 51.2694 37.9062L59.1991 42.4844C59.5317 42.6763 59.9089 42.7774 60.2929 42.7774C60.6768 42.7774 61.0541 42.6763 61.3866 42.4844C61.7192 42.2924 61.9953 42.0163 62.1873 41.6838C62.3793 41.3512 62.4804 40.974 62.4804 40.59V31.9456L67.8124 35.0239V61.546L44.8437 48.2851V21.7631ZM69.9999 31.2352L64.6679 28.1569L87.6366 14.8957L92.9686 17.9743L69.9999 31.2352ZM60.2929 25.6308L56.7382 23.5784L79.7069 10.3175L83.2616 12.37L60.2929 25.6308ZM58.1054 29.4199V36.8013L54.5507 34.7491V27.3677L58.1054 29.4199ZM72.1874 35.0242L95.1561 21.7631V48.2851L72.1874 61.546V35.0242ZM69.9999 4.71318L75.3319 7.79153L52.3632 21.0524L47.0312 17.9743L69.9999 4.71318ZM31.7187 107.501L54.6874 94.2403V120.763L31.7187 134.023V107.501ZM29.5312 103.713L24.1992 100.634L47.1679 87.3732L52.4999 90.4518L29.5312 103.713ZM19.8242 98.1083L16.2695 96.0559L39.2382 82.7948L42.7932 84.8472L19.8242 98.1083ZM14.082 99.8447L17.6367 101.897V109.279L14.082 107.226V99.8447ZM11.8945 93.5302L6.56249 90.4516L29.5312 77.1904L34.8635 80.269L11.8945 93.5302ZM4.37499 94.2403L9.70702 97.3186V108.489C9.70703 108.873 9.80811 109.25 10.0001 109.583C10.1921 109.915 10.4682 110.191 10.8008 110.383L18.7304 114.961C19.0629 115.154 19.4402 115.255 19.8242 115.255C20.2082 115.255 20.5855 115.154 20.9179 114.961C21.2505 114.769 21.5266 114.493 21.7186 114.161C21.9106 113.828 22.0117 113.451 22.0117 113.067V104.423L27.3437 107.501V134.023L4.37499 120.762V94.2403ZM69.9999 128.516C64.617 128.516 59.3643 127.676 54.3273 126.022L57.9687 123.92C58.3012 123.728 58.5774 123.452 58.7694 123.119C58.9614 122.787 59.0624 122.409 59.0624 122.025V90.4516C59.0624 90.0676 58.9613 89.6904 58.7693 89.3578C58.5773 89.0253 58.3012 88.7492 57.9687 88.5572L30.625 72.7703C30.2925 72.5782 29.9152 72.477 29.5312 72.477C29.1472 72.477 28.7699 72.5782 28.4375 72.7703L19.6935 77.8185C19.8135 61.6411 27.4908 46.8531 40.4687 37.4688V49.5481C40.4687 49.9321 40.5698 50.3093 40.7618 50.6418C40.9538 50.9744 41.2299 51.2505 41.5624 51.4425L68.9061 67.2294C69.2387 67.4213 69.6159 67.5224 69.9999 67.5224C70.3839 67.5224 70.7611 67.4213 71.0936 67.2294L98.4373 51.4425C98.7699 51.2505 99.046 50.9744 99.238 50.6418C99.43 50.3093 99.5311 49.9321 99.5311 49.5481V37.4685C112.509 46.8526 120.186 61.6406 120.306 77.8185L111.562 72.7703C111.23 72.5782 110.853 72.477 110.469 72.477C110.085 72.477 109.707 72.5782 109.375 72.7703L82.0311 88.5572C81.6986 88.7491 81.4224 89.0253 81.2304 89.3578C81.0384 89.6904 80.9373 90.0676 80.9374 90.4516V122.026C80.9374 122.41 81.0385 122.787 81.2304 123.119C81.4224 123.452 81.6986 123.728 82.0311 123.92L85.6725 126.022C80.6358 127.676 75.383 128.516 69.9999 128.516ZM112.656 134.023V107.501L135.625 94.2403V120.763L112.656 134.023Z" fill="#373737"/>
</g>
</svg>
