<svg width="68" height="70" viewBox="0 0 68 70" fill="none" xmlns="http://www.w3.org/2000/svg">
<g id="Group">
<path id="Vector" d="M54.8431 29.167H58.3431C58.6525 29.167 58.9493 29.0441 59.1681 28.8253C59.3869 28.6065 59.5098 28.3097 59.5098 28.0003V24.5003C59.5098 24.1909 59.3869 23.8942 59.1681 23.6754C58.9493 23.4566 58.6525 23.3337 58.3431 23.3337C58.0337 23.3337 57.7369 23.4566 57.5182 23.6754C57.2994 23.8942 57.1764 24.1909 57.1764 24.5003V26.8337H54.8431C54.5337 26.8337 54.2369 26.9566 54.0182 27.1754C53.7994 27.3942 53.6764 27.6909 53.6764 28.0003C53.6764 28.3097 53.7994 28.6065 54.0182 28.8253C54.2369 29.0441 54.5337 29.167 54.8431 29.167ZM27.3964 24.5003C29.9734 24.5003 32.0631 22.4108 32.0631 19.8337C32.0631 17.2565 29.9734 15.167 27.3964 15.167C24.8187 15.167 22.7297 17.2565 22.7297 19.8337C22.7297 22.4108 24.8187 24.5003 27.3964 24.5003ZM27.3964 17.5003C28.6848 17.5003 29.7297 18.5451 29.7297 19.8337C29.7297 21.1222 28.6848 22.167 27.3964 22.167C26.1072 22.167 25.0631 21.1222 25.0631 19.8337C25.0631 18.5451 26.1072 17.5003 27.3964 17.5003Z" fill="#373737"/>
<path id="Vector_2" d="M1.91123 24.1127C2.40539 24.3678 2.95357 24.5007 3.50971 24.5C4.23424 24.4999 4.94067 24.2737 5.53044 23.8528C6.12021 23.432 6.56388 22.8375 6.79956 22.1524L15.9745 22.0106L14.3739 23.3333C14.1604 23.5086 14.0161 23.7541 13.9667 24.0259C13.9174 24.2977 13.9662 24.5782 14.1044 24.8173L16.2846 28.5833L16.3323 33.8333H10.5097C10.4415 33.8402 10.3736 33.8537 10.3076 33.8743C9.75663 32.2526 8.11323 31.2675 6.42302 31.5468C4.7334 31.8258 3.49381 33.287 3.49381 35C3.49381 36.713 4.7334 38.1742 6.42302 38.4533C8.11323 38.7325 9.75677 37.7475 10.3076 36.1257C10.3736 36.1461 10.4415 36.1598 10.5097 36.1667H17.5097C17.8208 36.1667 18.1193 36.0424 18.338 35.8215C18.4466 35.7121 18.5324 35.5823 18.5905 35.4395C18.6485 35.2967 18.6777 35.1439 18.6764 34.9898L18.6229 29.0767L22.3559 27.677C22.6059 27.8388 22.8633 27.989 23.1272 28.127L23.9144 32.857C23.96 33.1295 24.1008 33.3769 24.3117 33.5553C24.5227 33.7337 24.7901 33.8314 25.0664 33.8311H25.6764V39.6645H22.1764C21.867 39.6645 21.5702 39.7874 21.3514 40.0062C21.1326 40.225 21.0097 40.5217 21.0097 40.8311V57.8502L10.8515 68.0085C10.6884 68.1717 10.5774 68.3795 10.5324 68.6058C10.4874 68.8321 10.5105 69.0666 10.5988 69.2798C10.687 69.4929 10.8365 69.6751 11.0283 69.8033C11.2202 69.9315 11.4457 69.9999 11.6764 70H49.0097C49.2404 70 49.4659 69.9316 49.6576 69.8034C49.8494 69.6752 49.9988 69.493 50.087 69.2799C50.1753 69.0667 50.1984 68.8322 50.1535 68.606C50.1086 68.3797 49.9977 68.1718 49.8347 68.0085L42.0097 60.1837V53.9897L44.6216 49.6392C49.0287 52.2983 51.6929 53.6667 52.5097 53.6667H59.5097C59.8191 53.6667 60.1159 53.5438 60.3347 53.325C60.5535 53.1062 60.6764 52.8094 60.6764 52.5V45.983L62.6669 43.9927C62.8853 43.7731 63.0085 43.4764 63.0097 43.1667V39.6667H64.7142C65.1029 39.6666 65.4855 39.5695 65.8272 39.3841C66.1688 39.1987 66.4587 38.9308 66.6706 38.6049C66.8825 38.279 67.0096 37.9054 67.0404 37.5179C67.0712 37.1304 67.0047 36.7413 66.847 36.386L63.2194 28.2193C64.5961 26.5801 65.3484 24.5066 65.343 22.366C65.3693 14.6443 61.0029 7.57998 54.0849 4.14998L50.7011 2.45583C50.4526 2.33195 50.1681 2.30078 49.8987 2.36793C49.6293 2.43508 49.3926 2.59615 49.2314 2.82217L48.7425 3.5H40.843V1.16667C40.843 0.857247 40.7201 0.560501 40.5013 0.341709C40.2825 0.122916 39.9858 0 39.6764 0L28.0097 0C27.7003 0 27.4035 0.122916 27.1848 0.341709C26.966 0.560501 26.843 0.857247 26.843 1.16667V5.83333H25.063C24.7866 5.83311 24.5191 5.93102 24.3082 6.10961C24.0973 6.2882 23.9566 6.53588 23.9112 6.80852L23.1239 11.5373C22.8598 11.675 22.6024 11.8252 22.3525 11.9874L17.8597 10.304C17.6011 10.207 17.3165 10.2048 17.0565 10.298C16.7966 10.3912 16.5781 10.5736 16.44 10.8128L15.2637 12.851C15.2335 12.851 15.209 12.8333 15.1789 12.8333H8.17638V9.11852C9.78346 8.55065 10.7474 6.9071 10.4591 5.22725C10.1708 3.54667 8.71421 2.31904 7.00971 2.31904C5.30477 2.31904 3.84804 3.54667 3.55988 5.22725C3.27171 6.90725 4.23611 8.55065 5.84304 9.11852V14C5.84304 14.3094 5.96596 14.6062 6.18475 14.825C6.40354 15.0437 6.70029 15.1667 7.00971 15.1667H13.9922C13.9397 15.3773 13.9476 15.5985 14.0151 15.8049C14.0826 16.0113 14.2069 16.1944 14.3737 16.3333L18.0742 19.3805C18.0742 19.4658 18.0742 19.553 18.0675 19.6397L6.79504 19.8134C6.53718 19.0936 6.05073 18.4782 5.41005 18.061C4.76937 17.6439 4.00972 17.448 3.24721 17.5034C2.48472 17.5585 1.76125 17.8617 1.18741 18.3669C0.613562 18.872 0.220918 19.5511 0.0695009 20.3004C-0.0821223 21.0498 0.0158691 21.8282 0.34849 22.5166C0.681112 23.2051 1.23005 23.7656 1.91138 24.1125L1.91123 24.1127ZM7.00971 36.1667C6.70029 36.1666 6.40355 36.0437 6.18477 35.8249C5.96599 35.6061 5.8431 35.3093 5.84312 34.9999C5.84314 34.6905 5.96607 34.3938 6.18488 34.175C6.40368 33.9562 6.70044 33.8333 7.00986 33.8333C7.31927 33.8333 7.61602 33.9562 7.83481 34.175C8.05361 34.3938 8.17652 34.6906 8.17652 35C8.17652 35.3094 8.05361 35.6062 7.83481 35.825C7.61602 36.0438 7.31913 36.1667 7.00971 36.1667ZM7.00971 4.66667C7.31913 4.66667 7.61588 4.78958 7.83467 5.00838C8.05346 5.22717 8.17638 5.52391 8.17638 5.83333C8.17638 6.14275 8.05346 6.4395 7.83467 6.65829C7.61588 6.87708 7.31913 7 7.00971 7C6.70029 7 6.40354 6.87708 6.18475 6.65829C5.96596 6.4395 5.84304 6.14275 5.84304 5.83333C5.84304 5.52391 5.96596 5.22717 6.18475 5.00838C6.40354 4.78958 6.70029 4.66667 7.00971 4.66667ZM28.0097 33.8333H29.7295C30.0055 33.8333 30.2725 33.7354 30.4831 33.557C30.6937 33.3787 30.8343 33.1314 30.8797 32.8592L31.6681 28.1294C31.9319 27.9918 32.189 27.8416 32.4384 27.6793L36.9335 29.3627C37.1921 29.4597 37.4767 29.4618 37.7366 29.3686C37.9966 29.2754 38.215 29.093 38.3531 28.8539L38.8472 28H44.3432C44.4293 27.9932 44.5143 27.976 44.5962 27.9487L46.6765 30.7218V32.6667H42.0099V35H44.7015L41.577 36.2492C41.3603 36.3358 41.1745 36.4854 41.0437 36.6786C40.9129 36.8719 40.843 37.1 40.8432 37.3333V39.6667H28.0099L28.0097 33.8333ZM40.6864 14.8539L40.1942 14H43.1765V18.6667H37.5892L40.4181 16.3333C40.6302 16.158 40.7734 15.9134 40.8225 15.6426C40.8716 15.3719 40.8234 15.0925 40.6864 14.8539ZM43.1764 21V25.6667H40.1942L40.6864 24.8128C40.8234 24.5742 40.8716 24.2948 40.8225 24.0241C40.7734 23.7533 40.6302 23.5087 40.4181 23.3333L37.5892 21H43.1764ZM35.3515 49.8248L39.6764 54.1497V54.8333H32.6764V42H35.0097V49C35.0097 49.3093 35.1328 49.6061 35.3515 49.8248ZM27.9563 65.3333H28.0097V65.273L32.3882 60.269C32.5742 60.056 32.6766 59.7828 32.6764 59.5V57.1667H35.0097V67.6667H25.9094L27.9563 65.3333ZM14.4929 67.6667L23.0014 59.1582C23.2201 58.9394 23.343 58.6427 23.343 58.3333V42H30.343V59.0613L28.0097 61.7286V56H25.6764V64.4003L22.8134 67.6667H14.4929ZM46.1934 67.6667H37.343V57.1667H39.6764V60.6667C39.6764 60.976 39.7995 61.2727 40.0182 61.4915L46.1934 67.6667ZM40.6094 51.7861L37.343 48.5192V42H40.843V46.6667C40.8431 46.8645 40.8935 47.0591 40.9893 47.2322C41.0852 47.4052 41.2234 47.5511 41.3911 47.6561C41.8264 47.929 42.2194 48.1695 42.6301 48.4224L40.6094 51.7861ZM50.5462 4.98852L53.0407 6.23729C59.1663 9.27354 63.0326 15.5289 63.0099 22.366C63.0124 23.2595 62.8377 24.1446 62.4958 24.9701C62.1539 25.7956 61.6517 26.5451 61.0182 27.1752C60.8515 27.3418 60.7392 27.5551 60.6961 27.7868C60.653 28.0186 60.6811 28.2579 60.7767 28.4734L64.7142 37.3333H61.843C61.5336 37.3333 61.2369 37.4562 61.0181 37.675C60.7993 37.8938 60.6764 38.1906 60.6764 38.5V42H60.4759C59.5826 42.0026 58.6977 41.8279 57.8724 41.486C57.0471 41.1442 56.2978 40.642 55.668 40.0085C55.4482 39.795 55.1532 39.6765 54.8467 39.6788C54.5402 39.681 54.247 39.8037 54.0303 40.0204C53.8135 40.2371 53.6908 40.5304 53.6885 40.8368C53.6863 41.1433 53.8047 41.4383 54.0182 41.6582C55.4008 43.0453 57.1964 43.9461 59.1349 44.2251L58.6849 44.6752C58.4661 44.8939 58.3431 45.1906 58.343 45.5V51.3333L52.6203 51.3402C49.9248 50.0935 47.3224 48.6548 44.833 47.0352L44.8272 47.0295H44.8199C44.2707 46.6957 43.7199 46.3572 43.1764 46.02V38.1229L48.2762 36.0841C48.4928 35.9974 48.6784 35.8478 48.8092 35.6545C48.9399 35.4613 49.0098 35.2333 49.0097 35V30.3333C49.0097 30.081 48.9278 29.8355 48.7762 29.6333L45.5097 25.2782V12.0399L50.5462 4.98852ZM29.1764 2.33333H38.5097V4.66667C38.5097 4.97609 38.6326 5.27283 38.8514 5.49162C39.0702 5.71042 39.367 5.83333 39.6764 5.83333H47.0764L43.3945 10.9888C43.2522 11.1861 43.1759 11.4234 43.1764 11.6667H38.8472L38.3532 10.8128C38.2152 10.5736 37.9967 10.3912 37.7368 10.2981C37.4768 10.2049 37.1922 10.207 36.9337 10.304L32.4429 11.9875C32.1936 11.8252 31.9366 11.675 31.6728 11.5375L30.8797 6.80765C30.8343 6.53543 30.6938 6.28813 30.4832 6.10974C30.2727 5.93134 30.0057 5.8334 29.7297 5.83333H29.1765L29.1764 2.33333ZM16.6194 15.1667L17.9644 12.8333L22.1075 14.3862C22.2905 14.4546 22.4877 14.4761 22.6811 14.4485C22.8745 14.4209 23.0579 14.3452 23.2144 14.2284C23.6536 13.8974 24.1303 13.6194 24.6345 13.4C24.8142 13.3229 24.9716 13.2019 25.0923 13.048C25.2129 12.8941 25.2929 12.7124 25.3249 12.5195L26.0507 8.16667H28.7412L29.467 12.5205C29.499 12.7135 29.579 12.8953 29.6996 13.0492C29.8203 13.2031 29.9777 13.3242 30.1574 13.4014C30.6614 13.6213 31.138 13.8993 31.5775 14.2297C31.7339 14.3465 31.917 14.4222 32.1102 14.4497C32.3035 14.4773 32.5005 14.4558 32.6832 14.3873L36.8275 12.8333L38.1714 15.1667L34.7586 17.9751C34.6076 18.0995 34.4904 18.2599 34.4176 18.4414C34.3448 18.623 34.3188 18.82 34.3421 19.0142C34.4139 19.5587 34.4139 20.1103 34.3421 20.6548C34.3189 20.8491 34.3449 21.0461 34.4177 21.2278C34.4904 21.4094 34.6077 21.5699 34.7586 21.6945L38.1714 24.5L36.8275 26.8333L32.6832 25.2805C32.5005 25.212 32.3034 25.1906 32.1102 25.2182C31.917 25.2458 31.7338 25.3215 31.5775 25.4383C31.138 25.7687 30.6614 26.0467 30.1574 26.2666C29.9777 26.3437 29.8203 26.4648 29.6997 26.6187C29.579 26.7725 29.499 26.9543 29.467 27.1472L28.7412 31.5H26.0496L25.3262 27.1461C25.2943 26.9532 25.2142 26.7714 25.0936 26.6175C24.9729 26.4635 24.8155 26.3424 24.6357 26.2653C24.1315 26.0461 23.655 25.768 23.216 25.437C23.0594 25.32 22.876 25.2443 22.6825 25.2168C22.489 25.1892 22.2917 25.2107 22.1087 25.2793L17.9644 26.8333L16.6194 24.5L20.0322 21.6915C20.0526 21.6716 20.0727 21.65 20.0915 21.6278C20.1143 21.6061 20.1353 21.5839 20.1557 21.56C20.2434 21.4654 20.3143 21.3566 20.3654 21.2381L20.3729 21.225C20.4215 21.0965 20.4468 20.9603 20.4475 20.8228C20.4515 20.8063 20.4548 20.7893 20.4566 20.7726C20.4566 20.7585 20.4499 20.7471 20.4487 20.7328C20.4475 20.7185 20.4487 20.6793 20.4487 20.6526C20.3769 20.1081 20.3769 19.5565 20.4487 19.012C20.4717 18.8176 20.4455 18.6205 20.3725 18.4388C20.2995 18.2571 20.1821 18.0967 20.031 17.9722L16.6194 15.1667ZM2.4724 20.4668C2.54125 20.329 2.63702 20.2064 2.75404 20.1062C2.87106 20.006 3.00696 19.9303 3.15373 19.8835C3.44136 19.8103 3.74607 19.8495 4.00583 19.993C4.26559 20.1366 4.46087 20.3738 4.55191 20.6563C4.64294 20.9388 4.62289 21.2453 4.49583 21.5136C4.36878 21.7818 4.14427 21.9915 3.86802 22.1C3.72215 22.1469 3.56846 22.1646 3.41575 22.1521C3.26303 22.1396 3.11427 22.0972 2.97795 22.0272C2.84164 21.9572 2.72045 21.8611 2.62129 21.7443C2.52214 21.6274 2.44696 21.4922 2.40006 21.3464C2.30703 21.0551 2.33304 20.7389 2.4724 20.4668Z" fill="#373737"/>
<path id="Vector_3" d="M25.6765 46.667H28.0098V49.0003H25.6765V46.667ZM25.6765 51.3337H28.0098V53.667H25.6765V51.3337ZM32.6765 32.667H35.0098V35.0003H32.6765V32.667ZM37.3432 32.667H39.6765V35.0003H37.3432V32.667ZM47.8432 11.667H50.1765V16.3337H47.8432V11.667ZM47.8432 18.667H50.1765V21.0003H47.8432V18.667ZM47.8432 23.3337H50.1765V25.667H47.8432V23.3337Z" fill="#373737"/>
</g>
</svg>
