<svg width="70" height="70" viewBox="0 0 70 70" fill="none" xmlns="http://www.w3.org/2000/svg">
<g id="Group">
<path id="Vector" d="M0 55.6332C0 58.0378 1.96738 60.0052 4.37196 60.0052H31.5874C32.2432 60.0052 32.6804 59.568 32.6804 58.9122C32.6804 58.2564 32.2432 57.8192 31.5874 57.8192H4.37196C3.16967 57.8192 2.18598 56.8355 2.18598 55.6332V15.8484H61.2075V40.4407C59.8959 39.457 58.475 38.6919 56.8355 38.2547L56.3983 34.5385C56.289 33.992 55.8518 33.5548 55.3053 33.5548H50.1683C49.6218 33.5548 49.1846 33.992 49.0753 34.5385L48.6381 38.2547C46.5614 38.9105 44.7033 40.0035 43.0638 41.4244L39.6756 40.0035C39.1291 39.7849 38.5826 40.0035 38.2547 40.4407L35.6315 44.9219C35.3036 45.3591 35.5222 46.0149 35.9594 46.3428L38.9105 48.5288C38.4733 50.6055 38.4733 52.9008 38.9105 54.9774L35.9594 57.1634C35.5222 57.4913 35.4129 58.1471 35.6315 58.5843L38.2547 63.0656C38.5826 63.5028 39.1291 63.7214 39.6756 63.5028L43.0638 61.9726C44.594 63.5028 46.5614 64.5958 48.6381 65.1423L49.0753 68.8584C49.1846 69.4049 49.6218 69.8421 50.1683 69.8421H55.3053C55.8518 69.8421 56.289 69.4049 56.3983 68.8584L56.8355 65.1423C58.9122 64.4865 60.7703 63.3935 62.4098 61.9726L65.798 63.5028C66.3445 63.7214 66.891 63.5028 67.2189 63.0656L69.8421 58.5843C70.17 58.1471 69.9514 57.4913 69.5142 57.1634L66.5631 54.9774C67.0003 52.9008 67.0003 50.6055 66.5631 48.5288L69.5142 46.3428C69.9514 46.0149 70.0607 45.3591 69.8421 44.9219L67.2189 40.4407C66.891 40.0035 66.3445 39.7849 65.798 40.0035L63.3935 41.0965V4.37196C63.3935 1.96738 61.4261 0 59.0215 0H4.37196C1.96738 0 0 1.96738 0 4.37196V55.6332ZM67.4375 45.1405L64.5958 47.2172C64.2679 47.5451 64.0493 47.9823 64.1586 48.4195C64.8144 50.4962 64.8144 53.0101 64.1586 55.0867C64.0493 55.5239 64.1586 55.9611 64.5958 56.289L67.4375 58.3657L65.798 61.2075L62.6284 59.7866C62.1912 59.568 61.754 59.6773 61.4261 60.0052C59.8959 61.6447 57.8192 62.847 55.6332 63.3935C55.196 63.5028 54.8681 63.8307 54.7588 64.3772L54.3216 67.7654H51.152L50.7148 64.2679C50.7148 63.8307 50.2776 63.3935 49.8404 63.2842C47.6544 62.7377 45.687 61.6447 44.0475 59.8959C43.7196 59.568 43.2824 59.4587 42.8452 59.6773L39.6756 61.0982L38.0361 58.3657L40.8779 56.289C41.2058 55.9611 41.4244 55.5239 41.3151 55.0867C40.6593 53.0101 40.6593 50.4962 41.3151 48.4195C41.4244 47.9823 41.3151 47.5451 40.8779 47.2172L38.0361 45.1405L39.6756 42.408L42.8452 43.8289C43.2824 44.0475 43.7196 43.9382 44.0475 43.6103C45.5777 41.9709 47.6544 40.7686 49.8404 40.3314C50.2776 40.2221 50.6055 39.8942 50.7148 39.3477L51.152 35.8501H54.3216L54.7588 39.3477C54.7588 39.7849 55.196 40.2221 55.6332 40.3314C57.8192 40.8779 59.7866 41.9709 61.4261 43.6103C61.8633 44.0475 62.6284 44.0475 63.0656 43.7196L65.9073 42.5173L67.4375 45.1405ZM2.18598 4.37196C2.18598 3.16967 3.16967 2.18598 4.37196 2.18598H59.0215C60.2238 2.18598 61.2075 3.16967 61.2075 4.37196V13.6624H2.18598V4.37196Z" fill="#373737"/>
<path id="Vector_2" d="M9.83678 4.59082C7.9787 4.59082 6.55781 6.01171 6.55781 7.86979C6.55781 9.72788 7.9787 11.1488 9.83678 11.1488C11.6949 11.1488 13.1158 9.72788 13.1158 7.86979C13.1158 6.01171 11.5856 4.59082 9.83678 4.59082ZM9.83678 8.96278C9.18099 8.96278 8.74379 8.52559 8.74379 7.86979C8.74379 7.214 9.18099 6.7768 9.83678 6.7768C10.4926 6.7768 10.9298 7.214 10.9298 7.86979C10.9298 8.52559 10.3833 8.96278 9.83678 8.96278ZM19.0179 4.59082C17.1598 4.59082 15.7389 6.01171 15.7389 7.86979C15.7389 9.72788 17.1598 11.1488 19.0179 11.1488C20.876 11.1488 22.2969 9.72788 22.2969 7.86979C22.2969 6.01171 20.876 4.59082 19.0179 4.59082ZM19.0179 8.96278C18.3621 8.96278 17.9249 8.52559 17.9249 7.86979C17.9249 7.214 18.3621 6.7768 19.0179 6.7768C19.6737 6.7768 20.1109 7.214 20.1109 7.86979C20.1109 8.52559 19.6737 8.96278 19.0179 8.96278ZM28.3083 4.59082C26.4502 4.59082 25.0294 6.01171 25.0294 7.86979C25.0294 9.72788 26.4502 11.1488 28.3083 11.1488C30.1664 11.1488 31.5873 9.72788 31.5873 7.86979C31.5873 6.01171 30.0571 4.59082 28.3083 4.59082ZM28.3083 8.96278C27.6525 8.96278 27.2153 8.52559 27.2153 7.86979C27.2153 7.214 27.6525 6.7768 28.3083 6.7768C28.9641 6.7768 29.4013 7.214 29.4013 7.86979C29.4013 8.52559 28.8548 8.96278 28.3083 8.96278ZM54.3215 6.7768H41.5335C40.8777 6.7768 40.4405 7.214 40.4405 7.86979C40.4405 8.52559 40.8777 8.96278 41.5335 8.96278H54.3215C54.9773 8.96278 55.4145 8.52559 55.4145 7.86979C55.4145 7.214 54.9773 6.7768 54.3215 6.7768ZM8.41589 31.5877C6.22991 31.5877 4.37183 33.4458 4.37183 35.6318C4.37183 37.8177 6.22991 39.6758 8.41589 39.6758C10.6019 39.6758 12.46 37.8177 12.46 35.6318C12.46 34.8667 12.2414 34.1016 11.8042 33.4458L15.0831 29.7296C15.7389 30.1668 16.504 30.3854 17.2691 30.3854C18.5807 30.3854 19.6737 29.7296 20.4388 28.8552L25.248 31.8063C25.1387 32.0249 25.1387 32.3528 25.1387 32.6807C25.1387 34.8667 26.9967 36.7247 29.1827 36.7247C31.3687 36.7247 33.2268 34.8667 33.2268 32.6807C33.2268 32.0249 33.0082 31.3691 32.6803 30.8226L36.2872 26.6692C36.6151 26.7785 37.0523 26.8878 37.3801 26.8878C39.5661 26.8878 41.4242 25.0297 41.4242 22.8438C41.4242 20.6578 39.5661 18.7997 37.3801 18.7997C35.1942 18.7997 33.3361 20.6578 33.3361 22.8438C33.3361 23.8275 33.7733 24.8111 34.3198 25.4669L31.0408 29.2924C30.4943 28.9645 29.7292 28.7459 29.0734 28.7459C27.9804 28.7459 26.9967 29.1831 26.2316 29.9482L21.2039 26.8878V26.4506C21.2039 24.2647 19.3458 22.4066 17.1598 22.4066C14.9738 22.4066 13.1158 24.2647 13.1158 26.4506C13.1158 27.1064 13.2251 27.6529 13.5529 28.1994L10.0554 32.1342C9.61818 31.697 9.07169 31.5877 8.41589 31.5877ZM37.4894 20.8764C38.4731 20.8764 39.3475 21.7508 39.3475 22.7345C39.3475 23.7182 38.4731 24.5926 37.4894 24.5926C36.5058 24.5926 35.6314 23.7182 35.6314 22.7345C35.6314 21.7508 36.3965 20.8764 37.4894 20.8764ZM29.1827 30.8226C30.1664 30.8226 31.0408 31.697 31.0408 32.6807C31.0408 33.6644 30.1664 34.5388 29.1827 34.5388C28.199 34.5388 27.3246 33.6644 27.3246 32.6807C27.3246 31.697 28.0897 30.8226 29.1827 30.8226ZM8.41589 37.4898C7.4322 37.4898 6.55781 36.6154 6.55781 35.6318C6.55781 34.6481 7.4322 33.7737 8.41589 33.7737C9.39958 33.7737 10.274 34.5388 10.274 35.6318C10.274 36.6154 9.39958 37.4898 8.41589 37.4898ZM17.2691 24.4833C18.2528 24.4833 19.1272 25.3576 19.1272 26.3413C19.1272 27.325 18.2528 28.1994 17.2691 28.1994C16.2854 28.1994 15.411 27.325 15.411 26.3413C15.5203 25.3576 16.2854 24.4833 17.2691 24.4833ZM37.5988 30.1668V36.2876C37.5988 36.9433 38.0359 37.3805 38.6917 37.3805C39.3475 37.3805 39.7847 36.9433 39.7847 36.2876V30.1668C39.7847 29.511 39.3475 29.0738 38.6917 29.0738C38.0359 29.0738 37.5988 29.6203 37.5988 30.1668Z" fill="#373737"/>
<path id="Vector_3" d="M5.57444 52.6824H34.8666C35.5224 52.6824 35.9596 52.2452 35.9596 51.5894C35.9596 50.9336 35.5224 50.4964 34.8666 50.4964H30.4946V40.113C30.4946 39.4572 30.0574 39.02 29.4016 39.02C28.7458 39.02 28.3086 39.4572 28.3086 40.113V50.4964H19.1275V36.6155C19.1275 35.9597 18.6903 35.5225 18.0345 35.5225C17.3787 35.5225 16.9415 35.9597 16.9415 36.6155V50.4964H9.7278V44.8129C9.7278 44.1571 9.29061 43.7199 8.63481 43.7199C7.97902 43.7199 7.54182 44.1571 7.54182 44.8129V50.4964H5.57444C4.91864 50.4964 4.48145 50.9336 4.48145 51.5894C4.48145 52.2452 4.91864 52.6824 5.57444 52.6824ZM52.7916 44.2664C48.6383 44.2664 45.25 47.6547 45.25 51.808C45.25 55.9614 48.6383 59.3497 52.7916 59.3497C56.945 59.3497 60.3333 55.9614 60.3333 51.808C60.224 47.6547 56.945 44.2664 52.7916 44.2664ZM52.7916 57.0544C49.8406 57.0544 47.436 54.6498 47.436 51.6987C47.436 48.7476 49.8406 46.3431 52.7916 46.3431C55.7427 46.3431 58.1473 48.7476 58.1473 51.6987C58.1473 54.6498 55.7427 57.0544 52.7916 57.0544Z" fill="#373737"/>
</g>
</svg>
