<svg width="51" height="50" viewBox="0 0 51 50" fill="none" xmlns="http://www.w3.org/2000/svg">
<g clip-path="url(#clip0_563_199)">
<path d="M50.3333 8.33333V12.5C50.3333 13.6521 49.4021 14.5833 48.25 14.5833C47.0979 14.5833 46.1667 13.6521 46.1667 12.5V8.33333C46.1667 6.03542 44.2979 4.16667 42 4.16667H37.8333C36.6813 4.16667 35.75 3.23542 35.75 2.08333C35.75 0.93125 36.6813 0 37.8333 0H42C46.5958 0 50.3333 3.7375 50.3333 8.33333ZM48.25 25C47.0979 25 46.1667 25.9312 46.1667 27.0833V31.25C46.1667 33.5479 44.2979 35.4167 42 35.4167H37.8333C36.6813 35.4167 35.75 36.3479 35.75 37.5C35.75 38.6521 36.6813 39.5833 37.8333 39.5833H42C46.5958 39.5833 50.3333 35.8458 50.3333 31.25V27.0833C50.3333 25.9312 49.4021 25 48.25 25ZM12.8333 14.5833C13.9854 14.5833 14.9167 13.6521 14.9167 12.5V8.33333C14.9167 6.03542 16.7854 4.16667 19.0833 4.16667H23.25C24.4021 4.16667 25.3333 3.23542 25.3333 2.08333C25.3333 0.93125 24.4021 0 23.25 0H19.0833C14.4875 0 10.75 3.7375 10.75 8.33333V12.5C10.75 13.6521 11.6813 14.5833 12.8333 14.5833ZM39.7375 26.65C40.075 25.9229 39.9229 25.0604 39.3563 24.4917L35.3021 20.4375L37.8938 14.975C38.225 14.25 38.0708 13.3937 37.5063 12.8292C36.9417 12.2646 36.0854 12.1104 35.3604 12.4417L29.8979 15.0333L25.8438 10.9792C25.2771 10.4125 24.4167 10.2604 23.6896 10.5958C22.9625 10.9312 22.5229 11.6854 22.5875 12.4854L23.1854 18.3125L17.8375 21.1167C17.1188 21.4917 16.7146 22.2792 16.8292 23.0833C16.8896 23.5021 17.0833 23.8771 17.3688 24.1625C17.6313 24.425 17.9688 24.6104 18.3479 24.6854L21.9771 25.4042L0.943762 46.4437C0.129179 47.2583 0.129179 48.575 0.943762 49.3896C1.35001 49.7958 1.88335 50 2.41668 50C2.95001 50 3.48335 49.7958 3.8896 49.3896L24.9708 28.3083L25.7583 32.0417C25.9271 32.8333 26.5771 33.4354 27.3833 33.5417C28.1896 33.6458 28.9729 33.2313 29.3375 32.5042L32.0417 27.1542L37.8417 27.7458C38.6417 27.8146 39.4 27.3771 39.7375 26.65Z" fill="#373737"/>
</g>
<defs>
<clipPath id="clip0_563_199">
<rect width="50" height="50" fill="white" transform="translate(0.333374)"/>
</clipPath>
</defs>
</svg>
