<svg width="70" height="65" viewBox="0 0 70 65" fill="none" xmlns="http://www.w3.org/2000/svg">
<g id="Group">
<path id="Vector" d="M30.9667 24.6287C31.2467 24.6287 31.5152 24.5175 31.7131 24.3195C31.9111 24.1215 32.0223 23.8531 32.0223 23.5731C32.0223 23.2932 31.9111 23.0247 31.7131 22.8267C31.5152 22.6288 31.2467 22.5176 30.9667 22.5176H28.6556V22.1509C28.6556 21.3081 28.3208 20.4998 27.7249 19.9039C27.1289 19.3079 26.3207 18.9731 25.4779 18.9731H25.1112V16.662C25.1112 16.5234 25.0839 16.3861 25.0308 16.2581C24.9778 16.13 24.9 16.0136 24.802 15.9156C24.704 15.8176 24.5876 15.7398 24.4596 15.6868C24.3315 15.6337 24.1943 15.6064 24.0556 15.6064C23.917 15.6064 23.7798 15.6337 23.6517 15.6868C23.5236 15.7398 23.4073 15.8176 23.3092 15.9156C23.2112 16.0136 23.1335 16.13 23.0804 16.2581C23.0274 16.3861 23.0001 16.5234 23.0001 16.662V18.9731H20.1779V16.662C20.1779 16.5234 20.1506 16.3861 20.0975 16.2581C20.0445 16.13 19.9667 16.0136 19.8687 15.9156C19.7707 15.8176 19.6543 15.7398 19.5262 15.6868C19.3982 15.6337 19.2609 15.6064 19.1223 15.6064C18.9837 15.6064 18.8464 15.6337 18.7184 15.6868C18.5903 15.7398 18.4739 15.8176 18.3759 15.9156C18.2779 16.0136 18.2001 16.13 18.1471 16.2581C18.094 16.3861 18.0667 16.5234 18.0667 16.662V18.9731H15.2445V16.662C15.2445 16.3821 15.1333 16.1136 14.9354 15.9156C14.7374 15.7177 14.4689 15.6064 14.189 15.6064C13.909 15.6064 13.6405 15.7177 13.4426 15.9156C13.2446 16.1136 13.1334 16.3821 13.1334 16.662V18.9731H12.7667C11.9239 18.9731 11.1157 19.3079 10.5197 19.9039C9.92377 20.4998 9.58897 21.3081 9.58897 22.1509V22.5176H7.23341C6.95346 22.5176 6.68498 22.6288 6.48702 22.8267C6.28907 23.0247 6.17786 23.2932 6.17786 23.5731C6.17786 23.8531 6.28907 24.1215 6.48702 24.3195C6.68498 24.5175 6.95346 24.6287 7.23341 24.6287H9.54452V27.4509H7.23341C6.95346 27.4509 6.68498 27.5621 6.48702 27.7601C6.28907 27.958 6.17786 28.2265 6.17786 28.5064C6.17786 28.7864 6.28907 29.0549 6.48702 29.2528C6.68498 29.4508 6.95346 29.562 7.23341 29.562H9.54452V32.3842H7.23341C6.95346 32.3842 6.68498 32.4954 6.48702 32.6934C6.28907 32.8913 6.17786 33.1598 6.17786 33.4398C6.17786 33.7197 6.28907 33.9882 6.48702 34.1862C6.68498 34.3841 6.95346 34.4953 7.23341 34.4953H9.54452V34.862C9.54452 35.7048 9.87932 36.5131 10.4753 37.109C11.0712 37.705 11.8795 38.0398 12.7223 38.0398H13.089V40.3509C13.089 40.6308 13.2002 40.8993 13.3981 41.0973C13.5961 41.2952 13.8646 41.4064 14.1445 41.4064C14.4245 41.4064 14.693 41.2952 14.8909 41.0973C15.0889 40.8993 15.2001 40.6308 15.2001 40.3509V38.0398H18.0223V40.3509C18.0223 40.4895 18.0496 40.6268 18.1027 40.7548C18.1557 40.8829 18.2334 40.9993 18.3315 41.0973C18.4295 41.1953 18.5458 41.2731 18.6739 41.3261C18.802 41.3791 18.9392 41.4064 19.0779 41.4064C19.2165 41.4064 19.3537 41.3791 19.4818 41.3261C19.6099 41.2731 19.7262 41.1953 19.8242 41.0973C19.9223 40.9993 20 40.8829 20.0531 40.7548C20.1061 40.6268 20.1334 40.4895 20.1334 40.3509V38.0398H22.9556V40.3509C22.9556 40.6308 23.0668 40.8993 23.2648 41.0973C23.4628 41.2952 23.7312 41.4064 24.0112 41.4064C24.2911 41.4064 24.5596 41.2952 24.7576 41.0973C24.9555 40.8993 25.0667 40.6308 25.0667 40.3509V38.0398H25.4334C26.2762 38.0398 27.0845 37.705 27.6804 37.109C28.2764 36.5131 28.6112 35.7048 28.6112 34.862V34.5176H30.9223C31.2023 34.5176 31.4707 34.4063 31.6687 34.2084C31.8666 34.0104 31.9779 33.742 31.9779 33.462C31.9779 33.1821 31.8666 32.9136 31.6687 32.7156C31.4707 32.5177 31.2023 32.4064 30.9223 32.4064H28.6112V29.5842H30.9223C31.0609 29.5842 31.1982 29.5569 31.3262 29.5039C31.4543 29.4508 31.5707 29.3731 31.6687 29.2751C31.7667 29.177 31.8445 29.0607 31.8975 28.9326C31.9506 28.8045 31.9779 28.6673 31.9779 28.5287C31.9779 28.3901 31.9506 28.2528 31.8975 28.1247C31.8445 27.9967 31.7667 27.8803 31.6687 27.7823C31.5707 27.6843 31.4543 27.6065 31.3262 27.5535C31.1982 27.5004 31.0609 27.4731 30.9223 27.4731H28.6112V24.6287H30.9667ZM26.5334 34.8842C26.5334 35.4731 26.0556 35.9398 25.4779 35.9398H12.7334C12.4535 35.9398 12.185 35.8286 11.987 35.6306C11.7891 35.4327 11.6779 35.1642 11.6779 34.8842V22.1398C11.6779 21.5509 12.1556 21.0842 12.7334 21.0842H25.4779C26.0667 21.0842 26.5334 21.562 26.5334 22.1398V34.8842Z" fill="#373737"/>
<path id="Vector_2" d="M70 5.54023C70 2.61801 67.6222 0.240234 64.7 0.240234H5.3C2.37778 0.240234 0 2.61801 0 5.54023V59.2847C0 62.2069 2.37778 64.5847 5.3 64.5847H64.6889C67.6111 64.5847 69.9889 62.2069 69.9889 59.2847V5.54023H70ZM49.1 37.7847C50.6556 37.7847 51.9333 39.0513 51.9333 40.618C51.9333 42.1847 50.6667 43.4513 49.1 43.4513C47.5333 43.4513 46.2667 42.1847 46.2667 40.618C46.2667 39.0513 47.5333 37.7847 49.1 37.7847ZM50.1556 45.4514C52.3778 44.9625 54.0444 42.9847 54.0444 40.618C54.0444 38.2513 52.3778 36.2736 50.1556 35.7847V32.718H67.8667V34.6069H59.1889C58.9089 34.6069 58.6405 34.7181 58.4425 34.9161C58.2445 35.114 58.1333 35.3825 58.1333 35.6625C58.1333 35.9424 58.2445 36.2109 58.4425 36.4089C58.6405 36.6068 58.9089 36.718 59.1889 36.718H67.8667V39.5402H63.4444C63.1645 39.5402 62.896 39.6514 62.6981 39.8494C62.5001 40.0474 62.3889 40.3158 62.3889 40.5958C62.3889 40.8757 62.5001 41.1442 62.6981 41.3422C62.896 41.5401 63.1645 41.6513 63.4444 41.6513H67.8778V44.4736H65.5667C65.2867 44.4736 65.0182 44.5848 64.8203 44.7827C64.6223 44.9807 64.5111 45.2492 64.5111 45.5291C64.5111 45.8091 64.6223 46.0776 64.8203 46.2755C65.0182 46.4735 65.2867 46.5847 65.5667 46.5847H67.8778V48.4736H50.1556V45.4514ZM64.7 62.4625H5.3C4.4572 62.4625 3.64892 62.1277 3.05297 61.5317C2.45702 60.9358 2.12222 60.1275 2.12222 59.2847V57.3513H18.7778C19.0556 57.3513 19.3333 57.2402 19.5222 57.0402L25.6222 50.9513C26.3111 51.4291 27.1444 51.718 28.0444 51.718C28.8839 51.718 29.7045 51.4691 30.4025 51.0027C31.1005 50.5363 31.6446 49.8734 31.9658 49.0979C32.2871 48.3223 32.3711 47.4689 32.2073 46.6455C32.0436 45.8222 31.6393 45.0659 31.0457 44.4723C30.4521 43.8787 29.6958 43.4745 28.8725 43.3107C28.0492 43.1469 27.1957 43.231 26.4202 43.5522C25.6446 43.8735 24.9817 44.4175 24.5153 45.1155C24.0489 45.8135 23.8 46.6341 23.8 47.4736C23.8 48.1402 23.9667 48.7625 24.2444 49.3291L18.3333 55.2402H2.12222V12.5402H29.7778C30.2556 14.3625 31.9 15.718 33.8667 15.718C34.9924 15.718 36.072 15.2708 36.8679 14.4748C37.6639 13.6789 38.1111 12.5993 38.1111 11.4736C38.1111 10.3479 37.6639 9.26828 36.8679 8.47229C36.072 7.6763 34.9924 7.22912 33.8667 7.22912C31.9 7.22912 30.2444 8.58468 29.7778 10.4069H2.12222V5.51801C2.12222 4.67521 2.45702 3.86693 3.05297 3.27098C3.64892 2.67503 4.4572 2.34023 5.3 2.34023H64.6889C65.5317 2.34023 66.34 2.67503 66.9359 3.27098C67.5319 3.86693 67.8667 4.67521 67.8667 5.51801V23.0069H51.6444L48.9222 20.2847C49.2 19.718 49.3667 19.0958 49.3667 18.4291C49.3667 17.5897 49.1177 16.769 48.6513 16.071C48.185 15.373 47.5221 14.829 46.7465 14.5078C45.9709 14.1865 45.1175 14.1025 44.2942 14.2662C43.4708 14.43 42.7145 14.8343 42.1209 15.4278C41.5274 16.0214 41.1231 16.7777 40.9593 17.6011C40.7956 18.4244 40.8796 19.2778 41.2009 20.0534C41.5221 20.829 42.0661 21.4919 42.7641 21.9583C43.4621 22.4246 44.2828 22.6736 45.1222 22.6736C46.0222 22.6736 46.8556 22.3847 47.5444 21.9069L50.4556 24.818C50.6556 25.018 50.9222 25.1291 51.2 25.1291H67.8556V30.5847H49.0778C48.7978 30.5847 48.5293 30.6959 48.3314 30.8938C48.1334 31.0918 48.0222 31.3603 48.0222 31.6402V35.7736C45.8 36.2625 44.1333 38.2402 44.1333 40.6069C44.1333 42.9736 45.8 44.9513 48.0222 45.4402V49.5736C48.0222 50.1625 48.5 50.6291 49.0778 50.6291H67.8556V55.218H42.1556C41.8111 53.2291 40.0778 51.6958 37.9889 51.6958C36.8632 51.6958 35.7836 52.143 34.9876 52.939C34.1916 53.735 33.7444 54.8145 33.7444 55.9402C33.7444 57.0659 34.1916 58.1455 34.9876 58.9415C35.7836 59.7375 36.8632 60.1847 37.9889 60.1847C39.8333 60.1847 41.4 58.9847 41.9778 57.3402H67.8778V59.2736C67.8778 61.0291 66.4445 62.4625 64.7 62.4625ZM25.9222 47.4625C25.9222 46.2958 26.8778 45.3402 28.0444 45.3402C29.2111 45.3402 30.1667 46.2958 30.1667 47.4625C30.1667 48.6291 29.2111 49.5847 28.0444 49.5847C26.8778 49.5847 25.9222 48.6402 25.9222 47.4625ZM31.7444 11.4847C31.7444 10.318 32.7 9.36246 33.8667 9.36246C35.0333 9.36246 35.9889 10.318 35.9889 11.4847C35.9889 12.6513 35.0333 13.6069 33.8667 13.6069C32.7 13.6069 31.7444 12.6513 31.7444 11.4847ZM45.1333 20.5625C43.9667 20.5625 43.0111 19.6069 43.0111 18.4402C43.0111 17.2736 43.9667 16.318 45.1333 16.318C46.3 16.318 47.2556 17.2736 47.2556 18.4402C47.2556 19.6069 46.3111 20.5625 45.1333 20.5625ZM37.9889 58.0736C36.8222 58.0736 35.8667 57.118 35.8667 55.9513C35.8667 54.7847 36.8222 53.8291 37.9889 53.8291C39.1556 53.8291 40.1111 54.7847 40.1111 55.9513C40.1111 57.118 39.1556 58.0736 37.9889 58.0736Z" fill="#373737"/>
</g>
</svg>
