<svg width="28" height="33" viewBox="0 0 28 33" fill="none" xmlns="http://www.w3.org/2000/svg">
<path fill-rule="evenodd" clip-rule="evenodd" d="M24.9377 30.6433L24.5833 30.5388C23.2938 30.2941 23.2886 30.5884 22.0174 29.6594C21.2477 29.0969 20.5172 28.5475 19.8337 28.0269C19.0144 27.4026 18.5608 27.0073 17.7127 26.3395C16.97 25.7552 16.1647 25.2006 15.469 24.6207L15.2757 24.5058C14.7768 25.1005 13.7842 26.0356 13.1843 26.4988C10.6027 25.0169 5.64938 18.5564 4.71426 14.2474L7.13651 12.9109C7.06425 11.8556 5.86618 8.56441 5.48482 7.36373C5.18008 6.40336 4.89363 5.54661 4.65332 4.60801C4.23626 2.98244 4.76215 3.07038 4.89275 1.84619C4.24235 2.16225 3.40214 3.07473 2.91281 3.69901C1.07392 6.04116 0.0647976 9.24616 0.214556 12.432C0.573279 20.0383 5.84442 27.7909 12.6419 30.9559C17.1538 33.0568 20.849 32.6337 24.9377 30.6433Z" fill="#0055CB"/>
<path fill-rule="evenodd" clip-rule="evenodd" d="M15.469 24.6208C16.1647 25.2007 16.9701 25.7544 17.7128 26.3395C18.5608 27.0073 19.0153 27.4026 19.8337 28.0269C20.5172 28.5476 21.2477 29.097 22.0174 29.6594C23.2886 30.5885 23.2939 30.2942 24.5833 30.5388L24.9377 30.6433C26.1845 29.871 28.1088 28.5188 27.1336 26.3613C26.6608 25.3156 24.9386 23.7344 23.885 22.4023C23.0414 21.3366 21.0571 19.61 19.1624 21.0684L17.2966 22.7932C16.3371 23.5455 16.2578 23.7066 15.469 24.6208Z" fill="#568BFF"/>
<path fill-rule="evenodd" clip-rule="evenodd" d="M4.89277 1.84618C4.76217 3.07123 4.23627 2.98242 4.65333 4.608C4.89451 5.5466 5.1801 6.40335 5.48484 7.36372C5.8662 8.5644 7.06427 11.8547 7.13653 12.9109H7.42473C10.4077 10.6192 14.9684 10.7716 12.143 5.6415C10.7133 3.04598 9.49609 -1.08368 5.88274 1.04079L4.89277 1.84618Z" fill="#568BFF"/>
<path fill-rule="evenodd" clip-rule="evenodd" d="M15.2757 24.5064C15.2478 24.462 15.1947 24.3445 15.179 24.3802L12.8647 22.2122C11.1695 20.1704 7.69808 15.5323 7.42468 12.9106H7.13648L4.71423 14.2471C5.64935 18.5562 10.6027 25.0167 13.1843 26.4986C13.7833 26.0362 14.7768 25.102 15.2757 24.5064Z" fill="#84A8FF"/>
</svg>
