<svg width="290" height="30" viewBox="0 0 290 30" fill="none" xmlns="http://www.w3.org/2000/svg">
<path d="M4.644 17.7106V24.1426H2.328V6.94658H7.404C8.492 6.94658 9.436 7.07458 10.236 7.33058C11.044 7.57858 11.712 7.93458 12.24 8.39858C12.768 8.86258 13.16 9.42258 13.416 10.0786C13.68 10.7346 13.812 11.4666 13.812 12.2746C13.812 13.0746 13.672 13.8066 13.392 14.4706C13.112 15.1346 12.7 15.7066 12.156 16.1866C11.62 16.6666 10.952 17.0426 10.152 17.3146C9.352 17.5786 8.436 17.7106 7.404 17.7106H4.644ZM4.644 15.8626H7.404C8.068 15.8626 8.652 15.7746 9.156 15.5986C9.668 15.4226 10.096 15.1786 10.44 14.8666C10.784 14.5466 11.044 14.1666 11.22 13.7266C11.396 13.2866 11.484 12.8026 11.484 12.2746C11.484 11.1786 11.144 10.3226 10.464 9.70658C9.792 9.09058 8.772 8.78258 7.404 8.78258H4.644V15.8626ZM18.7999 6.46658V24.1426H16.6639V6.46658H18.7999ZM31.4925 24.1426H30.5445C30.3365 24.1426 30.1685 24.1106 30.0405 24.0466C29.9125 23.9826 29.8285 23.8466 29.7885 23.6386L29.5485 22.5106C29.2285 22.7986 28.9165 23.0586 28.6125 23.2906C28.3085 23.5146 27.9885 23.7066 27.6525 23.8666C27.3165 24.0186 26.9565 24.1346 26.5725 24.2146C26.1965 24.2946 25.7765 24.3346 25.3125 24.3346C24.8405 24.3346 24.3965 24.2706 23.9805 24.1426C23.5725 24.0066 23.2165 23.8066 22.9125 23.5426C22.6085 23.2786 22.3645 22.9466 22.1805 22.5466C22.0045 22.1386 21.9165 21.6586 21.9165 21.1066C21.9165 20.6266 22.0485 20.1666 22.3125 19.7266C22.5765 19.2786 23.0005 18.8826 23.5845 18.5386C24.1765 18.1946 24.9485 17.9146 25.9005 17.6986C26.8525 17.4746 28.0165 17.3466 29.3925 17.3146V16.3666C29.3925 15.4226 29.1885 14.7106 28.7805 14.2306C28.3805 13.7426 27.7845 13.4986 26.9925 13.4986C26.4725 13.4986 26.0325 13.5666 25.6725 13.7026C25.3205 13.8306 25.0125 13.9786 24.7485 14.1466C24.4925 14.3066 24.2685 14.4546 24.0765 14.5906C23.8925 14.7186 23.7085 14.7826 23.5245 14.7826C23.3805 14.7826 23.2525 14.7466 23.1405 14.6746C23.0365 14.5946 22.9525 14.4986 22.8885 14.3866L22.5045 13.7026C23.1765 13.0546 23.9005 12.5706 24.6765 12.2506C25.4525 11.9306 26.3125 11.7706 27.2565 11.7706C27.9365 11.7706 28.5405 11.8826 29.0685 12.1066C29.5965 12.3306 30.0405 12.6426 30.4005 13.0426C30.7605 13.4426 31.0325 13.9266 31.2165 14.4946C31.4005 15.0626 31.4925 15.6866 31.4925 16.3666V24.1426ZM25.9485 22.8346C26.3245 22.8346 26.6685 22.7986 26.9805 22.7266C27.2925 22.6466 27.5845 22.5386 27.8565 22.4026C28.1365 22.2586 28.4005 22.0866 28.6485 21.8866C28.9045 21.6866 29.1525 21.4586 29.3925 21.2026V18.6706C28.4085 18.7026 27.5725 18.7826 26.8845 18.9106C26.1965 19.0306 25.6365 19.1906 25.2045 19.3906C24.7725 19.5906 24.4565 19.8266 24.2565 20.0986C24.0645 20.3706 23.9685 20.6746 23.9685 21.0106C23.9685 21.3306 24.0205 21.6066 24.1245 21.8386C24.2285 22.0706 24.3685 22.2626 24.5445 22.4146C24.7205 22.5586 24.9285 22.6666 25.1685 22.7386C25.4085 22.8026 25.6685 22.8346 25.9485 22.8346ZM34.7286 24.1426V11.9866H36.0006C36.3046 11.9866 36.4966 12.1346 36.5766 12.4306L36.7446 13.7506C37.2726 13.1666 37.8606 12.6946 38.5086 12.3346C39.1646 11.9746 39.9206 11.7946 40.7766 11.7946C41.4406 11.7946 42.0246 11.9066 42.5286 12.1306C43.0406 12.3466 43.4646 12.6586 43.8006 13.0666C44.1446 13.4666 44.4046 13.9506 44.5806 14.5186C44.7566 15.0866 44.8446 15.7146 44.8446 16.4026V24.1426H42.7086V16.4026C42.7086 15.4826 42.4966 14.7706 42.0726 14.2666C41.6566 13.7546 41.0166 13.4986 40.1526 13.4986C39.5206 13.4986 38.9286 13.6506 38.3766 13.9546C37.8326 14.2586 37.3286 14.6706 36.8646 15.1906V24.1426H34.7286ZM48.0645 24.1426V11.9866H49.3365C49.6405 11.9866 49.8325 12.1346 49.9125 12.4306L50.0805 13.7506C50.6085 13.1666 51.1965 12.6946 51.8445 12.3346C52.5005 11.9746 53.2565 11.7946 54.1125 11.7946C54.7765 11.7946 55.3605 11.9066 55.8645 12.1306C56.3765 12.3466 56.8005 12.6586 57.1365 13.0666C57.4805 13.4666 57.7405 13.9506 57.9165 14.5186C58.0925 15.0866 58.1805 15.7146 58.1805 16.4026V24.1426H56.0445V16.4026C56.0445 15.4826 55.8325 14.7706 55.4085 14.2666C54.9925 13.7546 54.3525 13.4986 53.4885 13.4986C52.8565 13.4986 52.2645 13.6506 51.7125 13.9546C51.1685 14.2586 50.6645 14.6706 50.2005 15.1906V24.1426H48.0645ZM63.7764 11.9866V24.1426H61.6404V11.9866H63.7764ZM64.2564 8.17058C64.2564 8.37858 64.2124 8.57458 64.1244 8.75858C64.0444 8.93458 63.9324 9.09458 63.7884 9.23858C63.6524 9.37458 63.4924 9.48258 63.3084 9.56258C63.1244 9.64258 62.9284 9.68258 62.7204 9.68258C62.5124 9.68258 62.3164 9.64258 62.1324 9.56258C61.9564 9.48258 61.7964 9.37458 61.6524 9.23858C61.5164 9.09458 61.4084 8.93458 61.3284 8.75858C61.2484 8.57458 61.2084 8.37858 61.2084 8.17058C61.2084 7.96258 61.2484 7.76658 61.3284 7.58258C61.4084 7.39058 61.5164 7.22658 61.6524 7.09058C61.7964 6.94658 61.9564 6.83458 62.1324 6.75458C62.3164 6.67458 62.5124 6.63458 62.7204 6.63458C62.9284 6.63458 63.1244 6.67458 63.3084 6.75458C63.4924 6.83458 63.6524 6.94658 63.7884 7.09058C63.9324 7.22658 64.0444 7.39058 64.1244 7.58258C64.2124 7.76658 64.2564 7.96258 64.2564 8.17058ZM67.5411 24.1426V11.9866H68.8131C69.1171 11.9866 69.3091 12.1346 69.3891 12.4306L69.5571 13.7506C70.0851 13.1666 70.6731 12.6946 71.3211 12.3346C71.9771 11.9746 72.7331 11.7946 73.5891 11.7946C74.2531 11.7946 74.8371 11.9066 75.3411 12.1306C75.8531 12.3466 76.2771 12.6586 76.6131 13.0666C76.9571 13.4666 77.2171 13.9506 77.3931 14.5186C77.5691 15.0866 77.6571 15.7146 77.6571 16.4026V24.1426H75.5211V16.4026C75.5211 15.4826 75.3091 14.7706 74.8851 14.2666C74.4691 13.7546 73.8291 13.4986 72.9651 13.4986C72.3331 13.4986 71.7411 13.6506 71.1891 13.9546C70.6451 14.2586 70.1411 14.6706 69.6771 15.1906V24.1426H67.5411ZM84.969 11.7826C85.497 11.7826 85.989 11.8426 86.445 11.9626C86.909 12.0746 87.329 12.2426 87.705 12.4666H91.005V13.2586C91.005 13.5226 90.837 13.6906 90.501 13.7626L89.121 13.9546C89.393 14.4746 89.529 15.0546 89.529 15.6946C89.529 16.2866 89.413 16.8266 89.181 17.3146C88.957 17.7946 88.641 18.2066 88.233 18.5506C87.833 18.8946 87.353 19.1586 86.793 19.3426C86.241 19.5266 85.633 19.6186 84.969 19.6186C84.401 19.6186 83.865 19.5506 83.361 19.4146C83.105 19.5746 82.909 19.7466 82.773 19.9306C82.645 20.1146 82.581 20.2946 82.581 20.4706C82.581 20.7586 82.697 20.9786 82.929 21.1306C83.161 21.2746 83.469 21.3786 83.853 21.4426C84.237 21.5066 84.673 21.5466 85.161 21.5626C85.649 21.5786 86.145 21.6066 86.649 21.6466C87.161 21.6786 87.661 21.7386 88.149 21.8266C88.637 21.9146 89.073 22.0586 89.457 22.2586C89.841 22.4586 90.149 22.7346 90.381 23.0866C90.613 23.4386 90.729 23.8946 90.729 24.4546C90.729 24.9746 90.597 25.4786 90.333 25.9666C90.077 26.4546 89.705 26.8866 89.217 27.2626C88.729 27.6466 88.133 27.9506 87.429 28.1746C86.725 28.4066 85.929 28.5226 85.041 28.5226C84.153 28.5226 83.373 28.4346 82.701 28.2586C82.037 28.0826 81.485 27.8466 81.045 27.5506C80.605 27.2546 80.273 26.9106 80.049 26.5186C79.833 26.1346 79.725 25.7306 79.725 25.3066C79.725 24.7066 79.913 24.1986 80.289 23.7826C80.673 23.3586 81.197 23.0226 81.861 22.7746C81.517 22.6146 81.241 22.4026 81.033 22.1386C80.833 21.8666 80.733 21.5066 80.733 21.0586C80.733 20.8826 80.765 20.7026 80.829 20.5186C80.893 20.3266 80.989 20.1386 81.117 19.9546C81.253 19.7706 81.417 19.5946 81.609 19.4266C81.801 19.2586 82.025 19.1106 82.281 18.9826C81.681 18.6466 81.209 18.2026 80.865 17.6506C80.529 17.0906 80.361 16.4386 80.361 15.6946C80.361 15.1026 80.473 14.5666 80.697 14.0866C80.929 13.5986 81.249 13.1866 81.657 12.8506C82.065 12.5066 82.549 12.2426 83.109 12.0586C83.677 11.8746 84.297 11.7826 84.969 11.7826ZM88.761 24.8026C88.761 24.4986 88.677 24.2546 88.509 24.0706C88.341 23.8866 88.113 23.7466 87.825 23.6506C87.537 23.5466 87.205 23.4706 86.829 23.4226C86.453 23.3746 86.057 23.3426 85.641 23.3266C85.225 23.3026 84.801 23.2786 84.369 23.2546C83.937 23.2306 83.525 23.1866 83.133 23.1226C82.677 23.3386 82.305 23.6026 82.017 23.9146C81.737 24.2266 81.597 24.5986 81.597 25.0306C81.597 25.3026 81.665 25.5546 81.801 25.7866C81.945 26.0266 82.161 26.2306 82.449 26.3986C82.737 26.5746 83.097 26.7106 83.529 26.8066C83.969 26.9106 84.485 26.9626 85.077 26.9626C85.653 26.9626 86.169 26.9106 86.625 26.8066C87.081 26.7026 87.465 26.5546 87.777 26.3626C88.097 26.1706 88.341 25.9426 88.509 25.6786C88.677 25.4146 88.761 25.1226 88.761 24.8026ZM84.969 18.2026C85.401 18.2026 85.781 18.1426 86.109 18.0226C86.445 17.9026 86.725 17.7346 86.949 17.5186C87.173 17.3026 87.341 17.0466 87.453 16.7506C87.565 16.4466 87.621 16.1146 87.621 15.7546C87.621 15.0106 87.393 14.4186 86.937 13.9786C86.489 13.5386 85.833 13.3186 84.969 13.3186C84.113 13.3186 83.457 13.5386 83.001 13.9786C82.553 14.4186 82.329 15.0106 82.329 15.7546C82.329 16.1146 82.385 16.4466 82.497 16.7506C82.617 17.0466 82.789 17.3026 83.013 17.5186C83.237 17.7346 83.513 17.9026 83.841 18.0226C84.169 18.1426 84.545 18.2026 84.969 18.2026Z" fill="white"/>
<path d="M106.226 14.6426L112 20.4161L117.774 14.6426L112 8.86908L106.226 14.6426ZM289.773 14.6426L284 8.86908L278.227 14.6426L284 20.4161L289.773 14.6426ZM112 15.6426H113.955V13.6426H112V15.6426ZM117.864 15.6426H121.773V13.6426H117.864V15.6426ZM125.682 15.6426H129.591V13.6426H125.682V15.6426ZM133.5 15.6426H137.409V13.6426H133.5V15.6426ZM141.318 15.6426H145.227V13.6426H141.318V15.6426ZM149.136 15.6426H153.045V13.6426H149.136V15.6426ZM156.955 15.6426H160.864V13.6426H156.955V15.6426ZM164.773 15.6426H168.682V13.6426H164.773V15.6426ZM172.591 15.6426H176.5V13.6426H172.591V15.6426ZM180.409 15.6426H184.318V13.6426H180.409V15.6426ZM188.227 15.6426H192.136V13.6426H188.227V15.6426ZM196.045 15.6426H199.955V13.6426H196.045V15.6426ZM203.864 15.6426H207.773V13.6426H203.864V15.6426ZM211.682 15.6426H215.591V13.6426H211.682V15.6426ZM219.5 15.6426H223.409V13.6426H219.5V15.6426ZM227.318 15.6426H231.227V13.6426H227.318V15.6426ZM235.136 15.6426H239.045V13.6426H235.136V15.6426ZM242.955 15.6426H246.864V13.6426H242.955V15.6426ZM250.773 15.6426H254.682V13.6426H250.773V15.6426ZM258.591 15.6426H262.5V13.6426H258.591V15.6426ZM266.409 15.6426H270.318V13.6426H266.409V15.6426ZM274.227 15.6426H278.136V13.6426H274.227V15.6426ZM282.045 15.6426H284V13.6426H282.045V15.6426Z" fill="white"/>
</svg>
