<svg width="65" height="71" viewBox="0 0 65 71" fill="none" xmlns="http://www.w3.org/2000/svg">
<g id="Group">
<path id="Vector" d="M63.8901 27.1239L57.8684 26.5435C57.2292 23.9796 56.1978 21.5298 54.8109 19.2807L58.6493 14.647C58.8311 14.4277 58.9246 14.1485 58.9114 13.864C58.8982 13.5794 58.7792 13.3101 58.5778 13.1087L52.0645 6.59481C51.863 6.39352 51.5937 6.27463 51.3092 6.2614C51.0247 6.24818 50.7455 6.34158 50.5262 6.52332L45.8891 10.3629C43.6358 8.986 41.1887 7.95501 38.6295 7.30432L38.0488 1.27405C38.0215 0.990965 37.8896 0.728233 37.679 0.537095C37.4684 0.345957 37.1942 0.240123 36.9098 0.240234H28.0081C27.7239 0.240207 27.4497 0.346093 27.2393 0.537235C27.0289 0.728377 26.8972 0.991063 26.8699 1.27405L26.2884 7.30418C23.7291 7.95466 21.282 8.98572 19.0289 10.3629L14.3917 6.52217C14.1724 6.3405 13.8933 6.24715 13.6088 6.26038C13.3244 6.2736 13.0551 6.39244 12.8536 6.59367L6.34044 13.1082C6.13909 13.3098 6.02017 13.5791 6.00695 13.8637C5.99373 14.1482 6.08715 14.4275 6.26894 14.6468L10.1061 19.2801C8.71806 21.5293 7.68599 23.9796 7.04637 26.5441L1.02782 27.125C0.74545 27.1525 0.483515 27.2844 0.293378 27.495C0.10324 27.7055 -0.00138521 27.9795 1.69075e-05 28.2632V37.4973C-0.0015289 37.781 0.102972 38.055 0.293016 38.2655C0.483061 38.4761 0.744931 38.6081 1.02725 38.6355L7.05281 39.2165C7.70264 41.7757 8.73297 44.2228 10.1093 46.476L6.26809 51.1125C6.0786 51.3412 5.98549 51.6346 6.00844 51.9308C6.03139 52.2269 6.16859 52.5025 6.39106 52.6993L11.3313 57.069C11.4522 57.1759 11.5943 57.2561 11.7483 57.3042C11.9023 57.3523 12.0648 57.3673 12.225 57.3482C12.3852 57.3289 12.5395 57.276 12.6779 57.1929C12.8162 57.1099 12.9354 56.9985 13.0278 56.8662L20.128 46.6782C20.2815 46.4578 20.3525 46.1904 20.3288 45.9228C20.305 45.6553 20.1879 45.4046 19.9979 45.2147C13.1859 38.4027 13.1852 27.3574 19.9979 20.5447C26.8105 13.732 37.8558 13.732 44.6685 20.5447C51.4812 27.3574 51.4812 38.4026 44.6685 45.2147C44.4763 45.4069 44.3587 45.6612 44.3369 45.9321C44.3151 46.203 44.3905 46.4728 44.5495 46.6932L51.8995 56.8806C51.9929 57.0102 52.1124 57.1188 52.2504 57.1993C52.3883 57.2799 52.5416 57.3306 52.7004 57.3483C52.8591 57.366 53.0198 57.3502 53.1721 57.302C53.3244 57.2538 53.4649 57.1742 53.5846 57.0684L58.5267 52.7005C58.7493 52.5036 58.8866 52.2279 58.9096 51.9317C58.9325 51.6354 58.8393 51.3418 58.6497 51.113L54.8096 46.4759C56.1865 44.2228 57.2174 41.7757 57.8677 39.2165L63.89 38.6357C64.1723 38.6082 64.4341 38.4762 64.6241 38.2656C64.8142 38.055 64.9186 37.781 64.917 37.4973V28.2622C64.9185 27.9786 64.814 27.7047 64.624 27.4941C64.434 27.2835 64.1722 27.1515 63.89 27.1239H63.8901ZM62.6294 36.4578L56.8277 37.0175C56.5876 37.0406 56.361 37.1394 56.1806 37.2997C56.0002 37.4599 55.8753 37.6732 55.8239 37.909C55.1931 40.7693 54.0467 43.4907 52.4408 45.9403C52.307 46.1448 52.2422 46.3869 52.256 46.631C52.2698 46.8751 52.3614 47.1083 52.5175 47.2965L56.1816 51.7196L53.0162 54.5179L46.9603 46.1241C53.9725 38.3887 53.748 26.3882 46.2863 18.9266C38.5928 11.2331 26.0739 11.2331 18.3805 18.9266C10.9148 26.3921 10.6943 38.4016 17.7169 46.1359L11.885 54.504L8.73593 51.7192L12.3995 47.2959C12.5554 47.1076 12.6469 46.8742 12.6605 46.6301C12.6742 46.386 12.6094 46.1439 12.4755 45.9393C10.8692 43.49 9.72185 40.7689 9.08955 37.909C9.03894 37.6736 8.91481 37.4604 8.73511 37.3001C8.5554 37.1399 8.3294 37.0409 8.08977 37.0175L2.28798 36.4578V29.3022L8.08977 28.742C8.33085 28.7187 8.55825 28.6192 8.73894 28.4579C8.91963 28.2966 9.04419 28.0819 9.09455 27.845C9.71026 24.9843 10.8567 22.2643 12.4744 19.8259C12.6098 19.621 12.6757 19.378 12.6625 19.1328C12.6492 18.8875 12.5574 18.6531 12.4006 18.464L8.69461 13.9895L13.735 8.94855L18.2095 12.654C18.3977 12.8101 18.6309 12.9018 18.875 12.9155C19.1192 12.9292 19.3612 12.8642 19.5656 12.73C22.0148 11.1237 24.7359 9.97649 27.5959 9.34463C27.8318 9.29246 28.0452 9.16691 28.2053 8.98599C28.3655 8.80507 28.4643 8.57808 28.4874 8.33756L29.0471 2.52863H35.871L36.4312 8.33756C36.4544 8.57797 36.553 8.80489 36.713 8.98579C36.8731 9.1667 37.0862 9.29231 37.322 9.34463C40.1823 9.97658 42.9036 11.1239 45.3529 12.7306C45.5573 12.8648 45.7994 12.9298 46.0435 12.9161C46.2877 12.9024 46.521 12.8107 46.7091 12.6545L51.1831 8.94913L56.2235 13.9895L52.518 18.464C52.3616 18.6532 52.27 18.8876 52.2569 19.1327C52.2439 19.3778 52.3099 19.6206 52.4454 19.8253C54.0634 22.2639 55.2102 24.984 55.8262 27.845C55.8757 28.0816 55.9995 28.2963 56.1796 28.4576C56.3596 28.619 56.5865 28.7186 56.8272 28.742L62.6294 29.3016V36.4578Z" fill="#373737"/>
<path id="Vector_2" d="M36.448 53.0104V35.6414C39.3313 33.9764 41.2242 30.8155 41.2242 27.558C41.2242 23.1069 38.6789 19.8652 34.4154 18.8872C34.2405 18.847 34.0585 18.8484 33.8843 18.8915C33.71 18.9346 33.5483 19.018 33.4122 19.1351C33.2764 19.2525 33.17 19.4001 33.1016 19.5661C33.0332 19.732 33.0047 19.9117 33.0184 20.0907L33.3966 24.9452C32.9262 25.192 32.4029 25.3211 31.8716 25.3213C31.3404 25.3214 30.817 25.1927 30.3464 24.9462L30.7531 20.0651C30.7685 19.8803 30.7387 19.6944 30.6663 19.5236C30.5939 19.3528 30.481 19.2022 30.3374 19.0848C30.1939 18.9673 30.0241 18.8865 29.8424 18.8494C29.6608 18.8122 29.4728 18.8198 29.2947 18.8715C25.3954 20.0008 22.9663 23.3543 22.9663 27.6245C22.9663 31.5439 25.0229 34.7142 28.4547 36.0882V53.3904C26.0238 54.8253 23.6817 57.737 23.7186 61.442C23.7186 65.8568 26.2355 69.1204 30.4436 70.1732C30.6197 70.2172 30.8037 70.2188 30.9805 70.1779C31.1572 70.1369 31.3218 70.0545 31.4605 69.9376C31.5992 69.8206 31.7082 69.6723 31.7784 69.505C31.8487 69.3377 31.8782 69.1561 31.8645 68.9751L31.488 64.1213C31.9585 63.8745 32.4817 63.7454 33.0129 63.7451C33.5442 63.7448 34.0676 63.8733 34.5383 64.1196L34.1318 69.0013C34.1163 69.1861 34.146 69.372 34.2184 69.5428C34.2908 69.7136 34.4037 69.8642 34.5473 69.9816C34.6908 70.0991 34.8607 70.1799 35.0423 70.2171C35.224 70.2542 35.412 70.2466 35.5901 70.1949C39.4704 69.0706 41.9045 65.7338 41.9435 61.4743C41.9441 57.5544 39.8608 54.3846 36.448 53.0107V53.0104ZM36.5703 67.2881L36.8749 63.6302C36.8908 63.4387 36.8583 63.2462 36.7803 63.0706C36.7023 62.895 36.5813 62.7419 36.4284 62.6254L36.3855 62.5925C34.3713 61.0637 31.5808 61.0821 29.5873 62.6371C29.4398 62.7535 29.3233 62.9045 29.248 63.0766C29.1727 63.2487 29.1409 63.4367 29.1554 63.624L29.4477 67.3871C27.2453 66.2895 26.0137 64.1927 26.0137 61.4307C25.9841 58.4212 28.1032 56.049 30.0912 55.1173C30.2873 55.0247 30.4529 54.878 30.5683 54.6944C30.6838 54.5109 30.7444 54.2981 30.7429 54.0812V35.2776C30.7443 35.0325 30.6665 34.7936 30.5212 34.5963C30.3759 34.3989 30.1709 34.2538 29.9365 34.1823C27.0481 33.3103 25.258 30.7975 25.258 27.6232C25.258 25.0667 26.3952 22.9532 28.3127 21.7769L28.0095 25.4348C27.9935 25.6265 28.0261 25.8192 28.1044 25.995C28.1827 26.1707 28.3041 26.3238 28.4574 26.4402L28.4998 26.4726C30.5111 28.0009 33.2988 27.9846 35.2918 26.4336L35.3226 26.409C35.4629 26.2919 35.5732 26.1429 35.6442 25.9745C35.7152 25.8061 35.7449 25.6232 35.7308 25.4409L35.4348 21.6379C37.6812 22.6907 38.9375 24.7779 38.9375 27.5585C38.9375 30.1501 37.2423 32.7653 34.8148 33.9181C34.6194 34.0109 34.4543 34.1573 34.3387 34.3402C34.2232 34.5231 34.1618 34.7351 34.1619 34.9514V53.8203C34.162 54.0659 34.2411 54.305 34.3875 54.5021C34.534 54.6993 34.74 54.8441 34.9751 54.9151C37.8639 55.7877 39.6574 58.3005 39.6574 61.464C39.6328 64.0095 38.4862 66.1158 36.5709 67.2881H36.5703Z" fill="#373737"/>
</g>
</svg>
