<svg width="70" height="70" viewBox="0 0 70 70" fill="none" xmlns="http://www.w3.org/2000/svg">
<g id="Group">
<path id="Vector" fill-rule="evenodd" clip-rule="evenodd" d="M35.0237 60.9975C34.9889 61.0455 34.9503 61.0907 34.9084 61.1326L31.409 64.632C31.2478 64.7932 31.0415 64.9019 30.8174 64.9436C30.5933 64.9854 30.3618 64.9583 30.1533 64.866L27.7145 63.7857C26.5173 64.4659 25.2404 64.995 23.9129 65.3607L22.9553 67.8483C22.8734 68.0613 22.7289 68.2445 22.5408 68.3736C22.3527 68.5028 22.1299 68.5719 21.9017 68.5719H16.9516C16.7234 68.5719 16.5006 68.5028 16.3125 68.3736C16.1244 68.2444 15.9798 68.0613 15.8979 67.8483L14.9405 65.3608C13.6125 64.9935 12.3347 64.4642 11.1359 63.7848L8.69496 64.866C8.48651 64.9583 8.255 64.9854 8.03088 64.9436C7.80676 64.9019 7.60053 64.7932 7.43933 64.632L3.9399 61.1326C3.77851 60.9712 3.66983 60.7647 3.62819 60.5403C3.58654 60.3159 3.61388 60.0841 3.70661 59.8755L4.79063 57.4373C4.11094 56.24 3.58107 54.9637 3.21294 53.6371L0.723568 52.679C0.510604 52.597 0.327466 52.4525 0.198296 52.2644C0.0691261 52.0763 -1.05806e-05 51.8535 1.21454e-09 51.6253V46.6752C9.0073e-06 46.447 0.0691534 46.2242 0.198321 46.0361C0.327488 45.848 0.510615 45.7035 0.723568 45.6215L3.21252 44.6635C3.58071 43.3354 4.11087 42.0576 4.79105 40.859L3.70661 38.42C3.61388 38.2114 3.58654 37.9797 3.62819 37.7553C3.66983 37.5309 3.77851 37.3243 3.9399 37.1629L7.43933 33.6635C7.60073 33.5021 7.80724 33.3934 8.03165 33.3518C8.25606 33.3101 8.48782 33.3375 8.69637 33.4302L8.95887 33.5469L8.95859 33.4124C8.95859 18.1945 21.3698 5.78347 36.5876 5.78347C51.8055 5.78347 64.2165 18.1945 64.2165 33.4124C64.2165 48.6302 51.8055 61.0414 36.5876 61.0414C36.0628 61.0414 35.5415 61.0266 35.0237 60.9975ZM11.238 34.4569C12.3726 33.8232 13.5774 33.3241 14.8279 32.97C15.0633 21.1514 24.7125 11.6482 36.5876 11.6482C48.6105 11.6482 58.3518 21.3895 58.3518 33.4124C58.3518 45.4354 48.6105 55.1767 36.5876 55.1767C36.1033 55.1767 35.6229 55.1607 35.1466 55.1297C34.8432 55.9246 34.4804 56.6955 34.0612 57.436L34.6246 58.708C35.2725 58.7579 35.9272 58.7833 36.5876 58.7833C50.5617 58.7833 61.9585 47.3866 61.9585 33.4124C61.9585 19.4383 50.5617 8.04153 36.5876 8.04153C22.6134 8.04153 11.2167 19.4383 11.2167 33.4124C11.2167 33.7623 11.2239 34.1105 11.238 34.4569ZM17.4296 29.7236H21.9017C22.369 29.7236 22.788 30.0115 22.9556 30.4477L23.9133 32.9401C25.2399 33.3063 26.5162 33.8352 27.7129 34.5147L30.1519 33.4302C30.3605 33.3375 30.5922 33.3101 30.8167 33.3518C31.0411 33.3934 31.2476 33.5021 31.409 33.6635L34.9084 37.1629C35.0696 37.3241 35.1783 37.5304 35.22 37.7545C35.2618 37.9786 35.2347 38.2101 35.1424 38.4186L34.0618 40.8581C34.7424 42.0568 35.2717 43.3352 35.6375 44.6642L38.1247 45.6215C38.3377 45.7035 38.5208 45.848 38.65 46.0361C38.7792 46.2242 38.8483 46.447 38.8483 46.6752V51.6253C38.8483 51.8535 38.7792 52.0763 38.65 52.2644C38.5208 52.4525 38.3377 52.597 38.1247 52.679L37.565 52.8945C47.8861 52.3855 56.0937 43.8602 56.0937 33.4124C56.0937 22.637 47.363 13.9063 36.5876 13.9063C27.0733 13.9063 19.1532 20.7128 17.4296 29.7236ZM22.0143 34.2935L21.126 31.9817H17.7261L16.8334 34.2951C16.7674 34.466 16.6608 34.6184 16.5228 34.7389C16.3847 34.8595 16.2194 34.9446 16.0411 34.987C14.5431 35.3428 13.1117 35.936 11.8011 36.7441C11.6448 36.8404 11.4674 36.8971 11.2843 36.9094C11.1012 36.9216 10.9178 36.8891 10.7501 36.8145L8.48764 35.8085L6.08492 38.2113L7.09089 40.4737C7.16546 40.6414 7.19802 40.8248 7.18575 41.0079C7.17348 41.191 7.11675 41.3684 7.02046 41.5247C6.21163 42.8382 5.61664 44.2719 5.25776 45.7721C5.21505 45.9501 5.12973 46.115 5.00914 46.2527C4.88856 46.3903 4.73631 46.4966 4.56552 46.5624L2.25806 47.4504V50.8501L4.56552 51.7382C4.73618 51.8039 4.88833 51.91 5.00889 52.0475C5.12945 52.185 5.21481 52.3497 5.25762 52.5275C5.61835 54.0262 6.2101 55.4603 7.01948 56.7693C7.11618 56.9257 7.17323 57.1033 7.18568 57.2867C7.19812 57.4701 7.16558 57.6538 7.09089 57.8218L6.08492 60.0843L8.48849 62.4878L10.7515 61.4854C10.9186 61.4114 11.1013 61.379 11.2837 61.3911C11.4661 61.4032 11.6428 61.4595 11.7987 61.555C13.1124 62.36 14.5418 62.9571 16.0454 63.3133C16.224 63.3557 16.3896 63.4409 16.5278 63.5617C16.6661 63.6825 16.7728 63.8351 16.8388 64.0064L17.7268 66.3139H21.1265L22.0146 64.0064C22.0805 63.8352 22.1871 63.6827 22.3252 63.562C22.4633 63.4413 22.6287 63.356 22.8072 63.3136C24.3049 62.9587 25.7359 62.3658 27.0457 61.5574C27.2018 61.4608 27.3792 61.4038 27.5623 61.3913C27.7455 61.3787 27.929 61.411 28.0968 61.4854L30.3598 62.4878L32.7642 60.0834L31.7618 57.8204C31.6877 57.6533 31.6554 57.4707 31.6675 57.2883C31.6796 57.1059 31.7359 56.9291 31.8314 56.7733C32.6364 55.4593 33.2336 54.0298 33.59 52.5308C33.6324 52.3523 33.7176 52.1869 33.8383 52.0488C33.9591 51.9107 34.1116 51.8041 34.2828 51.7382L36.5902 50.8501V47.4504L34.2828 46.5624C34.1115 46.4964 33.9588 46.3897 33.8381 46.2515C33.7173 46.1132 33.6321 45.9476 33.5897 45.769C33.2348 44.2694 32.6416 42.8364 31.8328 41.5247C31.7366 41.3686 31.6799 41.1915 31.6676 41.0087C31.6552 40.8258 31.6875 40.6427 31.7618 40.4751L32.7642 38.2121L30.3607 35.8085L28.0982 36.8145C27.9305 36.8891 27.7472 36.9216 27.564 36.9094C27.3809 36.8971 27.2035 36.8404 27.0472 36.7441C25.7366 35.936 24.3052 35.3428 22.8072 34.987C22.6286 34.9446 22.463 34.8592 22.3249 34.7384C22.1867 34.6176 22.0801 34.4648 22.0143 34.2935ZM19.4242 39.3846C24.8185 39.3846 29.1923 43.7534 29.1923 49.1478C29.1923 54.5419 24.8184 58.9159 19.4242 58.9159C14.0298 58.9159 9.66099 54.5421 9.66099 49.1478C9.66099 43.7532 14.0296 39.3846 19.4242 39.3846ZM19.4242 41.6427C15.2774 41.6427 11.9191 45.001 11.9191 49.1478C11.9191 53.2948 15.2771 56.6578 19.4242 56.6578C23.5714 56.6578 26.9342 53.295 26.9342 49.1478C26.9342 45.0007 23.5712 41.6427 19.4242 41.6427ZM35.4585 16.9836C35.4585 16.3605 35.9645 15.8546 36.5876 15.8546C37.2106 15.8546 37.7166 16.3605 37.7166 16.9836V18.7624C37.7166 19.3855 37.2106 19.8914 36.5876 19.8914C35.9645 19.8914 35.4585 19.3855 35.4585 18.7624V16.9836ZM35.4585 25.6067C35.4585 24.9835 35.9645 24.4777 36.5876 24.4777C37.2106 24.4777 37.7166 24.9835 37.7166 25.6067V32.7606L42.3678 35.4451C42.9075 35.7566 43.0928 36.4477 42.7813 36.9874C42.4698 37.5271 41.7787 37.7124 41.239 37.4007L36.0232 34.3903C35.8515 34.2912 35.7089 34.1487 35.6098 33.977C35.5107 33.8054 35.4585 33.6107 35.4585 33.4124V25.6067ZM47.4107 20.9925C47.8513 20.5519 48.5669 20.5519 49.0075 20.9925C49.4481 21.4331 49.4481 22.1486 49.0075 22.5893L47.7455 23.8512C47.5337 24.0628 47.2466 24.1817 46.9472 24.1817C46.6478 24.1817 46.3607 24.0628 46.1489 23.8512C45.9373 23.6394 45.8184 23.3523 45.8184 23.0529C45.8184 22.7535 45.9373 22.4663 46.1489 22.2545L47.4107 20.9925ZM49.0075 44.2356C49.4481 44.6762 49.4481 45.3918 49.0075 45.8324C48.5669 46.273 47.8513 46.273 47.4107 45.8324L46.1489 44.5704C45.9373 44.3586 45.8184 44.0714 45.8184 43.772C45.8184 43.4726 45.9373 43.1854 46.1489 42.9736C46.3607 42.762 46.6478 42.6432 46.9472 42.6432C47.2466 42.6432 47.5337 42.762 47.7455 42.9736L49.0075 44.2356ZM24.1676 22.5893C23.956 22.3774 23.8372 22.0903 23.8372 21.7909C23.8372 21.4915 23.956 21.2043 24.1676 20.9925C24.3794 20.7809 24.6666 20.662 24.966 20.662C25.2654 20.662 25.5526 20.7809 25.7644 20.9925L27.0264 22.2545C27.238 22.4663 27.3568 22.7535 27.3568 23.0529C27.3568 23.3523 27.238 23.6394 27.0264 23.8512C26.8145 24.0628 26.5274 24.1817 26.228 24.1817C25.9286 24.1817 25.6414 24.0628 25.4296 23.8512L24.1676 22.5893ZM53.0223 32.2834C53.6455 32.2834 54.1513 32.7894 54.1513 33.4124C54.1513 34.0355 53.6455 34.5415 53.0223 34.5415H51.2376C50.6145 34.5415 50.1086 34.0355 50.1086 33.4124C50.1086 32.7894 50.6145 32.2834 51.2376 32.2834H53.0223ZM38.5577 64.5054C54.836 63.4875 67.7419 49.9453 67.7419 33.4124C67.7419 16.2178 53.7822 2.25806 36.5876 2.25806C19.393 2.25806 5.43319 16.2178 5.43319 33.4124C5.43319 34.0355 4.92724 34.5415 4.30415 34.5415C3.68107 34.5415 3.17512 34.0355 3.17512 33.4124C3.17512 14.9717 18.1468 0 36.5876 0C55.0283 0 70 14.9717 70 33.4124C70 51.1838 56.0955 65.7334 38.5814 66.7662L39.4296 67.6145C39.8702 68.0551 39.8702 68.7705 39.4296 69.2111C38.989 69.6517 38.2735 69.6517 37.8329 69.2111L35.0442 66.4224C34.9393 66.3175 34.8562 66.1931 34.7994 66.0561C34.7427 65.9191 34.7135 65.7723 34.7135 65.624C34.7135 65.4757 34.7427 65.3289 34.7994 65.1919C34.8562 65.055 34.9393 64.9305 35.0442 64.8256L37.9444 61.9253C38.3851 61.4847 39.1005 61.4847 39.5411 61.9253C39.9817 62.3659 39.9817 63.0814 39.5411 63.522L38.5577 64.5054Z" fill="black"/>
</g>
</svg>
