<svg width="70" height="70" viewBox="0 0 70 70" fill="none" xmlns="http://www.w3.org/2000/svg">
<g id="Group">
<path id="Vector" d="M57.5811 63.2261H59.8392V65.4842H57.5811V63.2261ZM53.065 63.2261H55.323V65.4842H53.065V63.2261ZM48.5488 63.2261H50.8069V65.4842H48.5488V63.2261ZM48.5488 58.71H59.8392V60.968H48.5488V58.71Z" fill="#373737"/>
<path id="Vector_2" d="M70 12.4194C70 10.5519 68.4803 9.03226 66.6129 9.03226V6.77419C68.4803 6.77419 70 5.25452 70 3.3871C70 1.51968 68.4803 0 66.6129 0H48.5484C46.681 0 45.1613 1.51968 45.1613 3.3871C45.1613 5.25452 46.681 6.77419 48.5484 6.77419V9.03226C47.8502 9.0345 47.1698 9.25273 46.6006 9.65702C46.0313 10.0613 45.6011 10.6318 45.369 11.2903H44.0323C40.9195 11.2903 38.3871 13.8227 38.3871 16.9355V40.6452H36.129V16.9355C36.129 13.8227 33.5966 11.2903 30.4839 11.2903H29.3548V3.3871C29.3548 1.51968 27.8352 0 25.9677 0H3.3871C1.51968 0 0 1.51968 0 3.3871V19.1935C0 21.061 1.51968 22.5806 3.3871 22.5806H25.9677C27.8352 22.5806 29.3548 21.061 29.3548 19.1935V13.5484H30.4839C32.3513 13.5484 33.871 15.0681 33.871 16.9355V40.6452H31.6129V35C31.6129 31.8873 29.0805 29.3548 25.9677 29.3548H22.4666C22.2046 28.0808 21.5115 26.936 20.5039 26.1134C19.4964 25.2908 18.2362 24.8406 16.9355 24.8387H7.90323C4.79048 24.8387 2.25806 27.3711 2.25806 30.4839C2.25806 33.5966 4.79048 36.129 7.90323 36.129H22.5806V31.6129H25.9677C27.8352 31.6129 29.3548 33.1326 29.3548 35V40.6452H6.07645L0.43129 51.9355H5.64516V70H64.3548V51.9355H69.5687L63.9235 40.6452H45.1613V37.2581C45.1613 35.3906 46.681 33.871 48.5484 33.871H49.7915C50.0535 35.145 50.7466 36.2898 51.7541 37.1124C52.7616 37.935 54.0219 38.3852 55.3226 38.3871C58.4353 38.3871 60.9677 35.8547 60.9677 32.7419C60.9677 29.6292 58.4353 27.0968 55.3226 27.0968C54.022 27.0989 52.7618 27.5492 51.7543 28.3717C50.7469 29.1943 50.0537 30.339 49.7915 31.6129H48.5484C45.4356 31.6129 42.9032 34.1453 42.9032 37.2581V40.6452H40.6452V16.9355C40.6452 15.0681 42.1648 13.5484 44.0323 13.5484H45.369C45.6011 14.2069 46.0313 14.7774 46.6006 15.1817C47.1698 15.586 47.8502 15.8042 48.5484 15.8065V18.0645C46.681 18.0645 45.1613 19.5842 45.1613 21.4516C45.1613 23.319 46.681 24.8387 48.5484 24.8387H66.6129C68.4803 24.8387 70 23.319 70 21.4516C70 19.5842 68.4803 18.0645 66.6129 18.0645V15.8065C68.4803 15.8065 70 14.2868 70 12.4194ZM27.0968 19.1935C27.0968 19.493 26.9778 19.7802 26.7661 19.9919C26.5544 20.2036 26.2672 20.3226 25.9677 20.3226H3.3871C3.08766 20.3226 2.80048 20.2036 2.58875 19.9919C2.37702 19.7802 2.25806 19.493 2.25806 19.1935V3.3871C2.25806 3.08766 2.37702 2.80048 2.58875 2.58875C2.80048 2.37702 3.08766 2.25806 3.3871 2.25806H25.9677C26.2672 2.25806 26.5544 2.37702 26.7661 2.58875C26.9778 2.80048 27.0968 3.08766 27.0968 3.3871V19.1935ZM20.3226 33.871H7.90323C6.03581 33.871 4.51613 32.3513 4.51613 30.4839C4.51613 28.6165 6.03581 27.0968 7.90323 27.0968H16.9355C18.8029 27.0968 20.3226 28.6165 20.3226 30.4839V33.871ZM55.3226 29.3548C57.19 29.3548 58.7097 30.8745 58.7097 32.7419C58.7097 34.6094 57.19 36.129 55.3226 36.129C53.4552 36.129 51.9355 34.6094 51.9355 32.7419C51.9355 30.8745 53.4552 29.3548 55.3226 29.3548ZM7.47194 42.9032H24.141L20.7539 49.6774H4.08484L7.47194 42.9032ZM7.90323 51.9355H22.1494L25.9677 44.2987V67.7419H7.90323V51.9355ZM62.0968 67.7419H28.2258V44.2987L32.0442 51.9355H62.0968V67.7419ZM65.9152 49.6774H33.4397L30.0526 42.9032H62.5281L65.9152 49.6774ZM47.4194 3.3871C47.4194 3.08766 47.5383 2.80048 47.75 2.58875C47.9618 2.37702 48.2489 2.25806 48.5484 2.25806H66.6129C66.9123 2.25806 67.1995 2.37702 67.4112 2.58875C67.623 2.80048 67.7419 3.08766 67.7419 3.3871C67.7419 3.68653 67.623 3.97371 67.4112 4.18544C67.1995 4.39718 66.9123 4.51613 66.6129 4.51613H48.5484C48.2489 4.51613 47.9618 4.39718 47.75 4.18544C47.5383 3.97371 47.4194 3.68653 47.4194 3.3871ZM50.8064 6.77419H64.3548V9.03226H50.8064V6.77419ZM47.4194 12.4194C47.4194 12.1199 47.5383 11.8327 47.75 11.621C47.9618 11.4093 48.2489 11.2903 48.5484 11.2903H66.6129C66.9123 11.2903 67.1995 11.4093 67.4112 11.621C67.623 11.8327 67.7419 12.1199 67.7419 12.4194C67.7419 12.7188 67.623 13.006 67.4112 13.2177C67.1995 13.4294 66.9123 13.5484 66.6129 13.5484H48.5484C48.2489 13.5484 47.9618 13.4294 47.75 13.2177C47.5383 13.006 47.4194 12.7188 47.4194 12.4194ZM67.7419 21.4516C67.7419 21.7511 67.623 22.0382 67.4112 22.25C67.1995 22.4617 66.9123 22.5806 66.6129 22.5806H48.5484C48.2489 22.5806 47.9618 22.4617 47.75 22.25C47.5383 22.0382 47.4194 21.7511 47.4194 21.4516C47.4194 21.1522 47.5383 20.865 47.75 20.6533C47.9618 20.4415 48.2489 20.3226 48.5484 20.3226H66.6129C66.9123 20.3226 67.1995 20.4415 67.4112 20.6533C67.623 20.865 67.7419 21.1522 67.7419 21.4516ZM64.3548 18.0645H50.8064V15.8065H64.3548V18.0645Z" fill="#373737"/>
<path id="Vector_3" d="M18.065 6.77467H13.5489V9.03273H9.03273V11.2908H4.5166V18.065H24.8392V4.5166H18.065V6.77467ZM13.5489 11.2908V15.8069H11.2908V11.2908H13.5489ZM6.77467 13.5489H9.03273V15.8069H6.77467V13.5489ZM15.8069 15.8069V9.03273H18.065V15.8069H15.8069ZM20.3231 6.77467H22.5811V15.8069H20.3231V6.77467ZM6.77467 29.3553H9.03273V31.6134H6.77467V29.3553ZM11.2908 29.3553H13.5489V31.6134H11.2908V29.3553ZM15.8069 29.3553H18.065V31.6134H15.8069V29.3553ZM58.7102 45.1618H60.9682V47.4198H58.7102V45.1618ZM54.194 45.1618H56.4521V47.4198H54.194V45.1618ZM49.6779 45.1618H51.936V47.4198H49.6779V45.1618ZM10.1618 54.194H12.4198V56.4521H10.1618V54.194ZM10.1618 58.7102H12.4198V60.9682H10.1618V58.7102ZM10.1618 63.2263H12.4198V65.4843H10.1618V63.2263Z" fill="#373737"/>
</g>
</svg>
