<svg width="70" height="71" viewBox="0 0 70 71" fill="none" xmlns="http://www.w3.org/2000/svg">
<g id="Group">
<g id="Clip path group">
<mask id="mask0_879_572" style="mask-type:luminance" maskUnits="userSpaceOnUse" x="0" y="0" width="70" height="71">
<g id="a">
<path id="Vector" d="M69 69.2402V1.24023H1V69.2402H69Z" fill="white" stroke="white" stroke-width="2"/>
</g>
</mask>
<g mask="url(#mask0_879_572)">
<g id="Group_2">
<path id="Vector_2" d="M43.3408 43.7137L55.8879 51.263L68.4312 43.7137V58.4751L55.8879 66.0244L43.3408 58.4751V43.7137Z" fill="#373737" fill-opacity="0.01" stroke="#373737" stroke-width="2" stroke-miterlimit="10" stroke-linecap="round" stroke-linejoin="round"/>
<path id="Vector_3" d="M39.1831 28.8979C40.626 28.5762 41.9757 28.0065 43.1896 27.2393L44.0583 28.1035C44.5122 28.5608 45.2569 28.5608 45.7145 28.1035L48.0338 25.7859C48.4877 25.3326 48.4877 24.5884 48.0338 24.1312L47.1651 23.2631C47.9453 22.034 48.5082 20.6798 48.8291 19.2598H50.0547C50.6985 19.2598 51.2259 18.7328 51.2259 18.0894V14.8108C51.2259 14.1674 50.6985 13.6404 50.0547 13.6404H48.8291C48.5082 12.2204 47.9454 10.8662 47.1651 9.63713L48.0338 8.76896C48.4877 8.3156 48.4877 7.56762 48.0338 7.11412L45.7145 4.79674C45.2569 4.33941 44.5122 4.33941 44.0583 4.79674L43.1896 5.66094C41.9757 4.89353 40.626 4.32397 39.1831 4.00227V2.77768C39.1831 2.13428 38.6556 1.60723 38.0078 1.60723H34.7306C34.0828 1.60723 33.5553 2.13428 33.5553 2.77768V4.00227C32.1125 4.32397 30.7627 4.89353 29.5488 5.66094L28.6839 4.79674C28.2262 4.33941 27.4816 4.33941 27.0239 4.79674L24.7044 7.11412C24.2507 7.56762 24.2507 8.3156 24.7044 8.76896L25.5733 9.63713C24.793 10.8662 24.2302 12.2204 23.9094 13.6404H22.6837C22.0399 13.6404 21.5125 14.1674 21.5125 14.8108V18.0894C21.5125 18.7328 22.0399 19.2598 22.6837 19.2598H23.9094C24.2302 20.6798 24.793 22.034 25.5733 23.2631L24.7044 24.1312C24.2507 24.5884 24.2507 25.3326 24.7044 25.7859L27.0239 28.1035C27.4816 28.5608 28.2262 28.5608 28.6839 28.1035L29.5488 27.2393C30.7627 28.0065 32.1125 28.5762 33.5553 28.8979V30.1227C33.5553 30.7659 34.0828 31.293 34.7306 31.293H38.0078C38.6556 31.293 39.1831 30.7659 39.1831 30.1227V28.8979Z" fill="#373737" fill-opacity="0.01" stroke="#373737" stroke-width="2" stroke-miterlimit="10" stroke-linecap="round" stroke-linejoin="round"/>
<path id="Vector_4" d="M16.8503 39.0127C18.4715 39.0127 19.7941 37.695 19.7941 36.0752C19.7941 34.4552 18.4715 33.1376 16.8503 33.1376C15.2329 33.1376 13.9104 34.4552 13.9104 36.0752C13.9104 37.695 15.2329 39.0127 16.8503 39.0127Z" fill="#373737" fill-opacity="0.01" stroke="#373737" stroke-width="2" stroke-miterlimit="10" stroke-linecap="round" stroke-linejoin="round"/>
<path id="Vector_5" d="M29.3977 46.5625C31.0151 46.5625 32.3375 45.2448 32.3375 43.625C32.3375 42.0051 31.0151 40.6874 29.3977 40.6874C27.7765 40.6874 26.4539 42.0051 26.4539 43.625C26.4539 45.2448 27.7765 46.5625 29.3977 46.5625Z" fill="#373737" fill-opacity="0.01" stroke="#373737" stroke-width="2" stroke-miterlimit="10" stroke-linecap="round" stroke-linejoin="round"/>
<path id="Vector_6" d="M4.30705 46.5625C5.92826 46.5625 7.25088 45.2448 7.25088 43.625C7.25088 42.0051 5.92826 40.6874 4.30705 40.6874C2.68967 40.6874 1.36719 42.0051 1.36719 43.625C1.36719 45.2448 2.68967 46.5625 4.30705 46.5625Z" fill="#373737" fill-opacity="0.01" stroke="#373737" stroke-width="2" stroke-miterlimit="10" stroke-linecap="round" stroke-linejoin="round"/>
<g id="Vector_7">
<path d="M19.3715 37.5907L26.8765 42.1094L19.3715 37.5907ZM6.82825 42.1094L14.3333 37.5907L6.82825 42.1094Z" fill="#373737" fill-opacity="0.01"/>
<path d="M19.3715 37.5907L26.8765 42.1094M6.82825 42.1094L14.3333 37.5907" stroke="#373737" stroke-width="2" stroke-miterlimit="10" stroke-linecap="round" stroke-linejoin="round"/>
</g>
<g id="Vector_8">
<path d="M16.8503 54.1117C18.4715 54.1117 19.7941 52.7941 19.7941 51.1741C19.7941 49.5543 18.4715 48.2366 16.8503 48.2366C15.2329 48.2366 13.9104 49.5543 13.9104 51.1741C13.9104 52.7941 15.2329 54.1117 16.8503 54.1117ZM16.8503 54.1117V62.9941V54.1117Z" fill="#373737" fill-opacity="0.01"/>
<path d="M16.8503 54.1117C18.4715 54.1117 19.7941 52.7941 19.7941 51.1741C19.7941 49.5543 18.4715 48.2366 16.8503 48.2366C15.2329 48.2366 13.9104 49.5543 13.9104 51.1741C13.9104 52.7941 15.2329 54.1117 16.8503 54.1117ZM16.8503 54.1117V62.9941" stroke="#373737" stroke-width="2" stroke-miterlimit="10" stroke-linecap="round" stroke-linejoin="round"/>
</g>
<path id="Vector_9" d="M4.30705 61.3232C5.92826 61.3232 7.25088 60.0017 7.25088 58.3817C7.25088 56.7657 5.92826 55.4442 4.30705 55.4442C2.68967 55.4442 1.36719 56.7657 1.36719 58.3817C1.36719 60.0017 2.68967 61.3232 4.30705 61.3232Z" fill="#373737" fill-opacity="0.01" stroke="#373737" stroke-width="2" stroke-miterlimit="10" stroke-linecap="round" stroke-linejoin="round"/>
<path id="Vector_10" d="M16.8503 68.873C18.4715 68.873 19.7941 67.5515 19.7941 65.9315C19.7941 64.3155 18.4715 62.994 16.8503 62.994C15.2329 62.994 13.9104 64.3155 13.9104 65.9315C13.9104 67.5515 15.2329 68.873 16.8503 68.873Z" fill="#373737" fill-opacity="0.01" stroke="#373737" stroke-width="2" stroke-miterlimit="10" stroke-linecap="round" stroke-linejoin="round"/>
<path id="Vector_11" d="M29.3977 61.3232C31.0151 61.3232 32.3375 60.0017 32.3375 58.3817C32.3375 56.7657 31.0151 55.4442 29.3977 55.4442C27.7765 55.4442 26.4539 56.7657 26.4539 58.3817C26.4539 60.0017 27.7765 61.3232 29.3977 61.3232Z" fill="#373737" fill-opacity="0.01" stroke="#373737" stroke-width="2" stroke-miterlimit="10" stroke-linecap="round" stroke-linejoin="round"/>
<g id="Vector_12">
<path d="M6.82822 45.1396L14.3333 49.6583L6.82822 45.1396ZM4.30713 55.4444V46.5619V55.4444ZM14.3333 64.416L6.82822 59.9012L14.3333 64.416ZM26.8764 59.9012L19.3715 64.416L26.8764 59.9012ZM29.3975 46.5619V55.4444V46.5619ZM19.3715 49.6583L26.8764 45.1396L19.3715 49.6583Z" fill="#373737" fill-opacity="0.01"/>
<path d="M6.82822 45.1396L14.3333 49.6583M4.30713 55.4444V46.5619M14.3333 64.416L6.82822 59.9012M26.8764 59.9012L19.3715 64.416M29.3975 46.5619V55.4444M19.3715 49.6583L26.8764 45.1396" stroke="#373737" stroke-width="2" stroke-miterlimit="10" stroke-linecap="round" stroke-linejoin="round"/>
</g>
<g id="Vector_13">
<path d="M43.3408 43.7139L55.8879 36.1645L68.4312 43.7139" fill="#373737" fill-opacity="0.01"/>
<path d="M43.3408 43.7139L55.8879 36.1645L68.4312 43.7139" stroke="#373737" stroke-width="2" stroke-miterlimit="10" stroke-linecap="round" stroke-linejoin="round"/>
</g>
<g id="Vector_14">
<path d="M55.8879 51.263V66.0244V51.263Z" fill="#373737" fill-opacity="0.01"/>
<path d="M55.8879 51.263V66.0244" stroke="#373737" stroke-width="2" stroke-miterlimit="10" stroke-linecap="round" stroke-linejoin="round"/>
</g>
<path id="Vector_15" d="M36.3709 23.5303C40.3774 23.5303 43.6431 20.2632 43.6431 16.26C43.6431 12.2528 40.3774 8.98969 36.3709 8.98969C32.3605 8.98969 29.0947 12.2528 29.0947 16.26C29.0947 20.2632 32.3605 23.5303 36.3709 23.5303Z" fill="#373737" fill-opacity="0.01" stroke="#373737" stroke-width="2" stroke-miterlimit="10" stroke-linecap="round" stroke-linejoin="round"/>
<g id="Vector_16">
<path d="M5.90515 28.5802V32.5176V28.5802ZM16.0398 12.3499H5.90515V16.2952" fill="#373737" fill-opacity="0.01"/>
<path d="M5.90515 28.5802V32.5176M16.0398 12.3499H5.90515V16.2952" stroke="#373737" stroke-width="2" stroke-miterlimit="10" stroke-linecap="round" stroke-linejoin="round"/>
</g>
<g id="Vector_17">
<path d="M11.3389 17.0469L16.0397 12.3499L11.3389 7.64897" fill="#373737" fill-opacity="0.01"/>
<path d="M11.3389 17.0469L16.0397 12.3499L11.3389 7.64897" stroke="#373737" stroke-width="2" stroke-miterlimit="10" stroke-linecap="round" stroke-linejoin="round"/>
</g>
<g id="Vector_18">
<path d="M56.6984 12.3499H63.9319V32.5254" fill="#373737" fill-opacity="0.01"/>
<path d="M56.6984 12.3499H63.9319V32.5254" stroke="#373737" stroke-width="2" stroke-miterlimit="10" stroke-linecap="round" stroke-linejoin="round"/>
</g>
<g id="Vector_19">
<path d="M59.2274 27.8246L63.932 32.5254L68.6328 27.8246" fill="#373737" fill-opacity="0.01"/>
<path d="M59.2274 27.8246L63.932 32.5254L68.6328 27.8246" stroke="#373737" stroke-width="2" stroke-miterlimit="10" stroke-linecap="round" stroke-linejoin="round"/>
</g>
<g id="Vector_20">
<path d="M5.90515 22.4414V22.4336V22.4414Z" fill="#373737" fill-opacity="0.01"/>
<path d="M5.90515 22.4414V22.4336" stroke="#373737" stroke-width="2" stroke-miterlimit="10" stroke-linecap="round" stroke-linejoin="round"/>
</g>
</g>
</g>
</g>
</g>
</svg>
