<svg width="62" height="71" viewBox="0 0 62 71" fill="none" xmlns="http://www.w3.org/2000/svg">
<g id="Group">
<path id="Vector" d="M32.0807 27.3612V30.2033C32.0807 31.2721 32.9501 32.1414 34.0188 32.1414H34.4138V37.7781L32.2205 39.9714C32.0281 40.1639 31.9201 40.4249 31.9201 40.697V42.9719C31.9201 43.5386 32.3794 43.9981 32.9462 43.9981C33.5131 43.9981 33.9724 43.5386 33.9724 42.9719V41.122L36.1658 38.9287C36.3581 38.7362 36.4662 38.4752 36.4662 38.2031V32.1414H36.8611C37.9298 32.1414 38.7992 31.2721 38.7992 30.2033V27.3612C38.7992 26.2924 37.9298 25.4229 36.8611 25.4229H34.0188C32.9502 25.4229 32.0807 26.2924 32.0807 27.3612ZM34.1331 27.4753H36.7468V30.0891H34.1331V27.4753ZM19.4811 23.9749C18.4124 23.9749 17.543 24.8443 17.543 25.913V29.372C17.543 30.4407 18.4124 31.3102 19.4811 31.3102H22.94C24.0088 31.3102 24.8782 30.4408 24.8782 29.372V25.913C24.8782 24.8443 24.0088 23.9749 22.94 23.9749H19.4811ZM22.8258 29.2578H19.5953V26.0274H22.8258V29.2578ZM21.8697 17.1618V19.2612C21.8697 20.33 22.7391 21.1994 23.8078 21.1994H25.9072C26.976 21.1994 27.8454 20.33 27.8454 19.2612V17.1618C27.8454 16.093 26.976 15.2236 25.9072 15.2236H23.8078C22.7391 15.2236 21.8697 16.093 21.8697 17.1618ZM23.922 17.276H25.793V19.147H23.922V17.276ZM5.97586 37.2598C5.97586 36.1911 5.10647 35.3217 4.03759 35.3217H1.93814C0.86939 35.3217 0 36.1911 0 37.2598V39.3593C0 40.428 0.86939 41.2974 1.93814 41.2974H4.03759C5.10633 41.2974 5.97586 40.428 5.97586 39.3593V37.2598ZM3.92348 39.245H2.05238V37.3741H3.92334L3.92348 39.245ZM11.0245 45.2244H7.5837C6.51495 45.2244 5.64556 46.0938 5.64556 47.1626V50.6032C5.64556 51.6719 6.51495 52.5415 7.5837 52.5415H11.0245C12.0932 52.5415 12.9626 51.6721 12.9626 50.6032V47.1626C12.9626 46.094 12.0931 45.2244 11.0245 45.2244ZM10.9102 50.4891H7.69795V47.2768H10.9102V50.4891Z" fill="#373737"/>
<path id="Vector_2" d="M54.8111 28.5634C54.8111 27.6241 54.7528 26.6738 54.6379 25.7392C54.5687 25.1767 54.055 24.777 53.4942 24.846C53.3604 24.8624 53.2312 24.9051 53.1139 24.9714C52.9966 25.0378 52.8936 25.1266 52.8106 25.2328C52.7277 25.339 52.6665 25.4605 52.6305 25.5904C52.5945 25.7203 52.5844 25.856 52.6008 25.9897C52.7057 26.8436 52.7585 27.7031 52.7587 28.5634C52.7587 34.3487 50.446 39.7284 46.2464 43.7115C43.3401 46.468 41.0049 49.9075 39.4582 53.6927H38.2916V47.9473L42.8862 43.3527C43.0786 43.1603 43.1867 42.8993 43.1867 42.6272V40.0416C44.1261 40.031 44.8876 39.2644 44.8876 38.3223V36.0795C44.8876 35.131 44.1159 34.3595 43.1675 34.3595H40.9245C39.9761 34.3595 39.2045 35.1312 39.2045 36.0795V38.3223C39.2045 39.2708 39.9762 40.0425 40.9245 40.0425H41.1343V42.202L36.5397 46.7966C36.3473 46.9891 36.2392 47.2501 36.2392 47.5222V53.6927H33.9724V47.345C33.9724 46.7783 33.5131 46.3189 32.9462 46.3189C32.3794 46.3189 31.92 46.7783 31.92 47.345V53.6927H28.5251V40.9356H28.92C29.9888 40.9356 30.8581 40.0662 30.8581 38.9974V36.1553C30.8581 35.0866 29.9888 34.2172 28.92 34.2172H26.0779C25.0091 34.2172 24.1396 35.0866 24.1396 36.1553V38.9974C24.1396 40.0662 25.009 40.9356 26.0779 40.9356H26.4727V53.6927H24.2994C23.0651 50.7016 21.3288 47.9197 19.1285 45.4162C18.7543 44.9904 18.106 44.9487 17.6803 45.3229C17.2547 45.6971 17.2128 46.3454 17.587 46.7711C19.5271 48.9785 21.0796 51.4149 22.2135 54.0269C21.0157 54.5909 20.1844 55.8091 20.1844 57.2184C20.1844 59.1051 21.6739 60.6501 23.5387 60.7399V62.2032C23.5387 63.5018 24.3733 64.6086 25.5341 65.017C25.9506 67.853 28.3991 70.0374 31.3489 70.0374H32.4136C35.3634 70.0374 37.8119 67.853 38.2284 65.017C39.3892 64.6086 40.2239 63.502 40.2239 62.2032V60.7399C42.0887 60.6501 43.5781 59.1051 43.5781 57.2184C43.5781 55.8073 42.7446 54.5878 41.5442 54.0247C42.9795 50.683 45.0765 47.6496 47.6587 45.2004C52.2711 40.826 54.8111 34.9174 54.8111 28.5634ZM41.257 36.4121H42.8353V37.9904H41.257V36.4121ZM26.1923 36.2697H28.806V38.8835H26.1923V36.2697ZM32.4137 67.9852H31.3491C29.595 67.9852 28.1127 66.7985 27.6633 65.1857H36.0997C35.6499 66.7985 34.1678 67.9852 32.4137 67.9852ZM40.0524 58.692H36.6689C36.102 58.692 35.6427 59.1515 35.6427 59.7182C35.6427 60.2849 36.102 60.7444 36.6689 60.7444H38.1715V62.2033C38.1712 62.4499 38.0731 62.6863 37.8987 62.8607C37.7243 63.035 37.4879 63.1331 37.2413 63.1334H26.521C26.2745 63.1331 26.0381 63.035 25.8638 62.8606C25.6894 62.6863 25.5913 62.4499 25.591 62.2033V60.7444H32.2955C32.8624 60.7444 33.3217 60.2849 33.3217 59.7182C33.3217 59.1515 32.8624 58.692 32.2955 58.692H23.7101C22.8976 58.692 22.2366 58.031 22.2366 57.2185C22.2366 56.44 22.844 55.8022 23.6095 55.7502C23.622 55.7502 23.6347 55.75 23.6472 55.7496C23.6706 55.7487 23.6938 55.7472 23.7169 55.7457L23.7236 55.7453H40.052L40.0434 55.7457C40.0657 55.7472 40.088 55.7486 40.1104 55.7496C40.1238 55.7501 40.1371 55.7502 40.1504 55.7504C40.9169 55.8013 41.5255 56.4396 41.5255 57.2188C41.5259 58.0311 40.8649 58.692 40.0524 58.692ZM11.0039 28.5637C11.0039 24.1628 12.3678 19.9486 14.9482 16.3765C15.0271 16.2672 15.0837 16.1435 15.1149 16.0124C15.146 15.8813 15.1509 15.7453 15.1295 15.6123C15.108 15.4792 15.0606 15.3517 14.9899 15.237C14.9191 15.1223 14.8265 15.0227 14.7172 14.9438C14.608 14.8649 14.4843 14.8082 14.3532 14.7771C14.2221 14.746 14.0861 14.741 13.953 14.7625C13.82 14.7839 13.6925 14.8314 13.5778 14.9021C13.4631 14.9729 13.3634 15.0655 13.2845 15.1747C10.4498 19.0988 8.95154 23.7287 8.95168 28.5637C8.95124 34.0799 10.9407 39.4112 14.5547 43.5786C14.651 43.6899 14.7701 43.779 14.9039 43.8401C15.0378 43.9011 15.1832 43.9326 15.3304 43.9323C15.5271 43.9322 15.7196 43.8756 15.8851 43.7692C16.0505 43.6627 16.1818 43.511 16.2635 43.332C16.3451 43.153 16.3736 42.9543 16.3455 42.7596C16.3174 42.5649 16.2339 42.3824 16.1051 42.2338C12.8147 38.4396 11.0035 33.5858 11.0039 28.5637ZM26.5317 8.34946C26.6167 8.34938 26.7014 8.33881 26.7838 8.31799C28.4597 7.89479 30.1947 7.67874 31.9291 7.686C32.9963 7.68846 34.0686 7.7722 35.116 7.93502C35.6771 8.02204 36.2006 7.63865 36.2877 7.07863C36.3747 6.5186 35.9913 5.99401 35.4313 5.90699C34.274 5.72759 33.1047 5.63621 31.9336 5.63361C30.021 5.62554 28.1227 5.86307 26.2812 6.328C26.0386 6.38923 25.8267 6.53699 25.6853 6.7435C25.544 6.95 25.483 7.20103 25.5138 7.44937C25.5446 7.6977 25.665 7.92624 25.8525 8.092C26.0399 8.25776 26.2815 8.34932 26.5317 8.34946ZM17.5859 14.0956H21.5863C22.655 14.0956 23.5244 13.2262 23.5244 12.1575V8.15695C23.5244 7.0882 22.655 6.21868 21.5863 6.21868H17.5859C16.5172 6.21868 15.6478 7.08807 15.6478 8.15695V12.1575C15.6478 13.2261 16.5173 14.0956 17.5859 14.0956ZM17.7002 8.2712H21.472V12.0432H17.7002V8.2712ZM54.2344 48.7724H49.8047C48.7359 48.7724 47.8665 49.6418 47.8665 50.7105V55.1403C47.8665 56.209 48.7359 57.0785 49.8047 57.0785H54.2344C55.3031 57.0785 56.1725 56.2092 56.1725 55.1403V50.7105C56.1725 49.6419 55.3031 48.7724 54.2344 48.7724ZM54.1201 55.0262H49.9189V50.8248H54.1201V55.0262ZM59.6417 40.0703H57.0358C55.967 40.0703 55.0976 40.9397 55.0976 42.0084V44.6143C55.0976 45.683 55.967 46.5524 57.0358 46.5524H59.6417C60.7105 46.5524 61.5799 45.683 61.5799 44.6143V42.0084C61.5799 40.9398 60.7104 40.0703 59.6417 40.0703ZM59.5275 44.5002H57.15V42.1228H59.5275V44.5002ZM9.16335 6.40038H11.5761C12.6449 6.40038 13.5143 5.53099 13.5143 4.46211V2.04946C13.5143 0.980718 12.6449 0.111328 11.5761 0.111328H9.16335C8.0946 0.111328 7.22521 0.980718 7.22521 2.04946V4.46225C7.22521 5.53099 8.09474 6.40038 9.16335 6.40038ZM9.2776 2.16371H11.4619V4.348H9.2776V2.16371ZM2.86636 14.6607H4.74484C5.81358 14.6607 6.68311 13.7913 6.68311 12.7225V10.8441C6.68311 9.77532 5.81372 8.90593 4.74484 8.90593H2.86636C1.79761 8.90593 0.928223 9.77532 0.928223 10.8441V12.7225C0.928223 13.7913 1.79761 14.6607 2.86636 14.6607ZM2.98061 10.9583H4.63072V12.6084H2.98061V10.9583ZM54.3625 6.45826H46.3121C46.0399 6.45826 45.7789 6.56638 45.5864 6.75882C45.394 6.95127 45.2859 7.21229 45.2859 7.48445V15.5349C45.2859 15.807 45.394 16.068 45.5864 16.2605C45.7789 16.4529 46.0399 16.5611 46.3121 16.5611H54.3625C54.6346 16.5611 54.8956 16.4529 55.0881 16.2605C55.2805 16.068 55.3887 15.807 55.3887 15.5349V7.48445C55.3887 7.21229 55.2805 6.95127 55.0881 6.75882C54.8956 6.56638 54.6346 6.45826 54.3625 6.45826ZM53.3363 14.5087H47.3382V8.51064H53.3363V14.5087Z" fill="#373737"/>
<path id="Vector_3" d="M60.7831 12.5356C61.35 12.5356 61.8093 12.0761 61.8093 11.5094C61.8093 10.9427 61.35 10.4832 60.7831 10.4832H59.4931V7.64325H60.7831C61.35 7.64325 61.8093 7.18379 61.8093 6.61705C61.8093 6.05032 61.35 5.59086 60.7831 5.59086H59.4931V5.54462C59.4931 3.7849 58.0615 2.35329 56.3018 2.35329H56.2554V1.0633C56.2554 0.49657 55.7961 0.0371094 55.2292 0.0371094C54.6624 0.0371094 54.203 0.49657 54.203 1.0633V2.35316H51.3632V1.0633C51.3632 0.49657 50.9039 0.0371094 50.337 0.0371094C49.7702 0.0371094 49.3108 0.49657 49.3108 1.0633V2.35316H46.4709V1.0633C46.4709 0.49657 46.0116 0.0371094 45.4447 0.0371094C44.8778 0.0371094 44.4185 0.49657 44.4185 1.0633V2.35316H44.3721C42.6124 2.35316 41.1808 3.78476 41.1808 5.54448V5.59086H39.8909C39.3241 5.59086 38.8647 6.05032 38.8647 6.61705C38.8647 7.18379 39.3241 7.64325 39.8909 7.64325H41.1808V10.4831H39.8909C39.3241 10.4831 38.8647 10.9425 38.8647 11.5093C38.8647 12.076 39.3241 12.5354 39.8909 12.5354H41.1808V15.3754H39.8909C39.3241 15.3754 38.8647 15.8349 38.8647 16.4016C38.8647 16.9683 39.3241 17.4278 39.8909 17.4278H41.1808V17.474C41.1808 19.2337 42.6124 20.6654 44.3721 20.6654H44.4185V21.9552C44.4185 22.5219 44.8778 22.9814 45.4447 22.9814C46.0116 22.9814 46.4709 22.5219 46.4709 21.9552V20.6654H49.3108V21.9552C49.3108 22.5219 49.7702 22.9814 50.337 22.9814C50.9039 22.9814 51.3632 22.5219 51.3632 21.9552V20.6654H54.2032V21.9552C54.2032 22.5219 54.6625 22.9814 55.2294 22.9814C55.7962 22.9814 56.2556 22.5219 56.2556 21.9552V20.6654H56.3018C58.0615 20.6654 59.4931 19.2337 59.4931 17.474V17.4276H60.7831C61.35 17.4276 61.8093 16.9682 61.8093 16.4015C61.8093 15.8347 61.35 15.3753 60.7831 15.3753H59.4931V12.5356H60.7831ZM57.4407 17.4742C57.4407 18.1022 56.9298 18.6131 56.3018 18.6131H44.3723C43.7442 18.6131 43.2333 18.1022 43.2333 17.4742V5.54448C43.2333 4.91645 43.7442 4.40554 44.3723 4.40554H56.3018C56.9298 4.40554 57.4407 4.91645 57.4407 5.54448V17.4742Z" fill="#373737"/>
</g>
</svg>
