<svg width="62" height="70" viewBox="0 0 62 70" fill="none" xmlns="http://www.w3.org/2000/svg">
<g id="Group">
<path id="Vector" d="M32.0807 27.3241V30.1662C32.0807 31.2349 32.9501 32.1043 34.0188 32.1043H34.4138V37.741L32.2205 39.9343C32.0281 40.1268 31.9201 40.3878 31.9201 40.6599V42.9348C31.9201 43.5015 32.3794 43.961 32.9462 43.961C33.5131 43.961 33.9724 43.5015 33.9724 42.9348V41.0849L36.1658 38.8916C36.3581 38.6991 36.4662 38.4381 36.4662 38.166V32.1043H36.8611C37.9298 32.1043 38.7992 31.2349 38.7992 30.1662V27.3241C38.7992 26.2553 37.9298 25.3858 36.8611 25.3858H34.0188C32.9502 25.3858 32.0807 26.2553 32.0807 27.3241ZM34.1331 27.4382H36.7468V30.0519H34.1331V27.4382ZM19.4811 23.9378C18.4124 23.9378 17.543 24.8071 17.543 25.8759V29.3348C17.543 30.4036 18.4124 31.2731 19.4811 31.2731H22.94C24.0088 31.2731 24.8782 30.4037 24.8782 29.3348V25.8759C24.8782 24.8071 24.0088 23.9378 22.94 23.9378H19.4811ZM22.8258 29.2207H19.5953V25.9903H22.8258V29.2207ZM21.8697 17.1247V19.2241C21.8697 20.2929 22.7391 21.1622 23.8078 21.1622H25.9072C26.976 21.1622 27.8454 20.2929 27.8454 19.2241V17.1247C27.8454 16.0559 26.976 15.1865 25.9072 15.1865H23.8078C22.7391 15.1865 21.8697 16.0559 21.8697 17.1247ZM23.922 17.2389H25.793V19.1099H23.922V17.2389ZM5.97586 37.2227C5.97586 36.154 5.10647 35.2846 4.03759 35.2846H1.93814C0.86939 35.2846 0 36.154 0 37.2227V39.3222C0 40.3909 0.86939 41.2603 1.93814 41.2603H4.03759C5.10633 41.2603 5.97586 40.3909 5.97586 39.3222V37.2227ZM3.92348 39.2079H2.05238V37.337H3.92334L3.92348 39.2079ZM11.0245 45.1873H7.5837C6.51495 45.1873 5.64556 46.0567 5.64556 47.1255V50.5661C5.64556 51.6348 6.51495 52.5044 7.5837 52.5044H11.0245C12.0932 52.5044 12.9626 51.635 12.9626 50.5661V47.1255C12.9626 46.0569 12.0931 45.1873 11.0245 45.1873ZM10.9102 50.452H7.69795V47.2397H10.9102V50.452Z" fill="white"/>
<path id="Vector_2" d="M54.8111 28.5263C54.8111 27.587 54.7528 26.6367 54.6379 25.7021C54.5687 25.1396 54.055 24.7399 53.4942 24.8089C53.3604 24.8253 53.2312 24.8679 53.1139 24.9343C52.9966 25.0007 52.8936 25.0895 52.8106 25.1957C52.7277 25.3019 52.6665 25.4234 52.6305 25.5533C52.5945 25.6832 52.5844 25.8188 52.6008 25.9526C52.7057 26.8065 52.7585 27.666 52.7587 28.5263C52.7587 34.3116 50.446 39.6913 46.2464 43.6744C43.3401 46.4309 41.0049 49.8704 39.4582 53.6555H38.2916V47.9102L42.8862 43.3156C43.0786 43.1232 43.1867 42.8622 43.1867 42.59V40.0045C44.1261 39.9939 44.8876 39.2273 44.8876 38.2852V36.0424C44.8876 35.0939 44.1159 34.3224 43.1675 34.3224H40.9245C39.9761 34.3224 39.2045 35.0941 39.2045 36.0424V38.2852C39.2045 39.2337 39.9762 40.0054 40.9245 40.0054H41.1343V42.1649L36.5397 46.7595C36.3473 46.952 36.2392 47.213 36.2392 47.4851V53.6555H33.9724V47.3079C33.9724 46.7412 33.5131 46.2817 32.9462 46.2817C32.3794 46.2817 31.92 46.7412 31.92 47.3079V53.6555H28.5251V40.8985H28.92C29.9888 40.8985 30.8581 40.0291 30.8581 38.9603V36.1182C30.8581 35.0494 29.9888 34.1801 28.92 34.1801H26.0779C25.0091 34.1801 24.1396 35.0494 24.1396 36.1182V38.9603C24.1396 40.0291 25.009 40.8985 26.0779 40.8985H26.4727V53.6555H24.2994C23.0651 50.6645 21.3288 47.8826 19.1285 45.3791C18.7543 44.9533 18.106 44.9116 17.6803 45.2858C17.2547 45.66 17.2128 46.3083 17.587 46.7339C19.5271 48.9414 21.0796 51.3778 22.2135 53.9898C21.0157 54.5538 20.1844 55.772 20.1844 57.1813C20.1844 59.068 21.6739 60.613 23.5387 60.7028V62.1661C23.5387 63.4647 24.3733 64.5715 25.5341 64.9799C25.9506 67.8159 28.3991 70.0003 31.3489 70.0003H32.4136C35.3634 70.0003 37.8119 67.8159 38.2284 64.9799C39.3892 64.5715 40.2239 63.4648 40.2239 62.1661V60.7028C42.0887 60.613 43.5781 59.068 43.5781 57.1813C43.5781 55.7702 42.7446 54.5507 41.5442 53.9876C42.9795 50.6459 45.0765 47.6125 47.6587 45.1633C52.2711 40.7889 54.8111 34.8803 54.8111 28.5263ZM41.257 36.375H42.8353V37.9533H41.257V36.375ZM26.1923 36.2326H28.806V38.8464H26.1923V36.2326ZM32.4137 67.9481H31.3491C29.595 67.9481 28.1127 66.7614 27.6633 65.1486H36.0997C35.6499 66.7614 34.1678 67.9481 32.4137 67.9481ZM40.0524 58.6549H36.6689C36.102 58.6549 35.6427 59.1143 35.6427 59.6811C35.6427 60.2478 36.102 60.7073 36.6689 60.7073H38.1715V62.1662C38.1712 62.4128 38.0731 62.6492 37.8987 62.8236C37.7243 62.9979 37.4879 63.096 37.2413 63.0962H26.521C26.2745 63.096 26.0381 62.9979 25.8638 62.8235C25.6894 62.6492 25.5913 62.4128 25.591 62.1662V60.7073H32.2955C32.8624 60.7073 33.3217 60.2478 33.3217 59.6811C33.3217 59.1143 32.8624 58.6549 32.2955 58.6549H23.7101C22.8976 58.6549 22.2366 57.9939 22.2366 57.1814C22.2366 56.4029 22.844 55.7651 23.6095 55.7131C23.622 55.7131 23.6347 55.7129 23.6472 55.7124C23.6706 55.7116 23.6938 55.7101 23.7169 55.7086L23.7236 55.7082H40.052L40.0434 55.7086C40.0657 55.7101 40.088 55.7115 40.1104 55.7124C40.1238 55.713 40.1371 55.7131 40.1504 55.7133C40.9169 55.7642 41.5255 56.4025 41.5255 57.1817C41.5259 57.994 40.8649 58.6549 40.0524 58.6549ZM11.0039 28.5266C11.0039 24.1257 12.3678 19.9115 14.9482 16.3394C15.0271 16.2301 15.0837 16.1064 15.1149 15.9753C15.146 15.8442 15.1509 15.7082 15.1295 15.5752C15.108 15.4421 15.0606 15.3146 14.9899 15.1999C14.9191 15.0852 14.8265 14.9856 14.7172 14.9067C14.608 14.8277 14.4843 14.7711 14.3532 14.74C14.2221 14.7089 14.0861 14.7039 13.953 14.7254C13.82 14.7468 13.6925 14.7943 13.5778 14.865C13.4631 14.9357 13.3634 15.0284 13.2845 15.1376C10.4498 19.0616 8.95154 23.6916 8.95168 28.5266C8.95124 34.0428 10.9407 39.3741 14.5547 43.5415C14.651 43.6528 14.7701 43.7419 14.9039 43.803C15.0378 43.864 15.1832 43.8955 15.3304 43.8952C15.5271 43.8951 15.7196 43.8385 15.8851 43.732C16.0505 43.6256 16.1818 43.4739 16.2635 43.2949C16.3451 43.1159 16.3736 42.9172 16.3455 42.7225C16.3174 42.5278 16.2339 42.3453 16.1051 42.1967C12.8147 38.4025 11.0035 33.5487 11.0039 28.5266ZM26.5317 8.31235C26.6167 8.31227 26.7014 8.3017 26.7838 8.28088C28.4597 7.85768 30.1947 7.64163 31.9291 7.64889C32.9963 7.65135 34.0686 7.73509 35.116 7.89791C35.6771 7.98493 36.2006 7.60154 36.2877 7.04152C36.3747 6.48149 35.9913 5.9569 35.4313 5.86988C34.274 5.69048 33.1047 5.5991 31.9336 5.5965C30.021 5.58843 28.1227 5.82596 26.2812 6.29089C26.0386 6.35212 25.8267 6.49988 25.6853 6.70639C25.544 6.91289 25.483 7.16392 25.5138 7.41226C25.5446 7.66059 25.665 7.88913 25.8525 8.05489C26.0399 8.22065 26.2815 8.31221 26.5317 8.31235ZM17.5859 14.0585H21.5863C22.655 14.0585 23.5244 13.1891 23.5244 12.1203V8.11984C23.5244 7.05109 22.655 6.18157 21.5863 6.18157H17.5859C16.5172 6.18157 15.6478 7.05096 15.6478 8.11984V12.1203C15.6478 13.189 16.5173 14.0585 17.5859 14.0585ZM17.7002 8.23409H21.472V12.0061H17.7002V8.23409ZM54.2344 48.7353H49.8047C48.7359 48.7353 47.8665 49.6047 47.8665 50.6734V55.1032C47.8665 56.1719 48.7359 57.0414 49.8047 57.0414H54.2344C55.3031 57.0414 56.1725 56.172 56.1725 55.1032V50.6734C56.1725 49.6048 55.3031 48.7353 54.2344 48.7353ZM54.1201 54.9891H49.9189V50.7877H54.1201V54.9891ZM59.6417 40.0332H57.0358C55.967 40.0332 55.0976 40.9026 55.0976 41.9713V44.5772C55.0976 45.6459 55.967 46.5153 57.0358 46.5153H59.6417C60.7105 46.5153 61.5799 45.6459 61.5799 44.5772V41.9713C61.5799 40.9027 60.7104 40.0332 59.6417 40.0332ZM59.5275 44.4631H57.15V42.0857H59.5275V44.4631ZM9.16335 6.36327H11.5761C12.6449 6.36327 13.5143 5.49388 13.5143 4.425V2.01235C13.5143 0.943609 12.6449 0.0742188 11.5761 0.0742188H9.16335C8.0946 0.0742188 7.22521 0.943609 7.22521 2.01235V4.42514C7.22521 5.49388 8.09474 6.36327 9.16335 6.36327ZM9.2776 2.1266H11.4619V4.31089H9.2776V2.1266ZM2.86636 14.6236H4.74484C5.81358 14.6236 6.68311 13.7542 6.68311 12.6854V10.807C6.68311 9.73821 5.81372 8.86882 4.74484 8.86882H2.86636C1.79761 8.86882 0.928223 9.73821 0.928223 10.807V12.6854C0.928223 13.7542 1.79761 14.6236 2.86636 14.6236ZM2.98061 10.9212H4.63072V12.5713H2.98061V10.9212ZM54.3625 6.42115H46.3121C46.0399 6.42115 45.7789 6.52927 45.5864 6.72171C45.394 6.91416 45.2859 7.17518 45.2859 7.44734V15.4978C45.2859 15.7699 45.394 16.0309 45.5864 16.2234C45.7789 16.4158 46.0399 16.5239 46.3121 16.5239H54.3625C54.6346 16.5239 54.8956 16.4158 55.0881 16.2234C55.2805 16.0309 55.3887 15.7699 55.3887 15.4978V7.44734C55.3887 7.17518 55.2805 6.91416 55.0881 6.72171C54.8956 6.52927 54.6346 6.42115 54.3625 6.42115ZM53.3363 14.4716H47.3382V8.47353H53.3363V14.4716Z" fill="white"/>
<path id="Vector_3" d="M60.7831 12.4985C61.35 12.4985 61.8093 12.039 61.8093 11.4723C61.8093 10.9056 61.35 10.4461 60.7831 10.4461H59.4931V7.60614H60.7831C61.35 7.60614 61.8093 7.14668 61.8093 6.57995C61.8093 6.01321 61.35 5.55375 60.7831 5.55375H59.4931V5.50751C59.4931 3.74779 58.0615 2.31618 56.3018 2.31618H56.2554V1.02619C56.2554 0.45946 55.7961 0 55.2292 0C54.6624 0 54.203 0.45946 54.203 1.02619V2.31605H51.3632V1.02619C51.3632 0.45946 50.9039 0 50.337 0C49.7702 0 49.3108 0.45946 49.3108 1.02619V2.31605H46.4709V1.02619C46.4709 0.45946 46.0116 0 45.4447 0C44.8778 0 44.4185 0.45946 44.4185 1.02619V2.31605H44.3721C42.6124 2.31605 41.1808 3.74765 41.1808 5.50737V5.55375H39.8909C39.3241 5.55375 38.8647 6.01321 38.8647 6.57995C38.8647 7.14668 39.3241 7.60614 39.8909 7.60614H41.1808V10.446H39.8909C39.3241 10.446 38.8647 10.9054 38.8647 11.4721C38.8647 12.0389 39.3241 12.4983 39.8909 12.4983H41.1808V15.3383H39.8909C39.3241 15.3383 38.8647 15.7978 38.8647 16.3645C38.8647 16.9312 39.3241 17.3907 39.8909 17.3907H41.1808V17.4369C41.1808 19.1966 42.6124 20.6282 44.3721 20.6282H44.4185V21.9181C44.4185 22.4848 44.8778 22.9443 45.4447 22.9443C46.0116 22.9443 46.4709 22.4848 46.4709 21.9181V20.6282H49.3108V21.9181C49.3108 22.4848 49.7702 22.9443 50.337 22.9443C50.9039 22.9443 51.3632 22.4848 51.3632 21.9181V20.6282H54.2032V21.9181C54.2032 22.4848 54.6625 22.9443 55.2294 22.9443C55.7962 22.9443 56.2556 22.4848 56.2556 21.9181V20.6282H56.3018C58.0615 20.6282 59.4931 19.1966 59.4931 17.4369V17.3905H60.7831C61.35 17.3905 61.8093 16.9311 61.8093 16.3643C61.8093 15.7976 61.35 15.3382 60.7831 15.3382H59.4931V12.4985H60.7831ZM57.4407 17.4371C57.4407 18.0651 56.9298 18.576 56.3018 18.576H44.3723C43.7442 18.576 43.2333 18.0651 43.2333 17.4371V5.50737C43.2333 4.87934 43.7442 4.36843 44.3723 4.36843H56.3018C56.9298 4.36843 57.4407 4.87934 57.4407 5.50737V17.4371Z" fill="white"/>
</g>
</svg>
