<svg width="51" height="50" viewBox="0 0 51 50" fill="none" xmlns="http://www.w3.org/2000/svg">
<g clip-path="url(#clip0_563_223)">
<path d="M39.4994 10.4929L39.5266 10.8068L39.8405 10.834C45.5028 11.3257 49.9584 16.0902 49.9584 21.875V38.5417C49.9584 44.6513 44.9866 49.625 38.875 49.625H11.7917C5.68011 49.625 0.708374 44.6513 0.708374 38.5417V32.2917C0.708374 26.5188 5.14393 21.7624 10.7838 21.2526L11.125 21.2218V20.8792V11.4583C11.125 5.34873 16.0968 0.375 22.2084 0.375H28.4584C34.2431 0.375 39.0077 4.83263 39.4994 10.4929ZM26.375 37.125H24.2917C23.3488 37.125 22.5834 36.3596 22.5834 35.4167V33.3333C22.5834 32.3904 23.3488 31.625 24.2917 31.625H26.375C27.3179 31.625 28.0834 32.3904 28.0834 33.3333V35.4167C28.0834 36.3596 27.3179 37.125 26.375 37.125ZM28.0834 12.5V14.5833C28.0834 15.5262 27.3179 16.2917 26.375 16.2917H24.2917C23.3488 16.2917 22.5834 15.5262 22.5834 14.5833V12.5C22.5834 11.5571 23.3488 10.7917 24.2917 10.7917H26.375C27.3179 10.7917 28.0834 11.5571 28.0834 12.5ZM28.0834 22.9167V25C28.0834 25.9429 27.3179 26.7083 26.375 26.7083H24.2917C23.3488 26.7083 22.5834 25.9429 22.5834 25V22.9167C22.5834 21.9738 23.3488 21.2083 24.2917 21.2083H26.375C27.3179 21.2083 28.0834 21.9738 28.0834 22.9167ZM39.5417 33.3333V35.4167C39.5417 36.3596 38.7763 37.125 37.8334 37.125H35.75C34.8071 37.125 34.0417 36.3596 34.0417 35.4167V33.3333C34.0417 32.3904 34.8071 31.625 35.75 31.625H37.8334C38.7763 31.625 39.5417 32.3904 39.5417 33.3333ZM16.625 33.3333V35.4167C16.625 36.3596 15.8596 37.125 14.9167 37.125H12.8334C11.8905 37.125 11.125 36.3596 11.125 35.4167V33.3333C11.125 32.3904 11.8905 31.625 12.8334 31.625H14.9167C15.8596 31.625 16.625 32.3904 16.625 33.3333ZM37.8334 21.2083C38.7763 21.2083 39.5417 21.9738 39.5417 22.9167V25C39.5417 25.9429 38.7763 26.7083 37.8334 26.7083H35.75C34.8071 26.7083 34.0417 25.9429 34.0417 25V22.9167C34.0417 21.9738 34.8071 21.2083 35.75 21.2083H37.8334ZM16.625 23.9583C16.625 25.4764 15.3949 26.7083 13.875 26.7083H11.7917C8.71386 26.7083 6.20837 29.2115 6.20837 32.2917V38.5417C6.20837 41.6218 8.71386 44.125 11.7917 44.125H38.875C41.9529 44.125 44.4584 41.6218 44.4584 38.5417V21.875C44.4584 18.7949 41.9529 16.2917 38.875 16.2917H36.7917C35.2719 16.2917 34.0417 15.0597 34.0417 13.5417V11.4583C34.0417 8.37821 31.5362 5.875 28.4584 5.875H22.2084C19.1305 5.875 16.625 8.37821 16.625 11.4583V23.9583Z" fill="#373737" stroke="white" stroke-width="0.75"/>
</g>
<defs>
<clipPath id="clip0_563_223">
<rect width="50" height="50" fill="white" transform="translate(0.333374)"/>
</clipPath>
</defs>
</svg>
