<svg width="70" height="70" viewBox="0 0 70 70" fill="none" xmlns="http://www.w3.org/2000/svg">
<g clip-path="url(#clip0_879_176)">
<path d="M22.1888 65.4815C21.6825 65.2575 21.455 64.6672 21.6778 64.162C21.9007 63.6557 22.4922 63.4282 22.9973 63.6522C31.1873 67.2058 40.4857 67.1953 48.6663 63.6195C64.9297 56.5122 72.3508 37.5678 65.2435 21.3033C58.135 5.04117 39.1907 -2.38117 22.9262 4.72617C6.66401 11.8358 -0.758328 30.7813 6.34901 47.0435C6.36534 47.075 6.37817 47.1065 6.39217 47.1392C6.58584 47.6548 6.32217 48.2335 5.80651 48.4272C5.28967 48.622 4.71217 48.3607 4.51851 47.8438C2.62501 43.5353 1.65551 38.8792 1.66834 34.1763V34.1553C1.67651 15.2868 16.9773 -0.00583167 35.847 1.66827e-06C54.7155 0.00466834 70.007 15.3055 70.0023 34.1752C69.9965 53.0425 54.6957 68.3363 35.826 68.3305C31.1313 68.3375 26.4857 67.368 22.1888 65.4815Z" fill="#373737"/>
<path d="M24.6183 60.5206C24.1097 60.3036 23.8752 59.7156 24.0933 59.2069C24.3115 58.6971 24.8983 58.4637 25.4093 58.6819C32.0605 61.5134 39.5797 61.5216 46.239 58.7041C59.8027 52.9664 66.147 37.3191 60.4093 23.7554C54.6717 10.1906 39.0243 3.8474 25.4595 9.5839C11.8958 15.3227 5.55149 30.9689 11.2903 44.5326C11.3125 44.5757 11.3312 44.6224 11.3463 44.6679C11.5225 45.1917 11.2402 45.7587 10.7163 45.9337C10.1913 46.1087 9.62549 45.8264 9.44932 45.3026C7.95249 41.7839 7.18365 37.9981 7.18949 34.1749C7.18949 18.3584 20.01 5.53906 35.8265 5.53906C51.6418 5.53906 64.4635 18.3596 64.4635 34.1749C64.4635 49.9902 51.6418 62.8096 35.8265 62.8096C31.973 62.8177 28.1603 62.0384 24.6183 60.5206Z" fill="#373737"/>
<path d="M34.8262 11.2373V6.53909C34.8262 5.98492 35.2742 5.53809 35.826 5.53809C36.3778 5.53809 36.8258 5.98492 36.8258 6.53909V11.2373C36.8258 11.7903 36.3778 12.2371 35.826 12.2371C35.2742 12.2371 34.8262 11.7903 34.8262 11.2373Z" fill="#373737"/>
<path d="M51.2944 18.7076C50.9071 18.3179 50.9071 17.6879 51.2944 17.2971L54.6136 13.9779C54.9869 13.6571 55.5411 13.6571 55.9144 13.9779C56.3344 14.3373 56.3822 14.9684 56.0229 15.3873L52.7049 18.7076C52.5171 18.8989 52.2616 19.0063 51.9944 19.0074C51.7307 19.0039 51.4787 18.8954 51.2944 18.7076Z" fill="#373737"/>
<path d="M57.7637 34.1744C57.7637 33.6226 58.2105 33.1758 58.7623 33.1758H63.4617C64.0135 33.1758 64.4603 33.6226 64.4603 34.1744C64.4603 34.7274 64.0123 35.1743 63.4617 35.1743H58.7623C58.2105 35.1754 57.7637 34.7286 57.7637 34.1744Z" fill="#373737"/>
<path d="M54.6633 54.4214L51.3441 51.0918C51.0233 50.7173 51.0233 50.1654 51.3441 49.7909C51.7035 49.3721 52.3346 49.3219 52.7535 49.6824L56.0738 53.0016C56.2616 53.1871 56.3678 53.4414 56.369 53.7063C56.3713 54.2593 55.9256 54.7073 55.3726 54.7096C55.1066 54.7131 54.8523 54.6093 54.6633 54.4214Z" fill="#373737"/>
<path d="M34.8262 61.8115V57.1133C34.8262 56.5591 35.2742 56.1123 35.826 56.1123C36.3778 56.1123 36.8258 56.5603 36.8258 57.1133V61.8115C36.8258 62.3645 36.3778 62.8101 35.826 62.8101C35.2742 62.8101 34.8262 62.3645 34.8262 61.8115Z" fill="#373737"/>
<path d="M7.18945 34.1744C7.18945 33.6226 7.63745 33.1758 8.18812 33.1758H12.8875C13.4405 33.1758 13.8873 33.6226 13.8873 34.1744C13.8873 34.7274 13.4393 35.1743 12.8875 35.1743H8.18929C7.63745 35.1754 7.18945 34.7286 7.18945 34.1744Z" fill="#373737"/>
<path d="M18.9073 18.6573L15.5776 15.337C15.1903 14.9473 15.1903 14.3161 15.5776 13.9265C15.5799 13.9241 15.5823 13.923 15.5834 13.9206C15.9754 13.5321 16.6089 13.5345 16.9986 13.9265L20.3178 17.297C20.5091 17.486 20.6153 17.7438 20.6141 18.0133C20.6094 18.5651 20.1603 19.0096 19.6096 19.0061C19.3343 18.9898 19.0834 18.8638 18.9073 18.6573Z" fill="#373737"/>
<path d="M46.4046 46.1641L35.1252 34.8754C34.9362 34.6899 34.8289 34.4379 34.8242 34.1743V16.2869C34.8242 15.7339 35.2734 15.2871 35.8241 15.2871C36.3771 15.2871 36.8227 15.7339 36.8227 16.2869V33.7554L47.8221 44.7536C48.2106 45.1444 48.2106 45.7744 47.8221 46.1641C47.6342 46.3496 47.3776 46.4558 47.1127 46.4534C46.8479 46.4558 46.5924 46.3508 46.4046 46.1641Z" fill="#373737"/>
<path d="M0 56.8334C0 49.5592 5.89633 43.6641 13.167 43.6641C20.4412 43.6641 26.3375 49.5592 26.3375 56.8334C26.3375 64.1052 20.4412 70.0004 13.167 70.0004C5.89867 69.9957 0.00583333 64.1029 0 56.8334ZM1.99967 56.8334C1.99967 56.8369 1.99967 56.8404 1.99967 56.8427C1.99967 63.0121 7.00117 68.0124 13.167 68.0124C19.3375 68.0124 24.3367 63.0121 24.3367 56.8427C24.3367 50.6746 19.3375 45.6742 13.167 45.6742C7.00583 45.6789 2.01133 50.6711 1.99967 56.8334Z" fill="#373737"/>
<path d="M10.8778 61.8325C10.6153 61.8313 10.3656 61.7275 10.1777 61.542L6.95775 58.3208C6.54008 57.9615 6.49108 57.3315 6.84808 56.9127C7.20858 56.4927 7.83975 56.4448 8.25858 56.8018C8.29708 56.8368 8.33325 56.873 8.36825 56.9127L10.8766 59.4222L18.1776 52.1317C18.5964 51.7723 19.2276 51.8225 19.5869 52.2413C19.9066 52.6158 19.9066 53.1677 19.5869 53.5422L11.5894 61.542C11.4004 61.7298 11.1449 61.8337 10.8778 61.8325Z" fill="#373737"/>
</g>
<defs>
<clipPath id="clip0_879_176">
<rect width="70.0023" height="70" fill="white"/>
</clipPath>
</defs>
</svg>
