<svg width="81" height="80" viewBox="0 0 81 80" fill="none" xmlns="http://www.w3.org/2000/svg">
<rect x="1" y="0.5" width="79" height="79" rx="39.5" fill="#266AB7" fill-opacity="0.01"/>
<rect x="1" y="0.5" width="79" height="79" rx="39.5" stroke="white"/>
<mask id="mask0_266_421" style="mask-type:luminance" maskUnits="userSpaceOnUse" x="16" y="15" width="49" height="50">
<path d="M64 63.5V16.5H17V63.5H64Z" fill="white" stroke="white" stroke-width="1.5"/>
</mask>
<g mask="url(#mask0_266_421)">
<path d="M46.2791 45.871L54.9724 51.1016L63.6631 45.871V56.0985L54.9724 61.3291L46.2791 56.0985V45.871Z" fill="#373737" fill-opacity="0.01" stroke="white" stroke-width="1.5" stroke-miterlimit="10" stroke-linecap="round" stroke-linejoin="round"/>
<path d="M43.3982 35.6059C44.398 35.383 45.3331 34.9883 46.1742 34.4566L46.7761 35.0554C47.0906 35.3723 47.6066 35.3723 47.9236 35.0554L49.5306 33.4497C49.8451 33.1356 49.8451 32.62 49.5306 32.3032L48.9287 31.7017C49.4692 30.8501 49.8592 29.9119 50.0816 28.928H50.9307C51.3768 28.928 51.7422 28.5629 51.7422 28.1171V25.8455C51.7422 25.3997 51.3768 25.0346 50.9307 25.0346H50.0816C49.8593 24.0507 49.4693 23.1125 48.9287 22.2609L49.5306 21.6594C49.8451 21.3453 49.8451 20.827 49.5306 20.5128L47.9236 18.9072C47.6066 18.5903 47.0906 18.5903 46.7761 18.9072L46.1742 19.506C45.3331 18.9743 44.398 18.5796 43.3982 18.3567V17.5083C43.3982 17.0625 43.0328 16.6973 42.584 16.6973H40.3133C39.8645 16.6973 39.499 17.0625 39.499 17.5083V18.3567C38.4994 18.5796 37.5641 18.9743 36.7231 19.506L36.1238 18.9072C35.8067 18.5903 35.2908 18.5903 34.9736 18.9072L33.3666 20.5128C33.0522 20.827 33.0522 21.3453 33.3666 21.6594L33.9686 22.2609C33.428 23.1124 33.038 24.0507 32.8158 25.0346H31.9666C31.5205 25.0346 31.155 25.3997 31.155 25.8455V28.1171C31.155 28.5629 31.5205 28.928 31.9666 28.928H32.8158C33.038 29.9119 33.428 30.8502 33.9686 31.7017L33.3666 32.3032C33.0522 32.62 33.0522 33.1356 33.3666 33.4497L34.9736 35.0554C35.2908 35.3723 35.8067 35.3723 36.1238 35.0554L36.7231 34.4566C37.5641 34.9883 38.4994 35.383 39.499 35.6059V36.4544C39.499 36.9001 39.8645 37.2653 40.3133 37.2653H42.584C43.0328 37.2653 43.3982 36.9001 43.3982 36.4544V35.6059Z" fill="#373737" fill-opacity="0.01" stroke="white" stroke-width="1.5" stroke-miterlimit="10" stroke-linecap="round" stroke-linejoin="round"/>
<path d="M27.9248 42.614C29.0481 42.614 29.9645 41.701 29.9645 40.5787C29.9645 39.4562 29.0481 38.5434 27.9248 38.5434C26.8042 38.5434 25.8879 39.4562 25.8879 40.5787C25.8879 41.701 26.8042 42.614 27.9248 42.614Z" fill="#373737" fill-opacity="0.01" stroke="white" stroke-width="1.5" stroke-miterlimit="10" stroke-linecap="round" stroke-linejoin="round"/>
<path d="M36.6184 47.8445C37.739 47.8445 38.6553 46.9315 38.6553 45.8092C38.6553 44.6868 37.739 43.7739 36.6184 43.7739C35.4951 43.7739 34.5787 44.6868 34.5787 45.8092C34.5787 46.9315 35.4951 47.8445 36.6184 47.8445Z" fill="#373737" fill-opacity="0.01" stroke="white" stroke-width="1.5" stroke-miterlimit="10" stroke-linecap="round" stroke-linejoin="round"/>
<path d="M19.2342 47.8445C20.3574 47.8445 21.2738 46.9315 21.2738 45.8092C21.2738 44.6868 20.3574 43.7739 19.2342 43.7739C18.1136 43.7739 17.1973 44.6868 17.1973 45.8092C17.1973 46.9315 18.1136 47.8445 19.2342 47.8445Z" fill="#373737" fill-opacity="0.01" stroke="white" stroke-width="1.5" stroke-miterlimit="10" stroke-linecap="round" stroke-linejoin="round"/>
<path d="M29.6716 41.6285L34.8716 44.7593L29.6716 41.6285ZM20.981 44.7593L26.1809 41.6285L20.981 44.7593Z" fill="#373737" fill-opacity="0.01"/>
<path d="M29.6716 41.6285L34.8716 44.7593M20.981 44.7593L26.1809 41.6285" stroke="white" stroke-width="1.5" stroke-miterlimit="10" stroke-linecap="round" stroke-linejoin="round"/>
<path d="M27.9248 53.0751C29.0481 53.0751 29.9645 52.1622 29.9645 51.0398C29.9645 49.9175 29.0481 49.0045 27.9248 49.0045C26.8042 49.0045 25.8879 49.9175 25.8879 51.0398C25.8879 52.1622 26.8042 53.0751 27.9248 53.0751ZM27.9248 53.0751V59.2294V53.0751Z" fill="#373737" fill-opacity="0.01"/>
<path d="M27.9248 53.0751C29.0481 53.0751 29.9645 52.1622 29.9645 51.0398C29.9645 49.9175 29.0481 49.0045 27.9248 49.0045C26.8042 49.0045 25.8879 49.9175 25.8879 51.0398C25.8879 52.1622 26.8042 53.0751 27.9248 53.0751ZM27.9248 53.0751V59.2294" stroke="white" stroke-width="1.5" stroke-miterlimit="10" stroke-linecap="round" stroke-linejoin="round"/>
<path d="M19.2342 58.0721C20.3574 58.0721 21.2738 57.1565 21.2738 56.0341C21.2738 54.9144 20.3574 53.9988 19.2342 53.9988C18.1136 53.9988 17.1973 54.9144 17.1973 56.0341C17.1973 57.1565 18.1136 58.0721 19.2342 58.0721Z" fill="#373737" fill-opacity="0.01" stroke="white" stroke-width="1.5" stroke-miterlimit="10" stroke-linecap="round" stroke-linejoin="round"/>
<path d="M27.9248 63.3027C29.0481 63.3027 29.9645 62.3871 29.9645 61.2647C29.9645 60.145 29.0481 59.2294 27.9248 59.2294C26.8042 59.2294 25.8879 60.145 25.8879 61.2647C25.8879 62.3871 26.8042 63.3027 27.9248 63.3027Z" fill="#373737" fill-opacity="0.01" stroke="white" stroke-width="1.5" stroke-miterlimit="10" stroke-linecap="round" stroke-linejoin="round"/>
<path d="M36.6184 58.0721C37.739 58.0721 38.6553 57.1565 38.6553 56.0341C38.6553 54.9144 37.739 53.9988 36.6184 53.9988C35.4951 53.9988 34.5787 54.9144 34.5787 56.0341C34.5787 57.1565 35.4951 58.0721 36.6184 58.0721Z" fill="#373737" fill-opacity="0.01" stroke="white" stroke-width="1.5" stroke-miterlimit="10" stroke-linecap="round" stroke-linejoin="round"/>
<path d="M20.981 46.8591L26.1809 49.9899L20.981 46.8591ZM19.2343 53.9989V47.8446V53.9989ZM26.1809 60.2149L20.981 57.0868L26.1809 60.2149ZM34.8715 57.0868L29.6717 60.2149L34.8715 57.0868ZM36.6183 47.8446V53.9989V47.8446ZM29.6717 49.9899L34.8715 46.8591L29.6717 49.9899Z" fill="#373737" fill-opacity="0.01"/>
<path d="M20.981 46.8591L26.1809 49.9899M19.2343 53.9989V47.8446M26.1809 60.2149L20.981 57.0868M34.8715 57.0868L29.6717 60.2149M36.6183 47.8446V53.9989M29.6717 49.9899L34.8715 46.8591" stroke="white" stroke-width="1.5" stroke-miterlimit="10" stroke-linecap="round" stroke-linejoin="round"/>
<path d="M46.2791 45.8709L54.9724 40.6403L63.6631 45.8709" fill="#373737" fill-opacity="0.01"/>
<path d="M46.2791 45.8709L54.9724 40.6403L63.6631 45.8709" stroke="white" stroke-width="1.5" stroke-miterlimit="10" stroke-linecap="round" stroke-linejoin="round"/>
<path d="M54.9724 51.1016V61.3291V51.1016Z" fill="#373737" fill-opacity="0.01"/>
<path d="M54.9724 51.1016V61.3291" stroke="white" stroke-width="1.5" stroke-miterlimit="10" stroke-linecap="round" stroke-linejoin="round"/>
<path d="M41.4498 31.8869C44.2258 31.8869 46.4884 29.6233 46.4884 26.8497C46.4884 24.0732 44.2258 21.8124 41.4498 21.8124C38.6712 21.8124 36.4084 24.0732 36.4084 26.8497C36.4084 29.6233 38.6712 31.8869 41.4498 31.8869Z" fill="#373737" fill-opacity="0.01" stroke="white" stroke-width="1.5" stroke-miterlimit="10" stroke-linecap="round" stroke-linejoin="round"/>
<path d="M20.3414 35.3856V38.1137V35.3856ZM27.3633 24.1404H20.3414V26.8739" fill="#373737" fill-opacity="0.01"/>
<path d="M20.3414 35.3856V38.1137M27.3633 24.1404H20.3414V26.8739" stroke="white" stroke-width="1.5" stroke-miterlimit="10" stroke-linecap="round" stroke-linejoin="round"/>
<path d="M24.1062 27.3948L27.3632 24.1404L24.1062 20.8834" fill="#373737" fill-opacity="0.01"/>
<path d="M24.1062 27.3948L27.3632 24.1404L24.1062 20.8834" stroke="white" stroke-width="1.5" stroke-miterlimit="10" stroke-linecap="round" stroke-linejoin="round"/>
<path d="M55.5338 24.1404H60.5456V38.1191" fill="#373737" fill-opacity="0.01"/>
<path d="M55.5338 24.1404H60.5456V38.1191" stroke="white" stroke-width="1.5" stroke-miterlimit="10" stroke-linecap="round" stroke-linejoin="round"/>
<path d="M57.2861 34.862L60.5458 38.119L63.8028 34.862" fill="#373737" fill-opacity="0.01"/>
<path d="M57.2861 34.862L60.5458 38.119L63.8028 34.862" stroke="white" stroke-width="1.5" stroke-miterlimit="10" stroke-linecap="round" stroke-linejoin="round"/>
<path d="M20.3414 31.1325V31.1268V31.1325Z" fill="#373737" fill-opacity="0.01"/>
<path d="M20.3414 31.1325V31.1268" stroke="white" stroke-width="1.5" stroke-miterlimit="10" stroke-linecap="round" stroke-linejoin="round"/>
</g>
</svg>
