<svg width="140" height="140" viewBox="0 0 140 140" fill="none" xmlns="http://www.w3.org/2000/svg">
<g id="Group">
<path id="Vector" d="M88.1374 122.855C70.1228 129.035 49.9873 125.501 35.1544 113.661C35.5499 112.796 35.7543 111.856 35.7538 110.905C35.7538 107.233 32.7662 104.245 29.0939 104.245C28.1424 104.245 27.202 104.449 26.3367 104.845C16.5033 92.5307 12.3518 76.5385 14.8554 61.0283L17.8458 65.1691C18.0297 65.4241 18.2716 65.6316 18.5515 65.7747C18.8315 65.9177 19.1414 65.992 19.4558 65.9915C19.8211 65.9912 20.1792 65.8901 20.4906 65.6993C20.8021 65.5085 21.0548 65.2354 21.221 64.9101C21.3871 64.5848 21.4602 64.22 21.4323 63.8558C21.4043 63.4916 21.2763 63.1422 21.0624 62.8461L15.4168 55.0285C15.2643 54.8172 15.0717 54.6381 14.85 54.5013C14.6283 54.3645 14.3817 54.2727 14.1245 54.2312C13.8673 54.1898 13.6044 54.1994 13.3509 54.2595C13.0974 54.3197 12.8583 54.4292 12.6471 54.5819L4.82956 60.2275C4.40534 60.5364 4.1208 61.0008 4.03823 61.519C3.95566 62.0372 4.08179 62.5671 4.38901 62.9925C4.69623 63.418 5.1595 63.7044 5.67741 63.789C6.19531 63.8736 6.72565 63.7496 7.1523 63.444L10.8796 60.7523C8.30829 77.3232 12.8214 94.376 23.3766 107.494C22.7585 108.524 22.4325 109.704 22.4338 110.905C22.4338 114.578 25.4214 117.565 29.0937 117.565C30.34 117.565 31.5068 117.22 32.5055 116.622C43.2458 125.261 56.6078 129.818 70.1171 129.818C76.6109 129.818 83.1385 128.765 89.4246 126.609C89.671 126.524 89.8984 126.392 90.0937 126.219C90.289 126.047 90.4485 125.838 90.5629 125.604C90.6774 125.37 90.7447 125.116 90.7609 124.856C90.7771 124.595 90.7419 124.335 90.6573 124.088C90.5729 123.842 90.4407 123.614 90.2684 123.419C90.096 123.224 89.8868 123.064 89.6528 122.95C89.4188 122.835 89.1645 122.768 88.9045 122.752C88.6444 122.736 88.3838 122.771 88.1374 122.855ZM26.4016 110.905C26.4016 109.421 27.6095 108.213 29.0939 108.213C30.5784 108.213 31.7862 109.421 31.7862 110.905C31.7862 112.39 30.5787 113.598 29.0939 113.598C27.6092 113.597 26.4016 112.39 26.4016 110.905ZM51.8617 17.1437C69.8779 10.9625 90.0132 14.4973 104.845 26.3374C104.449 27.2025 104.245 28.1426 104.245 29.0938C104.245 32.7661 107.233 35.7537 110.905 35.7537C111.888 35.7537 112.821 35.538 113.662 35.154C123.556 47.5238 127.691 63.3089 125.146 78.9749L122.153 74.8299C121.844 74.4057 121.38 74.1211 120.862 74.0386C120.343 73.956 119.814 74.0821 119.388 74.3893C118.963 74.6966 118.676 75.1598 118.592 75.6777C118.507 76.1956 118.631 76.726 118.937 77.1526L124.582 84.9702C124.734 85.1815 124.927 85.3606 125.149 85.4974C125.37 85.6342 125.617 85.726 125.874 85.7675C126.131 85.809 126.394 85.7993 126.648 85.7392C126.901 85.679 127.14 85.5695 127.352 85.4168L135.169 79.7712C135.593 79.4623 135.878 78.9979 135.961 78.4797C136.043 77.9615 135.917 77.4316 135.61 77.0062C135.303 76.5807 134.839 76.2944 134.321 76.2097C133.803 76.1251 133.273 76.2491 132.846 76.5547L129.115 79.2489C130.366 71.1695 129.957 62.8044 127.901 54.9103C125.78 46.7722 121.893 39.0589 116.622 32.5034C117.24 31.4731 117.566 30.2942 117.565 29.0929C117.565 25.4206 114.577 22.433 110.905 22.433C109.703 22.4318 108.524 22.7576 107.494 23.3756C91.5923 10.5835 69.9391 6.74604 50.5739 13.3901C50.0761 13.5608 49.6666 13.9223 49.4354 14.3951C49.2042 14.8678 49.1702 15.413 49.341 15.9107C49.5117 16.4085 49.8732 16.818 50.346 17.0493C50.8187 17.2805 51.3639 17.3144 51.8617 17.1437ZM113.597 29.0938C113.597 30.5782 112.39 31.7861 110.905 31.7861C109.421 31.7861 108.213 30.5782 108.213 29.0938C108.213 27.6093 109.421 26.4015 110.905 26.4015C112.39 26.4015 113.597 27.6093 113.597 29.0938ZM20.2476 5.53847V1.9838C20.2476 1.45766 20.4566 0.953074 20.8287 0.58104C21.2007 0.209007 21.7053 0 22.2314 0C22.7576 0 23.2621 0.209007 23.6342 0.58104C24.0062 0.953074 24.2152 1.45766 24.2152 1.9838V5.53847C24.2152 6.06461 24.0062 6.56919 23.6342 6.94123C23.2621 7.31326 22.7576 7.52227 22.2314 7.52227C21.7053 7.52227 21.2007 7.31326 20.8287 6.94123C20.4566 6.56919 20.2476 6.06461 20.2476 5.53847ZM8.82351 6.10811C8.6912 5.88241 8.60483 5.63277 8.56939 5.37356C8.53395 5.11435 8.55013 4.85068 8.617 4.59775C8.68387 4.34482 8.80011 4.10761 8.95903 3.89979C9.11795 3.69196 9.31641 3.51762 9.54298 3.38681C9.76955 3.25599 10.0198 3.17129 10.2792 3.13757C10.5386 3.10384 10.8022 3.12177 11.0547 3.19032C11.3072 3.25887 11.5436 3.37668 11.7504 3.53697C11.9571 3.69727 12.1301 3.89688 12.2594 4.12431L14.0366 7.20288C14.169 7.42858 14.2553 7.67822 14.2908 7.93743C14.3262 8.19664 14.31 8.4603 14.2432 8.71323C14.1763 8.96616 14.06 9.20337 13.9011 9.4112C13.7422 9.61902 13.5437 9.79336 13.3172 9.92418C13.0906 10.055 12.8404 10.1397 12.581 10.1734C12.3215 10.2071 12.058 10.1892 11.8055 10.1207C11.553 10.0521 11.3166 9.9343 11.1098 9.77401C10.903 9.61372 10.73 9.41411 10.6007 9.18667L8.82351 6.10811ZM4.07062 17.1692L0.992053 15.392C0.536382 15.129 0.203863 14.6957 0.0676451 14.1875C-0.0685724 13.6793 0.00266997 13.1378 0.2657 12.6821C0.52873 12.2264 0.962002 11.8939 1.4702 11.7577C1.9784 11.6215 2.51989 11.6927 2.97556 11.9558L6.05413 13.733C6.5098 13.996 6.84232 14.4293 6.97854 14.9375C7.11476 15.4457 7.04351 15.9872 6.78048 16.4428C6.51745 16.8985 6.08418 17.231 5.57598 17.3672C5.06779 17.5035 4.52629 17.4322 4.07062 17.1692ZM30.4262 7.20288L32.2037 4.12431C32.4686 3.67239 32.9015 3.3436 33.408 3.20971C33.9145 3.07581 34.4533 3.14767 34.907 3.4096C35.3606 3.67153 35.6923 4.10228 35.8296 4.60783C35.9668 5.11339 35.8985 5.65271 35.6396 6.10811L33.8621 9.18667C33.732 9.41241 33.5586 9.61029 33.352 9.76898C33.1453 9.92766 32.9094 10.0441 32.6577 10.1115C32.406 10.1789 32.1435 10.1961 31.8852 10.162C31.6269 10.1279 31.3778 10.0432 31.1523 9.91274C30.6966 9.64967 30.3642 9.21637 30.228 8.70818C30.0919 8.19998 30.1631 7.65851 30.4262 7.20288ZM37.6826 16.4428C37.5524 16.2172 37.4679 15.9681 37.4339 15.7098C37.3999 15.4516 37.4171 15.1891 37.4846 14.9375C37.552 14.6858 37.6684 14.4499 37.827 14.2433C37.9856 14.0366 38.1834 13.8632 38.409 13.733L41.4876 11.9558C41.9432 11.6927 42.4847 11.6215 42.9929 11.7577C43.5011 11.8939 43.9344 12.2264 44.1974 12.6821C44.4604 13.1378 44.5317 13.6793 44.3955 14.1875C44.2593 14.6957 43.9267 15.129 43.4711 15.392L40.3925 17.1692C40.1669 17.2995 39.9178 17.3841 39.6595 17.4181C39.4012 17.4521 39.1387 17.4349 38.8871 17.3675C38.6354 17.3 38.3995 17.1836 38.1929 17.025C37.9862 16.8663 37.8128 16.6685 37.6826 16.4428ZM35.272 23.0973C35.272 15.9069 29.4221 10.057 22.2314 10.057C15.0407 10.057 9.19108 15.9069 9.19108 23.0973C9.19108 26.7461 10.3777 28.5822 11.5252 30.3583C12.5516 31.9468 13.6084 33.584 14.093 37.1528C13.0241 37.8287 12.3105 39.0181 12.3105 40.3736V44.3186C12.3105 46.3862 13.9655 48.0744 16.0202 48.1289C16.0989 50.1044 17.7308 51.6872 19.7253 51.6872H24.7378C26.7324 51.6872 28.3639 50.1044 28.443 48.1289C30.4979 48.0747 32.1529 46.3865 32.1529 44.3186V40.3736C32.1529 39.0179 31.4393 37.8284 30.3704 37.1525C30.855 33.5837 31.9115 31.9465 32.938 30.358C34.0854 28.5825 35.272 26.7461 35.272 23.0973ZM28.1851 44.163H26.462C25.9359 44.163 25.4313 44.372 25.0592 44.744C24.6872 45.116 24.4782 45.6206 24.4782 46.1468V47.7199H19.9849V46.1468C19.9849 45.6206 19.7759 45.116 19.4039 44.744C19.0318 44.372 18.5272 44.163 18.0011 44.163H16.278V40.5298H28.1851V44.163ZM29.6055 28.205C28.4563 29.9837 27.0588 32.1488 26.4475 36.5619H24.2152V26.3003L27.9646 24.1357C28.192 24.0064 28.3916 23.8334 28.5519 23.6266C28.7122 23.4198 28.83 23.1834 28.8986 22.9309C28.9671 22.6784 28.9851 22.4149 28.9513 22.1555C28.9176 21.896 28.8329 21.6458 28.7021 21.4192C28.5713 21.1927 28.3969 20.9942 28.1891 20.8353C27.9813 20.6764 27.7441 20.5601 27.4911 20.4933C27.2382 20.4264 26.9746 20.4102 26.7153 20.4457C26.4561 20.4811 26.2065 20.5675 25.9808 20.6998L22.2314 22.8644L18.482 20.6998C18.2563 20.5675 18.0067 20.4811 17.7475 20.4457C17.4883 20.4102 17.2246 20.4264 16.9717 20.4933C16.7188 20.5601 16.4815 20.6764 16.2737 20.8353C16.0659 20.9942 15.8916 21.1927 15.7607 21.4192C15.6299 21.6458 15.5452 21.896 15.5115 22.1555C15.4778 22.4149 15.4957 22.6784 15.5643 22.9309C15.6328 23.1834 15.7506 23.4198 15.9109 23.6266C16.0712 23.8334 16.2708 24.0064 16.4982 24.1357L20.2476 26.3003V36.5619H18.0153C17.404 32.1488 16.0065 29.9834 14.8574 28.205C13.8343 26.6217 13.1584 25.5757 13.1584 23.0973C13.1584 18.0945 17.2286 14.0246 22.2314 14.0246C27.2343 14.0246 31.3044 18.0945 31.3044 23.0973C31.3044 25.5759 30.6285 26.622 29.6055 28.205ZM136.502 109.173C135.201 109.173 134.127 108.453 133.627 107.248C133.128 106.042 133.379 104.774 134.299 103.853C135.663 102.49 135.663 100.271 134.299 98.9075L131.04 95.6487C129.677 94.2853 127.458 94.2855 126.094 95.6487C125.174 96.5683 123.905 96.8197 122.7 96.3204C121.495 95.821 120.776 94.7463 120.776 93.4455C120.776 91.517 119.207 89.9481 117.278 89.9481H112.67C110.742 89.9481 109.173 91.517 109.173 93.4455C109.173 94.7463 108.453 95.821 107.248 96.3204C106.043 96.82 104.773 96.5683 103.854 95.6484C102.49 94.2847 100.271 94.285 98.9077 95.6484L95.6491 98.9069C95.3234 99.2309 95.0651 99.6163 94.8893 100.041C94.7135 100.465 94.6237 100.92 94.6249 101.38C94.6249 102.314 94.9888 103.192 95.6491 103.853C96.569 104.773 96.8201 106.042 96.3208 107.247C95.8214 108.452 94.7468 109.172 93.446 109.172C91.5175 109.172 89.9488 110.741 89.9488 112.669V117.277C89.9488 119.206 91.5177 120.775 93.446 120.775C94.7468 120.775 95.8214 121.494 96.3208 122.7C96.8201 123.905 96.5688 125.174 95.6491 126.094C94.9885 126.754 94.6249 127.633 94.6249 128.567C94.6249 129.501 94.9888 130.38 95.6491 131.04L98.9077 134.298C99.5683 134.959 100.447 135.323 101.381 135.323C102.315 135.323 103.194 134.959 103.854 134.299C104.776 133.377 106.045 133.124 107.25 133.623C108.454 134.122 109.173 135.198 109.173 136.502C109.173 138.43 110.742 139.999 112.67 139.999H117.278C119.207 139.999 120.776 138.43 120.776 136.502C120.776 135.201 121.495 134.126 122.701 133.627C123.906 133.128 125.175 133.379 126.095 134.299C127.458 135.662 129.677 135.662 131.041 134.299L134.299 131.04C135.663 129.677 135.663 127.458 134.299 126.094C133.38 125.174 133.128 123.905 133.628 122.7C134.127 121.495 135.202 120.775 136.503 120.775C138.431 120.775 140 119.206 140 117.278V112.67C139.999 110.741 138.43 109.173 136.502 109.173ZM136.032 116.822C133.318 116.992 131.019 118.63 129.961 121.182C128.904 123.734 129.372 126.518 131.171 128.557L128.557 131.171C126.518 129.372 123.733 128.904 121.182 129.962C118.63 131.018 116.992 133.318 116.822 136.032H113.125C112.955 133.315 111.319 131.015 108.767 129.958C106.217 128.901 103.432 129.37 101.391 131.171L98.7764 128.557C100.575 126.517 101.043 123.734 99.986 121.182C98.9292 118.63 96.6297 116.992 93.9161 116.822V113.125C96.63 112.955 98.9292 111.318 99.986 108.766C101.043 106.214 100.575 103.43 98.7764 101.391L101.391 98.7766C103.43 100.576 106.214 101.043 108.766 99.9861C111.318 98.929 112.955 96.6301 113.125 93.916H116.822C116.992 96.6301 118.63 98.929 121.182 99.9861C123.733 101.043 126.518 100.576 128.557 98.7766L131.171 101.391C129.372 103.43 128.904 106.214 129.961 108.766C131.018 111.318 133.318 112.955 136.032 113.125V116.822ZM114.974 101.919C107.776 101.919 101.919 107.776 101.919 114.974C101.919 122.172 107.776 128.028 114.974 128.028C122.172 128.028 128.029 122.172 128.029 114.974C128.029 107.775 122.172 101.919 114.974 101.919ZM114.974 124.061C109.963 124.061 105.887 119.984 105.887 114.974C105.887 109.963 109.963 105.887 114.974 105.887C119.985 105.887 124.061 109.963 124.061 114.974C124.061 119.984 119.985 124.061 114.974 124.061ZM70.9914 33.5372C70.6898 33.3631 70.3477 33.2715 69.9995 33.2715C69.6513 33.2715 69.3092 33.3631 69.0076 33.5372L38.918 50.9096C38.6164 51.0837 38.3659 51.3341 38.1918 51.6357C38.0177 51.9372 37.9261 52.2793 37.9261 52.6275V87.372C37.9261 87.7202 38.0177 88.0623 38.1918 88.3639C38.3659 88.6655 38.6164 88.9159 38.918 89.09L69.0076 106.462C69.3092 106.636 69.6513 106.728 69.9995 106.728C70.3477 106.728 70.6898 106.636 70.9914 106.462L101.081 89.0897C101.383 88.9156 101.633 88.6652 101.807 88.3636C101.981 88.0621 102.073 87.72 102.073 87.3717V52.6275C102.073 52.2793 101.981 51.9372 101.807 51.6357C101.633 51.3341 101.383 51.0837 101.081 50.9096L70.9914 33.5372ZM69.9995 37.5456L96.1216 52.6273L89.2296 56.6065L63.1075 41.5248L69.9995 37.5456ZM69.9995 67.7089L43.8775 52.6275L50.7694 48.6483L76.8915 63.73L69.9995 67.7089ZM80.8591 61.439L54.737 46.3573L59.1399 43.8152L85.262 58.8969L80.8591 61.439ZM82.8429 64.8749L87.2458 62.3331V72.2286L82.8429 74.7707V64.8749ZM41.8937 56.0632L68.0157 71.1449V101.308L41.8937 86.2265V56.0632ZM71.9833 101.308V71.1449L78.8753 67.1656V78.2063C78.8752 78.5546 78.9668 78.8967 79.1409 79.1983C79.315 79.5 79.5655 79.7504 79.8671 79.9245C80.1687 80.0987 80.5108 80.1903 80.8591 80.1903C81.2073 80.1902 81.5494 80.0985 81.851 79.9243L90.2215 75.0918C90.5231 74.9177 90.7735 74.6673 90.9476 74.3657C91.1217 74.0641 91.2134 73.722 91.2134 73.3738V60.0424L98.1054 56.0632V86.2262L71.9833 101.308Z" fill="#373737"/>
</g>
</svg>
