<svg width="70" height="70" viewBox="0 0 70 70" fill="none" xmlns="http://www.w3.org/2000/svg">
<g id="Group">
<path id="Vector" d="M13.5877 6.77441C9.8517 6.77441 6.81348 9.81264 6.81348 13.5486C6.81348 17.2846 9.8517 20.3228 13.5877 20.3228C17.3236 20.3228 20.3619 17.2846 20.3619 13.5486C20.3619 9.81264 17.3236 6.77441 13.5877 6.77441ZM13.5877 18.0647C11.097 18.0647 9.07154 16.0393 9.07154 13.5486C9.07154 11.058 11.097 9.03248 13.5877 9.03248C16.0783 9.03248 18.1038 11.058 18.1038 13.5486C18.1038 16.0393 16.0783 18.0647 13.5877 18.0647ZM64.0238 53.8234L62.4273 52.227L54.1933 60.461L52.7335 59.0012L51.137 60.5976L54.1933 63.6539L64.0238 53.8234ZM38.3869 12.3801H40.6449V14.6381H38.3869V12.3801ZM51.9352 12.3801H54.1933V14.6381H51.9352V12.3801ZM47.4191 12.3801H49.6772V14.6381H47.4191V12.3801ZM42.903 12.3801H45.1611V14.6381H42.903V12.3801Z" fill="white"/>
<path id="Vector_2" d="M25.9677 40.6056H44.0323C45.8997 40.6056 47.4194 39.086 47.4194 37.2185V36.0895H62.0968C66.4537 36.0895 70 32.5444 70 28.1863V20.2831C70 15.925 66.4537 12.3798 62.0968 12.3798H58.7097V11.2508C58.7097 9.38339 57.19 7.86371 55.3226 7.86371H37.2581C35.3906 7.86371 33.871 9.38339 33.871 11.2508V12.3798H27.1363V10.4289L24.1726 9.61936C24.0755 9.35968 23.9671 9.10113 23.8497 8.84597L25.375 6.17468L20.9627 1.76242L18.2926 3.28661C18.0363 3.16919 17.7789 3.06081 17.5192 2.96371L16.7085 0H10.4684L9.65774 2.96371C9.39627 3.06137 9.13865 3.16909 8.88548 3.28661L6.21419 1.76242L1.80194 6.17468L3.32613 8.84597C3.20871 9.10113 3.10032 9.35968 3.00323 9.61936L0.0395161 10.4289V16.6679L3.00323 17.4785C3.10032 17.7382 3.20871 17.9968 3.32613 18.2519L1.80081 20.9232L6.21306 25.3344L8.88436 23.8102C9.13952 23.9276 9.39694 24.036 9.65661 24.1331L10.4673 27.0968H16.7074L17.5181 24.1331C17.7766 24.036 18.0352 23.9276 18.2915 23.8102L20.9616 25.3332L25.3739 20.9221L23.8485 18.2508C23.966 17.9956 24.0744 17.7371 24.1715 17.4774L27.1352 16.6668V14.6379H33.871V15.7669C33.871 17.6344 35.3906 19.154 37.2581 19.154H55.3226C57.19 19.154 58.7097 17.6344 58.7097 15.7669V14.6379H62.0968C65.2095 14.6379 67.7419 17.1703 67.7419 20.2831V28.1863C67.7419 31.299 65.2095 33.8315 62.0968 33.8315H47.4194V32.7024C47.4194 30.835 45.8997 29.3153 44.0323 29.3153H25.9677C24.1003 29.3153 22.5806 30.835 22.5806 32.7024V33.8315H7.90323C3.54629 33.8315 0 37.3777 0 41.7347V50.7669C0 55.1239 3.54629 58.6702 7.90323 58.6702H11.2903V59.7992C11.2903 61.6666 12.81 63.1863 14.6774 63.1863H32.7419C34.6094 63.1863 36.129 61.6666 36.129 59.7992V58.6702H45.2189C45.7913 64.9905 51.1135 69.9605 57.5806 69.9605C64.4282 69.9605 70 64.3887 70 57.5411C70 50.6936 64.4282 45.1218 57.5806 45.1218C51.1135 45.1218 45.7913 50.0918 45.2189 56.4121H36.129V55.2831C36.129 53.4156 34.6094 51.896 32.7419 51.896H14.6774C12.81 51.896 11.2903 53.4156 11.2903 55.2831V56.4121H7.90323C4.79048 56.4121 2.25806 53.8797 2.25806 50.7669V41.7347C2.25806 38.6219 4.79048 36.0895 7.90323 36.0895H22.5806V37.2185C22.5806 39.086 24.1003 40.6056 25.9677 40.6056ZM24.8782 14.945L22.4023 15.6224L22.2205 16.2152C22.0533 16.7495 21.8371 17.2673 21.5747 17.7619L21.2834 18.3106L22.5592 20.545L20.5856 22.5197L18.3502 21.245L17.8026 21.5352C17.3084 21.7981 16.7905 22.014 16.2558 22.1798L15.6642 22.3627L14.9856 24.8387H12.1935L11.515 22.3627L10.9234 22.1798C10.3888 22.0136 9.87098 21.7978 9.37661 21.5352L8.8279 21.245L6.59355 22.5197L4.61774 20.545L5.89355 18.3106L5.60226 17.7619C5.33933 17.2676 5.12313 16.7497 4.95645 16.2152L4.77468 15.6224L2.29871 14.945V12.1518L4.77468 11.4755L4.95758 10.8827C5.11903 10.36 5.33581 9.83952 5.60226 9.3371L5.89355 8.78726L4.61774 6.5529L6.59129 4.57823L8.82565 5.8529L9.37436 5.56274C9.86884 5.30005 10.3867 5.08386 10.9211 4.91694L11.5127 4.73403L12.1913 2.25806H14.9834L15.6619 4.73403L16.2535 4.91694C16.7752 5.07839 17.2956 5.29516 17.8003 5.56274L18.3479 5.8529L20.5834 4.57823L22.5569 6.5529L21.2811 8.78726L21.5724 9.33597C21.8389 9.83839 22.0568 10.3589 22.2171 10.8816L22.4 11.4744L24.876 12.1506V14.945H24.8782ZM56.4516 15.7669C56.4516 16.389 55.9458 16.896 55.3226 16.896H37.2581C36.6348 16.896 36.129 16.389 36.129 15.7669V11.2508C36.129 10.6287 36.6348 10.1218 37.2581 10.1218H55.3226C55.9458 10.1218 56.4516 10.6287 56.4516 11.2508V15.7669ZM57.5806 47.3798C63.184 47.3798 67.7419 51.9377 67.7419 57.5411C67.7419 63.1445 63.184 67.7024 57.5806 67.7024C51.9773 67.7024 47.4194 63.1445 47.4194 57.5411C47.4194 51.9377 51.9773 47.3798 57.5806 47.3798ZM13.5484 55.2831C13.5484 54.9836 13.6673 54.6965 13.8791 54.4847C14.0908 54.273 14.378 54.154 14.6774 54.154H32.7419C33.0414 54.154 33.3285 54.273 33.5403 54.4847C33.752 54.6965 33.871 54.9836 33.871 55.2831V59.7992C33.871 60.0986 33.752 60.3858 33.5403 60.5975C33.3285 60.8093 33.0414 60.9282 32.7419 60.9282H14.6774C14.378 60.9282 14.0908 60.8093 13.8791 60.5975C13.6673 60.3858 13.5484 60.0986 13.5484 59.7992V55.2831ZM24.8387 32.7024C24.8387 32.0803 25.3445 31.5734 25.9677 31.5734H44.0323C44.6555 31.5734 45.1613 32.0803 45.1613 32.7024V37.2185C45.1613 37.518 45.0423 37.8052 44.8306 38.0169C44.6189 38.2286 44.3317 38.3476 44.0323 38.3476H25.9677C25.6683 38.3476 25.3811 38.2286 25.1694 38.0169C24.9577 37.8052 24.8387 37.518 24.8387 37.2185V32.7024Z" fill="white"/>
<path id="Vector_3" d="M36.1292 33.8311H38.3873V36.0891H36.1292V33.8311ZM31.6131 33.8311H33.8712V36.0891H31.6131V33.8311ZM27.097 33.8311H29.355V36.0891H27.097V33.8311ZM40.6453 33.8311H42.9034V36.0891H40.6453V33.8311ZM20.3228 56.4117H22.5808V58.6698H20.3228V56.4117ZM29.355 56.4117H31.6131V58.6698H29.355V56.4117ZM24.8389 56.4117H27.097V58.6698H24.8389V56.4117ZM15.8066 56.4117H18.0647V58.6698H15.8066V56.4117Z" fill="white"/>
</g>
</svg>
