<svg xmlns="http://www.w3.org/2000/svg" width="71" height="70" viewBox="0 0 71 70" fill="none">
  <path d="M14.0877 6.77441C10.3517 6.77441 7.31348 9.81264 7.31348 13.5486C7.31348 17.2846 10.3517 20.3228 14.0877 20.3228C17.8236 20.3228 20.8619 17.2846 20.8619 13.5486C20.8619 9.81264 17.8236 6.77441 14.0877 6.77441ZM14.0877 18.0647C11.597 18.0647 9.57154 16.0393 9.57154 13.5486C9.57154 11.058 11.597 9.03248 14.0877 9.03248C16.5783 9.03248 18.6038 11.058 18.6038 13.5486C18.6038 16.0393 16.5783 18.0647 14.0877 18.0647ZM64.5238 53.8234L62.9273 52.227L54.6933 60.461L53.2335 59.0012L51.637 60.5976L54.6933 63.6539L64.5238 53.8234ZM38.8869 12.3801H41.1449V14.6381H38.8869V12.3801ZM52.4352 12.3801H54.6933V14.6381H52.4352V12.3801ZM47.9191 12.3801H50.1772V14.6381H47.9191V12.3801ZM43.403 12.3801H45.6611V14.6381H43.403V12.3801Z" fill="#373737"/>
  <path d="M26.4677 40.6056H44.5323C46.3997 40.6056 47.9194 39.086 47.9194 37.2185V36.0895H62.5968C66.9537 36.0895 70.5 32.5444 70.5 28.1863V20.2831C70.5 15.925 66.9537 12.3798 62.5968 12.3798H59.2097V11.2508C59.2097 9.38339 57.69 7.86371 55.8226 7.86371H37.7581C35.8906 7.86371 34.371 9.38339 34.371 11.2508V12.3798H27.6363V10.4289L24.6726 9.61936C24.5755 9.35968 24.4671 9.10113 24.3497 8.84597L25.875 6.17468L21.4627 1.76242L18.7926 3.28661C18.5363 3.16919 18.2789 3.06081 18.0192 2.96371L17.2085 0H10.9684L10.1577 2.96371C9.89627 3.06137 9.63865 3.16909 9.38548 3.28661L6.71419 1.76242L2.30194 6.17468L3.82613 8.84597C3.70871 9.10113 3.60032 9.35968 3.50323 9.61936L0.539516 10.4289V16.6679L3.50323 17.4785C3.60032 17.7382 3.70871 17.9968 3.82613 18.2519L2.30081 20.9232L6.71306 25.3344L9.38436 23.8102C9.63952 23.9276 9.89694 24.036 10.1566 24.1331L10.9673 27.0968H17.2074L18.0181 24.1331C18.2766 24.036 18.5352 23.9276 18.7915 23.8102L21.4616 25.3332L25.8739 20.9221L24.3485 18.2508C24.466 17.9956 24.5744 17.7371 24.6715 17.4774L27.6352 16.6668V14.6379H34.371V15.7669C34.371 17.6344 35.8906 19.154 37.7581 19.154H55.8226C57.69 19.154 59.2097 17.6344 59.2097 15.7669V14.6379H62.5968C65.7095 14.6379 68.2419 17.1703 68.2419 20.2831V28.1863C68.2419 31.299 65.7095 33.8315 62.5968 33.8315H47.9194V32.7024C47.9194 30.835 46.3997 29.3153 44.5323 29.3153H26.4677C24.6003 29.3153 23.0806 30.835 23.0806 32.7024V33.8315H8.40323C4.04629 33.8315 0.5 37.3777 0.5 41.7347V50.7669C0.5 55.1239 4.04629 58.6702 8.40323 58.6702H11.7903V59.7992C11.7903 61.6666 13.31 63.1863 15.1774 63.1863H33.2419C35.1094 63.1863 36.629 61.6666 36.629 59.7992V58.6702H45.7189C46.2913 64.9905 51.6135 69.9605 58.0806 69.9605C64.9282 69.9605 70.5 64.3887 70.5 57.5411C70.5 50.6936 64.9282 45.1218 58.0806 45.1218C51.6135 45.1218 46.2913 50.0918 45.7189 56.4121H36.629V55.2831C36.629 53.4156 35.1094 51.896 33.2419 51.896H15.1774C13.31 51.896 11.7903 53.4156 11.7903 55.2831V56.4121H8.40323C5.29048 56.4121 2.75806 53.8797 2.75806 50.7669V41.7347C2.75806 38.6219 5.29048 36.0895 8.40323 36.0895H23.0806V37.2185C23.0806 39.086 24.6003 40.6056 26.4677 40.6056ZM25.3782 14.945L22.9023 15.6224L22.7205 16.2152C22.5533 16.7495 22.3371 17.2673 22.0747 17.7619L21.7834 18.3106L23.0592 20.545L21.0856 22.5197L18.8502 21.245L18.3026 21.5352C17.8084 21.7981 17.2905 22.014 16.7558 22.1798L16.1642 22.3627L15.4856 24.8387H12.6935L12.015 22.3627L11.4234 22.1798C10.8888 22.0136 10.371 21.7978 9.87661 21.5352L9.3279 21.245L7.09355 22.5197L5.11774 20.545L6.39355 18.3106L6.10226 17.7619C5.83933 17.2676 5.62313 16.7497 5.45645 16.2152L5.27468 15.6224L2.79871 14.945V12.1518L5.27468 11.4755L5.45758 10.8827C5.61903 10.36 5.83581 9.83952 6.10226 9.3371L6.39355 8.78726L5.11774 6.5529L7.09129 4.57823L9.32565 5.8529L9.87436 5.56274C10.3688 5.30005 10.8867 5.08386 11.4211 4.91694L12.0127 4.73403L12.6913 2.25806H15.4834L16.1619 4.73403L16.7535 4.91694C17.2752 5.07839 17.7956 5.29516 18.3003 5.56274L18.8479 5.8529L21.0834 4.57823L23.0569 6.5529L21.7811 8.78726L22.0724 9.33597C22.3389 9.83839 22.5568 10.3589 22.7171 10.8816L22.9 11.4744L25.376 12.1506V14.945H25.3782ZM56.9516 15.7669C56.9516 16.389 56.4458 16.896 55.8226 16.896H37.7581C37.1348 16.896 36.629 16.389 36.629 15.7669V11.2508C36.629 10.6287 37.1348 10.1218 37.7581 10.1218H55.8226C56.4458 10.1218 56.9516 10.6287 56.9516 11.2508V15.7669ZM58.0806 47.3798C63.684 47.3798 68.2419 51.9377 68.2419 57.5411C68.2419 63.1445 63.684 67.7024 58.0806 67.7024C52.4773 67.7024 47.9194 63.1445 47.9194 57.5411C47.9194 51.9377 52.4773 47.3798 58.0806 47.3798ZM14.0484 55.2831C14.0484 54.9836 14.1673 54.6965 14.3791 54.4847C14.5908 54.273 14.878 54.154 15.1774 54.154H33.2419C33.5414 54.154 33.8285 54.273 34.0403 54.4847C34.252 54.6965 34.371 54.9836 34.371 55.2831V59.7992C34.371 60.0986 34.252 60.3858 34.0403 60.5975C33.8285 60.8093 33.5414 60.9282 33.2419 60.9282H15.1774C14.878 60.9282 14.5908 60.8093 14.3791 60.5975C14.1673 60.3858 14.0484 60.0986 14.0484 59.7992V55.2831ZM25.3387 32.7024C25.3387 32.0803 25.8445 31.5734 26.4677 31.5734H44.5323C45.1555 31.5734 45.6613 32.0803 45.6613 32.7024V37.2185C45.6613 37.518 45.5423 37.8052 45.3306 38.0169C45.1189 38.2286 44.8317 38.3476 44.5323 38.3476H26.4677C26.1683 38.3476 25.8811 38.2286 25.6694 38.0169C25.4577 37.8052 25.3387 37.518 25.3387 37.2185V32.7024Z" fill="#373737"/>
  <path d="M36.6292 33.8311H38.8873V36.0891H36.6292V33.8311ZM32.1131 33.8311H34.3712V36.0891H32.1131V33.8311ZM27.597 33.8311H29.855V36.0891H27.597V33.8311ZM41.1453 33.8311H43.4034V36.0891H41.1453V33.8311ZM20.8228 56.4117H23.0808V58.6698H20.8228V56.4117ZM29.855 56.4117H32.1131V58.6698H29.855V56.4117ZM25.3389 56.4117H27.597V58.6698H25.3389V56.4117ZM16.3066 56.4117H18.5647V58.6698H16.3066V56.4117Z" fill="#373737"/>
</svg>