<svg width="64" height="70" viewBox="0 0 64 70" fill="none" xmlns="http://www.w3.org/2000/svg">
<g id="Group">
<g id="Outline">
<path id="Vector" d="M2.09209 43.9884L6.65565 46.6017V50.3941C6.65369 51.0961 6.83033 51.7871 7.16895 52.402C7.50757 53.017 7.99705 53.5357 8.59134 53.9094L33.0084 69.357C33.4872 69.6587 34.0223 69.8599 34.5812 69.9485C35.1401 70.0371 35.7111 70.0112 36.2597 69.8724L60.6512 63.655C61.5471 63.4271 62.3415 62.907 62.9088 62.177C63.4761 61.447 63.7838 60.5487 63.7833 59.6242V23.6995C63.7813 23.0123 63.61 22.3363 63.2845 21.731C62.9591 21.1258 62.4896 20.6101 61.9175 20.2294C54.5403 15.3382 32.3908 0.691727 32.3908 0.691727C31.9358 0.389208 31.4254 0.179852 30.889 0.0757521C30.3526 -0.0283473 29.8009 -0.0251257 29.2657 0.085231L3.33004 5.36954C2.39129 5.56281 1.54773 6.07347 0.941255 6.81563C0.33478 7.55779 0.00239185 8.48616 0 9.4446V40.3795C0.000911242 41.1118 0.194767 41.831 0.562044 42.4646C0.929321 43.0981 1.45705 43.6237 2.09209 43.9884ZM33.8329 67.9091L9.48098 52.504C9.1243 52.2797 8.83055 51.9684 8.62738 51.5993C8.4242 51.2301 8.31827 50.8154 8.31957 50.3941V47.5546L16.3873 52.1746C17.2894 52.6933 18.3536 52.8536 19.3685 52.6238L33.8329 49.3831V67.9091ZM60.8176 21.4969L48.8081 23.9499V13.7812C48.8081 13.7051 48.8052 13.6293 48.801 13.5538L60.8176 21.4969ZM48.8081 42.865V25.6481L62.0028 22.9529C62.0795 23.1944 62.1188 23.4462 62.1194 23.6995V59.6242C62.1197 60.1789 61.935 60.7179 61.5947 61.1559C61.2543 61.5939 60.7776 61.9059 60.24 62.0427L35.8489 68.2601C35.7331 68.2884 35.6155 68.3085 35.4968 68.32V49.0206L45.4968 46.9374C46.4311 46.7395 47.2694 46.2273 47.872 45.4863C48.4745 44.7452 48.8049 43.8201 48.8081 42.865ZM45.7568 45.0996C45.5667 45.1944 45.3653 45.2644 45.1574 45.3076L35.4968 47.321V38.3092L45.7568 45.0996ZM35.4968 36.3139V30.385C35.4984 29.81 35.6976 29.2531 36.0612 28.8077C36.4248 28.3623 36.9305 28.0555 37.4935 27.9389L47.1442 25.9685V42.865C47.1438 43.2144 47.0695 43.5597 46.9261 43.8783L35.4968 36.3139ZM47.1442 13.7817V23.403L44.9646 21.9625C44.8735 21.9004 44.771 21.8571 44.663 21.835C44.555 21.8129 44.4437 21.8125 44.3355 21.8337C44.2273 21.855 44.1245 21.8976 44.0329 21.959C43.9414 22.0204 43.8629 22.0993 43.8021 22.1913C43.7413 22.2833 43.6994 22.3864 43.6789 22.4947C43.6583 22.603 43.6594 22.7143 43.6822 22.8222C43.705 22.93 43.749 23.0323 43.8117 23.123C43.8744 23.2137 43.9544 23.291 44.0472 23.3505L45.8419 24.5364L37.1607 26.3085C36.5415 26.4352 35.9595 26.7024 35.4598 27.0894L32.527 25.151C32.4359 25.0902 32.3337 25.0481 32.2262 25.027C32.1187 25.0058 32.0082 25.0061 31.9008 25.0278C31.7935 25.0495 31.6915 25.0922 31.6007 25.1534C31.5099 25.2146 31.432 25.2931 31.3716 25.3844C31.3112 25.4758 31.2695 25.5782 31.2487 25.6857C31.228 25.7932 31.2287 25.9038 31.2508 26.0111C31.2728 26.1183 31.3159 26.2202 31.3774 26.3108C31.439 26.4013 31.5178 26.4789 31.6094 26.539L34.3636 28.3596C34.0159 28.978 33.8332 29.6755 33.8329 30.385V47.0795C33.6546 47.1144 33.4924 47.2063 33.3708 47.3414C33.2491 47.4764 33.1747 47.6473 33.1586 47.8283L19.0033 51.0004C18.9184 51.0192 18.8327 51.0336 18.7463 51.0434L18.6186 18.4382C18.8314 18.4304 19.0432 18.4065 19.2523 18.3665L47.0316 13.0395C47.1062 13.2797 47.1441 13.5297 47.1442 13.7812V13.7817ZM3.66172 7.00004L29.5978 1.71573C29.919 1.64961 30.25 1.64774 30.5719 1.71023C30.8937 1.77273 31.2 1.89835 31.4731 2.07985L45.8362 11.5746L18.9389 16.7327C18.3028 16.8558 17.6436 16.7255 17.1023 16.3694L3.08309 7.19569C3.26712 7.10676 3.46149 7.04104 3.66172 7.00004ZM1.66391 9.4446C1.66385 9.08548 1.74186 8.73063 1.89256 8.40466L16.1913 17.7621C16.4314 17.9187 16.6869 18.0502 16.9539 18.1546L17.0813 50.6543L2.91878 42.5444C2.53785 42.3256 2.2213 42.0103 2.001 41.6303C1.78071 41.2502 1.66444 40.8188 1.66391 40.3795V9.4446Z" fill="#373737"/>
<path id="Vector_2" d="M37.2493 18.9638C37.4606 19.0331 37.6618 19.1303 37.8473 19.253L40.5764 21.0564C40.7605 21.1761 40.9844 21.2181 41.1993 21.1733C41.4143 21.1286 41.6028 21.0007 41.7238 20.8175C41.8449 20.6344 41.8886 20.4108 41.8455 20.1955C41.8024 19.9803 41.676 19.7907 41.4938 19.6683L38.7647 17.8645C38.4553 17.6601 38.1201 17.498 37.7678 17.3824C37.5595 17.3184 37.3345 17.3387 37.141 17.4389C36.9475 17.5391 36.8011 17.7113 36.7331 17.9183C36.6652 18.1254 36.6812 18.3508 36.7777 18.5462C36.8742 18.7415 37.0435 18.8912 37.2493 18.9631V18.9638ZM29.4857 20.1329L33.571 19.3498C33.6789 19.3298 33.7818 19.2887 33.8737 19.2289C33.9657 19.169 34.0448 19.0915 34.1067 19.0009C34.1686 18.9103 34.2119 18.8084 34.2343 18.701C34.2566 18.5935 34.2574 18.4828 34.2368 18.375C34.2161 18.2673 34.1743 18.1647 34.1139 18.0731C34.0534 17.9816 33.9754 17.9029 33.8844 17.8416C33.7934 17.7804 33.6912 17.7377 33.5836 17.7161C33.4761 17.6945 33.3653 17.6943 33.2577 17.7157L29.1723 18.4988C29.0645 18.5188 28.9616 18.5599 28.8697 18.6198C28.7777 18.6796 28.6985 18.7571 28.6367 18.8477C28.5748 18.9383 28.5314 19.0402 28.5091 19.1477C28.4868 19.2551 28.486 19.3659 28.5066 19.4736C28.5273 19.5814 28.569 19.684 28.6295 19.7755C28.69 19.867 28.768 19.9457 28.859 20.007C28.95 20.0683 29.0522 20.111 29.1598 20.1326C29.2673 20.1542 29.3781 20.1543 29.4857 20.1329ZM30.976 44.9093L27.5057 42.6156C27.3216 42.496 27.0977 42.4539 26.8827 42.4987C26.6678 42.5434 26.4792 42.6713 26.3582 42.8545C26.2372 43.0376 26.1934 43.2612 26.2365 43.4765C26.2796 43.6918 26.4061 43.8813 26.5883 44.0037L30.0587 46.2974C30.2427 46.4171 30.4667 46.4591 30.6816 46.4144C30.8965 46.3696 31.0851 46.2417 31.2061 46.0586C31.3272 45.8754 31.3709 45.6518 31.3278 45.4365C31.2847 45.2213 31.1583 45.0317 30.976 44.9093ZM23.7949 33.116C24.0155 33.116 24.2271 33.0284 24.3831 32.8724C24.5392 32.7163 24.6268 32.5047 24.6268 32.2841V28.1243C24.6268 27.9037 24.5392 27.692 24.3831 27.536C24.2271 27.38 24.0155 27.2923 23.7949 27.2923C23.5742 27.2923 23.3626 27.38 23.2066 27.536C23.0506 27.692 22.9629 27.9037 22.9629 28.1243V32.2841C22.9629 32.5047 23.0506 32.7163 23.2066 32.8724C23.3626 33.0284 23.5742 33.116 23.7949 33.116ZM24.3216 41.351C24.5273 41.2712 24.6928 41.1128 24.7818 40.9109C24.8707 40.709 24.8758 40.48 24.796 40.2743C24.684 39.9863 24.6266 39.68 24.6268 39.371V36.4439C24.6268 36.2232 24.5392 36.0116 24.3831 35.8556C24.2271 35.6996 24.0155 35.6119 23.7949 35.6119C23.5742 35.6119 23.3626 35.6996 23.2066 35.8556C23.0506 36.0116 22.9629 36.2232 22.9629 36.4439V39.371C22.9625 39.886 23.0581 40.3967 23.2449 40.8767C23.325 41.0822 23.4834 41.2475 23.6852 41.3364C23.8871 41.4253 24.1159 41.4306 24.3216 41.351ZM23.7949 24.7965C24.0155 24.7965 24.2271 24.7088 24.3831 24.5528C24.5392 24.3968 24.6268 24.1852 24.6268 23.9645V23.1274C24.6265 22.7646 24.7052 22.406 24.8575 22.0767L28.1388 24.2456C28.3229 24.3672 28.5477 24.4108 28.7639 24.3667C28.9801 24.3226 29.1699 24.1944 29.2916 24.0103C29.4133 23.8262 29.4568 23.6013 29.4127 23.3851C29.3686 23.1689 29.2404 22.9791 29.0563 22.8575L25.9853 20.8275C26.1014 20.6712 26.159 20.4792 26.1482 20.2848C26.1373 20.0904 26.0586 19.906 25.9257 19.7636C25.7929 19.6213 25.6143 19.53 25.4212 19.5058C25.228 19.4815 25.0324 19.5258 24.8685 19.6309C24.2829 20.0068 23.8014 20.5242 23.4683 21.1353C23.1353 21.7463 22.9615 22.4314 22.9629 23.1273V23.9645C22.9629 24.1852 23.0506 24.3968 23.2066 24.5528C23.3626 24.7088 23.5742 24.7965 23.7949 24.7965Z" fill="#373737"/>
</g>
</g>
</svg>
