<svg width="70" height="70" viewBox="0 0 70 70" fill="none" xmlns="http://www.w3.org/2000/svg">
<g id="Clip path group">
<mask id="mask0_879_201" style="mask-type:luminance" maskUnits="userSpaceOnUse" x="0" y="0" width="70" height="70">
<g id="a">
<path id="Vector" d="M69 69V1H1V69H69Z" fill="white" stroke="white" stroke-width="2"/>
</g>
</mask>
<g mask="url(#mask0_879_201)">
<g id="Group">
<g id="Vector_2">
<path d="M1.03558 50.9931V64.5732C1.03558 65.4798 1.76976 66.2139 2.67621 66.2139H58.2907" fill="#373737" fill-opacity="0.01"/>
<path d="M1.03558 50.9931V64.5732C1.03558 65.4798 1.76976 66.2139 2.67621 66.2139H58.2907" stroke="#373737" stroke-width="2" stroke-miterlimit="10" stroke-linecap="round" stroke-linejoin="round"/>
</g>
<g id="Vector_3">
<path d="M1.03558 46.208V37.4771C1.03558 36.5707 1.76976 35.8365 2.67621 35.8365H19.412" fill="#373737" fill-opacity="0.01"/>
<path d="M1.03558 46.208V37.4771C1.03558 36.5707 1.76976 35.8365 2.67621 35.8365H19.412" stroke="#373737" stroke-width="2" stroke-miterlimit="10" stroke-linecap="round" stroke-linejoin="round"/>
</g>
<g id="Vector_4">
<path d="M50.5867 35.8365H67.3224C68.2289 35.8365 68.963 36.5706 68.963 37.4771V64.5732C68.963 65.4798 68.2289 66.2139 67.3224 66.2139H63.0759" fill="#373737" fill-opacity="0.01"/>
<path d="M50.5867 35.8365H67.3224C68.2289 35.8365 68.963 36.5706 68.963 37.4771V64.5732C68.963 65.4798 68.2289 66.2139 67.3224 66.2139H63.0759" stroke="#373737" stroke-width="2" stroke-miterlimit="10" stroke-linecap="round" stroke-linejoin="round"/>
</g>
<g id="Vector_5">
<path d="M19.412 43.8154H1.03558H19.412Z" fill="#373737" fill-opacity="0.01"/>
<path d="M19.412 43.8154H1.03558" stroke="#373737" stroke-width="2" stroke-miterlimit="10" stroke-linecap="round" stroke-linejoin="round"/>
</g>
<g id="Vector_6">
<path d="M68.963 43.8154H50.5867H68.963Z" fill="#373737" fill-opacity="0.01"/>
<path d="M68.963 43.8154H50.5867" stroke="#373737" stroke-width="2" stroke-miterlimit="10" stroke-linecap="round" stroke-linejoin="round"/>
</g>
<g id="Vector_7">
<path d="M19.412 39.8262H6.91318H19.412Z" fill="#373737" fill-opacity="0.01"/>
<path d="M19.412 39.8262H6.91318" stroke="#373737" stroke-width="2" stroke-miterlimit="10" stroke-linecap="round" stroke-linejoin="round"/>
</g>
<g id="Vector_8">
<path d="M62.6217 39.8262H63.0853H62.6217Z" fill="#373737" fill-opacity="0.01"/>
<path d="M62.6217 39.8262H63.0853" stroke="#373737" stroke-width="2" stroke-miterlimit="10" stroke-linecap="round" stroke-linejoin="round"/>
</g>
<g id="Vector_9">
<path d="M58.7401 39.8262H59.2038H58.7401Z" fill="#373737" fill-opacity="0.01"/>
<path d="M58.7401 39.8262H59.2038" stroke="#373737" stroke-width="2" stroke-miterlimit="10" stroke-linecap="round" stroke-linejoin="round"/>
</g>
<g id="Vector_10">
<path d="M54.8583 39.8262H55.3221H54.8583Z" fill="#373737" fill-opacity="0.01"/>
<path d="M54.8583 39.8262H55.3221" stroke="#373737" stroke-width="2" stroke-miterlimit="10" stroke-linecap="round" stroke-linejoin="round"/>
</g>
<path id="Vector_11" d="M48.9457 48.6006H21.0526C20.1466 48.6006 19.412 47.8661 19.412 46.96V25.9422C19.412 25.0362 20.1466 24.3016 21.0526 24.3016H48.9457C49.8518 24.3016 50.5864 25.0362 50.5864 25.9422V46.96C50.5864 47.8661 49.8518 48.6006 48.9457 48.6006Z" fill="#373737" fill-opacity="0.01" stroke="#373737" stroke-width="2" stroke-miterlimit="10" stroke-linecap="round" stroke-linejoin="round"/>
<g id="Vector_12">
<path d="M36.5002 32.0629L33.4984 39.6104L36.5002 32.0629Z" fill="#373737" fill-opacity="0.01"/>
<path d="M36.5002 32.0629L33.4984 39.6104" stroke="#373737" stroke-width="2" stroke-miterlimit="10" stroke-linecap="round" stroke-linejoin="round"/>
</g>
<g id="Vector_13">
<path d="M41.5333 32.4246L43.5491 35.768L41.5333 39.248" fill="#373737" fill-opacity="0.01"/>
<path d="M41.5333 32.4246L43.5491 35.768L41.5333 39.248" stroke="#373737" stroke-width="2" stroke-miterlimit="10" stroke-linecap="round" stroke-linejoin="round"/>
</g>
<g id="Vector_14">
<path d="M28.4654 32.4246L26.4496 35.768L28.4654 39.248" fill="#373737" fill-opacity="0.01"/>
<path d="M28.4654 32.4246L26.4496 35.768L28.4654 39.248" stroke="#373737" stroke-width="2" stroke-miterlimit="10" stroke-linecap="round" stroke-linejoin="round"/>
</g>
<g id="Vector_15">
<path d="M27.6328 24.3018V16.6209C27.6328 12.559 30.9373 9.25449 34.9992 9.25449C36.9666 9.25449 38.8164 10.0201 40.2082 11.4119C41.5986 12.8037 42.3656 14.6535 42.3656 16.6209V24.3018" fill="#373737" fill-opacity="0.01"/>
<path d="M27.6328 24.3018V16.6209C27.6328 12.559 30.9373 9.25449 34.9992 9.25449C36.9666 9.25449 38.8164 10.0201 40.2082 11.4119C41.5986 12.8037 42.3656 14.6535 42.3656 16.6209V24.3018" stroke="#373737" stroke-width="2" stroke-miterlimit="10" stroke-linecap="round" stroke-linejoin="round"/>
</g>
<g id="Vector_16">
<path d="M22.164 24.3018V16.6209C22.164 9.54297 27.9213 3.78575 34.9992 3.78575C38.4281 3.78575 41.6506 5.12149 44.0746 7.54551C46.4986 9.96953 47.8343 13.192 47.8343 16.6209V24.3018" fill="#373737" fill-opacity="0.01"/>
<path d="M22.164 24.3018V16.6209C22.164 9.54297 27.9213 3.78574 34.9992 3.78574C38.4281 3.78574 41.6506 5.12149 44.0746 7.54551C46.4986 9.96953 47.8343 13.192 47.8343 16.6209V24.3018" stroke="#373737" stroke-width="2" stroke-miterlimit="10" stroke-linecap="round" stroke-linejoin="round"/>
</g>
<g id="Vector_17">
<path d="M25.0147 48.6005V53.4499C25.0147 53.7398 24.8998 54.0187 24.6948 54.2238L22.5141 56.4043" fill="#373737" fill-opacity="0.01"/>
<path d="M25.0147 48.6005V53.4499C25.0147 53.7398 24.8998 54.0187 24.6948 54.2238L22.5141 56.4043" stroke="#373737" stroke-width="2" stroke-miterlimit="10" stroke-linecap="round" stroke-linejoin="round"/>
</g>
<g id="Vector_18">
<path d="M44.9839 48.6005V53.4499C44.9839 53.7398 45.0987 54.0187 45.3038 54.2238L47.4844 56.4043" fill="#373737" fill-opacity="0.01"/>
<path d="M44.9839 48.6005V53.4499C44.9839 53.7398 45.0987 54.0187 45.3038 54.2238L47.4844 56.4043" stroke="#373737" stroke-width="2" stroke-miterlimit="10" stroke-linecap="round" stroke-linejoin="round"/>
</g>
<path id="Vector_19" d="M23.232 58.1391C23.232 59.4937 22.1339 60.5918 20.7793 60.5918C19.4247 60.5918 18.3265 59.4937 18.3265 58.1391C18.3265 56.7845 19.4247 55.6863 20.7793 55.6863C22.1339 55.6863 23.232 56.7845 23.232 58.1391Z" fill="#373737" fill-opacity="0.01" stroke="#373737" stroke-width="2" stroke-miterlimit="10" stroke-linecap="round" stroke-linejoin="round"/>
<path id="Vector_20" d="M51.672 58.1391C51.672 59.4937 50.5739 60.5918 49.2193 60.5918C47.8647 60.5918 46.7665 59.4937 46.7665 58.1391C46.7665 56.7845 47.8647 55.6863 49.2193 55.6863C50.5739 55.6863 51.672 56.7845 51.672 58.1391Z" fill="#373737" fill-opacity="0.01" stroke="#373737" stroke-width="2" stroke-miterlimit="10" stroke-linecap="round" stroke-linejoin="round"/>
<g id="Vector_21">
<path d="M34.9993 55.0596V48.6011V55.0596Z" fill="#373737" fill-opacity="0.01"/>
<path d="M34.9993 55.0596V48.6011" stroke="#373737" stroke-width="2" stroke-miterlimit="10" stroke-linecap="round" stroke-linejoin="round"/>
</g>
<path id="Vector_22" d="M38.6772 58.737C38.6772 60.7684 37.0304 62.415 34.9992 62.415C32.9678 62.415 31.321 60.7684 31.321 58.737C31.321 56.7058 32.9678 55.0592 34.9992 55.0592C37.0304 55.0592 38.6772 56.7058 38.6772 58.737Z" fill="#373737" fill-opacity="0.01" stroke="#373737" stroke-width="2" stroke-miterlimit="10" stroke-linecap="round" stroke-linejoin="round"/>
</g>
</g>
</g>
</svg>
