<svg width="50" height="50" viewBox="0 0 50 50" fill="none" xmlns="http://www.w3.org/2000/svg">
<g clip-path="url(#clip0_563_313)">
<path d="M3.91459 37.2459C2.10453 39.7451 0.805408 42.577 0.0916708 45.5792C-0.0446664 46.1769 -0.0270991 46.7994 0.142728 47.3885C0.312555 47.9776 0.629087 48.5139 1.06269 48.9473C1.49629 49.3807 2.03278 49.697 2.62193 49.8665C3.21108 50.036 3.83361 50.0533 4.43125 49.9167C7.42886 49.2018 10.2563 47.9035 12.7521 46.0959C13.9257 44.9239 14.5856 43.3338 14.5868 41.6753C14.588 40.0168 13.9303 38.4257 12.7583 37.2521C11.5864 36.0785 9.99628 35.4186 8.33776 35.4174C6.67923 35.4162 5.08817 36.0739 3.91459 37.2459ZM9.80625 43.1396C8.1271 44.2151 6.30319 45.0457 4.38959 45.6063C4.95101 43.693 5.78154 41.8692 6.85625 40.1896C7.24918 39.8101 7.77543 39.6001 8.32167 39.6049C8.86792 39.6096 9.39044 39.8287 9.77671 40.215C10.163 40.6012 10.3821 41.1238 10.3868 41.67C10.3916 42.2163 10.1816 42.7425 9.80209 43.1354L9.80625 43.1396ZM37.5 17.7084C37.5 19.0897 36.9513 20.4145 35.9745 21.3912C34.9978 22.368 33.673 22.9167 32.2917 22.9167C30.9103 22.9167 29.5856 22.368 28.6088 21.3912C27.6321 20.4145 27.0833 19.0897 27.0833 17.7084C27.0833 16.327 27.6321 15.0023 28.6088 14.0255C29.5856 13.0488 30.9103 12.5 32.2917 12.5C33.673 12.5 34.9978 13.0488 35.9745 14.0255C36.9513 15.0023 37.5 16.327 37.5 17.7084ZM43.6917 2.08421e-05C38.7339 -0.0294513 33.8359 1.08404 29.3781 3.25404C24.9203 5.42404 21.0226 8.59219 17.9875 12.5125C14.6774 12.627 11.4308 13.4534 8.46875 14.9354C5.03379 16.5172 2.22967 19.2068 0.506254 22.5729C0.101815 23.512 -0.0623502 24.5371 0.0285811 25.5555C0.119512 26.5739 0.462677 27.5537 1.02709 28.4063C1.59689 29.2798 2.3756 29.9973 3.29269 30.4938C4.20979 30.9904 5.23628 31.2503 6.27917 31.25H11.4583C13.3893 31.2593 15.2386 32.0305 16.604 33.396C17.9695 34.7614 18.7407 36.6107 18.75 38.5417V43.7209C18.7493 44.7634 19.0085 45.7896 19.5044 46.7067C20.0002 47.6237 20.7169 48.4027 21.5896 48.9729C22.4422 49.5373 23.4219 49.8805 24.4404 49.9714C25.4588 50.0624 26.4838 49.8982 27.4229 49.4938C30.789 47.7704 33.4787 44.9662 35.0604 41.5313C36.5425 38.5693 37.3689 35.3227 37.4833 32.0125C41.4099 28.9697 44.5819 25.0623 46.7528 20.5942C48.9236 16.1261 50.0348 11.2175 50 6.25002C49.9976 5.42503 49.8323 4.60865 49.5137 3.84766C49.1951 3.08668 48.7294 2.39607 48.1433 1.81543C47.5573 1.23479 46.8624 0.775539 46.0984 0.464012C45.3345 0.152485 44.5166 -0.00519211 43.6917 2.08421e-05ZM9.05417 27.0834H6.27917C5.92687 27.0861 5.57965 26.9994 5.26995 26.8314C4.96026 26.6635 4.69822 26.4197 4.50834 26.1229C4.3218 25.8473 4.20778 25.5291 4.17683 25.1977C4.14588 24.8663 4.19899 24.5325 4.33125 24.2271C5.67365 21.7669 7.78259 19.8123 10.3375 18.6604C11.6576 17.9986 13.0513 17.4951 14.4896 17.1604C12.4188 20.3195 10.6013 23.6375 9.05417 27.0834ZM31.3458 39.6625C30.194 42.2168 28.2403 44.3255 25.7813 45.6688C25.4755 45.8012 25.1413 45.8544 24.8096 45.8235C24.4779 45.7925 24.1593 45.6784 23.8833 45.4917C23.5866 45.3018 23.3428 45.0398 23.1749 44.7301C23.0069 44.4204 22.9202 44.0732 22.9229 43.7209V40.9459C26.3688 39.3987 29.6868 37.5812 32.8458 35.5104C32.5092 36.949 32.0036 38.3427 31.3396 39.6625H31.3458ZM31.6271 31.2875C28.8079 33.2456 25.8318 34.9674 22.7292 36.4354C22.3055 34.1606 21.203 32.0673 19.5668 30.4311C17.9306 28.7949 15.8373 27.6924 13.5625 27.2688C15.0316 24.1689 16.7542 21.1956 18.7125 18.3792C25.7292 8.59169 33 4.47294 43.75 4.16669C44.2926 4.16648 44.8138 4.37794 45.2029 4.75612C45.592 5.13429 45.8181 5.64933 45.8333 6.19169C45.5271 17 41.4083 24.2709 31.6208 31.2875H31.6271Z" fill="#373737"/>
</g>
<defs>
<clipPath id="clip0_563_313">
<rect width="50" height="50" fill="white"/>
</clipPath>
</defs>
</svg>
