<svg width="70" height="70" viewBox="0 0 70 70" fill="none" xmlns="http://www.w3.org/2000/svg">
<g id="Group">
<path id="Vector" d="M64.3018 45.7281C65.0272 45.0947 65.6088 44.3134 66.0074 43.4367C66.406 42.56 66.6125 41.6082 66.6129 40.6452C66.6129 36.9092 63.5747 33.871 59.8387 33.871C56.1027 33.871 53.0645 36.9092 53.0645 40.6452C53.0656 41.848 53.3869 43.0289 53.9955 44.0665C54.604 45.1041 55.4779 45.9609 56.5273 46.5489C54.2884 47.985 52.7202 50.4079 52.4887 53.209L52.0337 58.7097H46.2903C44.4229 58.7097 42.9032 60.2294 42.9032 62.0968C42.9032 63.9642 44.4229 65.4839 46.2903 65.4839H50.8064V70H70V53.9327C70 50.1787 67.6256 46.9768 64.3018 45.7281ZM59.8387 36.129C62.3294 36.129 64.3548 38.1545 64.3548 40.6452C64.3548 43.1358 62.3294 45.1613 59.8387 45.1613C57.3481 45.1613 55.3226 43.1358 55.3226 40.6452C55.3226 38.1545 57.3481 36.129 59.8387 36.129ZM67.7419 67.7419H53.0645V65.4839H53.4563C54.8668 65.4905 56.2281 64.9661 57.2697 64.0149C58.3112 63.0637 58.9567 61.7555 59.0777 60.3502L59.8331 52.0382L57.584 51.8339L56.8287 60.1458C56.7561 60.9889 56.3689 61.7738 55.7441 62.3445C55.1192 62.9152 54.3025 63.2298 53.4563 63.2258H46.2903C45.6682 63.2258 45.1613 62.7189 45.1613 62.0968C45.1613 61.4747 45.6682 60.9677 46.2903 60.9677H52.0337C52.5993 60.9697 53.1448 60.7585 53.5616 60.3762C53.9784 59.9939 54.2359 59.4686 54.2827 58.905L54.7389 53.3953C55.0166 50.0444 57.8663 47.4194 61.2285 47.4194C62.9554 47.4214 64.6109 48.1083 65.8319 49.3294C67.0529 50.5504 67.7398 52.2059 67.7419 53.9327V67.7419ZM23.7097 58.7097L17.9674 58.7187L17.5113 53.209C17.2787 50.4079 15.7105 47.985 13.4727 46.5489C14.5221 45.9609 15.396 45.1041 16.0045 44.0665C16.6131 43.0289 16.9344 41.848 16.9355 40.6452C16.9355 36.9092 13.8973 33.871 10.1613 33.871C6.42532 33.871 3.3871 36.9092 3.3871 40.6452C3.38752 41.6082 3.59398 42.56 3.99259 43.4367C4.39121 44.3134 4.97277 45.0947 5.69823 45.7281C2.37435 46.9768 0 50.1787 0 53.9327V70H19.1935V65.4839H23.7097C25.5771 65.4839 27.0968 63.9642 27.0968 62.0968C27.0968 60.2294 25.5771 58.7097 23.7097 58.7097ZM10.1613 36.129C12.6519 36.129 14.6774 38.1545 14.6774 40.6452C14.6774 43.1358 12.6519 45.1613 10.1613 45.1613C7.67065 45.1613 5.64516 43.1358 5.64516 40.6452C5.64516 38.1545 7.67065 36.129 10.1613 36.129ZM23.7097 63.2258H16.5437C15.6975 63.2298 14.8808 62.9152 14.2559 62.3445C13.6311 61.7738 13.2439 60.9889 13.1713 60.1458L12.416 51.8339L10.1669 52.0382L10.9223 60.3502C11.0433 61.7555 11.6888 63.0637 12.7303 64.0149C13.7719 64.9661 15.1332 65.4905 16.5437 65.4839H16.9355V67.7419H2.25806V53.9327C2.26016 52.2059 2.94706 50.5504 4.1681 49.3294C5.38915 48.1083 7.04464 47.4214 8.77145 47.4194C12.1337 47.4194 14.9845 50.0444 15.2623 53.3953L15.7184 58.914C15.7669 59.476 16.025 59.9992 16.4414 60.3797C16.8579 60.7602 17.4022 60.9701 17.9663 60.9677H23.7097C24.3318 60.9677 24.8387 61.4747 24.8387 62.0968C24.8387 62.7189 24.3318 63.2258 23.7097 63.2258ZM45.2618 40.8326C45.3792 40.5763 45.4876 40.3189 45.5847 40.0592L48.5484 39.2486V33.0095L45.5847 32.1989C45.4866 31.9372 45.3789 31.6792 45.2618 31.4255L46.786 28.7542L44.9942 26.9624C45.0935 26.6463 45.1613 26.3166 45.1613 25.9677C45.1613 24.6874 44.4387 23.5832 43.3876 23.0085L46.1435 17.4966C46.7592 16.2572 47.1593 14.9221 47.3268 13.5484H49.0384L53.0645 20.2594L56.7892 14.0497C56.9062 13.8568 57.0831 13.7074 57.2928 13.6242C57.5026 13.5411 57.7338 13.5287 57.9512 13.589C58.1686 13.6494 58.3604 13.7791 58.4973 13.9584C58.6342 14.1378 58.7088 14.3569 58.7097 14.5826V22.5806H60.9677V14.5826C60.9665 13.7098 60.6193 12.8731 60.0021 12.2559C59.385 11.6388 58.5483 11.2915 57.6755 11.2903C57.1073 11.2918 56.549 11.4396 56.0546 11.7197C55.5602 11.9997 55.1463 12.4024 54.8529 12.889L53.0645 15.8697L50.3165 11.2903H47.3787C46.9644 4.9971 41.7256 0 35.3297 0H34.6703C28.2744 0 23.0356 4.9971 22.6213 11.2903H19.6835L16.9355 15.8697L15.1471 12.889C14.8535 12.4026 14.4396 12 13.9452 11.72C13.4508 11.4399 12.8927 11.292 12.3245 11.2903C11.4517 11.2915 10.615 11.6388 9.99786 12.2559C9.3807 12.8731 9.03345 13.7098 9.03226 14.5826V22.5806H11.2903V14.5826C11.2915 14.357 11.3662 14.138 11.5032 13.9589C11.6402 13.7797 11.832 13.6502 12.0494 13.59C12.2667 13.5298 12.4978 13.5423 12.7074 13.6254C12.9171 13.7086 13.0938 13.858 13.2108 14.0508L16.9355 20.2594L20.9616 13.5484H22.6732C22.8403 14.9222 23.2405 16.2574 23.8565 17.4966L26.6124 23.0085C26.0779 23.2966 25.631 23.7235 25.3188 24.2444C25.0067 24.7652 24.8408 25.3605 24.8387 25.9677C24.8387 26.3166 24.9065 26.6463 25.0058 26.9635L23.214 28.7553L24.7382 31.4266C24.6208 31.6829 24.5124 31.9403 24.4153 32.2L21.4516 33.0095V39.2486L24.4153 40.0581C24.5124 40.3177 24.6208 40.5752 24.7382 40.8315L23.214 43.5027L27.6263 47.915L30.2976 46.3908C30.5539 46.5082 30.8113 46.6166 31.071 46.7137L31.8805 49.6774H38.1195L38.929 46.7137C39.1887 46.6166 39.4461 46.5082 39.7024 46.3908L42.3737 47.915L46.786 43.5027L45.2618 40.8326ZM39.5161 36.129C39.5161 38.6197 37.4906 40.6452 35 40.6452C34.2963 40.6443 33.6025 40.4792 32.9738 40.1629C32.3451 39.8467 31.799 39.388 31.3789 38.8235C30.9587 38.2589 30.6762 37.6041 30.5537 36.9111C30.4313 36.2181 30.4723 35.5061 30.6735 34.8318C31.9573 35.6788 33.4614 36.1303 34.9994 36.1303C36.5374 36.1303 38.0416 35.6788 39.3253 34.8318C39.4506 35.2495 39.5161 35.6853 39.5161 36.129ZM28.2258 24.8387H41.7742C42.3963 24.8387 42.9032 25.3456 42.9032 25.9677C42.9032 26.5898 42.3963 27.0968 41.7742 27.0968H28.2258C27.6037 27.0968 27.0968 26.5898 27.0968 25.9677C27.0968 25.3456 27.6037 24.8387 28.2258 24.8387ZM35 33.871C33.6994 33.8689 32.4392 33.4186 31.4317 32.596C30.4243 31.7734 29.7311 30.6288 29.4689 29.3548H40.5311C40.2689 30.6288 39.5757 31.7734 38.5683 32.596C37.5608 33.4186 36.3006 33.8689 35 33.871ZM24.8387 12.0897C24.8387 6.66806 29.2487 2.25806 34.6703 2.25806H35.3297C40.7513 2.25806 45.1613 6.66806 45.1613 12.0897C45.1592 13.6159 44.8041 15.121 44.1237 16.4873L41.0765 22.5806H36.129V16.7752C38.071 16.2705 39.5161 14.5171 39.5161 12.4194C39.5161 9.92871 37.4906 7.90323 35 7.90323C32.5094 7.90323 30.4839 9.92871 30.4839 12.4194C30.4839 14.5171 31.929 16.2705 33.871 16.7752V22.5806H28.9235L25.8763 16.4873C25.1959 15.121 24.8408 13.6159 24.8387 12.0897ZM35 14.6774C33.7547 14.6774 32.7419 13.6647 32.7419 12.4194C32.7419 11.174 33.7547 10.1613 35 10.1613C36.2453 10.1613 37.2581 11.174 37.2581 12.4194C37.2581 13.6647 36.2453 14.6774 35 14.6774ZM41.9955 45.1003L39.7611 43.8256L39.2124 44.1147C38.7055 44.3823 38.185 44.6002 37.6645 44.7605L37.0718 44.9434L36.3966 47.4194H33.6034L32.926 44.9434L32.3332 44.7605C31.7979 44.5939 31.2793 44.3777 30.7842 44.1147L30.2366 43.8256L28.0034 45.0992L26.0276 43.1245L27.3023 40.8902L27.0132 40.3414C26.7503 39.8467 26.5341 39.3285 26.3674 38.7935L26.1845 38.2008L23.7097 37.5256V34.7324L26.1856 34.055L26.3685 33.4623C26.5289 32.9429 26.7456 32.4213 27.0144 31.9132L27.3034 31.3656L26.0298 29.1324L26.3685 28.7937C26.6102 28.9529 26.8789 29.0715 27.1589 29.1652C27.3353 30.6551 27.9343 32.0635 28.8852 33.224C28.4519 34.1312 28.2266 35.1237 28.2258 36.129C28.2258 39.865 31.264 42.9032 35 42.9032C38.736 42.9032 41.7742 39.865 41.7742 36.129C41.7736 35.124 41.5484 34.1319 41.1148 33.2252C42.0658 32.0646 42.6652 30.6563 42.8423 29.1663C43.1206 29.077 43.3862 28.9521 43.6326 28.7948L43.9713 29.1335L42.6977 31.3668L42.9868 31.9144C43.2544 32.4224 43.4723 32.9429 43.6326 33.4634L43.8155 34.0561L46.2915 34.7335V37.5268L43.8155 38.2031L43.6326 38.7958C43.4723 39.3152 43.2555 39.8356 42.9868 40.3437L42.6977 40.8924L43.9724 43.1268L41.9955 45.1003ZM58.7097 29.3548H60.9677V31.6129H58.7097V29.3548Z" fill="#373737"/>
<path id="Vector_2" d="M58.7096 24.8389H60.9677V27.0969H58.7096V24.8389ZM9.03223 29.355H11.2903V31.6131H9.03223V29.355ZM9.03223 24.8389H11.2903V27.0969H9.03223V24.8389Z" fill="#373737"/>
</g>
</svg>
