<svg width="69" height="70" viewBox="0 0 69 70" fill="none" xmlns="http://www.w3.org/2000/svg">
<g id="Group">
<path id="Vector" d="M65.8023 34.9999C65.2555 34.9979 64.7192 35.1492 64.2542 35.4367C63.7891 35.7241 63.414 36.1363 63.1714 36.6262L57.9132 47.1414L54.6804 50.3743L53.6304 50.9004L55.3477 47.8939C55.7802 47.1417 55.9091 46.2527 55.7081 45.4086C55.5071 44.5645 54.9914 43.829 54.2664 43.3524C53.5413 42.8758 52.6616 42.694 51.807 42.8442C50.9524 42.9944 50.1874 43.4653 49.6684 44.1606L43.9388 51.7999C43.8636 51.9002 43.8053 52.0122 43.7662 52.1313L41.4328 59.1313C41.4076 59.2039 41.3904 59.279 41.3815 59.3553L40.2148 68.6887C40.1943 68.8528 40.2089 69.0194 40.2577 69.1774C40.3065 69.3355 40.3883 69.4813 40.4978 69.6053C40.6072 69.7293 40.7418 69.8287 40.8925 69.8967C41.0433 69.9647 41.2068 70 41.3722 70H51.8722C52.1816 70 52.4784 69.8771 52.6972 69.6583C52.916 69.4395 53.0389 69.1427 53.0389 68.8333V64.2483C53.0388 64.0563 53.0862 63.8672 53.1768 63.6979C53.2674 63.5286 53.3983 63.3842 53.558 63.2776L59.5197 59.304C59.6477 59.2186 59.7575 59.1088 59.8429 58.9808L64.5096 51.9808C64.5729 51.8871 64.6216 51.7845 64.6543 51.6763L68.6151 38.8067C68.7506 38.3666 68.7809 37.9009 68.7036 37.4469C68.6262 36.993 68.4434 36.5636 68.1697 36.1932C67.896 35.8229 67.5393 35.5219 67.1281 35.3147C66.7169 35.1074 66.2627 34.9996 65.8023 34.9999ZM66.3856 38.1207L62.4737 50.8269L58.0311 57.4921L52.2642 61.3363C51.7843 61.6554 51.3908 62.0883 51.1188 62.5964C50.8468 63.1045 50.7049 63.672 50.7055 64.2483V67.6667H42.694L43.6822 59.7601L45.9222 53.0483L51.5385 45.5617C51.7017 45.3428 51.9423 45.1944 52.2112 45.1469C52.4801 45.0995 52.757 45.1565 52.9852 45.3064C53.2135 45.4563 53.3759 45.6877 53.4392 45.9533C53.5025 46.2189 53.462 46.4987 53.3259 46.7354L49.6929 53.0833C49.5642 53.3008 49.5096 53.5541 49.5374 53.8053C49.5651 54.0565 49.6736 54.2919 49.8466 54.476C50.0196 54.6602 50.2477 54.7833 50.4967 54.8267C50.7456 54.87 51.0019 54.8314 51.227 54.7166L55.8937 52.3833C56.006 52.327 56.1084 52.2529 56.1971 52.1639L59.6971 48.6639C59.786 48.5753 59.8601 48.4728 59.9164 48.3606L65.2586 37.675C65.3077 37.5726 65.3848 37.4861 65.481 37.4256C65.5772 37.3651 65.6886 37.3331 65.8023 37.3332C65.8976 37.333 65.9916 37.3553 66.0768 37.3981C66.162 37.4409 66.236 37.5031 66.2927 37.5797C66.3495 37.6563 66.3874 37.7452 66.4036 37.8392C66.4197 37.9331 66.4135 38.0296 66.3856 38.1207ZM27.3115 59.1313L24.9781 52.1313C24.939 52.0122 24.8807 51.9002 24.8054 51.7999L19.0759 44.1606C18.5568 43.4653 17.7919 42.9944 16.9373 42.8442C16.0827 42.694 15.203 42.8758 14.4779 43.3524C13.7528 43.829 13.2371 44.5645 13.0362 45.4086C12.8352 46.2527 12.9641 47.1417 13.3966 47.8939L15.1139 50.9016L14.0639 50.3754L10.8311 47.1426L5.57288 36.6262C5.24231 35.9666 4.67597 35.4552 3.9861 35.1934C3.29624 34.9317 2.53322 34.9387 1.84828 35.2131C1.16333 35.4874 0.60647 36.0091 0.288065 36.6747C-0.0303402 37.3403 -0.0870446 38.1013 0.129191 38.8067L4.09004 51.6763C4.12267 51.7845 4.17144 51.8871 4.23471 51.9808L8.90139 58.9808C8.98675 59.1088 9.09658 59.2186 9.22456 59.304L15.1862 63.2776C15.346 63.3842 15.4769 63.5286 15.5675 63.6979C15.6581 63.8672 15.7054 64.0563 15.7054 64.2483V68.8333C15.7054 69.1427 15.8283 69.4395 16.0471 69.6583C16.2659 69.8771 16.5627 70 16.8721 70H27.3721C27.5375 70 27.701 69.9647 27.8518 69.8967C28.0025 69.8287 28.1371 69.7293 28.2465 69.6053C28.356 69.4813 28.4378 69.3355 28.4866 69.1774C28.5353 69.0194 28.55 68.8528 28.5295 68.6887L27.3628 59.3553C27.3539 59.279 27.3367 59.2039 27.3115 59.1313ZM18.0388 67.6667V64.2483C18.0402 63.6712 17.8986 63.1027 17.6266 62.5938C17.3546 62.0848 16.9607 61.6511 16.4801 61.3316L10.7132 57.4875L6.27055 50.8269L2.36103 38.1207C2.33315 38.0298 2.32696 37.9335 2.34297 37.8397C2.35898 37.7459 2.39674 37.6572 2.45323 37.5807C2.50971 37.5041 2.58335 37.4418 2.66823 37.3989C2.75312 37.3559 2.84689 37.3334 2.94203 37.3332C3.05506 37.3325 3.16599 37.3637 3.26214 37.4231C3.35829 37.4825 3.43576 37.5678 3.4857 37.6692L8.82789 48.3548C8.8842 48.467 8.95826 48.5694 9.04722 48.6581L12.5472 52.1581C12.6359 52.2471 12.7383 52.3211 12.8506 52.3774L17.5173 54.7108C17.7417 54.824 17.9968 54.8616 18.2444 54.8181C18.492 54.7745 18.7189 54.6522 18.8914 54.4693C19.0638 54.2863 19.1726 54.0526 19.2014 53.8028C19.2303 53.5531 19.1776 53.3007 19.0514 53.0833L15.4219 46.7296C15.2858 46.4929 15.2453 46.2131 15.3086 45.9475C15.3719 45.6818 15.5343 45.4504 15.7625 45.3006C15.9908 45.1507 16.2677 45.0936 16.5366 45.1411C16.8055 45.1886 17.0461 45.3369 17.2093 45.5559L22.8221 53.0483L25.0586 59.7601L26.0503 67.6667H18.0388ZM14.5387 39.6666H54.2056C54.515 39.6666 54.8117 39.5436 55.0305 39.3248C55.2493 39.1061 55.3722 38.8093 55.3722 38.4999V29.1665C55.3722 28.2383 55.0035 27.348 54.3471 26.6916C53.6907 26.0353 52.8005 25.6665 51.8722 25.6665H51.4265C52.146 25.0437 52.6578 24.2159 52.8935 23.2939C53.1292 22.372 53.0774 21.4001 52.745 20.5084C52.4127 19.6168 51.8157 18.848 51.0342 18.3052C50.2526 17.7624 49.3238 17.4715 48.3722 17.4715C47.4206 17.4715 46.4918 17.7624 45.7102 18.3052C44.9286 18.848 44.3317 19.6168 43.9994 20.5084C43.667 21.4001 43.6152 22.372 43.8509 23.2939C44.0865 24.2159 44.5984 25.0437 45.3179 25.6665H44.8722C44.3154 25.6702 43.7678 25.8087 43.2762 26.0702C42.9064 25.2559 42.3104 24.565 41.5592 24.0798C40.808 23.5946 39.9331 23.3354 39.0388 23.3332H37.6318C38.4863 22.6564 39.109 21.7303 39.4133 20.6836C39.7177 19.6369 39.6887 18.5214 39.3304 17.4919C38.9721 16.4625 38.3022 15.57 37.4137 14.9385C36.5252 14.307 35.4622 13.9677 34.3721 13.9677C33.2821 13.9677 32.219 14.307 31.3306 14.9385C30.4421 15.57 29.7722 16.4625 29.4139 17.4919C29.0555 18.5214 29.0266 19.6369 29.3309 20.6836C29.6353 21.7303 30.258 22.6564 31.1125 23.3332H29.7055C28.8112 23.3354 27.9363 23.5946 27.1851 24.0798C26.4339 24.565 25.8379 25.2559 25.4681 26.0702C24.9765 25.8087 24.4289 25.6702 23.8721 25.6665H23.4264C24.1459 25.0437 24.6577 24.2159 24.8934 23.2939C25.1291 22.372 25.0773 21.4001 24.7449 20.5084C24.4126 19.6168 23.8156 18.848 23.0341 18.3052C22.2525 17.7624 21.3237 17.4715 20.3721 17.4715C19.4205 17.4715 18.4917 17.7624 17.7101 18.3052C16.9285 18.848 16.3316 19.6168 15.9993 20.5084C15.6669 21.4001 15.6151 22.372 15.8508 23.2939C16.0864 24.2159 16.5983 25.0437 17.3178 25.6665H16.8721C15.9438 25.6665 15.0536 26.0353 14.3972 26.6916C13.7408 27.348 13.3721 28.2383 13.3721 29.1665V38.4999C13.3721 38.8093 13.495 39.1061 13.7138 39.3248C13.9326 39.5436 14.2293 39.6666 14.5387 39.6666ZM48.3722 19.8332C48.8337 19.8332 49.2848 19.97 49.6685 20.2264C50.0522 20.4828 50.3513 20.8472 50.5279 21.2736C50.7045 21.6999 50.7507 22.1691 50.6607 22.6217C50.5707 23.0743 50.3484 23.4901 50.0221 23.8164C49.6958 24.1427 49.28 24.365 48.8274 24.455C48.3748 24.545 47.9056 24.4988 47.4793 24.3222C47.0529 24.1456 46.6885 23.8465 46.4321 23.4628C46.1757 23.0791 46.0389 22.628 46.0389 22.1665C46.0389 21.5477 46.2847 20.9542 46.7223 20.5166C47.1599 20.079 47.7534 19.8332 48.3722 19.8332ZM43.7055 29.1665C43.7055 28.8571 43.8284 28.5604 44.0472 28.3416C44.266 28.1228 44.5628 27.9998 44.8722 27.9998H51.8722C52.1816 27.9998 52.4784 28.1228 52.6972 28.3416C52.916 28.5604 53.0389 28.8571 53.0389 29.1665V37.3332H43.7055V29.1665ZM34.3721 16.3331C34.949 16.3331 35.5129 16.5042 35.9926 16.8247C36.4722 17.1452 36.8461 17.6007 37.0668 18.1337C37.2876 18.6666 37.3453 19.2531 37.2328 19.8188C37.1202 20.3846 36.8425 20.9043 36.4346 21.3122C36.0266 21.7201 35.5069 21.9979 34.9412 22.1105C34.3754 22.223 33.7889 22.1652 33.256 21.9445C32.723 21.7237 32.2675 21.3499 31.947 20.8702C31.6265 20.3906 31.4555 19.8267 31.4555 19.2498C31.4555 18.4763 31.7628 17.7344 32.3097 17.1874C32.8567 16.6404 33.5986 16.3331 34.3721 16.3331ZM27.3721 27.9998C27.3721 27.381 27.618 26.7875 28.0555 26.3499C28.4931 25.9123 29.0866 25.6665 29.7055 25.6665H39.0388C39.6577 25.6665 40.2512 25.9123 40.6888 26.3499C41.1263 26.7875 41.3722 27.381 41.3722 27.9998V37.3332H27.3721V27.9998ZM20.3721 19.8332C20.8336 19.8332 21.2847 19.97 21.6684 20.2264C22.0521 20.4828 22.3512 20.8472 22.5278 21.2736C22.7044 21.6999 22.7506 22.1691 22.6606 22.6217C22.5706 23.0743 22.3483 23.4901 22.022 23.8164C21.6957 24.1427 21.2799 24.365 20.8273 24.455C20.3747 24.545 19.9055 24.4988 19.4792 24.3222C19.0528 24.1456 18.6884 23.8465 18.432 23.4628C18.1756 23.0791 18.0388 22.628 18.0388 22.1665C18.0388 21.5477 18.2846 20.9542 18.7222 20.5166C19.1598 20.079 19.7533 19.8332 20.3721 19.8332ZM15.7054 29.1665C15.7054 28.8571 15.8283 28.5604 16.0471 28.3416C16.2659 28.1228 16.5627 27.9998 16.8721 27.9998H23.8721C24.1815 27.9998 24.4783 28.1228 24.6971 28.3416C24.9159 28.5604 25.0388 28.8571 25.0388 29.1665V37.3332H15.7054V29.1665ZM7.53872 15.1665V25.6665H9.87206V16.0345L20.7069 12.7841C20.9474 12.7121 21.1582 12.5644 21.308 12.3631C21.4579 12.1618 21.5388 11.9174 21.5388 11.6665V6.31611L24.2139 8.99128L25.8636 7.34161L21.1969 2.67493C20.9781 2.45621 20.6815 2.33334 20.3721 2.33334C20.0627 2.33334 19.766 2.45621 19.5473 2.67493L14.8806 7.34161L16.5303 8.99128L19.2054 6.31611V10.7985L8.37055 14.0488C8.13012 14.1208 7.91933 14.2685 7.76948 14.4698C7.61963 14.6712 7.5387 14.9155 7.53872 15.1665ZM35.5388 10.4998V3.98276L38.214 6.65794L39.8637 5.00827L35.197 0.341585C34.9782 0.122868 34.6815 0 34.3721 0C34.0628 0 33.7661 0.122868 33.5473 0.341585L28.8806 5.00827L30.5303 6.65794L33.2055 3.98276V10.4998H35.5388ZM52.214 8.99128L53.8637 7.34161L49.197 2.67493C48.9782 2.45621 48.6816 2.33334 48.3722 2.33334C48.0628 2.33334 47.7661 2.45621 47.5474 2.67493L42.8807 7.34161L44.5303 8.99128L47.2055 6.31611V11.6665C47.2057 11.9112 47.2829 12.1497 47.4261 12.3482C47.5693 12.5467 47.7713 12.6951 48.0035 12.7725L57.7056 16.0076V25.6665H60.0389V15.1665C60.0387 14.9217 59.9616 14.6832 59.8183 14.4847C59.6751 14.2862 59.4731 14.1378 59.2409 14.0605L49.5389 10.8253V6.31611L52.214 8.99128Z" fill="black"/>
</g>
</svg>
