<svg width="51" height="50" viewBox="0 0 51 50" fill="none" xmlns="http://www.w3.org/2000/svg">
<g clip-path="url(#clip0_563_251)">
<path d="M2.88954 32.1063L7.21246 35.1833C9.42496 36.7563 12.0395 37.5583 14.6541 37.5583C16.5145 37.5583 18.377 37.1521 20.0958 36.3292L47.0812 24.4583C50.177 22.9792 51.525 19.2417 50.0833 16.125C48.6375 13.0063 44.927 11.6417 41.8 13.0729L35.252 15.9938L21.4625 7.48126C19.625 6.11459 17.1916 5.86876 15.1041 6.83334L13.477 7.59584C12.2041 8.19376 11.325 9.38126 11.125 10.7729C10.925 12.1667 11.4333 13.5542 12.4875 14.4875L21.2458 22.2375L13.7645 25.575L7.39579 23.2375C5.34579 22.4896 3.05413 23.1521 1.69788 24.8854C0.881209 25.9292 0.539543 27.2438 0.735376 28.5854C0.941626 29.9958 1.72496 31.2771 2.88746 32.1021L2.88954 32.1063ZM15.25 11.3688L16.8666 10.6104C17.5583 10.2896 18.3687 10.375 19.127 10.925L30.65 18.0458L25.4291 20.375L15.25 11.3688ZM4.98121 27.4563C5.18538 27.1958 5.44788 27.1042 5.67704 27.1042C5.78121 27.1042 13.1229 29.7813 13.1229 29.7813C13.6333 29.9688 14.1958 29.95 14.6895 29.7292L43.5083 16.8729L43.5354 16.8604C44.5791 16.3792 45.8187 16.8354 46.302 17.875C46.7895 18.9313 46.3354 20.1958 45.3437 20.6708L18.3583 32.5417C15.5312 33.8896 12.1833 33.6042 9.62704 31.7875L5.30413 28.7125C5.06663 28.5438 4.90204 28.2729 4.86038 27.9875C4.82913 27.775 4.87079 27.5979 4.98121 27.4563ZM50.6666 47.9167C50.6666 49.0688 49.7333 50 48.5833 50H2.74996C1.59996 50 0.666626 49.0688 0.666626 47.9167C0.666626 46.7646 1.59996 45.8333 2.74996 45.8333H48.5833C49.7333 45.8333 50.6666 46.7646 50.6666 47.9167Z" fill="#373737"/>
</g>
<defs>
<clipPath id="clip0_563_251">
<rect width="50" height="50" fill="white" transform="translate(0.666626)"/>
</clipPath>
</defs>
</svg>
