<svg width="68" height="70" viewBox="0 0 68 70" fill="none" xmlns="http://www.w3.org/2000/svg">
<g id="Group">
<path id="Vector" d="M21.726 43.0765C21.8674 43.1355 22.019 43.166 22.1723 43.1664C22.3255 43.1668 22.4773 43.137 22.619 43.0787C22.7607 43.0205 22.8895 42.9348 22.9981 42.8268C23.1067 42.7187 23.193 42.5903 23.2519 42.4488L24.897 38.4997H31.12L32.765 42.4488C33.013 43.0436 33.6963 43.3246 34.291 43.0766C34.8858 42.8286 35.1667 42.1453 34.9187 41.5506L29.0854 27.5506C28.9967 27.3381 28.8472 27.1565 28.6556 27.0288C28.464 26.9011 28.2389 26.833 28.0086 26.833C27.7783 26.833 27.5532 26.9011 27.3616 27.0288C27.17 27.1565 27.0205 27.3381 26.9318 27.5506L21.0985 41.5506C21.0395 41.692 21.0089 41.8436 21.0085 41.9968C21.0082 42.15 21.0379 42.3018 21.0962 42.4435C21.1545 42.5852 21.2401 42.714 21.3481 42.8226C21.4562 42.9312 21.5846 43.0175 21.726 43.0765ZM28.0085 31.033L30.147 36.1663H25.87L28.0085 31.033Z" fill="white"/>
<path id="Vector_2" fill-rule="evenodd" clip-rule="evenodd" d="M37.342 40.833C36.6976 40.833 36.1753 41.3553 36.1753 41.9997C36.1753 42.6441 36.6976 43.1664 37.342 43.1664H44.342C44.9864 43.1664 45.5087 42.6441 45.5087 41.9997C45.5087 41.3553 44.9864 40.833 44.342 40.833H42.0086V29.1664H44.342C44.9864 29.1664 45.5087 28.6441 45.5087 27.9997C45.5087 27.3553 44.9864 26.833 44.342 26.833H37.342C36.6976 26.833 36.1753 27.3553 36.1753 27.9997C36.1753 28.6441 36.6976 29.1664 37.342 29.1664H39.6754V40.833H37.342Z" fill="white"/>
<path id="Vector_3" d="M0.00842352 51.3333C0.00842352 53.9107 2.09781 56 4.67506 56C5.25961 55.9978 5.83843 55.8846 6.38071 55.6663C9.13869 57.778 13.0308 58.8793 17.814 58.8793C18.535 58.8793 19.2841 58.8455 20.0435 58.7965C23.4315 65.7195 28.3199 70 33.8417 70C39.3635 70 44.2518 65.7195 47.641 58.8C48.4017 58.849 49.1495 58.8828 49.8705 58.8828C54.6537 58.8828 58.5458 57.7814 61.3038 55.6698C61.846 55.8867 62.4244 55.9987 63.0083 56C65.0681 55.9941 66.8804 54.6386 67.4678 52.6642C68.0552 50.69 67.2789 48.5641 65.5574 47.4331C65.7207 43.6764 64.2682 39.4134 61.3119 34.9999C64.2682 30.5876 65.7208 26.3246 65.5574 22.5668C67.5743 21.2652 68.2712 18.6435 67.1667 16.5122C66.0623 14.3809 63.5184 13.4386 61.2921 14.3359C58.1222 11.9104 53.4416 10.8359 47.642 11.2139C44.2567 4.2852 39.366 0 33.8418 0C28.3176 0 23.4269 4.2852 20.0378 11.214C14.2406 10.8383 9.56226 11.914 6.38772 14.336C4.16273 13.4459 1.62544 14.3896 0.522818 16.5173C-0.5798 18.6451 0.112221 21.2623 2.12238 22.5669C1.9614 26.3224 3.41502 30.5853 6.37141 35.0001C3.41502 39.4135 1.9614 43.6766 2.12594 47.4332C1.47646 47.8559 0.942679 48.4339 0.572935 49.1149C0.20319 49.796 0.00916276 50.5584 0.00842352 51.3333ZM2.3418 51.3333C2.3418 50.0447 3.38643 49 4.67517 49C5.96392 49 7.00855 50.0446 7.00855 51.3333C7.00855 52.6221 5.96392 53.6667 4.67517 53.6667C4.05632 53.6667 3.46282 53.4209 3.02523 52.9833C2.58764 52.5457 2.3418 51.9522 2.3418 51.3333ZM21.4856 13.6734C24.5915 14.0453 27.6515 14.7321 30.6183 15.7232C28.53 16.6552 26.4908 17.6934 24.5085 18.8336C22.5193 19.9817 20.5923 21.2345 18.7358 22.5867C19.3475 19.53 20.2689 16.5434 21.4856 13.6734ZM48.9466 22.5867C47.0906 21.2343 45.1641 19.9815 43.1751 18.8336C41.1956 17.6947 39.1599 16.6566 37.0757 15.7232C40.0395 14.7326 43.0964 14.0458 46.1991 13.6734C47.4151 16.5435 48.3357 19.53 48.9466 22.5867ZM46.1979 56.3268C43.0921 55.9548 40.0321 55.268 37.0653 54.2769C39.1535 53.3449 41.1928 52.3067 43.1751 51.1665C45.1643 50.0184 47.0912 48.7656 48.9478 47.4134C48.3361 50.4702 47.4148 53.4567 46.1979 56.3268ZM42.0085 20.8554C44.6394 22.3695 47.1546 24.0763 49.5335 25.9619C49.9625 28.9555 50.1769 31.9759 50.1751 35.0001C50.1773 38.0242 49.9632 41.0446 49.5346 44.0382C47.1553 45.9237 44.6397 47.6306 42.0085 49.1448C39.3856 50.6618 36.6562 51.9867 33.8418 53.109C31.0272 51.9861 28.2978 50.6604 25.6751 49.1423C23.0442 47.6282 20.529 45.9214 18.1501 44.0358C17.2961 38.0406 17.2961 31.9547 18.1501 25.9595C20.5291 24.0748 23.0443 22.3688 25.6751 20.8552C28.3001 19.3371 31.0319 18.0114 33.8488 16.8886C36.661 18.0119 39.388 19.3377 42.0085 20.8554ZM52.1585 28.1669C54.4854 30.2269 56.5989 32.5162 58.4667 35.0001C56.6014 37.4835 54.4908 39.7728 52.1667 41.8332C52.3958 39.5627 52.5099 37.2821 52.5086 35.0001C52.5092 32.718 52.3944 30.4373 52.1644 28.1669H52.1585ZM15.5251 41.8332C13.1976 39.7738 11.0841 37.4844 9.21689 35.0001C11.0821 32.5166 13.1928 30.2273 15.5168 28.1669C15.0579 32.7108 15.0579 37.2893 15.5168 41.8332H15.5251ZM24.5154 51.1665C26.4948 52.3054 28.5305 53.3435 30.6148 54.2769C27.6509 55.2675 24.5941 55.9543 21.4914 56.3268C20.275 53.4566 19.354 50.4701 18.7427 47.4134C20.5968 48.7656 22.5214 50.0184 24.5084 51.1665H24.5154ZM33.8418 67.6667C29.4598 67.6667 25.4779 64.1912 22.5414 58.5539C26.408 58.0057 30.1994 57.0178 33.8418 55.6092C37.4856 57.0184 41.2785 58.0064 45.1468 58.5539C42.2045 64.1912 38.2238 67.6667 33.8418 67.6667ZM63.0085 53.6667C61.7199 53.6667 60.6752 52.6221 60.6752 51.3333C60.6752 50.0446 61.7198 49 63.0085 49C64.2973 49 65.3419 50.0446 65.3419 51.3333C65.3419 52.6221 64.2971 53.6667 63.0085 53.6667ZM63.2534 46.6912C63.1707 46.6912 63.0925 46.6667 63.0084 46.6667C60.431 46.6667 58.3418 48.7561 58.3418 51.3333C58.3461 52.3766 58.7035 53.3878 59.3556 54.2021C56.8147 55.8786 53.1057 56.6755 48.6631 56.5086C50.1096 52.895 51.1349 49.1267 51.7186 45.2783C54.7361 42.8485 57.467 40.0828 59.8584 37.0347C61.8283 39.8945 63.0002 43.2278 63.2534 46.6912ZM65.3418 18.6667C65.3418 19.9553 64.2971 21 63.0084 21C61.7197 21 60.675 19.9554 60.675 18.6667C60.675 17.3779 61.7197 16.3333 63.0084 16.3333C64.2971 16.3333 65.3418 17.378 65.3418 18.6667ZM59.3556 15.7979C58.7036 16.6123 58.3463 17.6234 58.3418 18.6667C58.3418 21.244 60.4312 23.3333 63.0084 23.3333C63.0925 23.3333 63.1705 23.3134 63.2534 23.3088C63.0005 26.7723 61.8286 30.1056 59.8584 32.9653C57.4667 29.9172 54.7354 27.1515 51.7175 24.7217C51.1329 20.8731 50.1064 17.1048 48.6584 13.4914C53.1047 13.3234 56.8158 14.1167 59.3556 15.7979ZM33.8418 2.33338C38.2238 2.33338 42.2056 5.80887 45.1422 11.4462C41.2775 11.9948 37.4882 12.9827 33.8476 14.3909C30.2038 12.9817 26.4109 11.9937 22.5427 11.4462C25.4791 5.80887 29.4598 2.33338 33.8418 2.33338ZM4.67506 16.3334C5.96369 16.3334 7.00843 17.378 7.00843 18.6668C7.00843 19.9555 5.9638 21.0001 4.67506 21.0001C3.38632 21.0001 2.34168 19.9555 2.34168 18.6668C2.34168 17.378 3.38643 16.3334 4.67506 16.3334ZM4.43015 23.3088C4.51293 23.3088 4.59113 23.3333 4.67517 23.3333C7.25254 23.3333 9.34181 21.2439 9.34181 18.6667C9.33745 17.6234 8.98011 16.6122 8.32795 15.7979C10.8678 14.1214 14.5766 13.3257 19.0205 13.4914C17.574 17.105 16.5488 20.8733 15.965 24.7217C12.9477 27.1514 10.2169 29.9167 7.82515 32.9642C5.85462 30.1051 4.68264 26.772 4.43015 23.3088ZM7.82515 37.0358C10.218 40.0831 12.9496 42.8483 15.9673 45.2783C16.5517 49.1272 17.5778 52.8959 19.0252 56.5098C14.5848 56.6778 10.8736 55.8786 8.33266 54.2021C8.98308 53.3871 9.33874 52.3761 9.34181 51.3333C9.34181 48.756 7.25243 46.6667 4.67517 46.6667C4.59113 46.6667 4.51305 46.6877 4.43015 46.6912C4.68307 43.2281 5.85501 39.8951 7.82515 37.0358Z" fill="white"/>
</g>
</svg>
