<svg width="70" height="70" viewBox="0 0 70 70" fill="none" xmlns="http://www.w3.org/2000/svg">
<g id="Group">
<g id="Out line">
<path id="Vector" d="M24.5 43.167V30.3337C24.5 30.0242 24.3771 29.7275 24.1583 29.5087C23.9395 29.2899 23.6428 29.167 23.3333 29.167H18.6667C18.3572 29.167 18.0605 29.2899 17.8417 29.5087C17.6229 29.7275 17.5 30.0242 17.5 30.3337V43.167H19.8333V31.5003H22.1667V43.167H24.5ZM43.1667 47.8337V31.5003C43.1667 31.1909 43.0438 30.8942 42.825 30.6754C42.6062 30.4566 42.3094 30.3337 42 30.3337H37.3333C37.0239 30.3337 36.7272 30.4566 36.5084 30.6754C36.2896 30.8942 36.1667 31.1909 36.1667 31.5003V47.8337H38.5V32.667H40.8333V47.8337H43.1667ZM33.8333 47.8337V26.8337C33.8333 26.5242 33.7104 26.2275 33.4916 26.0087C33.2728 25.7899 32.9761 25.667 32.6667 25.667H28C27.6906 25.667 27.3938 25.7899 27.175 26.0087C26.9562 26.2275 26.8333 26.5242 26.8333 26.8337V45.5003H29.1667V28.0003H31.5V47.8337H33.8333ZM52.5 38.5003V26.8337C52.5 26.5242 52.3771 26.2275 52.1583 26.0087C51.9395 25.7899 51.6427 25.667 51.3333 25.667H46.6667C46.3572 25.667 46.0605 25.7899 45.8417 26.0087C45.6229 26.2275 45.5 26.5242 45.5 26.8337V39.667H47.8333V28.0003H50.1667V38.5003H52.5ZM61.8333 37.3337V19.8337C61.8333 19.5242 61.7104 19.2275 61.4916 19.0087C61.2728 18.7899 60.9761 18.667 60.6667 18.667H56C55.6906 18.667 55.3938 18.7899 55.175 19.0087C54.9562 19.2275 54.8333 19.5242 54.8333 19.8337V37.3337H57.1667V21.0003H59.5V37.3337H61.8333Z" fill="#373737"/>
<path id="Vector_2" d="M17.8417 26.4916C18.0605 26.7104 18.3572 26.8333 18.6667 26.8333C18.9761 26.8333 19.2728 26.7104 19.4916 26.4916L29.122 16.8611L38.7995 27.6138C38.9055 27.7315 39.0343 27.8264 39.1781 27.8928C39.3219 27.9591 39.4777 27.9954 39.636 27.9996L39.6667 28C39.9761 28 40.2728 27.8771 40.4916 27.6583L56 12.15V15.1667C56 15.4761 56.1229 15.7728 56.3417 15.9916C56.5605 16.2104 56.8572 16.3333 57.1667 16.3333H61.8333C62.1427 16.3333 62.4395 16.2104 62.6583 15.9916C62.8771 15.7728 63 15.4761 63 15.1667V1.16667C63 0.857247 62.8771 0.560501 62.6583 0.341709C62.4395 0.122916 62.1427 0 61.8333 0H47.8333C47.5239 0 47.2272 0.122916 47.0084 0.341709C46.7896 0.560501 46.6667 0.857247 46.6667 1.16667V5.83333C46.6667 6.14275 46.7896 6.4395 47.0084 6.65829C47.2272 6.87708 47.5239 7 47.8333 7H50.8502L39.7113 18.1388L30.0338 7.38617C29.9278 7.26846 29.799 7.17355 29.6552 7.10722C29.5114 7.0409 29.3556 7.00455 29.1973 7.00039C29.039 6.99623 28.8815 7.02434 28.7344 7.08302C28.5873 7.14169 28.4537 7.2297 28.3417 7.34169L14.3417 21.3417C14.2333 21.45 14.1474 21.5786 14.0888 21.7202C14.0301 21.8617 14 22.0135 14 22.1667C14 22.3199 14.0301 22.4716 14.0888 22.6131C14.1474 22.7547 14.2333 22.8833 14.3417 22.9916L17.8417 26.4916ZM29.122 9.8611L38.7995 20.6138C38.9055 20.7315 39.0343 20.8265 39.1781 20.8928C39.3219 20.9591 39.4777 20.9955 39.636 20.9996C39.7943 21.0038 39.9519 20.9757 40.0989 20.917C40.246 20.8583 40.3797 20.7703 40.4916 20.6583L54.4916 6.65831C54.6548 6.49515 54.7659 6.28727 54.811 6.06095C54.856 5.83463 54.8329 5.60005 54.7446 5.38686C54.6563 5.17368 54.5067 4.99147 54.3148 4.86327C54.123 4.73508 53.8974 4.66666 53.6667 4.66667H49V2.33333H60.6667V14H58.3333V9.33333C58.3333 9.10258 58.2649 8.87701 58.1367 8.68515C58.0085 8.49328 57.8263 8.34374 57.6131 8.25543C57.3999 8.16713 57.1654 8.14402 56.939 8.18904C56.7127 8.23406 56.5048 8.34518 56.3417 8.50835L39.7113 25.1389L30.0338 14.3862C29.9278 14.2685 29.799 14.1736 29.6552 14.1072C29.5114 14.0409 29.3556 14.0046 29.1973 14.0004C29.1871 14.0001 29.1769 14 29.1667 14C28.8572 14 28.5605 14.1229 28.3417 14.3417L18.6667 24.0167L16.8165 22.1667L29.122 9.8611ZM10.5 68.8333V66.5H14C14.3094 66.5 14.6062 66.3771 14.825 66.1583C15.0437 65.9395 15.1667 65.6428 15.1667 65.3333V62.2767C20.7375 67.3903 28.0681 70.1548 35.6283 69.9931C43.1885 69.8314 50.3942 66.7561 55.7413 61.409L68.4916 48.6589C69.2626 47.8881 69.7249 46.8619 69.7917 45.7738C69.8584 44.6857 69.5249 43.6107 68.854 42.7515C68.1831 41.8922 67.221 41.308 66.1492 41.1089C65.0774 40.9098 63.9697 41.1096 63.035 41.6706C62.6367 41.0541 62.0951 40.5433 61.4565 40.1817C60.8179 39.8201 60.1012 39.6184 59.3677 39.5939C58.6342 39.5695 57.9057 39.7229 57.2444 40.0412C56.5831 40.3595 56.0087 40.8331 55.5702 41.4216L55.0756 42.0852C54.8226 41.8912 54.5518 41.7217 54.2668 41.5791C53.6632 41.2773 53.0049 41.1007 52.3314 41.0597C51.6579 41.0187 50.983 41.1143 50.3474 41.3406C49.7117 41.567 49.1284 41.9195 48.6324 42.377C48.1363 42.8345 47.7379 43.3875 47.461 44.0029L44.52 50.5384C43.9039 50.2926 43.2466 50.1664 42.5833 50.1667H28.4831L26.4916 48.175C25.0301 46.7176 23.1309 45.7799 21.0853 45.5056C19.0396 45.2313 16.9605 45.6356 15.1667 46.6565V45.5C15.1667 45.1906 15.0437 44.8938 14.825 44.675C14.6062 44.4562 14.3094 44.3333 14 44.3333H10.5V43.1667C10.5 42.8572 10.3771 42.5605 10.1583 42.3417C9.9395 42.1229 9.64275 42 9.33333 42H0V44.3333H8.16667V67.6667H0V70H9.33333C9.64275 70 9.9395 69.8771 10.1583 69.6583C10.3771 69.4395 10.5 69.1428 10.5 68.8333ZM60.3556 42.2406C60.7542 42.4802 61.067 42.8395 61.2493 43.2673L51.9925 52.5242C50.7535 53.765 49.3546 54.8352 47.8329 55.7064L57.441 42.8162C57.7681 42.3748 58.248 42.0713 58.787 41.9648C59.326 41.8584 59.8853 41.9567 60.3556 42.2406ZM49.5887 44.9604C49.7366 44.6318 49.9494 44.3365 50.2143 44.0922C50.4791 43.8479 50.7907 43.6596 51.1301 43.5387C51.4696 43.4178 51.83 43.3668 52.1896 43.3886C52.5493 43.4105 52.9009 43.5049 53.2232 43.666C53.3851 43.7473 53.5383 43.8447 53.6805 43.9568L47.1132 52.7676C46.9296 52.454 46.7141 52.1603 46.4701 51.891L49.5887 44.9604ZM24.8417 49.825L27.175 52.1583C27.2834 52.2666 27.412 52.3526 27.5535 52.4112C27.6951 52.4698 27.8468 52.5 28 52.5H42.5833C43.3569 52.5 44.0987 52.8073 44.6457 53.3543C45.1927 53.9012 45.5 54.6431 45.5 55.4167C45.5 56.1902 45.1927 56.9321 44.6457 57.4791C44.0987 58.026 43.3569 58.3333 42.5833 58.3333H28V60.6667H42.5833C43.3053 60.6669 44.0194 60.5178 44.681 60.2288C45.3425 59.9398 45.9371 59.5171 46.4275 58.9872C49.1276 57.8767 51.5801 56.2406 53.6425 54.1742L63.8248 43.9918C64.2258 43.596 64.7671 43.3749 65.3306 43.3768C65.894 43.3787 66.4338 43.6033 66.8322 44.0017C67.2306 44.4001 67.4552 44.94 67.457 45.5034C67.4589 46.0668 67.2378 46.6081 66.842 47.0091L54.0912 59.759C49.0278 64.8222 42.1605 67.6667 34.9999 67.6666C27.8393 67.6666 20.972 64.822 15.9087 59.7587L15.1667 59.0167V49.5074C16.5194 48.3246 18.2708 47.6995 20.0668 47.7584C21.8628 47.8174 23.5694 48.556 24.8417 49.825ZM12.8333 46.6667V64.1667H10.5V46.6667H12.8333Z" fill="#373737"/>
</g>
</g>
</svg>
