<svg xmlns="http://www.w3.org/2000/svg" width="70" height="71" viewBox="0 0 70 71" fill="none">
  <path d="M14.7448 65.1779L19.4511 69.8842C19.6628 70.0958 19.9498 70.2147 20.2491 70.2147C20.5483 70.2147 20.8354 70.0958 21.047 69.8842L23.8686 67.0627C24.0802 66.851 24.199 66.564 24.199 66.2647C24.199 65.9654 24.0802 65.6784 23.8686 65.4668L19.1622 60.7604C18.9466 60.5565 18.661 60.4429 18.3643 60.4429C18.0675 60.4429 17.782 60.5565 17.5663 60.7604L16.9546 61.3721L15.1962 59.6137C16.498 57.9062 17.1022 55.7679 16.8866 53.6316C16.6709 51.4953 15.6515 49.5208 14.0348 48.1079C12.4181 46.6951 10.3248 45.9494 8.1789 46.0219C6.033 46.0943 3.99484 46.9796 2.47714 48.4984C0.959432 50.0172 0.0756059 52.056 0.00463031 54.2019C-0.0663453 56.3479 0.680834 58.4406 2.09487 60.0563C3.5089 61.6721 5.48411 62.6901 7.62053 62.9042C9.75694 63.1183 11.8949 62.5126 13.6015 61.2096L15.3587 62.968L14.7448 63.582C14.5332 63.7936 14.4143 64.0806 14.4143 64.3799C14.4143 64.6792 14.5332 64.9662 14.7448 65.1779ZM18.3665 63.1463L21.477 66.2647L20.2491 67.4927L17.1386 64.3799L18.3665 63.1463ZM12.8622 58.87C11.9962 59.7351 10.8932 60.324 9.69249 60.5624C8.49182 60.8007 7.24745 60.6777 6.11665 60.209C4.98586 59.7403 4.01942 58.9468 3.33948 57.9289C2.65954 56.911 2.29664 55.7144 2.29664 54.4903C2.29664 53.2662 2.65954 52.0696 3.33948 51.0517C4.01942 50.0339 4.98586 49.2404 6.11665 48.7717C7.24745 48.3029 8.49182 48.18 9.69249 48.4183C10.8932 48.6566 11.9962 49.2456 12.8622 50.1107C13.4432 50.6831 13.9046 51.3654 14.2195 52.1177C14.5344 52.8701 14.6966 53.6775 14.6966 54.4932C14.6966 55.3088 14.5344 56.1162 14.2195 56.8686C13.9046 57.621 13.4432 58.3032 12.8622 58.8756V58.87ZM65.4855 54.4142H64.1244C64.951 53.7594 65.5533 52.8636 65.8478 51.851C66.1423 50.8385 66.1142 49.7593 65.7676 48.7634C65.421 47.7675 64.7729 46.9042 63.9134 46.2932C63.0539 45.6823 62.0255 45.3541 60.971 45.3541C59.9165 45.3541 58.8881 45.6823 58.0286 46.2932C57.1691 46.9042 56.521 47.7675 56.1744 48.7634C55.8278 49.7593 55.7997 50.8385 56.0942 51.851C56.3886 52.8636 56.991 53.7594 57.8176 54.4142H56.4565C55.2592 54.4142 54.1109 54.8898 53.2643 55.7364C52.4176 56.5831 51.942 57.7313 51.942 58.9286V69.0863C51.942 69.3856 52.0609 69.6727 52.2726 69.8843C52.4842 70.096 52.7713 70.2149 53.0706 70.2149H68.8714C69.1707 70.2149 69.4578 70.096 69.6694 69.8843C69.8811 69.6727 70 69.3856 70 69.0863V58.9286C70 57.7313 69.5244 56.5831 68.6777 55.7364C67.8311 54.8898 66.6828 54.4142 65.4855 54.4142ZM60.971 47.6424C61.5291 47.6424 62.0746 47.8079 62.5386 48.1179C63.0026 48.428 63.3642 48.8686 63.5778 49.3842C63.7913 49.8998 63.8472 50.4671 63.7383 51.0144C63.6295 51.5617 63.3607 52.0645 62.9661 52.4591C62.5715 52.8537 62.0688 53.1224 61.5215 53.2313C60.9741 53.3402 60.4068 53.2843 59.8912 53.0707C59.3757 52.8572 58.935 52.4955 58.625 52.0315C58.3149 51.5675 58.1494 51.022 58.1494 50.464C58.1494 49.7156 58.4467 48.998 58.9758 48.4688C59.505 47.9397 60.2227 47.6424 60.971 47.6424ZM67.7428 67.9577H54.1992V58.9286C54.1992 58.33 54.4371 57.7558 54.8604 57.3325C55.2837 56.9092 55.8578 56.6714 56.4565 56.6714H65.4855C66.0842 56.6714 66.6583 56.9092 67.0816 57.3325C67.5049 57.7558 67.7428 58.33 67.7428 58.9286V67.9577ZM13.8859 14.8604C10.2905 18.5781 7.74134 23.1799 6.49648 28.1998C5.25163 33.2196 5.3553 38.4793 6.79699 43.4462L8.96169 42.8096C7.63313 38.2258 7.53882 33.3724 8.68829 28.7404C9.83776 24.1085 12.1902 19.8623 15.5077 16.4314L13.8859 14.8604ZM49.099 60.9907L48.0133 59.0122C44.0168 61.1994 39.5346 62.3466 34.9788 62.3484C32.4245 62.3532 29.8826 61.9926 27.4305 61.2773L26.794 63.4432C29.4528 64.2193 32.209 64.6108 34.9788 64.6056C39.9142 64.6039 44.7699 63.3608 49.099 60.9907ZM63.4653 42.2747C64.0375 39.9809 64.3256 37.6255 64.323 35.2614C64.3404 27.6836 61.4059 20.3969 56.1416 14.9461L54.5141 16.5115C59.3731 21.5421 62.0818 28.2674 62.0658 35.2614C62.0679 37.4398 61.8025 39.6102 61.2757 41.7239L63.4653 42.2747ZM28.567 47.5205L29.1144 47.209C29.7684 47.6862 30.4778 48.0822 31.2272 48.3884V48.9245C31.2341 49.4884 31.4643 50.0265 31.8673 50.4209C32.2704 50.8153 32.8134 51.0337 33.3772 51.0283H36.6503C37.2141 51.0337 37.7571 50.8153 38.1602 50.4209C38.5632 50.0265 38.7934 49.4884 38.8003 48.9245V48.3873C39.5434 48.0936 40.2384 47.6903 40.8623 47.1909L41.4605 47.5205C41.9502 47.7886 42.524 47.859 43.064 47.7173C43.604 47.5756 44.0693 47.2326 44.3644 46.7587L46.002 44.05C46.1465 43.8117 46.241 43.5466 46.2798 43.2707C46.3186 42.9948 46.3009 42.7139 46.2278 42.4451C46.1542 42.1706 46.0254 41.914 45.8495 41.6908C45.6735 41.4677 45.4539 41.2827 45.2041 41.1472L44.703 40.8706C44.7997 40.1213 44.7997 39.3627 44.703 38.6134L45.2052 38.3358C45.455 38.2002 45.6746 38.0152 45.8506 37.7921C46.0266 37.569 46.1553 37.3123 46.2289 37.0378C46.3022 36.7688 46.3201 36.4877 46.2812 36.2116C46.2424 35.9355 46.1478 35.6702 46.0032 35.4318L44.3678 32.7231C44.0734 32.248 43.608 31.904 43.0675 31.7621C42.5269 31.6201 41.9525 31.691 41.4627 31.9602L40.9153 32.2717C40.2614 31.7945 39.5519 31.3984 38.8025 31.0922V30.5561C38.7948 29.9921 38.5636 29.4541 38.1597 29.0604C37.7557 28.6666 37.2121 28.4491 36.648 28.4558H33.375C32.8121 28.4519 32.2705 28.6709 31.8687 29.0652C31.4669 29.4594 31.2374 29.9967 31.2306 30.5595V31.0968C30.4875 31.3905 29.7924 31.7937 29.1686 32.2931L28.5704 31.9635C28.0807 31.6955 27.5069 31.6251 26.9669 31.7667C26.4269 31.9084 25.9616 32.2514 25.6665 32.7254L24.0288 35.4341C23.8844 35.6723 23.7899 35.9374 23.7511 36.2133C23.7123 36.4892 23.73 36.7701 23.8031 37.039C23.8767 37.3135 24.0054 37.5701 24.1814 37.7932C24.3574 38.0164 24.577 38.2013 24.8268 38.3369L25.329 38.6145C25.2323 39.3638 25.2323 40.1225 25.329 40.8718L24.8268 41.1494C24.577 41.285 24.3574 41.4699 24.1814 41.6931C24.0054 41.9162 23.8767 42.1728 23.8031 42.4473C23.7298 42.7163 23.712 42.9975 23.7508 43.2736C23.7896 43.5497 23.8842 43.815 24.0288 44.0534L25.6642 46.7621C25.9598 47.2351 26.4252 47.5772 26.9649 47.7183C27.5046 47.8593 28.0778 47.7885 28.567 47.5205ZM27.5073 39.742C27.5073 39.4221 27.5307 39.1026 27.5772 38.7861C27.6308 38.3686 27.5568 37.9448 27.3648 37.5702C27.1728 37.1957 26.8719 36.8881 26.5017 36.688L26.0502 36.4419L27.54 33.977L28.0716 34.2693C28.4423 34.4684 28.8619 34.5579 29.2815 34.5276C29.7012 34.4972 30.1035 34.3481 30.4417 34.0978C30.9545 33.7215 31.5127 33.4114 32.103 33.1746C32.5029 33.0238 32.848 32.756 33.0932 32.406C33.3385 32.0561 33.4725 31.6403 33.4777 31.213V30.713H36.534V31.213C36.5393 31.6401 36.6732 32.0557 36.9182 32.4056C37.1632 32.7556 37.508 33.0235 37.9075 33.1746C38.5006 33.4114 39.0614 33.7219 39.5768 34.0989C39.9148 34.3496 40.3171 34.4989 40.7368 34.5295C41.1564 34.5601 41.5761 34.4706 41.9469 34.2716L42.4785 33.9793L43.9683 36.4442L43.5168 36.6902C43.1461 36.8901 42.8447 37.1978 42.6527 37.5726C42.4606 37.9475 42.3869 38.3718 42.4412 38.7895C42.4895 39.1047 42.5151 39.4231 42.518 39.742C42.518 40.062 42.4946 40.3815 42.448 40.698C42.3944 41.1154 42.4685 41.5393 42.6605 41.9138C42.8524 42.2883 43.1534 42.5959 43.5236 42.7961L43.975 43.0421L42.4852 45.507L41.9537 45.2147C41.583 45.0158 41.1633 44.9263 40.7437 44.9567C40.3241 44.9871 39.9218 45.136 39.5835 45.3863C39.0707 45.7625 38.5125 46.0727 37.9222 46.3095C37.5224 46.4602 37.1773 46.7281 36.932 47.078C36.6868 47.428 36.5528 47.8438 36.5475 48.271V48.771H33.4845V48.271C33.4792 47.8439 33.3453 47.4283 33.1003 47.0784C32.8553 46.7285 32.5105 46.4605 32.1109 46.3095C31.5203 46.0722 30.9617 45.7616 30.4485 45.3852C30.1105 45.1345 29.7082 44.9851 29.2885 44.9546C28.8688 44.924 28.4491 45.0134 28.0783 45.2125L27.5468 45.5048L26.057 43.0399L26.5084 42.7938C26.8792 42.594 27.1805 42.2862 27.3725 41.9114C27.5646 41.5366 27.6383 41.1122 27.584 40.6946C27.5358 40.3793 27.5101 40.061 27.5073 39.742Z" fill="#373737"/>
  <path d="M35.0127 44.2568C35.9056 44.2568 36.7784 43.992 37.5208 43.4959C38.2632 42.9999 38.8418 42.2948 39.1835 41.4699C39.5252 40.645 39.6146 39.7373 39.4404 38.8615C39.2662 37.9858 38.8363 37.1814 38.2049 36.55C37.5735 35.9187 36.7691 35.4887 35.8934 35.3145C35.0177 35.1403 34.11 35.2297 33.2851 35.5714C32.4601 35.9131 31.7551 36.4917 31.259 37.2341C30.7629 37.9765 30.4982 38.8494 30.4982 39.7423C30.4982 40.9396 30.9738 42.0879 31.8204 42.9345C32.6671 43.7811 33.8154 44.2568 35.0127 44.2568ZM35.0127 37.485C35.4591 37.485 35.8955 37.6174 36.2667 37.8654C36.6379 38.1135 36.9273 38.466 37.0981 38.8785C37.269 39.2909 37.3137 39.7448 37.2266 40.1826C37.1395 40.6205 36.9245 41.0227 36.6088 41.3384C36.2931 41.6541 35.8909 41.869 35.453 41.9561C35.0152 42.0432 34.5613 41.9985 34.1489 41.8277C33.7364 41.6568 33.3839 41.3675 33.1358 40.9963C32.8878 40.6251 32.7554 40.1887 32.7554 39.7423C32.7554 39.1436 32.9932 38.5695 33.4166 38.1461C33.8399 37.7228 34.414 37.485 35.0127 37.485ZM15.826 4.75488H21.4692V7.01213H15.826V4.75488ZM18.0833 9.26938H23.7264V11.5266H18.0833V9.26938Z" fill="#373737"/>
  <path d="M46.0519 4.04935C45.9461 3.91722 45.8119 3.81058 45.6594 3.73731C45.5068 3.66405 45.3397 3.62605 45.1704 3.62611H39.5273V1.36886C39.5273 1.06953 39.4084 0.782459 39.1967 0.570801C38.9851 0.359143 38.698 0.240234 38.3987 0.240234H20.3407C20.0413 0.240234 19.7543 0.359143 19.5426 0.570801C19.3309 0.782459 19.212 1.06953 19.212 1.36886V3.62611H21.4693V2.49749H37.27V19.4269H30.2906C30.0608 18.7671 29.6313 18.1953 29.0618 17.7906C28.4923 17.386 27.811 17.1685 27.1124 17.1685C26.4138 17.1685 25.7325 17.386 25.163 17.7906C24.5935 18.1953 24.164 18.7671 23.9342 19.4269H21.4693V12.6551H19.212V20.5555C19.212 20.8548 19.3309 21.1419 19.5426 21.3536C19.7543 21.5652 20.0413 21.6841 20.3407 21.6841H23.9342C24.164 22.3438 24.5935 22.9157 25.163 23.3204C25.7325 23.725 26.4138 23.9424 27.1124 23.9424C27.811 23.9424 28.4923 23.725 29.0618 23.3204C29.6313 22.9157 30.0608 22.3438 30.2906 21.6841H40.8636C41.0934 22.3438 41.5229 22.9157 42.0924 23.3204C42.6619 23.725 43.3432 23.9424 44.0418 23.9424C44.7404 23.9424 45.4217 23.725 45.9912 23.3204C46.5607 22.9157 46.9902 22.3438 47.22 21.6841H49.6849C49.9842 21.6841 50.2713 21.5652 50.483 21.3536C50.6946 21.1419 50.8135 20.8548 50.8135 20.5555V10.3979C50.8137 10.1415 50.7265 9.8927 50.5664 9.69247L46.0519 4.04935ZM27.1124 21.6841C26.8892 21.6841 26.671 21.6179 26.4854 21.4939C26.2998 21.3699 26.1551 21.1936 26.0697 20.9874C25.9843 20.7812 25.9619 20.5542 26.0055 20.3353C26.049 20.1164 26.1565 19.9153 26.3144 19.7574C26.4722 19.5996 26.6733 19.4921 26.8922 19.4486C27.1112 19.405 27.3381 19.4274 27.5443 19.5128C27.7505 19.5982 27.9268 19.7429 28.0508 19.9285C28.1748 20.1141 28.241 20.3323 28.241 20.5555C28.241 20.8548 28.1221 21.1419 27.9105 21.3536C27.6988 21.5652 27.4117 21.6841 27.1124 21.6841ZM42.9132 5.88336H44.6287L47.3374 9.26924H42.9132V5.88336ZM44.0418 21.6841C43.8186 21.6841 43.6004 21.6179 43.4148 21.4939C43.2292 21.3699 43.0845 21.1936 42.9991 20.9874C42.9137 20.7812 42.8913 20.5542 42.9349 20.3353C42.9784 20.1164 43.0859 19.9153 43.2437 19.7574C43.4016 19.5996 43.6027 19.4921 43.8216 19.4486C44.0405 19.405 44.2675 19.4274 44.4737 19.5128C44.6799 19.5982 44.8562 19.7429 44.9802 19.9285C45.1042 20.1141 45.1704 20.3323 45.1704 20.5555C45.1704 20.8548 45.0515 21.1419 44.8399 21.3536C44.6282 21.5652 44.3411 21.6841 44.0418 21.6841ZM48.5563 19.4269H47.22C46.9902 18.7671 46.5607 18.1953 45.9912 17.7906C45.4217 17.386 44.7404 17.1685 44.0418 17.1685C43.3432 17.1685 42.6619 17.386 42.0924 17.7906C41.5229 18.1953 41.0934 18.7671 40.8636 19.4269H39.5273V5.88336H40.6559V10.3979C40.6559 10.6972 40.7748 10.9843 40.9865 11.1959C41.1981 11.4076 41.4852 11.5265 41.7845 11.5265H48.5563V19.4269Z" fill="#373737"/>
</svg>