<svg width="34" height="34" viewBox="0 0 34 34" fill="none" xmlns="http://www.w3.org/2000/svg">
<path d="M0.905029 33.1652L3.15092 24.9661C1.76537 22.5669 1.03675 19.8441 1.03758 17.0555C1.04175 8.33121 8.14123 1.2334 16.8664 1.2334C21.1005 1.23507 25.0738 2.88322 28.0625 5.87357C31.0503 8.86476 32.696 12.8397 32.6943 17.068C32.691 25.7923 25.5898 32.891 16.8664 32.891H16.8597C14.2111 32.8901 11.6076 32.2257 9.29586 30.9644L0.905029 33.1652Z" fill="white"/>
<path d="M0.905115 33.5824C0.795071 33.5824 0.688362 33.539 0.609164 33.459C0.504956 33.3531 0.464107 33.1989 0.503289 33.0564L2.70333 25.0232C1.33945 22.6005 0.620002 19.8494 0.621669 17.0567C0.625004 8.10145 7.91206 0.816895 16.8664 0.816895C21.2098 0.818562 25.2906 2.51007 28.3577 5.57962C31.4247 8.65 33.1129 12.73 33.1112 17.0683C33.1079 26.0227 25.82 33.3081 16.8664 33.3081C14.2079 33.3073 11.5777 32.6512 9.24342 31.4099L1.01099 33.5682C0.975976 33.5782 0.940963 33.5824 0.905115 33.5824Z" fill="white"/>
<path d="M16.8665 1.23357C21.1007 1.23523 25.0739 2.88339 28.0626 5.87374C31.0505 8.86493 32.6961 12.8398 32.6945 17.0682C32.6911 25.7925 25.59 32.8911 16.8665 32.8911H16.8598C14.2113 32.8903 11.6078 32.2259 9.296 30.9645L0.905174 33.1654L3.15107 24.9663C1.76552 22.567 1.03689 19.8443 1.03773 17.0557C1.04189 8.33138 8.14138 1.23357 16.8665 1.23357ZM16.8665 0.399902C7.68286 0.399902 0.208231 7.8712 0.204063 17.0557C0.203229 19.8626 0.911843 22.6287 2.25571 25.0772L0.100688 32.9462C0.0223239 33.2338 0.102356 33.5406 0.312439 33.7523C0.470835 33.9124 0.685087 33.9999 0.905174 33.9999C0.976036 33.9999 1.0469 33.9907 1.11693 33.9724L9.19263 31.8549C11.5502 33.0787 14.1929 33.7248 16.8598 33.7256C26.0502 33.7256 33.5248 26.2535 33.529 17.069C33.5306 12.6181 31.7991 8.43309 28.6537 5.28517C25.5066 2.13642 21.3208 0.40157 16.8665 0.399902Z" fill="#CFD8DC"/>
<path d="M26.1717 7.76278C23.6874 5.27679 20.3853 3.90708 16.8705 3.90625C9.61432 3.90625 3.71281 9.80526 3.70947 17.0565C3.70864 19.5416 4.40392 21.9609 5.72111 24.0559L6.03456 24.5536L4.70487 29.4064L9.68434 28.1008L10.1654 28.386C12.1845 29.5848 14.5004 30.2184 16.8614 30.2192H16.8664C24.1176 30.2192 30.0191 24.3193 30.0216 17.0673C30.0224 13.5534 28.656 10.2488 26.1717 7.76278Z" fill="#40C351"/>
<path fill-rule="evenodd" clip-rule="evenodd" d="M12.9098 10.4413C12.6139 9.78273 12.3021 9.76939 12.0195 9.75772C11.7886 9.74772 11.5251 9.74855 11.2617 9.74855C10.9983 9.74855 10.5697 9.84776 10.2071 10.2437C9.84446 10.6397 8.82239 11.596 8.82239 13.5417C8.82239 15.4875 10.2396 17.3682 10.4372 17.6317C10.6348 17.8951 13.1733 22.0159 17.1932 23.6015C20.5337 24.9187 21.214 24.657 21.9393 24.5911C22.6645 24.5252 24.2794 23.6349 24.6087 22.7112C24.9379 21.7875 24.9379 20.9963 24.8396 20.8313C24.7404 20.6662 24.4769 20.5678 24.0818 20.3694C23.6866 20.171 21.7417 19.2148 21.379 19.0831C21.0164 18.9514 20.753 18.8855 20.4887 19.2815C20.2252 19.6767 19.4674 20.5678 19.2365 20.8313C19.0056 21.0956 18.7747 21.1289 18.3795 20.9305C17.9844 20.7321 16.7105 20.3152 15.1991 18.968C14.0236 17.9201 13.23 16.6254 12.999 16.2295C12.7681 15.8343 12.974 15.62 13.1724 15.4225C13.35 15.2449 13.5676 14.9606 13.766 14.7297C13.9636 14.4988 14.0295 14.3337 14.1612 14.0703C14.2929 13.806 14.227 13.5751 14.1278 13.3775C14.0303 13.1791 13.2616 11.2233 12.9098 10.4413Z" fill="white"/>
</svg>
