<svg width="50" height="51" viewBox="0 0 50 51" fill="none" xmlns="http://www.w3.org/2000/svg">
<g clip-path="url(#clip0_291_242)">
<path d="M31.4667 11.0828C32.6854 9.86409 32.6854 7.88284 31.4667 6.66409L27.2104 2.40784C25.9917 1.18909 24.0104 1.18909 22.7917 2.40784L18.5354 6.66409C17.3167 7.88284 17.3167 9.86409 18.5354 11.0828C18.5354 11.0828 22.875 15.4203 22.9188 15.4578V19.5933C19.9104 20.4912 17.7104 23.2849 17.7104 26.5808C17.7104 29.8766 19.9104 32.6703 22.9188 33.5683V37.5183C20.6208 37.5183 18.7521 39.387 18.7521 41.6849V45.8516C18.7521 48.1495 20.6208 50.0183 22.9188 50.0183H27.0854C29.3833 50.0183 31.2521 48.1495 31.2521 45.8516V41.6849C31.2521 39.387 29.3833 37.5183 27.0854 37.5183V33.5683C30.0938 32.6703 32.2938 29.8766 32.2938 26.5808C32.2938 23.2849 30.0938 20.4912 27.0854 19.5933V15.4578C27.1292 15.4203 31.4667 11.0828 31.4667 11.0828ZM27.0833 45.8516H22.9167V41.6849H27.0833V45.8516ZM22.2167 8.87242L25 6.08909L27.7833 8.87242L25 11.6558L22.2167 8.87242ZM28.125 26.5808C28.125 28.3037 26.7229 29.7058 25 29.7058C23.2771 29.7058 21.875 28.3037 21.875 26.5808C21.875 24.8578 23.2771 23.4558 25 23.4558C26.7229 23.4558 28.125 24.8578 28.125 26.5808ZM50 13.5599V19.8099C50 23.8308 46.7292 27.1016 42.7083 27.1016H39.5833L41.2354 28.7537C42.05 29.5683 42.05 30.8849 41.2354 31.6995C40.8292 32.1058 40.2958 32.3099 39.7625 32.3099C39.2292 32.3099 38.6958 32.1058 38.2896 31.6995L34.5542 27.9641C32.9292 26.3391 32.9292 23.6974 34.5542 22.0724L38.2896 18.337C39.1042 17.5224 40.4208 17.5224 41.2354 18.337C42.05 19.1516 42.05 20.4683 41.2354 21.2828L39.5833 22.9349H42.7083C44.4312 22.9349 45.8333 21.5328 45.8333 19.8099V13.5599C45.8333 11.837 44.4312 10.4349 42.7083 10.4349H37.5C36.35 10.4349 35.4167 9.50159 35.4167 8.35159C35.4167 7.20159 36.35 6.26825 37.5 6.26825H42.7083C46.7292 6.26825 50 9.53909 50 13.5599ZM15.4458 38.7391C17.0708 40.362 17.0708 43.0078 15.4458 44.6308L11.7104 48.3662C11.3042 48.7724 10.7708 48.9766 10.2375 48.9766C9.70417 48.9766 9.17083 48.7724 8.76458 48.3662C7.95 47.5516 7.95 46.2349 8.76458 45.4203L10.4167 43.7683H7.29167C3.27083 43.7683 0 40.4974 0 36.4766V30.2266C0 26.2058 3.27083 22.9349 7.29167 22.9349H12.5C13.65 22.9349 14.5833 23.8683 14.5833 25.0183C14.5833 26.1683 13.65 27.1016 12.5 27.1016H7.29167C5.56875 27.1016 4.16667 28.5037 4.16667 30.2266V36.4766C4.16667 38.1995 5.56875 39.6016 7.29167 39.6016H10.4167L8.76458 37.9495C7.95 37.1349 7.95 35.8182 8.76458 35.0037C9.57917 34.1891 10.8958 34.1891 11.7104 35.0037L15.4458 38.7391Z" fill="#373737"/>
</g>
<defs>
<clipPath id="clip0_291_242">
<rect width="50" height="50" fill="white" transform="translate(0 0.0183105)"/>
</clipPath>
</defs>
</svg>
